%TF.GenerationSoftware,KiCad,Pcbnew,9.0.2*%
%TF.CreationDate,2025-11-15T13:58:40-05:00*%
%TF.ProjectId,power,706f7765-722e-46b6-9963-61645f706362,rev?*%
%TF.SameCoordinates,Original*%
%TF.FileFunction,Soldermask,Top*%
%TF.FilePolarity,Negative*%
%FSLAX46Y46*%
G04 Gerber Fmt 4.6, Leading zero omitted, Abs format (unit mm)*
G04 Created by KiCad (PCBNEW 9.0.2) date 2025-11-15 13:58:40*
%MOMM*%
%LPD*%
G01*
G04 APERTURE LIST*
G04 Aperture macros list*
%AMRoundRect*
0 Rectangle with rounded corners*
0 $1 Rounding radius*
0 $2 $3 $4 $5 $6 $7 $8 $9 X,Y pos of 4 corners*
0 Add a 4 corners polygon primitive as box body*
4,1,4,$2,$3,$4,$5,$6,$7,$8,$9,$2,$3,0*
0 Add four circle primitives for the rounded corners*
1,1,$1+$1,$2,$3*
1,1,$1+$1,$4,$5*
1,1,$1+$1,$6,$7*
1,1,$1+$1,$8,$9*
0 Add four rect primitives between the rounded corners*
20,1,$1+$1,$2,$3,$4,$5,0*
20,1,$1+$1,$4,$5,$6,$7,0*
20,1,$1+$1,$6,$7,$8,$9,0*
20,1,$1+$1,$8,$9,$2,$3,0*%
G04 Aperture macros list end*
%ADD10C,0.000000*%
%ADD11RoundRect,0.200000X-0.275000X0.200000X-0.275000X-0.200000X0.275000X-0.200000X0.275000X0.200000X0*%
%ADD12R,2.500000X2.500000*%
%ADD13RoundRect,0.225000X0.250000X-0.225000X0.250000X0.225000X-0.250000X0.225000X-0.250000X-0.225000X0*%
%ADD14RoundRect,0.200000X0.275000X-0.200000X0.275000X0.200000X-0.275000X0.200000X-0.275000X-0.200000X0*%
%ADD15R,1.400000X1.400000*%
%ADD16C,1.400000*%
%ADD17O,2.750000X2.100000*%
%ADD18R,1.700000X1.700000*%
%ADD19C,1.700000*%
%ADD20RoundRect,0.225000X-0.250000X0.225000X-0.250000X-0.225000X0.250000X-0.225000X0.250000X0.225000X0*%
%ADD21R,0.249999X0.599999*%
%ADD22R,0.599999X0.249999*%
%ADD23R,1.699999X0.249999*%
%ADD24R,2.107849X0.433617*%
%ADD25R,0.265454X0.577140*%
%ADD26R,2.100001X0.399999*%
%ADD27RoundRect,0.218750X-0.256250X0.218750X-0.256250X-0.218750X0.256250X-0.218750X0.256250X0.218750X0*%
%ADD28RoundRect,0.225000X-0.225000X-0.250000X0.225000X-0.250000X0.225000X0.250000X-0.225000X0.250000X0*%
%ADD29RoundRect,0.200000X-0.200000X-0.275000X0.200000X-0.275000X0.200000X0.275000X-0.200000X0.275000X0*%
%ADD30RoundRect,0.225000X0.225000X0.250000X-0.225000X0.250000X-0.225000X-0.250000X0.225000X-0.250000X0*%
%ADD31C,3.200000*%
%ADD32RoundRect,0.250000X-0.550000X-0.550000X0.550000X-0.550000X0.550000X0.550000X-0.550000X0.550000X0*%
%ADD33C,1.600000*%
%ADD34RoundRect,0.200000X0.200000X0.275000X-0.200000X0.275000X-0.200000X-0.275000X0.200000X-0.275000X0*%
%ADD35RoundRect,0.102000X0.765000X-0.765000X0.765000X0.765000X-0.765000X0.765000X-0.765000X-0.765000X0*%
%ADD36C,1.734000*%
%ADD37C,2.032000*%
%ADD38RoundRect,0.150000X0.150000X-0.512500X0.150000X0.512500X-0.150000X0.512500X-0.150000X-0.512500X0*%
%ADD39RoundRect,0.102000X-0.850000X-2.800000X0.850000X-2.800000X0.850000X2.800000X-0.850000X2.800000X0*%
%ADD40C,2.108200*%
%ADD41C,2.362200*%
%ADD42C,2.616200*%
%ADD43C,1.295400*%
%ADD44C,1.397000*%
%ADD45RoundRect,0.250001X0.949999X-0.949999X0.949999X0.949999X-0.949999X0.949999X-0.949999X-0.949999X0*%
%ADD46C,2.400000*%
%ADD47RoundRect,0.150000X-0.512500X-0.150000X0.512500X-0.150000X0.512500X0.150000X-0.512500X0.150000X0*%
%ADD48RoundRect,0.250001X-0.949999X-0.949999X0.949999X-0.949999X0.949999X0.949999X-0.949999X0.949999X0*%
%ADD49RoundRect,0.102000X0.700000X-1.050000X0.700000X1.050000X-0.700000X1.050000X-0.700000X-1.050000X0*%
%ADD50RoundRect,0.125000X-0.625000X-0.125000X0.625000X-0.125000X0.625000X0.125000X-0.625000X0.125000X0*%
%ADD51RoundRect,0.125000X-0.125000X-0.625000X0.125000X-0.625000X0.125000X0.625000X-0.125000X0.625000X0*%
%ADD52R,1.500000X2.500000*%
%ADD53O,1.500000X2.500000*%
%ADD54O,4.000000X3.000000*%
G04 APERTURE END LIST*
D10*
%TO.C,U3*%
G36*
X202504999Y-96190001D02*
G01*
X202504999Y-96700000D01*
X202754998Y-96700000D01*
X202754998Y-96190001D01*
X202804998Y-96140001D01*
X202954998Y-96140001D01*
X203004998Y-96190001D01*
X203004998Y-96700000D01*
X203255000Y-96700000D01*
X203255000Y-96190001D01*
X203305000Y-96140001D01*
X203455000Y-96140001D01*
X203505000Y-96190001D01*
X203505000Y-96700000D01*
X203529998Y-96700000D01*
X203529998Y-97049999D01*
X203479998Y-97099999D01*
X201480000Y-97099999D01*
X201430000Y-97049999D01*
X201430000Y-96750000D01*
X201480000Y-96700000D01*
X202205000Y-96700000D01*
X202254999Y-96650000D01*
X202254999Y-96190001D01*
X202304999Y-96140001D01*
X202454999Y-96140001D01*
X202504999Y-96190001D01*
G37*
%TO.C,G1*%
G36*
X136310299Y-129292170D02*
G01*
X136419550Y-129297179D01*
X136524507Y-129306008D01*
X136629278Y-129319032D01*
X136737974Y-129336623D01*
X136775773Y-129343563D01*
X136822203Y-129352936D01*
X136870823Y-129363854D01*
X136920074Y-129375859D01*
X136968402Y-129388493D01*
X137014248Y-129401299D01*
X137056058Y-129413819D01*
X137092273Y-129425597D01*
X137121338Y-129436173D01*
X137141695Y-129445091D01*
X137151789Y-129451893D01*
X137152520Y-129454307D01*
X137150572Y-129462203D01*
X137146277Y-129481105D01*
X137139960Y-129509511D01*
X137131944Y-129545922D01*
X137122556Y-129588837D01*
X137112117Y-129636754D01*
X137100953Y-129688172D01*
X137089387Y-129741592D01*
X137077745Y-129795511D01*
X137066350Y-129848430D01*
X137055525Y-129898848D01*
X137045597Y-129945263D01*
X137036888Y-129986174D01*
X137029722Y-130020082D01*
X137024425Y-130045485D01*
X137021320Y-130060882D01*
X137020623Y-130064933D01*
X137026544Y-130067718D01*
X137042219Y-130070219D01*
X137064515Y-130071972D01*
X137069495Y-130072191D01*
X137118367Y-130074073D01*
X137502362Y-130836851D01*
X137560234Y-130951729D01*
X137612591Y-131055489D01*
X137659653Y-131148553D01*
X137701640Y-131231342D01*
X137738770Y-131304281D01*
X137771261Y-131367792D01*
X137799334Y-131422296D01*
X137823207Y-131468217D01*
X137843100Y-131505978D01*
X137859231Y-131536000D01*
X137871819Y-131558707D01*
X137881084Y-131574521D01*
X137887244Y-131583864D01*
X137890519Y-131587159D01*
X137891103Y-131586800D01*
X137893135Y-131578671D01*
X137897628Y-131558885D01*
X137904379Y-131528394D01*
X137913186Y-131488149D01*
X137923844Y-131439103D01*
X137936152Y-131382206D01*
X137949906Y-131318410D01*
X137964903Y-131248668D01*
X137980940Y-131173930D01*
X137997814Y-131095148D01*
X138015323Y-131013275D01*
X138033263Y-130929261D01*
X138051431Y-130844058D01*
X138069624Y-130758618D01*
X138087639Y-130673892D01*
X138105273Y-130590833D01*
X138122323Y-130510391D01*
X138138587Y-130433519D01*
X138153861Y-130361167D01*
X138167942Y-130294289D01*
X138180627Y-130233835D01*
X138191713Y-130180756D01*
X138200997Y-130136005D01*
X138208277Y-130100534D01*
X138210700Y-130088571D01*
X138214269Y-130070852D01*
X138674168Y-130070852D01*
X138762207Y-130070861D01*
X138838238Y-130070905D01*
X138903141Y-130071006D01*
X138957794Y-130071188D01*
X139003078Y-130071474D01*
X139039871Y-130071887D01*
X139069052Y-130072449D01*
X139091502Y-130073185D01*
X139108098Y-130074117D01*
X139119721Y-130075269D01*
X139127250Y-130076662D01*
X139131563Y-130078322D01*
X139133541Y-130080270D01*
X139134061Y-130082530D01*
X139134068Y-130082948D01*
X139132763Y-130090746D01*
X139128959Y-130110335D01*
X139122827Y-130140893D01*
X139114537Y-130181604D01*
X139104257Y-130231649D01*
X139092157Y-130290208D01*
X139078408Y-130356465D01*
X139063178Y-130429599D01*
X139046638Y-130508792D01*
X139028956Y-130593227D01*
X139010302Y-130682084D01*
X138990847Y-130774545D01*
X138986209Y-130796557D01*
X138964044Y-130901698D01*
X138940876Y-131011566D01*
X138916867Y-131125393D01*
X138892178Y-131242410D01*
X138866974Y-131361847D01*
X138841416Y-131482935D01*
X138815667Y-131604905D01*
X138789890Y-131726987D01*
X138764247Y-131848414D01*
X138738900Y-131968414D01*
X138714012Y-132086219D01*
X138689746Y-132201060D01*
X138666264Y-132312167D01*
X138643730Y-132418772D01*
X138622304Y-132520104D01*
X138602150Y-132615396D01*
X138583431Y-132703876D01*
X138566309Y-132784777D01*
X138550946Y-132857329D01*
X138537505Y-132920763D01*
X138526150Y-132974310D01*
X138517041Y-133017199D01*
X138510342Y-133048663D01*
X138507789Y-133060603D01*
X138486392Y-133160476D01*
X138106009Y-133162138D01*
X137725626Y-133163799D01*
X137352184Y-132422029D01*
X137296361Y-132311158D01*
X137246039Y-132211239D01*
X137200930Y-132121711D01*
X137160746Y-132042011D01*
X137125199Y-131971578D01*
X137094000Y-131909851D01*
X137066862Y-131856267D01*
X137043497Y-131810265D01*
X137023617Y-131771284D01*
X137006934Y-131738762D01*
X136993160Y-131712137D01*
X136982007Y-131690847D01*
X136973186Y-131674332D01*
X136966411Y-131662028D01*
X136961393Y-131653376D01*
X136957844Y-131647812D01*
X136955477Y-131644776D01*
X136954002Y-131643706D01*
X136953225Y-131643933D01*
X136951442Y-131650623D01*
X136947143Y-131669273D01*
X136940468Y-131699231D01*
X136931557Y-131739846D01*
X136920550Y-131790466D01*
X136907585Y-131850442D01*
X136892804Y-131919121D01*
X136876344Y-131995852D01*
X136858346Y-132079984D01*
X136838950Y-132170866D01*
X136818294Y-132267847D01*
X136796519Y-132370276D01*
X136773764Y-132477501D01*
X136750169Y-132588872D01*
X136725873Y-132703737D01*
X136714459Y-132757762D01*
X136699947Y-132826400D01*
X136686159Y-132891465D01*
X136673336Y-132951833D01*
X136661717Y-133006376D01*
X136651544Y-133053971D01*
X136643057Y-133093492D01*
X136636497Y-133123812D01*
X136632104Y-133143808D01*
X136630119Y-133152353D01*
X136630099Y-133152422D01*
X136628862Y-133154591D01*
X136625959Y-133156463D01*
X136620506Y-133158061D01*
X136611618Y-133159405D01*
X136598410Y-133160518D01*
X136579998Y-133161422D01*
X136555496Y-133162137D01*
X136524021Y-133162686D01*
X136484687Y-133163090D01*
X136436609Y-133163371D01*
X136378904Y-133163550D01*
X136310686Y-133163650D01*
X136231070Y-133163692D01*
X136169656Y-133163698D01*
X136080638Y-133163669D01*
X136003670Y-133163572D01*
X135937916Y-133163389D01*
X135882540Y-133163104D01*
X135836705Y-133162699D01*
X135799574Y-133162159D01*
X135770312Y-133161465D01*
X135748082Y-133160602D01*
X135732048Y-133159553D01*
X135721373Y-133158299D01*
X135715220Y-133156826D01*
X135712754Y-133155115D01*
X135712607Y-133154491D01*
X135713900Y-133146628D01*
X135717620Y-133127326D01*
X135723526Y-133097751D01*
X135731381Y-133059074D01*
X135740944Y-133012462D01*
X135751976Y-132959083D01*
X135752970Y-132954302D01*
X135952318Y-132954302D01*
X135953266Y-132956914D01*
X135956866Y-132959007D01*
X135964274Y-132960637D01*
X135976643Y-132961863D01*
X135995128Y-132962742D01*
X136020884Y-132963331D01*
X136055065Y-132963690D01*
X136098825Y-132963874D01*
X136153319Y-132963942D01*
X136209997Y-132963952D01*
X136470483Y-132963952D01*
X136572683Y-132479083D01*
X136588993Y-132401738D01*
X136604583Y-132327871D01*
X136619243Y-132258480D01*
X136632761Y-132194562D01*
X136644925Y-132137114D01*
X136655524Y-132087133D01*
X136664348Y-132045616D01*
X136671184Y-132013560D01*
X136675821Y-131991962D01*
X136678049Y-131981819D01*
X136678167Y-131981329D01*
X136675794Y-131979863D01*
X136666619Y-131986830D01*
X136652245Y-132000891D01*
X136643463Y-132010324D01*
X136559470Y-132095586D01*
X136471567Y-132169919D01*
X136377288Y-132235199D01*
X136274171Y-132293302D01*
X136267032Y-132296911D01*
X136240750Y-132309487D01*
X136210193Y-132323138D01*
X136177950Y-132336820D01*
X136146609Y-132349491D01*
X136118761Y-132360110D01*
X136096995Y-132367634D01*
X136083900Y-132371020D01*
X136082682Y-132371110D01*
X136079944Y-132377233D01*
X136074907Y-132394785D01*
X136067853Y-132422568D01*
X136059062Y-132459384D01*
X136048818Y-132504037D01*
X136037400Y-132555328D01*
X136025091Y-132612060D01*
X136016022Y-132654715D01*
X136003565Y-132713717D01*
X135991840Y-132769129D01*
X135981130Y-132819616D01*
X135971720Y-132863840D01*
X135963895Y-132900466D01*
X135957939Y-132928159D01*
X135954137Y-132945582D01*
X135952868Y-132951112D01*
X135952318Y-132954302D01*
X135752970Y-132954302D01*
X135764238Y-132900106D01*
X135777490Y-132836699D01*
X135786706Y-132792782D01*
X135800477Y-132727138D01*
X135813417Y-132665195D01*
X135825288Y-132608115D01*
X135835849Y-132557059D01*
X135844862Y-132513191D01*
X135852089Y-132477670D01*
X135857289Y-132451659D01*
X135860225Y-132436321D01*
X135860806Y-132432597D01*
X135857685Y-132429156D01*
X135847057Y-132428477D01*
X135827020Y-132430595D01*
X135807648Y-132433553D01*
X135725324Y-132444655D01*
X135633024Y-132453085D01*
X135533387Y-132458805D01*
X135429050Y-132461780D01*
X135322652Y-132461971D01*
X135216831Y-132459343D01*
X135114226Y-132453857D01*
X135017476Y-132445478D01*
X135010273Y-132444704D01*
X134873695Y-132425555D01*
X134742285Y-132398640D01*
X134617705Y-132364400D01*
X134501616Y-132323272D01*
X134425225Y-132290115D01*
X134394668Y-132275483D01*
X134374102Y-132264851D01*
X134361749Y-132256966D01*
X134355832Y-132250577D01*
X134354573Y-132244430D01*
X134355201Y-132240781D01*
X134357660Y-132229924D01*
X134362384Y-132208216D01*
X134369095Y-132176974D01*
X134377222Y-132138898D01*
X134580533Y-132138898D01*
X134580548Y-132141490D01*
X134587807Y-132146626D01*
X134605357Y-132154313D01*
X134631026Y-132163818D01*
X134662643Y-132174406D01*
X134698039Y-132185342D01*
X134735041Y-132195891D01*
X134762835Y-132203182D01*
X134812379Y-132214216D01*
X134872161Y-132225196D01*
X134939535Y-132235752D01*
X135011857Y-132245516D01*
X135086482Y-132254119D01*
X135160765Y-132261190D01*
X135200354Y-132264280D01*
X135214849Y-132264800D01*
X135240329Y-132265160D01*
X135274894Y-132265356D01*
X135316645Y-132265385D01*
X135363680Y-132265242D01*
X135414099Y-132264924D01*
X135432318Y-132264769D01*
X135502215Y-132263870D01*
X135560729Y-132262510D01*
X135609357Y-132260619D01*
X135649596Y-132258128D01*
X135682943Y-132254969D01*
X135702942Y-132252330D01*
X135814099Y-132233572D01*
X135914206Y-132212025D01*
X136004916Y-132187057D01*
X136087884Y-132158035D01*
X136164766Y-132124327D01*
X136237215Y-132085298D01*
X136306886Y-132040317D01*
X136359976Y-132000997D01*
X136427409Y-131942455D01*
X136490657Y-131876090D01*
X136547273Y-131804834D01*
X136594811Y-131731618D01*
X136613286Y-131697433D01*
X136630371Y-131659233D01*
X136647907Y-131612543D01*
X136664511Y-131561625D01*
X136678795Y-131510745D01*
X136689374Y-131464167D01*
X136689777Y-131462052D01*
X136695296Y-131423830D01*
X136699153Y-131378646D01*
X136701348Y-131329463D01*
X136701882Y-131279241D01*
X136700756Y-131230944D01*
X136697972Y-131187533D01*
X136693530Y-131151971D01*
X136689660Y-131134128D01*
X136665013Y-131066809D01*
X136630015Y-131004964D01*
X136584255Y-130948163D01*
X136527318Y-130895974D01*
X136458794Y-130847969D01*
X136378268Y-130803718D01*
X136367454Y-130798484D01*
X136332309Y-130782255D01*
X136296600Y-130767010D01*
X136258416Y-130752068D01*
X136215846Y-130736747D01*
X136166980Y-130720365D01*
X136109905Y-130702241D01*
X136042711Y-130681693D01*
X136025720Y-130676581D01*
X135942218Y-130651225D01*
X135870066Y-130628617D01*
X135808126Y-130608323D01*
X135796860Y-130604398D01*
X136450419Y-130604398D01*
X136455211Y-130611669D01*
X136466802Y-130620472D01*
X136487110Y-130632436D01*
X136501243Y-130640174D01*
X136577141Y-130685515D01*
X136647137Y-130735897D01*
X136709380Y-130789754D01*
X136762015Y-130845518D01*
X136794266Y-130887934D01*
X136808651Y-130910636D01*
X136823982Y-130937295D01*
X136838808Y-130965065D01*
X136851679Y-130991099D01*
X136861145Y-131012552D01*
X136865756Y-131026579D01*
X136865981Y-131028670D01*
X136870162Y-131039280D01*
X136875499Y-131045964D01*
X136879783Y-131053053D01*
X136889397Y-131070804D01*
X136903903Y-131098359D01*
X136922859Y-131134857D01*
X136945824Y-131179441D01*
X136972360Y-131231250D01*
X137002024Y-131289425D01*
X137034376Y-131353108D01*
X137068977Y-131421437D01*
X137105385Y-131493555D01*
X137130879Y-131544179D01*
X137176055Y-131633959D01*
X137225437Y-131732073D01*
X137277850Y-131836187D01*
X137332119Y-131943967D01*
X137387069Y-132053081D01*
X137441525Y-132161194D01*
X137494311Y-132265972D01*
X137544252Y-132365083D01*
X137590172Y-132456192D01*
X137611457Y-132498414D01*
X137846174Y-132963952D01*
X138086873Y-132963952D01*
X138327572Y-132963952D01*
X138334873Y-132930124D01*
X138338046Y-132915282D01*
X138343624Y-132889042D01*
X138351455Y-132852112D01*
X138361391Y-132805203D01*
X138373280Y-132749024D01*
X138386974Y-132684286D01*
X138402323Y-132611697D01*
X138419176Y-132531968D01*
X138437384Y-132445808D01*
X138456798Y-132353927D01*
X138477267Y-132257035D01*
X138498641Y-132155841D01*
X138520772Y-132051055D01*
X138543508Y-131943388D01*
X138566700Y-131833547D01*
X138590199Y-131722245D01*
X138613854Y-131610189D01*
X138637515Y-131498090D01*
X138661034Y-131386658D01*
X138684260Y-131276602D01*
X138707043Y-131168633D01*
X138729233Y-131063459D01*
X138750681Y-130961790D01*
X138771237Y-130864337D01*
X138790751Y-130771808D01*
X138809073Y-130684915D01*
X138826053Y-130604365D01*
X138841542Y-130530870D01*
X138855390Y-130465139D01*
X138867447Y-130407881D01*
X138877562Y-130359807D01*
X138885588Y-130321626D01*
X138891372Y-130294047D01*
X138894767Y-130277782D01*
X138895661Y-130273381D01*
X138889444Y-130272778D01*
X138871697Y-130272219D01*
X138843776Y-130271719D01*
X138807038Y-130271294D01*
X138762840Y-130270958D01*
X138712538Y-130270724D01*
X138657489Y-130270608D01*
X138635137Y-130270598D01*
X138570185Y-130270629D01*
X138516943Y-130270755D01*
X138474235Y-130271026D01*
X138440885Y-130271492D01*
X138415714Y-130272205D01*
X138397548Y-130273214D01*
X138385210Y-130274569D01*
X138377522Y-130276320D01*
X138373308Y-130278519D01*
X138371393Y-130281215D01*
X138371165Y-130281874D01*
X138369464Y-130289378D01*
X138365267Y-130308791D01*
X138358721Y-130339409D01*
X138349975Y-130380528D01*
X138339178Y-130431446D01*
X138326478Y-130491458D01*
X138312023Y-130559861D01*
X138295963Y-130635951D01*
X138278446Y-130719025D01*
X138259620Y-130808379D01*
X138239634Y-130903309D01*
X138218637Y-131003113D01*
X138196777Y-131107086D01*
X138174202Y-131214524D01*
X138170811Y-131230669D01*
X138148128Y-131338591D01*
X138126114Y-131443166D01*
X138104921Y-131543692D01*
X138084698Y-131639461D01*
X138065596Y-131729769D01*
X138047763Y-131813912D01*
X138031350Y-131891183D01*
X138016508Y-131960879D01*
X138003385Y-132022294D01*
X137992132Y-132074723D01*
X137982899Y-132117461D01*
X137975836Y-132149804D01*
X137971093Y-132171045D01*
X137968820Y-132180481D01*
X137968704Y-132180827D01*
X137967435Y-132181352D01*
X137964925Y-132179174D01*
X137960968Y-132173889D01*
X137955358Y-132165096D01*
X137947890Y-132152393D01*
X137938357Y-132135375D01*
X137926555Y-132113642D01*
X137912278Y-132086789D01*
X137895319Y-132054416D01*
X137875473Y-132016118D01*
X137852535Y-131971494D01*
X137826298Y-131920141D01*
X137796557Y-131861656D01*
X137763107Y-131795638D01*
X137725741Y-131721682D01*
X137684253Y-131639387D01*
X137638439Y-131548351D01*
X137588092Y-131448170D01*
X137533007Y-131338441D01*
X137472977Y-131218764D01*
X137407798Y-131088734D01*
X137337263Y-130947949D01*
X137266682Y-130807020D01*
X136998071Y-130270611D01*
X136758054Y-130270604D01*
X136703874Y-130270687D01*
X136653972Y-130270924D01*
X136609761Y-130271298D01*
X136572654Y-130271788D01*
X136544064Y-130272377D01*
X136525404Y-130273044D01*
X136518089Y-130273771D01*
X136518036Y-130273840D01*
X136516775Y-130280658D01*
X136513281Y-130298021D01*
X136507983Y-130323870D01*
X136501313Y-130356140D01*
X136493702Y-130392772D01*
X136485579Y-130431703D01*
X136477377Y-130470870D01*
X136469526Y-130508212D01*
X136462457Y-130541668D01*
X136456600Y-130569174D01*
X136452387Y-130588670D01*
X136450509Y-130597029D01*
X136450419Y-130604398D01*
X135796860Y-130604398D01*
X135755259Y-130589904D01*
X135710327Y-130572925D01*
X135672194Y-130556950D01*
X135639720Y-130541542D01*
X135611769Y-130526266D01*
X135587203Y-130510684D01*
X135580050Y-130505690D01*
X135536094Y-130468554D01*
X135503920Y-130427623D01*
X135482602Y-130381240D01*
X135471214Y-130327745D01*
X135469445Y-130307723D01*
X135470379Y-130274909D01*
X135662654Y-130274909D01*
X135664715Y-130307122D01*
X135676696Y-130332136D01*
X135684821Y-130340426D01*
X135707326Y-130355536D01*
X135740523Y-130372690D01*
X135782542Y-130391050D01*
X135831514Y-130409776D01*
X135865462Y-130421506D01*
X135898726Y-130432357D01*
X135937607Y-130444722D01*
X135980378Y-130458083D01*
X136025311Y-130471922D01*
X136070676Y-130485720D01*
X136114746Y-130498961D01*
X136155792Y-130511124D01*
X136192086Y-130521693D01*
X136221899Y-130530150D01*
X136243502Y-130535976D01*
X136255168Y-130538654D01*
X136256611Y-130538745D01*
X136259287Y-130532314D01*
X136264237Y-130514695D01*
X136271121Y-130487317D01*
X136279599Y-130451611D01*
X136289331Y-130409006D01*
X136299976Y-130360933D01*
X136310276Y-130313143D01*
X136321186Y-130261216D01*
X136330981Y-130213307D01*
X136339387Y-130170865D01*
X136346128Y-130135338D01*
X136350928Y-130108177D01*
X136353512Y-130090828D01*
X136353697Y-130084783D01*
X136345696Y-130083122D01*
X136326689Y-130081873D01*
X136298547Y-130081016D01*
X136263145Y-130080530D01*
X136222355Y-130080396D01*
X136178050Y-130080594D01*
X136132104Y-130081103D01*
X136086388Y-130081905D01*
X136042776Y-130082978D01*
X136003141Y-130084303D01*
X135969355Y-130085860D01*
X135943293Y-130087629D01*
X135928462Y-130089309D01*
X135863404Y-130101271D01*
X135809955Y-130114725D01*
X135766860Y-130130387D01*
X135732864Y-130148971D01*
X135706713Y-130171193D01*
X135687152Y-130197770D01*
X135672927Y-130229416D01*
X135670630Y-130236357D01*
X135662654Y-130274909D01*
X135470379Y-130274909D01*
X135471286Y-130243026D01*
X135484165Y-130179912D01*
X135507132Y-130120247D01*
X135539238Y-130065896D01*
X135579532Y-130018723D01*
X135627066Y-129980594D01*
X135640058Y-129972642D01*
X135665083Y-129960388D01*
X135698756Y-129946861D01*
X135737110Y-129933422D01*
X135776179Y-129921433D01*
X135811997Y-129912256D01*
X135822145Y-129910132D01*
X135883920Y-129900309D01*
X135955393Y-129892670D01*
X136033546Y-129887303D01*
X136115363Y-129884294D01*
X136197826Y-129883730D01*
X136277918Y-129885698D01*
X136352622Y-129890284D01*
X136389167Y-129893824D01*
X136436827Y-129900084D01*
X136490092Y-129908679D01*
X136546634Y-129919093D01*
X136604124Y-129930809D01*
X136660233Y-129943312D01*
X136712634Y-129956085D01*
X136758997Y-129968611D01*
X136796994Y-129980375D01*
X136821906Y-129989792D01*
X136832066Y-129989750D01*
X136836194Y-129982720D01*
X136838482Y-129973499D01*
X136842998Y-129953859D01*
X136849337Y-129925657D01*
X136857094Y-129890754D01*
X136865863Y-129851007D01*
X136875239Y-129808277D01*
X136884815Y-129764421D01*
X136894187Y-129721299D01*
X136902948Y-129680769D01*
X136910694Y-129644691D01*
X136917018Y-129614923D01*
X136921516Y-129593325D01*
X136923781Y-129581754D01*
X136923972Y-129580382D01*
X136917892Y-129576422D01*
X136900784Y-129570787D01*
X136874347Y-129563832D01*
X136840278Y-129555911D01*
X136800277Y-129547380D01*
X136756041Y-129538593D01*
X136709269Y-129529904D01*
X136661659Y-129521668D01*
X136614910Y-129514240D01*
X136589414Y-129510520D01*
X136491439Y-129499041D01*
X136386946Y-129490961D01*
X136279052Y-129486311D01*
X136170874Y-129485122D01*
X136065528Y-129487426D01*
X135966130Y-129493253D01*
X135875797Y-129502634D01*
X135870471Y-129503346D01*
X135737446Y-129526399D01*
X135613887Y-129558180D01*
X135499767Y-129598701D01*
X135395061Y-129647973D01*
X135299743Y-129706009D01*
X135213787Y-129772818D01*
X135170924Y-129812877D01*
X135106084Y-129884579D01*
X135051147Y-129960943D01*
X135005494Y-130043241D01*
X134968504Y-130132743D01*
X134939557Y-130230724D01*
X134919641Y-130328589D01*
X134914782Y-130369347D01*
X134912272Y-130416148D01*
X134912061Y-130465015D01*
X134914100Y-130511972D01*
X134918339Y-130553045D01*
X134922707Y-130576661D01*
X134942838Y-130639038D01*
X134972430Y-130695500D01*
X135012341Y-130747178D01*
X135063429Y-130795205D01*
X135118971Y-130835782D01*
X135148701Y-130854587D01*
X135179491Y-130872329D01*
X135212642Y-130889545D01*
X135249451Y-130906772D01*
X135291218Y-130924546D01*
X135339243Y-130943403D01*
X135394823Y-130963879D01*
X135459259Y-130986511D01*
X135533849Y-131011835D01*
X135593404Y-131031650D01*
X135674840Y-131058807D01*
X135745041Y-131082799D01*
X135805128Y-131104116D01*
X135856223Y-131123249D01*
X135899449Y-131140688D01*
X135935926Y-131156924D01*
X135966778Y-131172446D01*
X135993126Y-131187746D01*
X136016091Y-131203314D01*
X136036796Y-131219640D01*
X136049926Y-131231213D01*
X136079008Y-131260708D01*
X136100999Y-131290609D01*
X136116680Y-131319133D01*
X136128030Y-131343118D01*
X136135320Y-131362523D01*
X136139604Y-131381880D01*
X136141936Y-131405722D01*
X136143176Y-131433050D01*
X136142354Y-131490635D01*
X136134752Y-131542617D01*
X136119332Y-131593822D01*
X136098000Y-131643048D01*
X136072273Y-131688649D01*
X136041541Y-131728407D01*
X136004947Y-131762676D01*
X135961631Y-131791811D01*
X135910735Y-131816167D01*
X135851400Y-131836098D01*
X135782768Y-131851957D01*
X135703981Y-131864101D01*
X135614179Y-131872883D01*
X135528969Y-131877950D01*
X135409153Y-131878759D01*
X135282712Y-131870987D01*
X135152239Y-131855058D01*
X135020327Y-131831395D01*
X134889571Y-131800423D01*
X134762564Y-131762564D01*
X134709043Y-131744017D01*
X134687046Y-131736511D01*
X134670620Y-131731792D01*
X134662658Y-131730664D01*
X134662328Y-131731010D01*
X134661040Y-131738047D01*
X134657388Y-131756150D01*
X134651692Y-131783780D01*
X134644273Y-131819397D01*
X134635449Y-131861464D01*
X134625542Y-131908441D01*
X134620020Y-131934527D01*
X134609744Y-131983641D01*
X134600545Y-132028831D01*
X134592726Y-132068523D01*
X134586584Y-132101147D01*
X134582419Y-132125129D01*
X134580533Y-132138898D01*
X134377222Y-132138898D01*
X134377517Y-132137517D01*
X134387372Y-132091161D01*
X134398383Y-132039223D01*
X134410272Y-131983021D01*
X134422763Y-131923871D01*
X134435578Y-131863091D01*
X134448439Y-131801997D01*
X134461069Y-131741908D01*
X134473191Y-131684140D01*
X134484527Y-131630011D01*
X134494801Y-131580837D01*
X134503735Y-131537936D01*
X134511052Y-131502625D01*
X134516473Y-131476221D01*
X134519723Y-131460041D01*
X134520573Y-131455336D01*
X134520894Y-131453388D01*
X134522848Y-131452707D01*
X134527916Y-131453887D01*
X134537581Y-131457525D01*
X134553326Y-131464217D01*
X134576634Y-131474560D01*
X134608987Y-131489150D01*
X134642998Y-131504560D01*
X134763209Y-131553795D01*
X134891378Y-131596545D01*
X135023791Y-131631790D01*
X135156734Y-131658507D01*
X135251862Y-131672026D01*
X135293109Y-131675740D01*
X135342955Y-131678552D01*
X135398435Y-131680444D01*
X135456588Y-131681397D01*
X135514450Y-131681393D01*
X135569058Y-131680413D01*
X135617449Y-131678439D01*
X135656660Y-131675452D01*
X135664281Y-131674594D01*
X135710442Y-131667644D01*
X135756002Y-131658406D01*
X135798097Y-131647637D01*
X135833863Y-131636092D01*
X135860435Y-131624527D01*
X135865788Y-131621419D01*
X135897384Y-131594218D01*
X135922721Y-131557471D01*
X135940475Y-131513540D01*
X135948392Y-131474265D01*
X135950124Y-131453158D01*
X135949611Y-131433996D01*
X135946118Y-131416367D01*
X135938913Y-131399858D01*
X135927262Y-131384057D01*
X135910433Y-131368550D01*
X135887693Y-131352927D01*
X135858307Y-131336773D01*
X135821544Y-131319676D01*
X135776670Y-131301224D01*
X135722952Y-131281005D01*
X135659656Y-131258605D01*
X135586051Y-131233612D01*
X135501402Y-131205614D01*
X135429096Y-131182027D01*
X135326236Y-131146907D01*
X135234981Y-131112000D01*
X135154079Y-131076659D01*
X135082279Y-131040237D01*
X135018327Y-131002085D01*
X134960971Y-130961557D01*
X134908959Y-130918004D01*
X134896975Y-130906881D01*
X134842229Y-130848471D01*
X134798068Y-130786360D01*
X134763883Y-130719158D01*
X134739069Y-130645478D01*
X134723018Y-130563931D01*
X134716144Y-130493203D01*
X134715940Y-130407275D01*
X134724731Y-130315577D01*
X134741810Y-130220820D01*
X134766469Y-130125712D01*
X134797999Y-130032964D01*
X134835694Y-129945287D01*
X134878844Y-129865388D01*
X134881175Y-129861575D01*
X134945176Y-129769746D01*
X135019647Y-129684833D01*
X135103881Y-129607339D01*
X135197173Y-129537765D01*
X135298815Y-129476615D01*
X135408100Y-129424389D01*
X135524323Y-129381591D01*
X135579695Y-129365269D01*
X135669739Y-129342489D01*
X135756792Y-129324329D01*
X135843663Y-129310447D01*
X135933159Y-129300501D01*
X136028089Y-129294150D01*
X136131260Y-129291051D01*
X136192643Y-129290609D01*
X136310299Y-129292170D01*
G37*
%TD*%
D11*
%TO.C,R5*%
X206250000Y-101425000D03*
X206250000Y-103075000D03*
%TD*%
D12*
%TO.C,TP_12V_OCD1*%
X208750000Y-86500000D03*
%TD*%
D13*
%TO.C,C16*%
X244500000Y-73525000D03*
X244500000Y-71975000D03*
%TD*%
D14*
%TO.C,R20*%
X135000000Y-101000000D03*
X135000000Y-99350000D03*
%TD*%
D11*
%TO.C,R15*%
X157750000Y-104962500D03*
X157750000Y-106612500D03*
%TD*%
D15*
%TO.C,U4*%
X228060000Y-110870000D03*
D16*
X226790000Y-108965000D03*
X225520000Y-110870000D03*
X224250000Y-108965000D03*
X222980000Y-110870000D03*
X221710000Y-108965000D03*
X220440000Y-110870000D03*
D17*
X219350000Y-99135000D03*
X219350000Y-96035000D03*
X219350000Y-92935000D03*
X229150000Y-92935000D03*
X229150000Y-96035000D03*
X229150000Y-99135000D03*
%TD*%
D18*
%TO.C,J3*%
X244900000Y-99960000D03*
D19*
X244900000Y-102500000D03*
%TD*%
D11*
%TO.C,R25*%
X143750000Y-99425000D03*
X143750000Y-101075000D03*
%TD*%
D12*
%TO.C,TP_5V_VDETECT1*%
X166500000Y-111000000D03*
%TD*%
D14*
%TO.C,R24*%
X142000000Y-101075000D03*
X142000000Y-99425000D03*
%TD*%
D20*
%TO.C,C28*%
X167750000Y-101725000D03*
X167750000Y-103275000D03*
%TD*%
D21*
%TO.C,U3*%
X202379998Y-99250000D03*
X202879999Y-99250000D03*
X203379999Y-99250000D03*
X203880000Y-99250000D03*
D22*
X204529999Y-98780001D03*
D23*
X203980000Y-97480001D03*
D22*
X204529999Y-96979999D03*
D24*
X202476075Y-96895668D03*
D25*
X202875252Y-96425650D03*
X203383950Y-96421088D03*
X202375257Y-96417668D03*
D26*
X202479998Y-98060000D03*
D22*
X201729999Y-98780001D03*
%TD*%
D27*
%TO.C,D3*%
X135000000Y-102675000D03*
X135000000Y-104250000D03*
%TD*%
D20*
%TO.C,C30*%
X184500000Y-89975000D03*
X184500000Y-91525000D03*
%TD*%
D14*
%TO.C,R18*%
X138500000Y-101075000D03*
X138500000Y-99425000D03*
%TD*%
D12*
%TO.C,TP_12V_VDETECT1*%
X154500000Y-109000000D03*
%TD*%
D11*
%TO.C,R8*%
X200250000Y-101425000D03*
X200250000Y-103075000D03*
%TD*%
D28*
%TO.C,C14*%
X241219193Y-68010000D03*
X242769193Y-68010000D03*
%TD*%
D20*
%TO.C,C23*%
X200250000Y-96475000D03*
X200250000Y-98025000D03*
%TD*%
D12*
%TO.C,TP_5V_OCD1*%
X232750000Y-112000000D03*
%TD*%
D29*
%TO.C,R12*%
X171175000Y-100250000D03*
X172825000Y-100250000D03*
%TD*%
D12*
%TO.C,TP_5V_PG1*%
X211500000Y-110250000D03*
%TD*%
D13*
%TO.C,C29*%
X158250000Y-93150000D03*
X158250000Y-91600000D03*
%TD*%
D29*
%TO.C,R9*%
X154425000Y-102250000D03*
X156075000Y-102250000D03*
%TD*%
D20*
%TO.C,C6*%
X115540000Y-67950000D03*
X115540000Y-69500000D03*
%TD*%
D12*
%TO.C,TP5V_CURRENT_VOUT1*%
X203250000Y-111500000D03*
%TD*%
D29*
%TO.C,R7*%
X201675000Y-101500000D03*
X203325000Y-101500000D03*
%TD*%
D30*
%TO.C,C27*%
X165275000Y-103500000D03*
X163725000Y-103500000D03*
%TD*%
D31*
%TO.C,H1*%
X87450000Y-44600000D03*
%TD*%
D18*
%TO.C,J9*%
X146130000Y-91850000D03*
D19*
X143590000Y-91850000D03*
X141050000Y-91850000D03*
X138510000Y-91850000D03*
X135970000Y-91850000D03*
%TD*%
D18*
%TO.C,J8*%
X237920000Y-111000000D03*
D19*
X240460000Y-111000000D03*
X243000000Y-111000000D03*
%TD*%
D11*
%TO.C,R3*%
X178750000Y-64425000D03*
X178750000Y-66075000D03*
%TD*%
%TO.C,R2*%
X178750000Y-67850000D03*
X178750000Y-69500000D03*
%TD*%
D32*
%TO.C,C5*%
X97347349Y-89850000D03*
D33*
X100847349Y-89850000D03*
%TD*%
D30*
%TO.C,C33*%
X171387500Y-103800000D03*
X169837500Y-103800000D03*
%TD*%
D28*
%TO.C,C15*%
X241219193Y-65500000D03*
X242769193Y-65500000D03*
%TD*%
D14*
%TO.C,R22*%
X147000000Y-101000000D03*
X147000000Y-99350000D03*
%TD*%
D34*
%TO.C,R1*%
X199075000Y-88000000D03*
X197425000Y-88000000D03*
%TD*%
D14*
%TO.C,R21*%
X148750000Y-101037500D03*
X148750000Y-99387500D03*
%TD*%
D12*
%TO.C,TP_1V25_1*%
X198250000Y-111500000D03*
%TD*%
D34*
%TO.C,R6*%
X225825000Y-113000000D03*
X224175000Y-113000000D03*
%TD*%
D30*
%TO.C,C20*%
X203275000Y-103000000D03*
X201725000Y-103000000D03*
%TD*%
D18*
%TO.C,J4*%
X240000000Y-82475000D03*
D19*
X240000000Y-85015000D03*
%TD*%
D27*
%TO.C,D2*%
X136750000Y-102712500D03*
X136750000Y-104287500D03*
%TD*%
D20*
%TO.C,C24*%
X196750000Y-96475000D03*
X196750000Y-98025000D03*
%TD*%
D13*
%TO.C,C18*%
X249520000Y-73525000D03*
X249520000Y-71975000D03*
%TD*%
D20*
%TO.C,C26*%
X208000000Y-101475000D03*
X208000000Y-103025000D03*
%TD*%
D11*
%TO.C,R16*%
X160000000Y-103925000D03*
X160000000Y-105575000D03*
%TD*%
D28*
%TO.C,C31*%
X185475000Y-94000000D03*
X187025000Y-94000000D03*
%TD*%
D32*
%TO.C,C3*%
X97347349Y-70750000D03*
D33*
X100847349Y-70750000D03*
%TD*%
D31*
%TO.C,J1*%
X258057500Y-135260000D03*
X258057500Y-57500000D03*
D35*
X261557500Y-105090000D03*
D36*
X261557500Y-102550000D03*
X261557500Y-100010000D03*
X261557500Y-97470000D03*
X261557500Y-94930000D03*
X261557500Y-92390000D03*
X261557500Y-89850000D03*
X261557500Y-87310000D03*
X259017500Y-105090000D03*
X259017500Y-102550000D03*
X259017500Y-100010000D03*
X259017500Y-97470000D03*
X259017500Y-94930000D03*
X259017500Y-92390000D03*
X259017500Y-89850000D03*
X259017500Y-87310000D03*
X256477500Y-105090000D03*
X256477500Y-102550000D03*
X256477500Y-100010000D03*
X256477500Y-97470000D03*
X256477500Y-94930000D03*
X256477500Y-92390000D03*
X256477500Y-89850000D03*
X256477500Y-87310000D03*
X253057500Y-129760000D03*
X255557500Y-129760000D03*
X258057500Y-129760000D03*
X260557500Y-129760000D03*
X263057500Y-129760000D03*
X263057500Y-126760000D03*
X260557500Y-126760000D03*
X258057500Y-126760000D03*
X255557500Y-126760000D03*
X253057500Y-126760000D03*
X253057500Y-124260000D03*
X255557500Y-124260000D03*
X258057500Y-124260000D03*
X260557500Y-124260000D03*
X263057500Y-124260000D03*
X263057500Y-121260000D03*
X260557500Y-121260000D03*
X258057500Y-121260000D03*
X255557500Y-121260000D03*
X253057500Y-121260000D03*
X253057500Y-118760000D03*
X255557500Y-118760000D03*
X258057500Y-118760000D03*
X260557500Y-118760000D03*
X263057500Y-118760000D03*
X263057500Y-115760000D03*
X260557500Y-115760000D03*
X258057500Y-115760000D03*
X255557500Y-115760000D03*
X253057500Y-115760000D03*
X253057500Y-113260000D03*
X255557500Y-113260000D03*
X258057500Y-113260000D03*
X260557500Y-113260000D03*
X263057500Y-113260000D03*
X263057500Y-110260000D03*
X260557500Y-110260000D03*
X258057500Y-110260000D03*
X255557500Y-110260000D03*
X253057500Y-110260000D03*
X253057500Y-82500000D03*
X255557500Y-82500000D03*
X258057500Y-82500000D03*
X260557500Y-82500000D03*
X263057500Y-82500000D03*
X263057500Y-79500000D03*
X260557500Y-79500000D03*
X258057500Y-79500000D03*
X255557500Y-79500000D03*
X253057500Y-79500000D03*
X253057500Y-77000000D03*
X255557500Y-77000000D03*
X258057500Y-77000000D03*
X260557500Y-77000000D03*
X263057500Y-77000000D03*
X263057500Y-74000000D03*
X260557500Y-74000000D03*
X258057500Y-74000000D03*
X255557500Y-74000000D03*
X253057500Y-74000000D03*
X253057500Y-71500000D03*
X255557500Y-71500000D03*
X258057500Y-71500000D03*
X260557500Y-71500000D03*
X263057500Y-71500000D03*
X263057500Y-68500000D03*
X260557500Y-68500000D03*
X258057500Y-68500000D03*
X255557500Y-68500000D03*
X253057500Y-68500000D03*
X253057500Y-66000000D03*
X255557500Y-66000000D03*
X258057500Y-66000000D03*
X260557500Y-66000000D03*
X263057500Y-66000000D03*
X263057500Y-63000000D03*
X260557500Y-63000000D03*
X258057500Y-63000000D03*
X255557500Y-63000000D03*
X253057500Y-63000000D03*
%TD*%
D12*
%TO.C,TP_12V_CURRENT_VOUT1*%
X192500000Y-93500000D03*
%TD*%
D11*
%TO.C,R23*%
X140250000Y-99425000D03*
X140250000Y-101075000D03*
%TD*%
D28*
%TO.C,C13*%
X241219193Y-70520000D03*
X242769193Y-70520000D03*
%TD*%
D20*
%TO.C,C7*%
X113030000Y-67950000D03*
X113030000Y-69500000D03*
%TD*%
D27*
%TO.C,D6*%
X147000000Y-102387500D03*
X147000000Y-103962500D03*
%TD*%
D11*
%TO.C,R10*%
X174250000Y-95675000D03*
X174250000Y-97325000D03*
%TD*%
D18*
%TO.C,J2*%
X240310000Y-99960000D03*
D19*
X240310000Y-102500000D03*
%TD*%
D18*
%TO.C,J7*%
X158290000Y-85000000D03*
D19*
X155750000Y-85000000D03*
X153210000Y-85000000D03*
%TD*%
D12*
%TO.C,TP_12V_PG1*%
X131750000Y-90250000D03*
%TD*%
D20*
%TO.C,C22*%
X216000000Y-98725000D03*
X216000000Y-100275000D03*
%TD*%
D37*
%TO.C,J6*%
X86619571Y-140750000D03*
X91699571Y-140750000D03*
X96779571Y-140750000D03*
X101859571Y-140750000D03*
X106939571Y-140750000D03*
X112019571Y-140750000D03*
%TD*%
D20*
%TO.C,C34*%
X168112500Y-105550000D03*
X168112500Y-107100000D03*
%TD*%
D38*
%TO.C,U5*%
X186050000Y-92137500D03*
X187000000Y-92137500D03*
X187950000Y-92137500D03*
X187950000Y-89862500D03*
X186050000Y-89862500D03*
%TD*%
D12*
%TO.C,TP_3V_1*%
X170500000Y-91500000D03*
%TD*%
D39*
%TO.C,L1*%
X207500000Y-95400000D03*
X211400000Y-95400000D03*
%TD*%
D11*
%TO.C,R4*%
X204750000Y-101425000D03*
X204750000Y-103075000D03*
%TD*%
D32*
%TO.C,C4*%
X97347349Y-80300000D03*
D33*
X100847349Y-80300000D03*
%TD*%
D27*
%TO.C,D1*%
X138500000Y-102712500D03*
X138500000Y-104287500D03*
%TD*%
D11*
%TO.C,R11*%
X175750000Y-95675000D03*
X175750000Y-97325000D03*
%TD*%
D40*
%TO.C,U1*%
X122350000Y-61373700D03*
X122350000Y-68993688D03*
X122350000Y-76613688D03*
D41*
X173150000Y-80423688D03*
D42*
X173150000Y-76613688D03*
D43*
X173150000Y-68993688D03*
D42*
X173150000Y-61373700D03*
X173150000Y-57563688D03*
D44*
X175690000Y-74993680D03*
X175690000Y-72993680D03*
X175690000Y-70993680D03*
X175690000Y-68993679D03*
X175690000Y-66993679D03*
X175690000Y-64993679D03*
X175690000Y-62993679D03*
%TD*%
D45*
%TO.C,C11*%
X236750000Y-58477780D03*
D46*
X236750000Y-50977780D03*
%TD*%
D30*
%TO.C,C32*%
X152925000Y-103000000D03*
X151375000Y-103000000D03*
%TD*%
D11*
%TO.C,R17*%
X160000000Y-107175000D03*
X160000000Y-108825000D03*
%TD*%
D18*
%TO.C,J5*%
X235000000Y-82500000D03*
D19*
X235000000Y-85040000D03*
%TD*%
D47*
%TO.C,U6*%
X169975000Y-105350000D03*
X169975000Y-106300000D03*
X169975000Y-107250000D03*
X172250000Y-107250000D03*
X172250000Y-105350000D03*
%TD*%
D13*
%TO.C,C17*%
X247010000Y-73525000D03*
X247010000Y-71975000D03*
%TD*%
D34*
%TO.C,R13*%
X172823416Y-98715319D03*
X171173416Y-98715319D03*
%TD*%
D20*
%TO.C,C8*%
X110520000Y-67950000D03*
X110520000Y-69500000D03*
%TD*%
%TO.C,C10*%
X105500000Y-67950000D03*
X105500000Y-69500000D03*
%TD*%
D31*
%TO.C,H3*%
X244450000Y-89900000D03*
%TD*%
D48*
%TO.C,C1*%
X96676041Y-102250000D03*
D46*
X101676041Y-102250000D03*
%TD*%
D20*
%TO.C,C21*%
X214250000Y-98725000D03*
X214250000Y-100275000D03*
%TD*%
D49*
%TO.C,SW1*%
X151650000Y-100050000D03*
X151650000Y-90950000D03*
X156150000Y-100050000D03*
X156150000Y-90950000D03*
%TD*%
D11*
%TO.C,R14*%
X158000000Y-101887500D03*
X158000000Y-103537500D03*
%TD*%
D20*
%TO.C,C9*%
X108010000Y-67950000D03*
X108010000Y-69500000D03*
%TD*%
D45*
%TO.C,C12*%
X217000000Y-58477780D03*
D46*
X217000000Y-50977780D03*
%TD*%
D31*
%TO.C,H2*%
X260750000Y-143500000D03*
%TD*%
D20*
%TO.C,C25*%
X198500000Y-96475000D03*
X198500000Y-98025000D03*
%TD*%
D27*
%TO.C,D5*%
X148690000Y-102425000D03*
X148690000Y-104000000D03*
%TD*%
%TO.C,D4*%
X133250000Y-102675000D03*
X133250000Y-104250000D03*
%TD*%
D13*
%TO.C,C19*%
X204500000Y-95275000D03*
X204500000Y-93725000D03*
%TD*%
D14*
%TO.C,R19*%
X136750000Y-101000000D03*
X136750000Y-99350000D03*
%TD*%
D50*
%TO.C,U7*%
X158825000Y-94700000D03*
X158825000Y-95500000D03*
X158825000Y-96300000D03*
X158825000Y-97100000D03*
X158825000Y-97900000D03*
X158825000Y-98700000D03*
X158825000Y-99500000D03*
X158825000Y-100300000D03*
D51*
X160200000Y-101675000D03*
X161000000Y-101675000D03*
X161800000Y-101675000D03*
X162600000Y-101675000D03*
X163400000Y-101675000D03*
X164200000Y-101675000D03*
X165000000Y-101675000D03*
X165800000Y-101675000D03*
D50*
X167175000Y-100300000D03*
X167175000Y-99500000D03*
X167175000Y-98700000D03*
X167175000Y-97900000D03*
X167175000Y-97100000D03*
X167175000Y-96300000D03*
X167175000Y-95500000D03*
X167175000Y-94700000D03*
D51*
X165800000Y-93325000D03*
X165000000Y-93325000D03*
X164200000Y-93325000D03*
X163400000Y-93325000D03*
X162600000Y-93325000D03*
X161800000Y-93325000D03*
X161000000Y-93325000D03*
X160200000Y-93325000D03*
%TD*%
D52*
%TO.C,U2*%
X199000000Y-85315000D03*
D53*
X197000000Y-85315000D03*
X195000000Y-85315000D03*
X193000000Y-85315000D03*
X191000000Y-85315000D03*
D54*
X186000000Y-71315000D03*
X186000000Y-67815000D03*
X186000000Y-64315000D03*
X186000000Y-60815000D03*
X204000000Y-60815000D03*
X204000000Y-64315000D03*
X204000000Y-67815000D03*
X204000000Y-71315000D03*
%TD*%
D48*
%TO.C,C2*%
X96676041Y-117250000D03*
D46*
X101676041Y-117250000D03*
%TD*%
M02*
