%TF.GenerationSoftware,KiCad,Pcbnew,9.0.2*%
%TF.CreationDate,2025-11-15T13:58:42-05:00*%
%TF.ProjectId,power,706f7765-722e-46b6-9963-61645f706362,rev?*%
%TF.SameCoordinates,Original*%
%TF.FileFunction,Plated,1,2,PTH,Drill*%
%TF.FilePolarity,Positive*%
%FSLAX46Y46*%
G04 Gerber Fmt 4.6, Leading zero omitted, Abs format (unit mm)*
G04 Created by KiCad (PCBNEW 9.0.2) date 2025-11-15 13:58:42*
%MOMM*%
%LPD*%
G01*
G04 APERTURE LIST*
%TA.AperFunction,ViaDrill*%
%ADD10C,0.300000*%
%TD*%
%TA.AperFunction,ComponentDrill*%
%ADD11C,0.787400*%
%TD*%
%TA.AperFunction,ComponentDrill*%
%ADD12C,0.800000*%
%TD*%
%TA.AperFunction,ComponentDrill*%
%ADD13C,0.889000*%
%TD*%
%TA.AperFunction,ComponentDrill*%
%ADD14C,0.900000*%
%TD*%
%TA.AperFunction,ComponentDrill*%
%ADD15C,1.000000*%
%TD*%
%TA.AperFunction,ComponentDrill*%
%ADD16C,1.020000*%
%TD*%
%TA.AperFunction,ComponentDrill*%
%ADD17C,1.200000*%
%TD*%
%TA.AperFunction,ComponentDrill*%
%ADD18C,1.500000*%
%TD*%
%TA.AperFunction,ComponentDrill*%
%ADD19C,1.524000*%
%TD*%
%TA.AperFunction,ComponentDrill*%
%ADD20C,1.600200*%
%TD*%
%TA.AperFunction,ComponentDrill*%
%ADD21C,2.108200*%
%TD*%
%TA.AperFunction,ComponentDrill*%
%ADD22C,2.150000*%
%TD*%
G04 APERTURE END LIST*
D10*
X83850000Y-88300000D03*
X83850000Y-105750000D03*
X83900000Y-71300000D03*
X84100000Y-80350000D03*
X84100000Y-97800000D03*
X84100000Y-124650000D03*
X84150000Y-63350000D03*
X84350000Y-116700000D03*
X84600000Y-86100000D03*
X84600000Y-103550000D03*
X84650000Y-69100000D03*
X84750000Y-93500000D03*
X84750000Y-110950000D03*
X84800000Y-76500000D03*
X84850000Y-122450000D03*
X85000000Y-54200000D03*
X85000000Y-57150000D03*
X85000000Y-129850000D03*
X85200000Y-132550000D03*
X85250000Y-60650000D03*
X86200000Y-134300000D03*
X86300000Y-82100000D03*
X86300000Y-99550000D03*
X86350000Y-65100000D03*
X86500000Y-89650000D03*
X86500000Y-107100000D03*
X86550000Y-72650000D03*
X86550000Y-93100000D03*
X86550000Y-110550000D03*
X86550000Y-118450000D03*
X86600000Y-76100000D03*
X86650000Y-79900000D03*
X86650000Y-97350000D03*
X86700000Y-62900000D03*
X86750000Y-126000000D03*
X86800000Y-129450000D03*
X86900000Y-116250000D03*
X87700000Y-87200000D03*
X87700000Y-104650000D03*
X87750000Y-70200000D03*
X87800000Y-131950000D03*
X87950000Y-123550000D03*
X88050000Y-83650000D03*
X88050000Y-101100000D03*
X88100000Y-58950000D03*
X88100000Y-66650000D03*
X88300000Y-120000000D03*
X89750000Y-89350000D03*
X89750000Y-92400000D03*
X89750000Y-106800000D03*
X89750000Y-109850000D03*
X89800000Y-72350000D03*
X89800000Y-75400000D03*
X89900000Y-133150000D03*
X90000000Y-125700000D03*
X90000000Y-128750000D03*
X90200000Y-54000000D03*
X90250000Y-55900000D03*
X90550000Y-80250000D03*
X90550000Y-97700000D03*
X90600000Y-63250000D03*
X90800000Y-116600000D03*
X90950000Y-94800000D03*
X90950000Y-112250000D03*
X91000000Y-77800000D03*
X91200000Y-131150000D03*
X91300000Y-60050000D03*
X91550000Y-82900000D03*
X91550000Y-100350000D03*
X91600000Y-65900000D03*
X91800000Y-119250000D03*
X92400000Y-87150000D03*
X92400000Y-91250000D03*
X92400000Y-104600000D03*
X92400000Y-108700000D03*
X92450000Y-70150000D03*
X92450000Y-74250000D03*
X92650000Y-123500000D03*
X92650000Y-127600000D03*
X93350000Y-57950000D03*
X93400000Y-53700000D03*
X94250000Y-79750000D03*
X94250000Y-84700000D03*
X94250000Y-97200000D03*
X94250000Y-102150000D03*
X94300000Y-62750000D03*
X94300000Y-67700000D03*
X94300000Y-131400000D03*
X94500000Y-116100000D03*
X94500000Y-121050000D03*
X94900000Y-113350000D03*
X95000000Y-128700000D03*
X95150000Y-55000000D03*
X95600000Y-58100000D03*
X95700000Y-61650000D03*
X96150000Y-83500000D03*
X96300000Y-63900000D03*
X96350000Y-74400000D03*
X96550000Y-94000000D03*
X96650000Y-110150000D03*
X96750000Y-134600000D03*
X96800000Y-131850000D03*
X97300000Y-65650000D03*
X97650000Y-119650000D03*
X97800000Y-101150000D03*
X97800000Y-128150000D03*
X97850000Y-107250000D03*
X98000000Y-97950000D03*
X99550000Y-54350000D03*
X99700000Y-61950000D03*
X100050000Y-58050000D03*
X100150000Y-64500000D03*
X101900000Y-62300000D03*
X102700000Y-57050000D03*
X103450000Y-60550000D03*
X104500000Y-54350000D03*
X105100000Y-58450000D03*
X105283608Y-92212131D03*
X105500000Y-66500000D03*
X105500000Y-70750000D03*
X105533608Y-84262131D03*
X105872329Y-72159251D03*
X105900000Y-64000000D03*
X105950000Y-127450000D03*
X106022329Y-79759251D03*
X106033608Y-90012131D03*
X106183608Y-97412131D03*
X106200000Y-119500000D03*
X106300000Y-109950000D03*
X106372329Y-75859251D03*
X106472329Y-82309251D03*
X106550000Y-102000000D03*
X106700000Y-125250000D03*
X106850000Y-132650000D03*
X106950000Y-56200000D03*
X107000000Y-60900000D03*
X107050000Y-107750000D03*
X107200000Y-115150000D03*
X107733608Y-86012131D03*
X107933608Y-93562131D03*
X107983608Y-97012131D03*
X108000000Y-66500000D03*
X108000000Y-71000000D03*
X108083608Y-83812131D03*
X108100000Y-64750000D03*
X108222329Y-80109251D03*
X108400000Y-121250000D03*
X108600000Y-128800000D03*
X108650000Y-132250000D03*
X108750000Y-103750000D03*
X108750000Y-119050000D03*
X108950000Y-111300000D03*
X109000000Y-114750000D03*
X109022329Y-74859251D03*
X109100000Y-101550000D03*
X109133608Y-91112131D03*
X109150000Y-58850000D03*
X109450000Y-62100000D03*
X109483608Y-87562131D03*
X109772329Y-78359251D03*
X109800000Y-126350000D03*
X110150000Y-108850000D03*
X110150000Y-122800000D03*
X110400000Y-54400000D03*
X110500000Y-66500000D03*
X110500000Y-70750000D03*
X110500000Y-105300000D03*
X110822329Y-72159251D03*
X111050000Y-56200000D03*
X111183608Y-93262131D03*
X111183608Y-96312131D03*
X111850000Y-128500000D03*
X111850000Y-131550000D03*
X111983608Y-84162131D03*
X112200000Y-58850000D03*
X112200000Y-111000000D03*
X112200000Y-114050000D03*
X112222329Y-81809251D03*
X112383608Y-98712131D03*
X112650000Y-119400000D03*
X112900000Y-62050000D03*
X112983608Y-86812131D03*
X113000000Y-66500000D03*
X113000000Y-71000000D03*
X113000000Y-101900000D03*
X113050000Y-133950000D03*
X113272329Y-74009251D03*
X113300000Y-63850000D03*
X113322329Y-78709251D03*
X113400000Y-116450000D03*
X113650000Y-122050000D03*
X113833608Y-91062131D03*
X113833608Y-95162131D03*
X114000000Y-104550000D03*
X114050000Y-54350000D03*
X114422329Y-82559251D03*
X114500000Y-126300000D03*
X114500000Y-130400000D03*
X114600000Y-57650000D03*
X114850000Y-108800000D03*
X114850000Y-112900000D03*
X115472329Y-76659251D03*
X115500000Y-66500000D03*
X115500000Y-71000000D03*
X115683608Y-83662131D03*
X115772329Y-79909251D03*
X116300000Y-64550000D03*
X116550000Y-60550000D03*
X116800000Y-56850000D03*
X117372329Y-74009251D03*
X118522329Y-76659251D03*
X118850000Y-53600000D03*
X119222329Y-79859251D03*
X119550000Y-72300000D03*
X119622329Y-81659251D03*
X133250000Y-105250000D03*
X139750000Y-102750000D03*
X146150000Y-97050000D03*
X146400000Y-96450000D03*
X146760556Y-95909165D03*
X147000000Y-87250000D03*
X147000000Y-105000000D03*
X148750000Y-87750000D03*
X149000000Y-106575000D03*
X149900000Y-95250000D03*
X150000000Y-104000000D03*
X150150000Y-99400000D03*
X152225000Y-96780920D03*
X152600000Y-96250000D03*
X152950000Y-100450000D03*
X153625000Y-100768169D03*
X153850000Y-61300000D03*
X153950000Y-74500000D03*
X154000000Y-66350000D03*
X154100000Y-48200000D03*
X154100000Y-79550000D03*
X154200000Y-57400000D03*
X154250000Y-53250000D03*
X154300000Y-63850000D03*
X154300000Y-70600000D03*
X154400000Y-77050000D03*
X154450000Y-44300000D03*
X154550000Y-50750000D03*
X154650000Y-40300000D03*
X156050000Y-61650000D03*
X156150000Y-74850000D03*
X156300000Y-48550000D03*
X156450000Y-95800000D03*
X156500000Y-106200000D03*
X156550000Y-94050000D03*
X156659553Y-96415297D03*
X156850000Y-56400000D03*
X156950000Y-69600000D03*
X157100000Y-43300000D03*
X157150000Y-98125000D03*
X157350000Y-65600000D03*
X157450000Y-78800000D03*
X157550000Y-98700000D03*
X157550000Y-99500000D03*
X157550000Y-100300000D03*
X157600000Y-52500000D03*
X157600000Y-59900000D03*
X157700000Y-73100000D03*
X157850000Y-46800000D03*
X158100000Y-89150676D03*
X158740211Y-94030706D03*
X158823721Y-101875720D03*
X158871360Y-102567268D03*
X159325000Y-108000000D03*
X159750000Y-112175000D03*
X160000000Y-104750000D03*
X160000000Y-108000000D03*
X160050000Y-63350000D03*
X160050000Y-80400000D03*
X160150000Y-76550000D03*
X160200000Y-40000000D03*
X160250000Y-112750000D03*
X160300000Y-50250000D03*
X160500000Y-94950000D03*
X160650000Y-95950000D03*
X160650000Y-96600003D03*
X161000000Y-87500000D03*
X161100000Y-55550000D03*
X161150000Y-60250000D03*
X161200000Y-68750000D03*
X161250000Y-73450000D03*
X161350000Y-42450000D03*
X161400000Y-47150000D03*
X161750000Y-84250000D03*
X162250000Y-64100000D03*
X162350000Y-77300000D03*
X162500000Y-51000000D03*
X162577000Y-109821240D03*
X162580031Y-84892454D03*
X163300000Y-58200000D03*
X163400000Y-71400000D03*
X163410613Y-87589387D03*
X163500000Y-110526000D03*
X163550000Y-45100000D03*
X163600000Y-61450000D03*
X163700000Y-74650000D03*
X163750000Y-104500000D03*
X163850000Y-48350000D03*
X164000000Y-89500000D03*
X164400000Y-66550000D03*
X164500000Y-79750000D03*
X164650000Y-53450000D03*
X165200000Y-55550000D03*
X165300000Y-68750000D03*
X165450000Y-42450000D03*
X166114268Y-103021235D03*
X166200000Y-39500000D03*
X166350000Y-58200000D03*
X166450000Y-71400000D03*
X166600000Y-45100000D03*
X166835036Y-107098730D03*
X167000000Y-105000000D03*
X167050000Y-61400000D03*
X167150000Y-74600000D03*
X167300000Y-48300000D03*
X167450000Y-63200000D03*
X167550000Y-76400000D03*
X167700000Y-50100000D03*
X167750000Y-104250000D03*
X168250000Y-67250000D03*
X168350000Y-80450000D03*
X168500000Y-54150000D03*
X170500000Y-46550000D03*
X170650000Y-51600000D03*
X170850000Y-42650000D03*
X170950000Y-49100000D03*
X171000000Y-39750000D03*
X171378528Y-102796662D03*
X172700000Y-46900000D03*
X173500000Y-41650000D03*
X174000000Y-50850000D03*
X174213347Y-98115319D03*
X174250000Y-45150000D03*
X174250000Y-94750000D03*
X174250000Y-99500000D03*
X174250000Y-111750000D03*
X174900003Y-111750000D03*
X175750000Y-94750000D03*
X176700000Y-48600000D03*
X177750000Y-40800000D03*
X177750000Y-90250000D03*
X177750000Y-92500000D03*
X177750000Y-95000000D03*
X177750000Y-96750000D03*
X177750000Y-98500000D03*
X177750000Y-100250000D03*
X177750000Y-102250000D03*
X177750000Y-104500000D03*
X177750000Y-107250000D03*
X177750000Y-108250000D03*
X177800000Y-45500000D03*
X178900000Y-49350000D03*
X179950000Y-43450000D03*
X180250000Y-46700000D03*
X181050000Y-51800000D03*
X181850000Y-40800000D03*
X183000000Y-43450000D03*
X183700000Y-46650000D03*
X184100000Y-48450000D03*
X184650000Y-40550000D03*
X184900000Y-52500000D03*
X185250000Y-88500000D03*
X185250000Y-110250000D03*
X185700000Y-43950000D03*
X186000000Y-95250000D03*
X187000000Y-89750000D03*
X187250000Y-46585000D03*
X187400000Y-51635000D03*
X187600000Y-42685000D03*
X187700000Y-49135000D03*
X188000000Y-94000000D03*
X188000000Y-97750000D03*
X189450000Y-46935000D03*
X190250000Y-41685000D03*
X190750000Y-50885000D03*
X191000000Y-45185000D03*
X193325000Y-107000000D03*
X193450000Y-48635000D03*
X193500000Y-107750000D03*
X194250000Y-83250000D03*
X194250000Y-96500000D03*
X194500000Y-40835000D03*
X194550000Y-45535000D03*
X194550000Y-107774000D03*
X194600000Y-108699000D03*
X195650000Y-49385000D03*
X196700000Y-43485000D03*
X196733767Y-99026738D03*
X197000000Y-46735000D03*
X197800000Y-51835000D03*
X198000000Y-83250000D03*
X198551692Y-98974153D03*
X198600000Y-40835000D03*
X199000000Y-89250000D03*
X199325837Y-102296643D03*
X199750000Y-43485000D03*
X200302008Y-98966641D03*
X200450000Y-46685000D03*
X200850000Y-48485000D03*
X200867276Y-102274623D03*
X201097622Y-98063786D03*
X201650000Y-52535000D03*
X201750000Y-96250000D03*
X201750000Y-99500000D03*
X202535333Y-102142499D03*
X202712148Y-44535730D03*
X203050000Y-75500000D03*
X203062148Y-40635730D03*
X203297448Y-98588369D03*
X203500000Y-100250000D03*
X203650000Y-81700000D03*
X204850000Y-77850000D03*
X204912148Y-44885730D03*
X205507718Y-99817282D03*
X205712148Y-39635730D03*
X205950000Y-47650000D03*
X206250000Y-104000000D03*
X206400000Y-50200000D03*
X206462148Y-43135730D03*
X207017846Y-103871631D03*
X207050000Y-58900000D03*
X207750000Y-74350000D03*
X207900000Y-40850000D03*
X208150000Y-48000000D03*
X208500000Y-67050000D03*
X208600000Y-80750000D03*
X208750000Y-64300000D03*
X208768942Y-102271202D03*
X209500000Y-75400000D03*
X209650000Y-61950000D03*
X209850000Y-72250000D03*
X210012148Y-43485730D03*
X210750000Y-80750000D03*
X211100000Y-98700000D03*
X211450000Y-76900000D03*
X211650000Y-66500000D03*
X212150000Y-49700000D03*
X212162148Y-41435730D03*
X212400000Y-69850000D03*
X212462148Y-44685730D03*
X213250000Y-46600000D03*
X213900000Y-74750000D03*
X214150000Y-66800000D03*
X214350000Y-50450000D03*
X214500000Y-62700000D03*
X214650000Y-72550000D03*
X214800000Y-79950000D03*
X215212148Y-41435730D03*
X215700000Y-47800000D03*
X215912148Y-44635730D03*
X216350000Y-68550000D03*
X216500000Y-112500000D03*
X216550000Y-76100000D03*
X216600000Y-79550000D03*
X216700000Y-66350000D03*
X217150000Y-62800000D03*
X217450000Y-61150000D03*
X217750000Y-73650000D03*
X217850000Y-59400000D03*
X217950000Y-42400000D03*
X218100000Y-70100000D03*
X219150000Y-47750000D03*
X219550000Y-49550000D03*
X219800000Y-75800000D03*
X219800000Y-78850000D03*
X219839597Y-43774510D03*
X219900000Y-62050000D03*
X220189597Y-39874510D03*
X220600000Y-66700000D03*
X221000000Y-81250000D03*
X221600000Y-69350000D03*
X221750000Y-106000000D03*
X222039597Y-44124510D03*
X222450000Y-73600000D03*
X222450000Y-77700000D03*
X223077449Y-46888780D03*
X223527449Y-49438780D03*
X223589597Y-42374510D03*
X223950000Y-40000000D03*
X224300000Y-66200000D03*
X224300000Y-71150000D03*
X225277449Y-47238780D03*
X225450000Y-74000000D03*
X225550000Y-80500000D03*
X225700000Y-78700000D03*
X226500000Y-62300000D03*
X226577449Y-51188780D03*
X226650000Y-67900000D03*
X226750000Y-44950000D03*
X226750000Y-106000000D03*
X227000000Y-113000000D03*
X227139597Y-42724510D03*
X227250000Y-59150000D03*
X227900000Y-64950000D03*
X229050000Y-75700000D03*
X229250000Y-60850000D03*
X229277449Y-48938780D03*
X229289597Y-40674510D03*
X229589597Y-43924510D03*
X229700000Y-66200000D03*
X229800000Y-78400000D03*
X229850000Y-71000000D03*
X230800000Y-61950000D03*
X231500000Y-80200000D03*
X231700000Y-57900000D03*
X232219807Y-46840390D03*
X232300000Y-63700000D03*
X232339597Y-40674510D03*
X232369807Y-51890390D03*
X232550000Y-67100000D03*
X232569807Y-42940390D03*
X232650000Y-71250000D03*
X232669807Y-49390390D03*
X232900000Y-59750000D03*
X233050000Y-75250000D03*
X233300000Y-78150000D03*
X233450000Y-63450000D03*
X234200000Y-66650000D03*
X234419807Y-47190390D03*
X235100000Y-71150000D03*
X235219807Y-41940390D03*
X235250000Y-61500000D03*
X235650000Y-59000000D03*
X235719807Y-51140390D03*
X235969807Y-45440390D03*
X236100000Y-73850000D03*
X236250000Y-80000000D03*
X236750000Y-78000000D03*
X237400000Y-43800000D03*
X237400000Y-52350000D03*
X238419807Y-48890390D03*
X238450000Y-76000000D03*
X238850000Y-79200000D03*
X239469807Y-41090390D03*
X239500000Y-67918692D03*
X239519807Y-45790390D03*
X239750000Y-65418692D03*
X239750000Y-70668692D03*
X240200000Y-80100000D03*
X240500000Y-75450000D03*
X240500000Y-115000000D03*
X240619807Y-49640390D03*
X241669807Y-43740390D03*
X241969807Y-46990390D03*
X242250000Y-77350000D03*
X242769807Y-52090390D03*
X243000000Y-74650000D03*
X243569807Y-41090390D03*
X244200000Y-80850000D03*
X244250000Y-65418692D03*
X244250000Y-67918692D03*
X244375000Y-70625000D03*
X244550000Y-78100000D03*
X244600000Y-76700000D03*
X244682018Y-75250000D03*
X244719807Y-43740390D03*
X244800000Y-55200000D03*
X245419807Y-46940390D03*
X245800000Y-66618692D03*
X245819807Y-48740390D03*
X246100000Y-69868692D03*
X246550000Y-41050000D03*
X246619807Y-52790390D03*
X246900000Y-68300000D03*
X246932018Y-70000000D03*
X246932018Y-76000000D03*
X247400000Y-76150000D03*
X247700000Y-57300000D03*
X248850000Y-59950000D03*
X249000000Y-77800000D03*
X249000000Y-80000000D03*
X249182018Y-70000000D03*
X249347256Y-46079170D03*
X249497256Y-51129170D03*
X249550000Y-55450000D03*
X249550000Y-63150000D03*
X249682018Y-75250000D03*
X249697256Y-42179170D03*
X249797256Y-48629170D03*
X249950000Y-64950000D03*
X250750000Y-69000000D03*
X251547256Y-46429170D03*
X252347256Y-41179170D03*
X252847256Y-50379170D03*
X253097256Y-44679170D03*
X253100000Y-54900000D03*
X254500000Y-51400000D03*
X254750000Y-56550000D03*
X255547256Y-48129170D03*
X255850000Y-60200000D03*
X256597256Y-40329170D03*
X256647256Y-45029170D03*
X257747256Y-48879170D03*
X258250000Y-52450000D03*
X258797256Y-42979170D03*
X259097256Y-46229170D03*
X259897256Y-51329170D03*
X260697256Y-40329170D03*
X261350000Y-56250000D03*
X261847256Y-42979170D03*
X262547256Y-46179170D03*
X262947256Y-47979170D03*
X263050000Y-55450000D03*
X263250000Y-40300000D03*
X263747256Y-52029170D03*
X263800000Y-58950000D03*
D11*
%TO.C,U1*%
X173150000Y-68993688D03*
D12*
%TO.C,C3*%
X97347349Y-70750000D03*
%TO.C,C4*%
X97347349Y-80300000D03*
%TO.C,C5*%
X97347349Y-89850000D03*
%TO.C,C3*%
X100847349Y-70750000D03*
%TO.C,C4*%
X100847349Y-80300000D03*
%TO.C,C5*%
X100847349Y-89850000D03*
D13*
%TO.C,U1*%
X175690000Y-62993679D03*
X175690000Y-64993679D03*
X175690000Y-66993679D03*
X175690000Y-68993679D03*
X175690000Y-70993680D03*
X175690000Y-72993680D03*
X175690000Y-74993680D03*
D14*
%TO.C,U2*%
X191000000Y-85315000D03*
X193000000Y-85315000D03*
X195000000Y-85315000D03*
X197000000Y-85315000D03*
X199000000Y-85315000D03*
%TO.C,U4*%
X220440000Y-110870000D03*
X221710000Y-108965000D03*
X222980000Y-110870000D03*
X224250000Y-108965000D03*
X225520000Y-110870000D03*
X226790000Y-108965000D03*
X228060000Y-110870000D03*
D15*
%TO.C,J9*%
X135970000Y-91850000D03*
X138510000Y-91850000D03*
X141050000Y-91850000D03*
X143590000Y-91850000D03*
X146130000Y-91850000D03*
%TO.C,J7*%
X153210000Y-85000000D03*
X155750000Y-85000000D03*
X158290000Y-85000000D03*
%TO.C,J5*%
X235000000Y-82500000D03*
X235000000Y-85040000D03*
%TO.C,J8*%
X237920000Y-111000000D03*
%TO.C,J4*%
X240000000Y-82475000D03*
X240000000Y-85015000D03*
%TO.C,J2*%
X240310000Y-99960000D03*
X240310000Y-102500000D03*
%TO.C,J8*%
X240460000Y-111000000D03*
X243000000Y-111000000D03*
%TO.C,J3*%
X244900000Y-99960000D03*
X244900000Y-102500000D03*
D16*
%TO.C,J1*%
X253057500Y-63000000D03*
X253057500Y-66000000D03*
X253057500Y-68500000D03*
X253057500Y-71500000D03*
X253057500Y-74000000D03*
X253057500Y-77000000D03*
X253057500Y-79500000D03*
X253057500Y-82500000D03*
X253057500Y-110260000D03*
X253057500Y-113260000D03*
X253057500Y-115760000D03*
X253057500Y-118760000D03*
X253057500Y-121260000D03*
X253057500Y-124260000D03*
X253057500Y-126760000D03*
X253057500Y-129760000D03*
X255557500Y-63000000D03*
X255557500Y-66000000D03*
X255557500Y-68500000D03*
X255557500Y-71500000D03*
X255557500Y-74000000D03*
X255557500Y-77000000D03*
X255557500Y-79500000D03*
X255557500Y-82500000D03*
X255557500Y-110260000D03*
X255557500Y-113260000D03*
X255557500Y-115760000D03*
X255557500Y-118760000D03*
X255557500Y-121260000D03*
X255557500Y-124260000D03*
X255557500Y-126760000D03*
X255557500Y-129760000D03*
X256477500Y-87310000D03*
X256477500Y-89850000D03*
X256477500Y-92390000D03*
X256477500Y-94930000D03*
X256477500Y-97470000D03*
X256477500Y-100010000D03*
X256477500Y-102550000D03*
X256477500Y-105090000D03*
X258057500Y-63000000D03*
X258057500Y-66000000D03*
X258057500Y-68500000D03*
X258057500Y-71500000D03*
X258057500Y-74000000D03*
X258057500Y-77000000D03*
X258057500Y-79500000D03*
X258057500Y-82500000D03*
X258057500Y-110260000D03*
X258057500Y-113260000D03*
X258057500Y-115760000D03*
X258057500Y-118760000D03*
X258057500Y-121260000D03*
X258057500Y-124260000D03*
X258057500Y-126760000D03*
X258057500Y-129760000D03*
X259017500Y-87310000D03*
X259017500Y-89850000D03*
X259017500Y-92390000D03*
X259017500Y-94930000D03*
X259017500Y-97470000D03*
X259017500Y-100010000D03*
X259017500Y-102550000D03*
X259017500Y-105090000D03*
X260557500Y-63000000D03*
X260557500Y-66000000D03*
X260557500Y-68500000D03*
X260557500Y-71500000D03*
X260557500Y-74000000D03*
X260557500Y-77000000D03*
X260557500Y-79500000D03*
X260557500Y-82500000D03*
X260557500Y-110260000D03*
X260557500Y-113260000D03*
X260557500Y-115760000D03*
X260557500Y-118760000D03*
X260557500Y-121260000D03*
X260557500Y-124260000D03*
X260557500Y-126760000D03*
X260557500Y-129760000D03*
X261557500Y-87310000D03*
X261557500Y-89850000D03*
X261557500Y-92390000D03*
X261557500Y-94930000D03*
X261557500Y-97470000D03*
X261557500Y-100010000D03*
X261557500Y-102550000D03*
X261557500Y-105090000D03*
X263057500Y-63000000D03*
X263057500Y-66000000D03*
X263057500Y-68500000D03*
X263057500Y-71500000D03*
X263057500Y-74000000D03*
X263057500Y-77000000D03*
X263057500Y-79500000D03*
X263057500Y-82500000D03*
X263057500Y-110260000D03*
X263057500Y-113260000D03*
X263057500Y-115760000D03*
X263057500Y-118760000D03*
X263057500Y-121260000D03*
X263057500Y-124260000D03*
X263057500Y-126760000D03*
X263057500Y-129760000D03*
D17*
%TO.C,C1*%
X96676041Y-102250000D03*
%TO.C,C2*%
X96676041Y-117250000D03*
%TO.C,C1*%
X101676041Y-102250000D03*
%TO.C,C2*%
X101676041Y-117250000D03*
%TO.C,TP_12V_PG1*%
X131750000Y-90250000D03*
%TO.C,TP_12V_VDETECT1*%
X154500000Y-109000000D03*
%TO.C,TP_5V_VDETECT1*%
X166500000Y-111000000D03*
%TO.C,TP_3V_1*%
X170500000Y-91500000D03*
%TO.C,TP_12V_CURRENT_VOUT1*%
X192500000Y-93500000D03*
%TO.C,TP_1V25_1*%
X198250000Y-111500000D03*
%TO.C,TP5V_CURRENT_VOUT1*%
X203250000Y-111500000D03*
%TO.C,TP_12V_OCD1*%
X208750000Y-86500000D03*
%TO.C,TP_5V_PG1*%
X211500000Y-110250000D03*
%TO.C,C12*%
X217000000Y-50977780D03*
X217000000Y-58477780D03*
%TO.C,TP_5V_OCD1*%
X232750000Y-112000000D03*
%TO.C,C11*%
X236750000Y-50977780D03*
X236750000Y-58477780D03*
D18*
%TO.C,U4*%
X219350000Y-92935000D03*
X219350000Y-96035000D03*
X219350000Y-99135000D03*
X229150000Y-92935000D03*
X229150000Y-96035000D03*
X229150000Y-99135000D03*
D19*
%TO.C,J6*%
X86619571Y-140750000D03*
X91699571Y-140750000D03*
X96779571Y-140750000D03*
X101859571Y-140750000D03*
X106939571Y-140750000D03*
X112019571Y-140750000D03*
D20*
%TO.C,U1*%
X122350000Y-61373700D03*
X122350000Y-68993688D03*
X122350000Y-76613688D03*
D21*
X173150000Y-57563688D03*
X173150000Y-61373700D03*
X173150000Y-76613688D03*
X173150000Y-80423688D03*
D22*
%TO.C,U2*%
X186000000Y-60815000D03*
X186000000Y-64315000D03*
X186000000Y-67815000D03*
X186000000Y-71315000D03*
X204000000Y-60815000D03*
X204000000Y-64315000D03*
X204000000Y-67815000D03*
X204000000Y-71315000D03*
M02*
