%TF.GenerationSoftware,KiCad,Pcbnew,9.0.2*%
%TF.CreationDate,2025-11-15T13:58:40-05:00*%
%TF.ProjectId,power,706f7765-722e-46b6-9963-61645f706362,rev?*%
%TF.SameCoordinates,Original*%
%TF.FileFunction,Legend,Bot*%
%TF.FilePolarity,Positive*%
%FSLAX46Y46*%
G04 Gerber Fmt 4.6, Leading zero omitted, Abs format (unit mm)*
G04 Created by KiCad (PCBNEW 9.0.2) date 2025-11-15 13:58:40*
%MOMM*%
%LPD*%
G01*
G04 APERTURE LIST*
%ADD10C,0.100000*%
%ADD11C,0.300000*%
G04 APERTURE END LIST*
D10*
X114910401Y-146122419D02*
X114910401Y-146836704D01*
X114910401Y-146836704D02*
X114958020Y-146979561D01*
X114958020Y-146979561D02*
X115053258Y-147074800D01*
X115053258Y-147074800D02*
X115196115Y-147122419D01*
X115196115Y-147122419D02*
X115291353Y-147122419D01*
X113958020Y-147122419D02*
X114434210Y-147122419D01*
X114434210Y-147122419D02*
X114434210Y-146122419D01*
X113053258Y-147027180D02*
X113100877Y-147074800D01*
X113100877Y-147074800D02*
X113243734Y-147122419D01*
X113243734Y-147122419D02*
X113338972Y-147122419D01*
X113338972Y-147122419D02*
X113481829Y-147074800D01*
X113481829Y-147074800D02*
X113577067Y-146979561D01*
X113577067Y-146979561D02*
X113624686Y-146884323D01*
X113624686Y-146884323D02*
X113672305Y-146693847D01*
X113672305Y-146693847D02*
X113672305Y-146550990D01*
X113672305Y-146550990D02*
X113624686Y-146360514D01*
X113624686Y-146360514D02*
X113577067Y-146265276D01*
X113577067Y-146265276D02*
X113481829Y-146170038D01*
X113481829Y-146170038D02*
X113338972Y-146122419D01*
X113338972Y-146122419D02*
X113243734Y-146122419D01*
X113243734Y-146122419D02*
X113100877Y-146170038D01*
X113100877Y-146170038D02*
X113053258Y-146217657D01*
X112338972Y-146122419D02*
X112338972Y-146836704D01*
X112338972Y-146836704D02*
X112386591Y-146979561D01*
X112386591Y-146979561D02*
X112481829Y-147074800D01*
X112481829Y-147074800D02*
X112624686Y-147122419D01*
X112624686Y-147122419D02*
X112719924Y-147122419D01*
X111386591Y-147122419D02*
X111862781Y-147122419D01*
X111862781Y-147122419D02*
X111862781Y-146122419D01*
X110481829Y-147027180D02*
X110529448Y-147074800D01*
X110529448Y-147074800D02*
X110672305Y-147122419D01*
X110672305Y-147122419D02*
X110767543Y-147122419D01*
X110767543Y-147122419D02*
X110910400Y-147074800D01*
X110910400Y-147074800D02*
X111005638Y-146979561D01*
X111005638Y-146979561D02*
X111053257Y-146884323D01*
X111053257Y-146884323D02*
X111100876Y-146693847D01*
X111100876Y-146693847D02*
X111100876Y-146550990D01*
X111100876Y-146550990D02*
X111053257Y-146360514D01*
X111053257Y-146360514D02*
X111005638Y-146265276D01*
X111005638Y-146265276D02*
X110910400Y-146170038D01*
X110910400Y-146170038D02*
X110767543Y-146122419D01*
X110767543Y-146122419D02*
X110672305Y-146122419D01*
X110672305Y-146122419D02*
X110529448Y-146170038D01*
X110529448Y-146170038D02*
X110481829Y-146217657D01*
X109767543Y-146122419D02*
X109767543Y-146836704D01*
X109767543Y-146836704D02*
X109815162Y-146979561D01*
X109815162Y-146979561D02*
X109910400Y-147074800D01*
X109910400Y-147074800D02*
X110053257Y-147122419D01*
X110053257Y-147122419D02*
X110148495Y-147122419D01*
X108815162Y-147122419D02*
X109291352Y-147122419D01*
X109291352Y-147122419D02*
X109291352Y-146122419D01*
X107910400Y-147027180D02*
X107958019Y-147074800D01*
X107958019Y-147074800D02*
X108100876Y-147122419D01*
X108100876Y-147122419D02*
X108196114Y-147122419D01*
X108196114Y-147122419D02*
X108338971Y-147074800D01*
X108338971Y-147074800D02*
X108434209Y-146979561D01*
X108434209Y-146979561D02*
X108481828Y-146884323D01*
X108481828Y-146884323D02*
X108529447Y-146693847D01*
X108529447Y-146693847D02*
X108529447Y-146550990D01*
X108529447Y-146550990D02*
X108481828Y-146360514D01*
X108481828Y-146360514D02*
X108434209Y-146265276D01*
X108434209Y-146265276D02*
X108338971Y-146170038D01*
X108338971Y-146170038D02*
X108196114Y-146122419D01*
X108196114Y-146122419D02*
X108100876Y-146122419D01*
X108100876Y-146122419D02*
X107958019Y-146170038D01*
X107958019Y-146170038D02*
X107910400Y-146217657D01*
X107196114Y-146122419D02*
X107196114Y-146836704D01*
X107196114Y-146836704D02*
X107243733Y-146979561D01*
X107243733Y-146979561D02*
X107338971Y-147074800D01*
X107338971Y-147074800D02*
X107481828Y-147122419D01*
X107481828Y-147122419D02*
X107577066Y-147122419D01*
X106243733Y-147122419D02*
X106719923Y-147122419D01*
X106719923Y-147122419D02*
X106719923Y-146122419D01*
X105338971Y-147027180D02*
X105386590Y-147074800D01*
X105386590Y-147074800D02*
X105529447Y-147122419D01*
X105529447Y-147122419D02*
X105624685Y-147122419D01*
X105624685Y-147122419D02*
X105767542Y-147074800D01*
X105767542Y-147074800D02*
X105862780Y-146979561D01*
X105862780Y-146979561D02*
X105910399Y-146884323D01*
X105910399Y-146884323D02*
X105958018Y-146693847D01*
X105958018Y-146693847D02*
X105958018Y-146550990D01*
X105958018Y-146550990D02*
X105910399Y-146360514D01*
X105910399Y-146360514D02*
X105862780Y-146265276D01*
X105862780Y-146265276D02*
X105767542Y-146170038D01*
X105767542Y-146170038D02*
X105624685Y-146122419D01*
X105624685Y-146122419D02*
X105529447Y-146122419D01*
X105529447Y-146122419D02*
X105386590Y-146170038D01*
X105386590Y-146170038D02*
X105338971Y-146217657D01*
D11*
X152386780Y-79624060D02*
X152310590Y-79481203D01*
X152310590Y-79481203D02*
X152310590Y-79266917D01*
X152310590Y-79266917D02*
X152386780Y-79052631D01*
X152386780Y-79052631D02*
X152539161Y-78909774D01*
X152539161Y-78909774D02*
X152691542Y-78838345D01*
X152691542Y-78838345D02*
X152996304Y-78766917D01*
X152996304Y-78766917D02*
X153224876Y-78766917D01*
X153224876Y-78766917D02*
X153529638Y-78838345D01*
X153529638Y-78838345D02*
X153682019Y-78909774D01*
X153682019Y-78909774D02*
X153834400Y-79052631D01*
X153834400Y-79052631D02*
X153910590Y-79266917D01*
X153910590Y-79266917D02*
X153910590Y-79409774D01*
X153910590Y-79409774D02*
X153834400Y-79624060D01*
X153834400Y-79624060D02*
X153758209Y-79695488D01*
X153758209Y-79695488D02*
X153224876Y-79695488D01*
X153224876Y-79695488D02*
X153224876Y-79409774D01*
X153910590Y-80338345D02*
X152310590Y-80338345D01*
X152310590Y-80338345D02*
X153910590Y-81195488D01*
X153910590Y-81195488D02*
X152310590Y-81195488D01*
X153910590Y-81909774D02*
X152310590Y-81909774D01*
X152310590Y-81909774D02*
X152310590Y-82266917D01*
X152310590Y-82266917D02*
X152386780Y-82481203D01*
X152386780Y-82481203D02*
X152539161Y-82624060D01*
X152539161Y-82624060D02*
X152691542Y-82695489D01*
X152691542Y-82695489D02*
X152996304Y-82766917D01*
X152996304Y-82766917D02*
X153224876Y-82766917D01*
X153224876Y-82766917D02*
X153529638Y-82695489D01*
X153529638Y-82695489D02*
X153682019Y-82624060D01*
X153682019Y-82624060D02*
X153834400Y-82481203D01*
X153834400Y-82481203D02*
X153910590Y-82266917D01*
X153910590Y-82266917D02*
X153910590Y-81909774D01*
X155648405Y-73909774D02*
X155724595Y-74124060D01*
X155724595Y-74124060D02*
X155800786Y-74195489D01*
X155800786Y-74195489D02*
X155953167Y-74266917D01*
X155953167Y-74266917D02*
X156181738Y-74266917D01*
X156181738Y-74266917D02*
X156334119Y-74195489D01*
X156334119Y-74195489D02*
X156410310Y-74124060D01*
X156410310Y-74124060D02*
X156486500Y-73981203D01*
X156486500Y-73981203D02*
X156486500Y-73409774D01*
X156486500Y-73409774D02*
X154886500Y-73409774D01*
X154886500Y-73409774D02*
X154886500Y-73909774D01*
X154886500Y-73909774D02*
X154962690Y-74052632D01*
X154962690Y-74052632D02*
X155038881Y-74124060D01*
X155038881Y-74124060D02*
X155191262Y-74195489D01*
X155191262Y-74195489D02*
X155343643Y-74195489D01*
X155343643Y-74195489D02*
X155496024Y-74124060D01*
X155496024Y-74124060D02*
X155572214Y-74052632D01*
X155572214Y-74052632D02*
X155648405Y-73909774D01*
X155648405Y-73909774D02*
X155648405Y-73409774D01*
X156486500Y-74909774D02*
X154886500Y-74909774D01*
X154886500Y-74909774D02*
X156029357Y-75409774D01*
X156029357Y-75409774D02*
X154886500Y-75909774D01*
X154886500Y-75909774D02*
X156486500Y-75909774D01*
X156486500Y-77481203D02*
X155724595Y-76981203D01*
X156486500Y-76624060D02*
X154886500Y-76624060D01*
X154886500Y-76624060D02*
X154886500Y-77195489D01*
X154886500Y-77195489D02*
X154962690Y-77338346D01*
X154962690Y-77338346D02*
X155038881Y-77409775D01*
X155038881Y-77409775D02*
X155191262Y-77481203D01*
X155191262Y-77481203D02*
X155419833Y-77481203D01*
X155419833Y-77481203D02*
X155572214Y-77409775D01*
X155572214Y-77409775D02*
X155648405Y-77338346D01*
X155648405Y-77338346D02*
X155724595Y-77195489D01*
X155724595Y-77195489D02*
X155724595Y-76624060D01*
X156638881Y-77766918D02*
X156638881Y-78909775D01*
X156410310Y-79195489D02*
X156486500Y-79409775D01*
X156486500Y-79409775D02*
X156486500Y-79766917D01*
X156486500Y-79766917D02*
X156410310Y-79909775D01*
X156410310Y-79909775D02*
X156334119Y-79981203D01*
X156334119Y-79981203D02*
X156181738Y-80052632D01*
X156181738Y-80052632D02*
X156029357Y-80052632D01*
X156029357Y-80052632D02*
X155876976Y-79981203D01*
X155876976Y-79981203D02*
X155800786Y-79909775D01*
X155800786Y-79909775D02*
X155724595Y-79766917D01*
X155724595Y-79766917D02*
X155648405Y-79481203D01*
X155648405Y-79481203D02*
X155572214Y-79338346D01*
X155572214Y-79338346D02*
X155496024Y-79266917D01*
X155496024Y-79266917D02*
X155343643Y-79195489D01*
X155343643Y-79195489D02*
X155191262Y-79195489D01*
X155191262Y-79195489D02*
X155038881Y-79266917D01*
X155038881Y-79266917D02*
X154962690Y-79338346D01*
X154962690Y-79338346D02*
X154886500Y-79481203D01*
X154886500Y-79481203D02*
X154886500Y-79838346D01*
X154886500Y-79838346D02*
X154962690Y-80052632D01*
X156334119Y-81552631D02*
X156410310Y-81481203D01*
X156410310Y-81481203D02*
X156486500Y-81266917D01*
X156486500Y-81266917D02*
X156486500Y-81124060D01*
X156486500Y-81124060D02*
X156410310Y-80909774D01*
X156410310Y-80909774D02*
X156257929Y-80766917D01*
X156257929Y-80766917D02*
X156105548Y-80695488D01*
X156105548Y-80695488D02*
X155800786Y-80624060D01*
X155800786Y-80624060D02*
X155572214Y-80624060D01*
X155572214Y-80624060D02*
X155267452Y-80695488D01*
X155267452Y-80695488D02*
X155115071Y-80766917D01*
X155115071Y-80766917D02*
X154962690Y-80909774D01*
X154962690Y-80909774D02*
X154886500Y-81124060D01*
X154886500Y-81124060D02*
X154886500Y-81266917D01*
X154886500Y-81266917D02*
X154962690Y-81481203D01*
X154962690Y-81481203D02*
X155038881Y-81552631D01*
X156486500Y-82909774D02*
X156486500Y-82195488D01*
X156486500Y-82195488D02*
X154886500Y-82195488D01*
X158224315Y-73838346D02*
X158300505Y-74052632D01*
X158300505Y-74052632D02*
X158376696Y-74124061D01*
X158376696Y-74124061D02*
X158529077Y-74195489D01*
X158529077Y-74195489D02*
X158757648Y-74195489D01*
X158757648Y-74195489D02*
X158910029Y-74124061D01*
X158910029Y-74124061D02*
X158986220Y-74052632D01*
X158986220Y-74052632D02*
X159062410Y-73909775D01*
X159062410Y-73909775D02*
X159062410Y-73338346D01*
X159062410Y-73338346D02*
X157462410Y-73338346D01*
X157462410Y-73338346D02*
X157462410Y-73838346D01*
X157462410Y-73838346D02*
X157538600Y-73981204D01*
X157538600Y-73981204D02*
X157614791Y-74052632D01*
X157614791Y-74052632D02*
X157767172Y-74124061D01*
X157767172Y-74124061D02*
X157919553Y-74124061D01*
X157919553Y-74124061D02*
X158071934Y-74052632D01*
X158071934Y-74052632D02*
X158148124Y-73981204D01*
X158148124Y-73981204D02*
X158224315Y-73838346D01*
X158224315Y-73838346D02*
X158224315Y-73338346D01*
X159062410Y-74838346D02*
X157462410Y-74838346D01*
X157462410Y-74838346D02*
X158605267Y-75338346D01*
X158605267Y-75338346D02*
X157462410Y-75838346D01*
X157462410Y-75838346D02*
X159062410Y-75838346D01*
X159062410Y-77409775D02*
X158300505Y-76909775D01*
X159062410Y-76552632D02*
X157462410Y-76552632D01*
X157462410Y-76552632D02*
X157462410Y-77124061D01*
X157462410Y-77124061D02*
X157538600Y-77266918D01*
X157538600Y-77266918D02*
X157614791Y-77338347D01*
X157614791Y-77338347D02*
X157767172Y-77409775D01*
X157767172Y-77409775D02*
X157995743Y-77409775D01*
X157995743Y-77409775D02*
X158148124Y-77338347D01*
X158148124Y-77338347D02*
X158224315Y-77266918D01*
X158224315Y-77266918D02*
X158300505Y-77124061D01*
X158300505Y-77124061D02*
X158300505Y-76552632D01*
X159214791Y-77695490D02*
X159214791Y-78838347D01*
X158986220Y-79124061D02*
X159062410Y-79338347D01*
X159062410Y-79338347D02*
X159062410Y-79695489D01*
X159062410Y-79695489D02*
X158986220Y-79838347D01*
X158986220Y-79838347D02*
X158910029Y-79909775D01*
X158910029Y-79909775D02*
X158757648Y-79981204D01*
X158757648Y-79981204D02*
X158605267Y-79981204D01*
X158605267Y-79981204D02*
X158452886Y-79909775D01*
X158452886Y-79909775D02*
X158376696Y-79838347D01*
X158376696Y-79838347D02*
X158300505Y-79695489D01*
X158300505Y-79695489D02*
X158224315Y-79409775D01*
X158224315Y-79409775D02*
X158148124Y-79266918D01*
X158148124Y-79266918D02*
X158071934Y-79195489D01*
X158071934Y-79195489D02*
X157919553Y-79124061D01*
X157919553Y-79124061D02*
X157767172Y-79124061D01*
X157767172Y-79124061D02*
X157614791Y-79195489D01*
X157614791Y-79195489D02*
X157538600Y-79266918D01*
X157538600Y-79266918D02*
X157462410Y-79409775D01*
X157462410Y-79409775D02*
X157462410Y-79766918D01*
X157462410Y-79766918D02*
X157538600Y-79981204D01*
X159062410Y-80624060D02*
X157462410Y-80624060D01*
X157462410Y-80624060D02*
X157462410Y-80981203D01*
X157462410Y-80981203D02*
X157538600Y-81195489D01*
X157538600Y-81195489D02*
X157690981Y-81338346D01*
X157690981Y-81338346D02*
X157843362Y-81409775D01*
X157843362Y-81409775D02*
X158148124Y-81481203D01*
X158148124Y-81481203D02*
X158376696Y-81481203D01*
X158376696Y-81481203D02*
X158681458Y-81409775D01*
X158681458Y-81409775D02*
X158833839Y-81338346D01*
X158833839Y-81338346D02*
X158986220Y-81195489D01*
X158986220Y-81195489D02*
X159062410Y-80981203D01*
X159062410Y-80981203D02*
X159062410Y-80624060D01*
X158605267Y-82052632D02*
X158605267Y-82766918D01*
X159062410Y-81909775D02*
X157462410Y-82409775D01*
X157462410Y-82409775D02*
X159062410Y-82909775D01*
M02*
