%TF.GenerationSoftware,KiCad,Pcbnew,9.0.2*%
%TF.CreationDate,2025-11-15T13:58:40-05:00*%
%TF.ProjectId,power,706f7765-722e-46b6-9963-61645f706362,rev?*%
%TF.SameCoordinates,Original*%
%TF.FileFunction,Soldermask,Bot*%
%TF.FilePolarity,Negative*%
%FSLAX46Y46*%
G04 Gerber Fmt 4.6, Leading zero omitted, Abs format (unit mm)*
G04 Created by KiCad (PCBNEW 9.0.2) date 2025-11-15 13:58:40*
%MOMM*%
%LPD*%
G01*
G04 APERTURE LIST*
G04 Aperture macros list*
%AMRoundRect*
0 Rectangle with rounded corners*
0 $1 Rounding radius*
0 $2 $3 $4 $5 $6 $7 $8 $9 X,Y pos of 4 corners*
0 Add a 4 corners polygon primitive as box body*
4,1,4,$2,$3,$4,$5,$6,$7,$8,$9,$2,$3,0*
0 Add four circle primitives for the rounded corners*
1,1,$1+$1,$2,$3*
1,1,$1+$1,$4,$5*
1,1,$1+$1,$6,$7*
1,1,$1+$1,$8,$9*
0 Add four rect primitives between the rounded corners*
20,1,$1+$1,$2,$3,$4,$5,0*
20,1,$1+$1,$4,$5,$6,$7,0*
20,1,$1+$1,$6,$7,$8,$9,0*
20,1,$1+$1,$8,$9,$2,$3,0*%
G04 Aperture macros list end*
%ADD10R,2.500000X2.500000*%
%ADD11R,1.400000X1.400000*%
%ADD12C,1.400000*%
%ADD13O,2.750000X2.100000*%
%ADD14R,1.700000X1.700000*%
%ADD15C,1.700000*%
%ADD16C,3.200000*%
%ADD17RoundRect,0.250000X-0.550000X-0.550000X0.550000X-0.550000X0.550000X0.550000X-0.550000X0.550000X0*%
%ADD18C,1.600000*%
%ADD19RoundRect,0.102000X0.765000X-0.765000X0.765000X0.765000X-0.765000X0.765000X-0.765000X-0.765000X0*%
%ADD20C,1.734000*%
%ADD21C,2.032000*%
%ADD22C,2.108200*%
%ADD23C,2.362200*%
%ADD24C,2.616200*%
%ADD25C,1.295400*%
%ADD26C,1.397000*%
%ADD27RoundRect,0.250001X0.949999X-0.949999X0.949999X0.949999X-0.949999X0.949999X-0.949999X-0.949999X0*%
%ADD28C,2.400000*%
%ADD29RoundRect,0.250001X-0.949999X-0.949999X0.949999X-0.949999X0.949999X0.949999X-0.949999X0.949999X0*%
%ADD30R,1.500000X2.500000*%
%ADD31O,1.500000X2.500000*%
%ADD32O,4.000000X3.000000*%
G04 APERTURE END LIST*
D10*
%TO.C,TP_12V_OCD1*%
X208750000Y-86500000D03*
%TD*%
D11*
%TO.C,U4*%
X228060000Y-110870000D03*
D12*
X226790000Y-108965000D03*
X225520000Y-110870000D03*
X224250000Y-108965000D03*
X222980000Y-110870000D03*
X221710000Y-108965000D03*
X220440000Y-110870000D03*
D13*
X219350000Y-99135000D03*
X219350000Y-96035000D03*
X219350000Y-92935000D03*
X229150000Y-92935000D03*
X229150000Y-96035000D03*
X229150000Y-99135000D03*
%TD*%
D14*
%TO.C,J3*%
X244900000Y-99960000D03*
D15*
X244900000Y-102500000D03*
%TD*%
D10*
%TO.C,TP_5V_VDETECT1*%
X166500000Y-111000000D03*
%TD*%
%TO.C,TP_12V_VDETECT1*%
X154500000Y-109000000D03*
%TD*%
%TO.C,TP_5V_OCD1*%
X232750000Y-112000000D03*
%TD*%
%TO.C,TP_5V_PG1*%
X211500000Y-110250000D03*
%TD*%
%TO.C,TP5V_CURRENT_VOUT1*%
X203250000Y-111500000D03*
%TD*%
D16*
%TO.C,H1*%
X87450000Y-44600000D03*
%TD*%
D14*
%TO.C,J9*%
X146130000Y-91850000D03*
D15*
X143590000Y-91850000D03*
X141050000Y-91850000D03*
X138510000Y-91850000D03*
X135970000Y-91850000D03*
%TD*%
D14*
%TO.C,J8*%
X237920000Y-111000000D03*
D15*
X240460000Y-111000000D03*
X243000000Y-111000000D03*
%TD*%
D17*
%TO.C,C5*%
X97347349Y-89850000D03*
D18*
X100847349Y-89850000D03*
%TD*%
D10*
%TO.C,TP_1V25_1*%
X198250000Y-111500000D03*
%TD*%
D14*
%TO.C,J4*%
X240000000Y-82475000D03*
D15*
X240000000Y-85015000D03*
%TD*%
D17*
%TO.C,C3*%
X97347349Y-70750000D03*
D18*
X100847349Y-70750000D03*
%TD*%
D16*
%TO.C,J1*%
X258057500Y-135260000D03*
X258057500Y-57500000D03*
D19*
X261557500Y-105090000D03*
D20*
X261557500Y-102550000D03*
X261557500Y-100010000D03*
X261557500Y-97470000D03*
X261557500Y-94930000D03*
X261557500Y-92390000D03*
X261557500Y-89850000D03*
X261557500Y-87310000D03*
X259017500Y-105090000D03*
X259017500Y-102550000D03*
X259017500Y-100010000D03*
X259017500Y-97470000D03*
X259017500Y-94930000D03*
X259017500Y-92390000D03*
X259017500Y-89850000D03*
X259017500Y-87310000D03*
X256477500Y-105090000D03*
X256477500Y-102550000D03*
X256477500Y-100010000D03*
X256477500Y-97470000D03*
X256477500Y-94930000D03*
X256477500Y-92390000D03*
X256477500Y-89850000D03*
X256477500Y-87310000D03*
X253057500Y-129760000D03*
X255557500Y-129760000D03*
X258057500Y-129760000D03*
X260557500Y-129760000D03*
X263057500Y-129760000D03*
X263057500Y-126760000D03*
X260557500Y-126760000D03*
X258057500Y-126760000D03*
X255557500Y-126760000D03*
X253057500Y-126760000D03*
X253057500Y-124260000D03*
X255557500Y-124260000D03*
X258057500Y-124260000D03*
X260557500Y-124260000D03*
X263057500Y-124260000D03*
X263057500Y-121260000D03*
X260557500Y-121260000D03*
X258057500Y-121260000D03*
X255557500Y-121260000D03*
X253057500Y-121260000D03*
X253057500Y-118760000D03*
X255557500Y-118760000D03*
X258057500Y-118760000D03*
X260557500Y-118760000D03*
X263057500Y-118760000D03*
X263057500Y-115760000D03*
X260557500Y-115760000D03*
X258057500Y-115760000D03*
X255557500Y-115760000D03*
X253057500Y-115760000D03*
X253057500Y-113260000D03*
X255557500Y-113260000D03*
X258057500Y-113260000D03*
X260557500Y-113260000D03*
X263057500Y-113260000D03*
X263057500Y-110260000D03*
X260557500Y-110260000D03*
X258057500Y-110260000D03*
X255557500Y-110260000D03*
X253057500Y-110260000D03*
X253057500Y-82500000D03*
X255557500Y-82500000D03*
X258057500Y-82500000D03*
X260557500Y-82500000D03*
X263057500Y-82500000D03*
X263057500Y-79500000D03*
X260557500Y-79500000D03*
X258057500Y-79500000D03*
X255557500Y-79500000D03*
X253057500Y-79500000D03*
X253057500Y-77000000D03*
X255557500Y-77000000D03*
X258057500Y-77000000D03*
X260557500Y-77000000D03*
X263057500Y-77000000D03*
X263057500Y-74000000D03*
X260557500Y-74000000D03*
X258057500Y-74000000D03*
X255557500Y-74000000D03*
X253057500Y-74000000D03*
X253057500Y-71500000D03*
X255557500Y-71500000D03*
X258057500Y-71500000D03*
X260557500Y-71500000D03*
X263057500Y-71500000D03*
X263057500Y-68500000D03*
X260557500Y-68500000D03*
X258057500Y-68500000D03*
X255557500Y-68500000D03*
X253057500Y-68500000D03*
X253057500Y-66000000D03*
X255557500Y-66000000D03*
X258057500Y-66000000D03*
X260557500Y-66000000D03*
X263057500Y-66000000D03*
X263057500Y-63000000D03*
X260557500Y-63000000D03*
X258057500Y-63000000D03*
X255557500Y-63000000D03*
X253057500Y-63000000D03*
%TD*%
D10*
%TO.C,TP_12V_CURRENT_VOUT1*%
X192500000Y-93500000D03*
%TD*%
D14*
%TO.C,J2*%
X240310000Y-99960000D03*
D15*
X240310000Y-102500000D03*
%TD*%
D14*
%TO.C,J7*%
X158290000Y-85000000D03*
D15*
X155750000Y-85000000D03*
X153210000Y-85000000D03*
%TD*%
D10*
%TO.C,TP_12V_PG1*%
X131750000Y-90250000D03*
%TD*%
D21*
%TO.C,J6*%
X86619571Y-140750000D03*
X91699571Y-140750000D03*
X96779571Y-140750000D03*
X101859571Y-140750000D03*
X106939571Y-140750000D03*
X112019571Y-140750000D03*
%TD*%
D10*
%TO.C,TP_3V_1*%
X170500000Y-91500000D03*
%TD*%
D17*
%TO.C,C4*%
X97347349Y-80300000D03*
D18*
X100847349Y-80300000D03*
%TD*%
D22*
%TO.C,U1*%
X122350000Y-61373700D03*
X122350000Y-68993688D03*
X122350000Y-76613688D03*
D23*
X173150000Y-80423688D03*
D24*
X173150000Y-76613688D03*
D25*
X173150000Y-68993688D03*
D24*
X173150000Y-61373700D03*
X173150000Y-57563688D03*
D26*
X175690000Y-74993680D03*
X175690000Y-72993680D03*
X175690000Y-70993680D03*
X175690000Y-68993679D03*
X175690000Y-66993679D03*
X175690000Y-64993679D03*
X175690000Y-62993679D03*
%TD*%
D27*
%TO.C,C11*%
X236750000Y-58477780D03*
D28*
X236750000Y-50977780D03*
%TD*%
D14*
%TO.C,J5*%
X235000000Y-82500000D03*
D15*
X235000000Y-85040000D03*
%TD*%
D16*
%TO.C,H3*%
X244450000Y-89900000D03*
%TD*%
D29*
%TO.C,C1*%
X96676041Y-102250000D03*
D28*
X101676041Y-102250000D03*
%TD*%
D27*
%TO.C,C12*%
X217000000Y-58477780D03*
D28*
X217000000Y-50977780D03*
%TD*%
D16*
%TO.C,H2*%
X260750000Y-143500000D03*
%TD*%
D30*
%TO.C,U2*%
X199000000Y-85315000D03*
D31*
X197000000Y-85315000D03*
X195000000Y-85315000D03*
X193000000Y-85315000D03*
X191000000Y-85315000D03*
D32*
X186000000Y-71315000D03*
X186000000Y-67815000D03*
X186000000Y-64315000D03*
X186000000Y-60815000D03*
X204000000Y-60815000D03*
X204000000Y-64315000D03*
X204000000Y-67815000D03*
X204000000Y-71315000D03*
%TD*%
D29*
%TO.C,C2*%
X96676041Y-117250000D03*
D28*
X101676041Y-117250000D03*
%TD*%
M02*
