%TF.GenerationSoftware,KiCad,Pcbnew,9.0.2*%
%TF.CreationDate,2025-12-07T17:47:35-05:00*%
%TF.ProjectId,mcu and pi board,6d637520-616e-4642-9070-6920626f6172,rev?*%
%TF.SameCoordinates,Original*%
%TF.FileFunction,Soldermask,Bot*%
%TF.FilePolarity,Negative*%
%FSLAX46Y46*%
G04 Gerber Fmt 4.6, Leading zero omitted, Abs format (unit mm)*
G04 Created by KiCad (PCBNEW 9.0.2) date 2025-12-07 17:47:35*
%MOMM*%
%LPD*%
G01*
G04 APERTURE LIST*
G04 Aperture macros list*
%AMRoundRect*
0 Rectangle with rounded corners*
0 $1 Rounding radius*
0 $2 $3 $4 $5 $6 $7 $8 $9 X,Y pos of 4 corners*
0 Add a 4 corners polygon primitive as box body*
4,1,4,$2,$3,$4,$5,$6,$7,$8,$9,$2,$3,0*
0 Add four circle primitives for the rounded corners*
1,1,$1+$1,$2,$3*
1,1,$1+$1,$4,$5*
1,1,$1+$1,$6,$7*
1,1,$1+$1,$8,$9*
0 Add four rect primitives between the rounded corners*
20,1,$1+$1,$2,$3,$4,$5,0*
20,1,$1+$1,$4,$5,$6,$7,0*
20,1,$1+$1,$6,$7,$8,$9,0*
20,1,$1+$1,$8,$9,$2,$3,0*%
G04 Aperture macros list end*
%ADD10C,0.836200*%
%ADD11C,0.586200*%
%ADD12C,0.010000*%
%ADD13C,0.504000*%
%ADD14R,1.700000X1.700000*%
%ADD15C,1.700000*%
%ADD16C,1.020000*%
%ADD17C,3.200000*%
%ADD18RoundRect,0.102000X0.765000X0.765000X-0.765000X0.765000X-0.765000X-0.765000X0.765000X-0.765000X0*%
%ADD19C,1.734000*%
%ADD20RoundRect,0.102000X-1.065000X-1.065000X1.065000X-1.065000X1.065000X1.065000X-1.065000X1.065000X0*%
%ADD21C,2.334000*%
%ADD22RoundRect,0.102000X-0.975000X-0.975000X0.975000X-0.975000X0.975000X0.975000X-0.975000X0.975000X0*%
%ADD23C,2.154000*%
%ADD24RoundRect,0.102000X-0.762000X0.762000X-0.762000X-0.762000X0.762000X-0.762000X0.762000X0.762000X0*%
%ADD25C,1.728000*%
%ADD26C,6.404000*%
%ADD27C,1.594000*%
%ADD28RoundRect,0.102000X-0.695000X0.695000X-0.695000X-0.695000X0.695000X-0.695000X0.695000X0.695000X0*%
%ADD29RoundRect,0.102000X0.695000X-0.695000X0.695000X0.695000X-0.695000X0.695000X-0.695000X-0.695000X0*%
%ADD30O,5.204000X2.704000*%
%ADD31O,4.704000X2.454000*%
%ADD32O,2.454000X4.704000*%
%ADD33RoundRect,0.102000X1.065000X-1.065000X1.065000X1.065000X-1.065000X1.065000X-1.065000X-1.065000X0*%
%ADD34RoundRect,0.102000X0.685000X-0.685000X0.685000X0.685000X-0.685000X0.685000X-0.685000X-0.685000X0*%
%ADD35C,1.574000*%
%ADD36RoundRect,0.250000X-0.625000X0.350000X-0.625000X-0.350000X0.625000X-0.350000X0.625000X0.350000X0*%
%ADD37O,1.750000X1.200000*%
G04 APERTURE END LIST*
D10*
%TO.C,J12*%
X188728100Y-89080000D02*
G75*
G02*
X187891900Y-89080000I-418100J0D01*
G01*
X187891900Y-89080000D02*
G75*
G02*
X188728100Y-89080000I418100J0D01*
G01*
X191728100Y-89080000D02*
G75*
G02*
X190891900Y-89080000I-418100J0D01*
G01*
X190891900Y-89080000D02*
G75*
G02*
X191728100Y-89080000I418100J0D01*
G01*
X191728100Y-92080000D02*
G75*
G02*
X190891900Y-92080000I-418100J0D01*
G01*
X190891900Y-92080000D02*
G75*
G02*
X191728100Y-92080000I418100J0D01*
G01*
D11*
X192543100Y-86080000D02*
G75*
G02*
X191956900Y-86080000I-293100J0D01*
G01*
X191956900Y-86080000D02*
G75*
G02*
X192543100Y-86080000I293100J0D01*
G01*
X192543100Y-95080000D02*
G75*
G02*
X191956900Y-95080000I-293100J0D01*
G01*
X191956900Y-95080000D02*
G75*
G02*
X192543100Y-95080000I293100J0D01*
G01*
D12*
X189146200Y-92916200D02*
X187473800Y-92916200D01*
X187473800Y-91243800D01*
X189146200Y-91243800D01*
X189146200Y-92916200D01*
G36*
X189146200Y-92916200D02*
G01*
X187473800Y-92916200D01*
X187473800Y-91243800D01*
X189146200Y-91243800D01*
X189146200Y-92916200D01*
G37*
%TD*%
D13*
%TO.C,IC3*%
X231854000Y-207218500D03*
X231854000Y-208123500D03*
X230879000Y-206766500D03*
X230879000Y-207671500D03*
X230879000Y-208576500D03*
X229904000Y-207218500D03*
X229904000Y-208123500D03*
%TD*%
D14*
%TO.C,J18*%
X192350000Y-204760000D03*
D15*
X192350000Y-207300000D03*
X192350000Y-209840000D03*
%TD*%
D16*
%TO.C,J12*%
X192250000Y-86080000D03*
X192250000Y-95080000D03*
%TD*%
D17*
%TO.C,J2*%
X296360000Y-37400000D03*
X218600000Y-37400000D03*
D18*
X248770000Y-31400000D03*
D19*
X251310000Y-31400000D03*
X253850000Y-31400000D03*
X256390000Y-31400000D03*
X258930000Y-31400000D03*
X261470000Y-31400000D03*
X264010000Y-31400000D03*
X266550000Y-31400000D03*
X248770000Y-33940000D03*
X251310000Y-33940000D03*
X253850000Y-33940000D03*
X256390000Y-33940000D03*
X258930000Y-33940000D03*
X261470000Y-33940000D03*
X264010000Y-33940000D03*
X266550000Y-33940000D03*
X248770000Y-36480000D03*
X251310000Y-36480000D03*
X253850000Y-36480000D03*
X256390000Y-36480000D03*
X258930000Y-36480000D03*
X261470000Y-36480000D03*
X264010000Y-36480000D03*
X266550000Y-36480000D03*
X224100000Y-42400000D03*
X224100000Y-39900000D03*
X224100000Y-37400000D03*
X224100000Y-34900000D03*
X224100000Y-32400000D03*
X227100000Y-32400000D03*
X227100000Y-34900000D03*
X227100000Y-37400000D03*
X227100000Y-39900000D03*
X227100000Y-42400000D03*
X229600000Y-42400000D03*
X229600000Y-39900000D03*
X229600000Y-37400000D03*
X229600000Y-34900000D03*
X229600000Y-32400000D03*
X232600000Y-32400000D03*
X232600000Y-34900000D03*
X232600000Y-37400000D03*
X232600000Y-39900000D03*
X232600000Y-42400000D03*
X235100000Y-42400000D03*
X235100000Y-39900000D03*
X235100000Y-37400000D03*
X235100000Y-34900000D03*
X235100000Y-32400000D03*
X238100000Y-32400000D03*
X238100000Y-34900000D03*
X238100000Y-37400000D03*
X238100000Y-39900000D03*
X238100000Y-42400000D03*
X240600000Y-42400000D03*
X240600000Y-39900000D03*
X240600000Y-37400000D03*
X240600000Y-34900000D03*
X240600000Y-32400000D03*
X243600000Y-32400000D03*
X243600000Y-34900000D03*
X243600000Y-37400000D03*
X243600000Y-39900000D03*
X243600000Y-42400000D03*
X271360000Y-42400000D03*
X271360000Y-39900000D03*
X271360000Y-37400000D03*
X271360000Y-34900000D03*
X271360000Y-32400000D03*
X274360000Y-32400000D03*
X274360000Y-34900000D03*
X274360000Y-37400000D03*
X274360000Y-39900000D03*
X274360000Y-42400000D03*
X276860000Y-42400000D03*
X276860000Y-39900000D03*
X276860000Y-37400000D03*
X276860000Y-34900000D03*
X276860000Y-32400000D03*
X279860000Y-32400000D03*
X279860000Y-34900000D03*
X279860000Y-37400000D03*
X279860000Y-39900000D03*
X279860000Y-42400000D03*
X282360000Y-42400000D03*
X282360000Y-39900000D03*
X282360000Y-37400000D03*
X282360000Y-34900000D03*
X282360000Y-32400000D03*
X285360000Y-32400000D03*
X285360000Y-34900000D03*
X285360000Y-37400000D03*
X285360000Y-39900000D03*
X285360000Y-42400000D03*
X287860000Y-42400000D03*
X287860000Y-39900000D03*
X287860000Y-37400000D03*
X287860000Y-34900000D03*
X287860000Y-32400000D03*
X290860000Y-32400000D03*
X290860000Y-34900000D03*
X290860000Y-37400000D03*
X290860000Y-39900000D03*
X290860000Y-42400000D03*
%TD*%
D20*
%TO.C,J13*%
X260980000Y-141175000D03*
D21*
X265170000Y-141175000D03*
X269360000Y-141175000D03*
X273550000Y-141175000D03*
X277740000Y-141175000D03*
X260980000Y-145365000D03*
X265170000Y-145365000D03*
X269360000Y-145365000D03*
X273550000Y-145365000D03*
X277740000Y-145365000D03*
%TD*%
D22*
%TO.C,J23*%
X180000000Y-237800000D03*
D23*
X185080000Y-237800000D03*
X190160000Y-237800000D03*
%TD*%
D14*
%TO.C,J35*%
X170510000Y-177280000D03*
D15*
X173050000Y-177280000D03*
X170510000Y-179820000D03*
X173050000Y-179820000D03*
X170510000Y-182360000D03*
X173050000Y-182360000D03*
X170510000Y-184900000D03*
X173050000Y-184900000D03*
X170510000Y-187440000D03*
X173050000Y-187440000D03*
X170510000Y-189980000D03*
X173050000Y-189980000D03*
X170510000Y-192520000D03*
X173050000Y-192520000D03*
X170510000Y-195060000D03*
X173050000Y-195060000D03*
X170510000Y-197600000D03*
X173050000Y-197600000D03*
%TD*%
D13*
%TO.C,IC4*%
X243844000Y-209028500D03*
X244749000Y-209028500D03*
X243392000Y-210003500D03*
X244297000Y-210003500D03*
X245202000Y-210003500D03*
X243844000Y-210978500D03*
X244749000Y-210978500D03*
%TD*%
D14*
%TO.C,J26*%
X238480000Y-168580000D03*
D15*
X238480000Y-171120000D03*
X238480000Y-173660000D03*
%TD*%
D14*
%TO.C,J31*%
X200970000Y-103180000D03*
D15*
X200970000Y-100640000D03*
X200970000Y-98100000D03*
X200970000Y-95560000D03*
%TD*%
D22*
%TO.C,J24*%
X207000000Y-237800000D03*
D23*
X212080000Y-237800000D03*
X217160000Y-237800000D03*
%TD*%
D14*
%TO.C,J20*%
X222990000Y-138540000D03*
D15*
X225530000Y-138540000D03*
X228070000Y-138540000D03*
%TD*%
D14*
%TO.C,J27*%
X217375000Y-137130000D03*
D15*
X217375000Y-134590000D03*
%TD*%
D20*
%TO.C,J14*%
X260980000Y-51175000D03*
D21*
X265170000Y-51175000D03*
X269360000Y-51175000D03*
X273550000Y-51175000D03*
X277740000Y-51175000D03*
X260980000Y-55365000D03*
X265170000Y-55365000D03*
X269360000Y-55365000D03*
X273550000Y-55365000D03*
X277740000Y-55365000D03*
%TD*%
D14*
%TO.C,J19*%
X218940000Y-112300000D03*
D15*
X216400000Y-112300000D03*
%TD*%
D14*
%TO.C,J34*%
X229140000Y-90930000D03*
D15*
X229140000Y-93470000D03*
X229140000Y-96010000D03*
%TD*%
D14*
%TO.C,J29*%
X249880000Y-160140000D03*
D15*
X247340000Y-160140000D03*
X249880000Y-162680000D03*
X247340000Y-162680000D03*
%TD*%
D24*
%TO.C,U5*%
X172150000Y-91800000D03*
D25*
X174690000Y-91800000D03*
X172150000Y-94340000D03*
X174690000Y-94340000D03*
X172150000Y-96880000D03*
X174690000Y-96880000D03*
X172150000Y-99420000D03*
X174690000Y-99420000D03*
X172150000Y-101960000D03*
X174690000Y-101960000D03*
X172150000Y-104500000D03*
X174690000Y-104500000D03*
X172150000Y-107040000D03*
X174690000Y-107040000D03*
X172150000Y-109580000D03*
X174690000Y-109580000D03*
X172150000Y-112120000D03*
X174690000Y-112120000D03*
X172150000Y-114660000D03*
X174690000Y-114660000D03*
X172150000Y-117200000D03*
X174690000Y-117200000D03*
X172150000Y-119740000D03*
X174690000Y-119740000D03*
X172150000Y-122280000D03*
X174690000Y-122280000D03*
X172150000Y-124820000D03*
X174690000Y-124820000D03*
X172150000Y-127360000D03*
X174690000Y-127360000D03*
X172150000Y-129900000D03*
X174690000Y-129900000D03*
X172150000Y-132440000D03*
X174690000Y-132440000D03*
X172150000Y-134980000D03*
X174690000Y-134980000D03*
X172150000Y-137520000D03*
X174690000Y-137520000D03*
X172150000Y-140060000D03*
X174690000Y-140060000D03*
X166027000Y-146160000D03*
X168567000Y-146160000D03*
X166027000Y-143620000D03*
X168567000Y-143620000D03*
D26*
X173420000Y-86930000D03*
X173420000Y-144930000D03*
X124420000Y-144930000D03*
X124420000Y-86930000D03*
%TD*%
D14*
%TO.C,J22*%
X228880000Y-146920000D03*
D15*
X231420000Y-146920000D03*
X233960000Y-146920000D03*
%TD*%
D22*
%TO.C,J25*%
X234000000Y-237800000D03*
D23*
X239080000Y-237800000D03*
X244160000Y-237800000D03*
%TD*%
D14*
%TO.C,J21*%
X219460000Y-82390000D03*
D15*
X222000000Y-82390000D03*
X224540000Y-82390000D03*
X227080000Y-82390000D03*
X229620000Y-82390000D03*
%TD*%
D14*
%TO.C,J17*%
X210130000Y-202230000D03*
D15*
X210130000Y-204770000D03*
X210130000Y-207310000D03*
X210130000Y-209850000D03*
%TD*%
D27*
%TO.C,J8*%
X268595000Y-196880000D03*
X266055000Y-196880000D03*
X268595000Y-199420000D03*
X266055000Y-199420000D03*
X268595000Y-201960000D03*
X266055000Y-201960000D03*
X268595000Y-204500000D03*
X266055000Y-204500000D03*
X268595000Y-207040000D03*
D28*
X266055000Y-207040000D03*
D29*
X268370000Y-163880000D03*
D27*
X265830000Y-163880000D03*
X268370000Y-166420000D03*
X265830000Y-166420000D03*
X268370000Y-168960000D03*
X265830000Y-168960000D03*
X268370000Y-171500000D03*
X265830000Y-171500000D03*
X268370000Y-174040000D03*
X265830000Y-174040000D03*
X268620000Y-237540000D03*
X268620000Y-240080000D03*
D28*
X266080000Y-240080000D03*
D27*
X266080000Y-237540000D03*
X268620000Y-235000000D03*
X266080000Y-235000000D03*
X268620000Y-232460000D03*
X266080000Y-232460000D03*
X268620000Y-229920000D03*
X266080000Y-229920000D03*
%TD*%
D14*
%TO.C,J32*%
X199450000Y-74470000D03*
D15*
X199450000Y-77010000D03*
%TD*%
D30*
%TO.C,J4*%
X202650000Y-43690000D03*
D31*
X202650000Y-37690000D03*
D32*
X197950000Y-40690000D03*
%TD*%
D14*
%TO.C,J15*%
X192340000Y-118400000D03*
D15*
X192340000Y-120940000D03*
X192340000Y-123480000D03*
X192340000Y-126020000D03*
X192340000Y-128560000D03*
X192340000Y-131100000D03*
X192340000Y-133640000D03*
X192340000Y-136180000D03*
X192340000Y-138720000D03*
X192340000Y-141260000D03*
X192340000Y-143800000D03*
X192340000Y-146340000D03*
X192340000Y-148880000D03*
X192340000Y-151420000D03*
X192340000Y-153960000D03*
X192340000Y-156500000D03*
X192340000Y-159040000D03*
X192340000Y-161580000D03*
X192340000Y-164120000D03*
X192340000Y-166660000D03*
X192340000Y-169200000D03*
X192340000Y-171740000D03*
X192340000Y-174280000D03*
X192340000Y-176820000D03*
X192340000Y-179360000D03*
X192340000Y-181900000D03*
X192340000Y-184440000D03*
X192340000Y-186980000D03*
%TD*%
D30*
%TO.C,J1*%
X184400000Y-43790000D03*
D31*
X184400000Y-37790000D03*
D32*
X179700000Y-40790000D03*
%TD*%
D14*
%TO.C,J28*%
X164910000Y-67960000D03*
D15*
X167450000Y-67960000D03*
X164910000Y-70500000D03*
X167450000Y-70500000D03*
X164910000Y-73040000D03*
X167450000Y-73040000D03*
X164910000Y-75580000D03*
X167450000Y-75580000D03*
%TD*%
D33*
%TO.C,J9*%
X291350000Y-233970000D03*
D21*
X291350000Y-229780000D03*
X291350000Y-225590000D03*
X291350000Y-221400000D03*
X291350000Y-217210000D03*
X295540000Y-233970000D03*
X295540000Y-229780000D03*
X295540000Y-225590000D03*
X295540000Y-221400000D03*
X295540000Y-217210000D03*
D34*
X294890000Y-205830000D03*
D35*
X292350000Y-205830000D03*
X294890000Y-203290000D03*
X292350000Y-203290000D03*
X294890000Y-200750000D03*
X292350000Y-200750000D03*
X294890000Y-198210000D03*
X292350000Y-198210000D03*
X294890000Y-195670000D03*
X292350000Y-195670000D03*
D33*
X291350000Y-184290000D03*
D21*
X291350000Y-180100000D03*
X291350000Y-175910000D03*
X291350000Y-171720000D03*
X291350000Y-167530000D03*
X295540000Y-184290000D03*
X295540000Y-180100000D03*
X295540000Y-175910000D03*
X295540000Y-171720000D03*
X295540000Y-167530000D03*
%TD*%
D14*
%TO.C,J5*%
X216840000Y-215170000D03*
D15*
X219380000Y-215170000D03*
X221920000Y-215170000D03*
%TD*%
D14*
%TO.C,J30*%
X217210000Y-120010000D03*
D15*
X217210000Y-122550000D03*
X217210000Y-125090000D03*
X217210000Y-127630000D03*
%TD*%
D17*
%TO.C,J10*%
X294640000Y-126560000D03*
X294640000Y-72060000D03*
D19*
X289640000Y-121060000D03*
X292140000Y-121060000D03*
X294640000Y-121060000D03*
X297140000Y-121060000D03*
X299640000Y-121060000D03*
X299640000Y-118060000D03*
X297140000Y-118060000D03*
X294640000Y-118060000D03*
X292140000Y-118060000D03*
X289640000Y-118060000D03*
X289640000Y-115560000D03*
X292140000Y-115560000D03*
X294640000Y-115560000D03*
X297140000Y-115560000D03*
X299640000Y-115560000D03*
X299640000Y-112560000D03*
X297140000Y-112560000D03*
X294640000Y-112560000D03*
X292140000Y-112560000D03*
X289640000Y-112560000D03*
X289640000Y-110060000D03*
X292140000Y-110060000D03*
X294640000Y-110060000D03*
X297140000Y-110060000D03*
X299640000Y-110060000D03*
X299640000Y-107060000D03*
X297140000Y-107060000D03*
X294640000Y-107060000D03*
X292140000Y-107060000D03*
X289640000Y-107060000D03*
X289640000Y-104560000D03*
X292140000Y-104560000D03*
X294640000Y-104560000D03*
X297140000Y-104560000D03*
X299640000Y-104560000D03*
X299640000Y-101560000D03*
X297140000Y-101560000D03*
X294640000Y-101560000D03*
X292140000Y-101560000D03*
X289640000Y-101560000D03*
X289640000Y-97060000D03*
X292140000Y-97060000D03*
X294640000Y-97060000D03*
X297140000Y-97060000D03*
X299640000Y-97060000D03*
X299640000Y-94060000D03*
X297140000Y-94060000D03*
X294640000Y-94060000D03*
X292140000Y-94060000D03*
X289640000Y-94060000D03*
X289640000Y-91560000D03*
X292140000Y-91560000D03*
X294640000Y-91560000D03*
X297140000Y-91560000D03*
X299640000Y-91560000D03*
X299640000Y-88560000D03*
X297140000Y-88560000D03*
X294640000Y-88560000D03*
X292140000Y-88560000D03*
X289640000Y-88560000D03*
X289640000Y-86060000D03*
X292140000Y-86060000D03*
X294640000Y-86060000D03*
X297140000Y-86060000D03*
X299640000Y-86060000D03*
X299640000Y-83060000D03*
X297140000Y-83060000D03*
X294640000Y-83060000D03*
X292140000Y-83060000D03*
X289640000Y-83060000D03*
X289640000Y-80560000D03*
X292140000Y-80560000D03*
X294640000Y-80560000D03*
X297140000Y-80560000D03*
X299640000Y-80560000D03*
X299640000Y-77560000D03*
X297140000Y-77560000D03*
X294640000Y-77560000D03*
X292140000Y-77560000D03*
X289640000Y-77560000D03*
%TD*%
D36*
%TO.C,J6*%
X166920000Y-47940000D03*
D37*
X166920000Y-49940000D03*
X166920000Y-51940000D03*
X166920000Y-53940000D03*
%TD*%
D14*
%TO.C,J16*%
X210130000Y-118400000D03*
D15*
X210130000Y-120940000D03*
X210130000Y-123480000D03*
X210130000Y-126020000D03*
X210130000Y-128560000D03*
X210130000Y-131100000D03*
X210130000Y-133640000D03*
X210130000Y-136180000D03*
X210130000Y-138720000D03*
X210130000Y-141260000D03*
X210130000Y-143800000D03*
X210130000Y-146340000D03*
X210130000Y-148880000D03*
X210130000Y-151420000D03*
X210130000Y-153960000D03*
X210130000Y-156500000D03*
X210130000Y-159040000D03*
X210130000Y-161580000D03*
X210130000Y-164120000D03*
X210130000Y-166660000D03*
X210130000Y-169200000D03*
X210130000Y-171740000D03*
X210130000Y-174280000D03*
X210130000Y-176820000D03*
X210130000Y-179360000D03*
X210130000Y-181900000D03*
X210130000Y-184440000D03*
X210130000Y-186980000D03*
%TD*%
D14*
%TO.C,J7*%
X225880000Y-132460000D03*
D15*
X228420000Y-132460000D03*
X230959999Y-132460000D03*
X233500000Y-132460000D03*
%TD*%
D14*
%TO.C,J33*%
X246960000Y-122770000D03*
D15*
X246960000Y-125310000D03*
%TD*%
M02*
