M48
; DRILL file {KiCad 9.0.2} date 2025-12-07T17:47:31-0500
; FORMAT={-:-/ absolute / metric / decimal}
; #@! TF.CreationDate,2025-12-07T17:47:31-05:00
; #@! TF.GenerationSoftware,Kicad,Pcbnew,9.0.2
; #@! TF.FileFunction,Plated,1,3,Blind
FMAT,2
METRIC
; #@! TA.AperFunction,Plated,Buried,ViaDrill
T1C0.300
%
G90
G05
T1
X167.558Y-34.598
X178.117Y-91.16
X178.123Y-98.89
X182.96Y-50.485
X185.61Y-48.705
X201.07Y-58.69
X202.19Y-48.11
X207.35Y-50.0
X208.22Y-58.96
X212.37Y-218.28
X212.56Y-222.13
X223.83Y-115.97
X224.77Y-224.09
X226.31Y-75.4
X229.65Y-123.19
X231.46Y-111.98
X233.51Y-205.52
X233.96Y-116.08
X236.63Y-53.352
X236.72Y-110.84
X238.05Y-114.055
X238.34Y-220.69
X239.22Y-99.27
X241.25Y-53.203
X241.41Y-105.32
X242.31Y-109.15
X243.09Y-204.01
X244.17Y-120.65
X245.65Y-77.76
X245.82Y-117.36
X247.57Y-224.68
X247.64Y-195.45
X247.79Y-208.09
X247.83Y-221.87
X247.91Y-203.5
X247.92Y-198.78
X249.72Y-103.86
X250.18Y-81.9
X250.27Y-73.109
X258.44Y-203.05
X258.73Y-207.85
X266.06Y-84.04
M30
