M48
; DRILL file {KiCad 9.0.2} date 2025-12-07T17:47:31-0500
; FORMAT={-:-/ absolute / metric / decimal}
; #@! TF.CreationDate,2025-12-07T17:47:31-05:00
; #@! TF.GenerationSoftware,Kicad,Pcbnew,9.0.2
; #@! TF.FileFunction,Plated,1,4,PTH
FMAT,2
METRIC
; #@! TA.AperFunction,Plated,PTH,ComponentDrill
T1C0.200
; #@! TA.AperFunction,Plated,PTH,ViaDrill
T2C0.300
; #@! TA.AperFunction,Plated,PTH,ComponentDrill
T3C0.750
; #@! TA.AperFunction,Plated,PTH,ComponentDrill
T4C1.000
; #@! TA.AperFunction,Plated,PTH,ComponentDrill
T5C1.016
; #@! TA.AperFunction,Plated,PTH,ComponentDrill
T6C1.020
; #@! TA.AperFunction,Plated,PTH,ComponentDrill
T7C1.040
; #@! TA.AperFunction,Plated,PTH,ComponentDrill
T8C1.300
; #@! TA.AperFunction,Plated,PTH,ComponentDrill
T9C1.780
; #@! TA.AperFunction,Plated,PTH,ComponentDrill
T10C2.750
%
G90
G05
T1
X229.904Y-207.218
X229.904Y-208.123
X230.879Y-206.766
X230.879Y-207.671
X230.879Y-208.576
X231.854Y-207.218
X231.854Y-208.123
X243.392Y-210.004
X243.844Y-209.028
X243.844Y-210.978
X244.297Y-210.004
X244.749Y-209.028
X244.749Y-210.978
X245.202Y-210.004
T2
X160.76Y-34.16
X160.76Y-41.78
X160.76Y-49.4
X160.76Y-57.02
X160.76Y-64.64
X160.76Y-72.26
X160.76Y-79.88
X160.76Y-87.5
X160.76Y-95.12
X160.76Y-102.74
X160.76Y-110.36
X160.76Y-117.98
X160.76Y-125.6
X160.76Y-133.22
X160.76Y-140.84
X160.76Y-148.46
X160.76Y-156.08
X160.76Y-163.7
X160.76Y-171.32
X160.76Y-178.94
X160.76Y-186.56
X160.76Y-194.18
X160.76Y-201.8
X160.76Y-209.42
X160.76Y-217.04
X160.76Y-224.66
X160.76Y-232.28
X160.76Y-239.9
X165.84Y-31.62
X165.84Y-44.32
X165.84Y-59.56
X165.84Y-105.28
X165.84Y-112.9
X165.84Y-120.52
X165.84Y-128.14
X165.84Y-191.64
X165.84Y-199.26
X165.84Y-206.88
X165.84Y-214.5
X165.84Y-222.12
X165.84Y-229.74
X165.84Y-237.36
X168.38Y-39.24
X168.38Y-64.64
X168.38Y-242.44
X169.5Y-45.19
X170.92Y-34.16
X170.92Y-49.4
X170.92Y-57.02
X170.92Y-69.72
X170.92Y-79.88
X170.92Y-201.8
X170.92Y-209.42
X170.92Y-217.04
X170.92Y-224.66
X170.92Y-232.28
X172.115Y-45.373
X173.46Y-62.1
X173.46Y-74.8
X173.46Y-151.0
X173.46Y-158.62
X173.46Y-166.24
X173.46Y-173.86
X173.46Y-237.36
X176.0Y-31.62
X176.0Y-44.32
X176.0Y-51.94
X176.0Y-67.18
X176.0Y-196.72
X176.0Y-204.34
X176.0Y-211.96
X176.0Y-219.58
X176.0Y-227.2
X176.0Y-242.44
X178.54Y-57.02
X178.54Y-72.26
X178.54Y-79.88
X178.54Y-87.5
X178.54Y-102.74
X178.54Y-232.28
X181.08Y-46.86
X181.08Y-92.58
X181.08Y-117.98
X181.08Y-125.6
X181.08Y-133.22
X181.08Y-140.84
X181.08Y-148.46
X181.08Y-156.08
X181.08Y-163.7
X181.08Y-171.32
X181.08Y-178.94
X181.08Y-186.56
X181.08Y-194.18
X181.08Y-201.8
X181.08Y-209.42
X181.08Y-217.04
X181.08Y-224.66
X181.08Y-239.9
X183.62Y-51.94
X183.62Y-59.56
X183.62Y-69.72
X183.62Y-77.34
X183.62Y-100.2
X183.62Y-229.74
X186.16Y-34.16
X186.16Y-64.64
X186.16Y-84.96
X186.16Y-112.9
X186.16Y-120.52
X186.16Y-128.14
X186.16Y-135.76
X186.16Y-143.38
X186.16Y-153.54
X186.16Y-161.16
X186.16Y-168.78
X186.16Y-176.4
X186.16Y-184.02
X186.16Y-191.64
X186.16Y-199.26
X186.16Y-206.88
X186.16Y-214.5
X186.16Y-222.12
X186.16Y-234.82
X186.16Y-242.44
X188.7Y-39.24
X188.7Y-46.86
X188.7Y-54.48
X188.7Y-74.8
X188.7Y-148.46
X190.85Y-219.972
X191.13Y-224.032
X191.24Y-31.62
X191.24Y-59.56
X191.24Y-69.72
X191.24Y-79.88
X191.24Y-107.82
X191.24Y-115.44
X191.24Y-189.1
X191.24Y-196.72
X191.24Y-211.96
X191.24Y-229.74
X191.24Y-239.9
X193.78Y-36.7
X193.78Y-44.32
X193.78Y-51.94
X193.78Y-95.12
X193.78Y-102.74
X193.78Y-201.8
X193.78Y-217.04
X193.78Y-234.82
X196.32Y-62.1
X196.32Y-72.26
X196.32Y-82.42
X196.32Y-110.36
X196.32Y-120.52
X196.32Y-128.14
X196.32Y-138.3
X196.32Y-145.92
X196.32Y-153.54
X196.32Y-161.16
X196.32Y-168.78
X196.32Y-176.4
X196.32Y-184.02
X196.32Y-191.64
X196.32Y-209.42
X196.32Y-224.66
X196.32Y-242.44
X197.88Y-56.6
X198.78Y-59.83
X198.86Y-31.62
X198.86Y-46.86
X198.86Y-67.18
X198.86Y-97.66
X198.86Y-105.28
X198.86Y-133.22
X198.86Y-196.72
X198.86Y-214.5
X198.86Y-229.74
X198.86Y-237.36
X201.4Y-51.94
X201.4Y-79.88
X201.4Y-90.04
X201.4Y-112.9
X201.4Y-123.06
X201.4Y-156.08
X201.4Y-163.7
X201.4Y-171.32
X201.4Y-178.94
X201.4Y-186.56
X201.4Y-204.34
X201.4Y-219.58
X203.94Y-34.16
X203.94Y-57.02
X203.94Y-69.72
X203.94Y-95.12
X203.94Y-191.64
X203.94Y-209.42
X203.94Y-227.2
X203.94Y-234.82
X203.94Y-242.44
X206.48Y-39.24
X206.48Y-46.86
X206.48Y-74.8
X206.48Y-82.42
X206.48Y-100.2
X206.48Y-107.82
X206.48Y-115.44
X206.48Y-125.6
X206.48Y-133.22
X206.48Y-140.84
X206.48Y-158.62
X206.48Y-166.24
X206.48Y-173.86
X206.48Y-199.26
X206.48Y-214.5
X206.48Y-222.12
X209.02Y-31.62
X209.02Y-51.94
X209.02Y-62.1
X209.02Y-90.04
X209.02Y-189.1
X209.02Y-229.74
X209.02Y-237.36
X211.56Y-36.7
X211.56Y-44.32
X211.56Y-57.02
X211.56Y-67.18
X211.56Y-79.88
X211.56Y-95.12
X211.56Y-105.28
X211.56Y-211.96
X211.56Y-224.66
X211.56Y-242.44
X213.26Y-103.48
X214.1Y-49.4
X214.1Y-72.26
X214.1Y-84.96
X214.1Y-110.36
X214.1Y-117.98
X214.1Y-125.6
X214.1Y-135.76
X214.1Y-156.08
X214.1Y-163.7
X214.1Y-171.32
X214.1Y-178.94
X214.1Y-186.56
X214.1Y-196.72
X214.1Y-204.34
X214.1Y-217.04
X214.1Y-232.28
X216.64Y-31.62
X216.64Y-41.78
X216.64Y-54.48
X216.64Y-62.1
X216.64Y-77.34
X216.64Y-100.2
X216.64Y-140.84
X216.64Y-209.42
X216.64Y-222.12
X216.64Y-239.9
X217.32Y-156.62
X218.54Y-160.45
X218.77Y-154.39
X219.18Y-46.86
X219.18Y-87.5
X219.18Y-105.28
X219.18Y-115.44
X219.18Y-130.68
X219.18Y-145.92
X219.18Y-227.2
X219.18Y-234.82
X221.72Y-34.16
X221.72Y-51.94
X221.72Y-59.56
X221.72Y-67.18
X221.72Y-92.58
X221.72Y-135.76
X221.72Y-163.7
X221.72Y-171.32
X221.72Y-178.94
X221.72Y-186.56
X221.72Y-194.18
X221.72Y-201.8
X221.72Y-211.96
X221.72Y-219.58
X221.72Y-242.44
X222.12Y-156.14
X222.14Y-153.29
X222.18Y-151.79
X224.26Y-44.32
X224.26Y-72.26
X224.26Y-110.36
X224.26Y-140.84
X224.26Y-206.88
X224.26Y-229.74
X224.26Y-237.36
X226.08Y-161.79
X226.8Y-49.4
X226.8Y-57.02
X226.8Y-64.64
X226.8Y-77.34
X226.8Y-148.46
X228.18Y-104.79
X229.08Y-106.93
X229.34Y-69.72
X229.34Y-100.2
X229.34Y-135.76
X229.34Y-153.54
X229.34Y-171.32
X229.34Y-178.94
X229.34Y-186.56
X229.34Y-201.8
X229.34Y-214.5
X229.34Y-224.66
X229.34Y-232.28
X229.34Y-239.9
X229.56Y-157.39
X231.55Y-106.95
X231.88Y-44.32
X231.88Y-51.94
X231.88Y-59.56
X231.88Y-74.8
X231.88Y-191.64
X231.9Y-113.9
X232.47Y-121.82
X233.444Y-204.268
X233.52Y-111.48
X234.27Y-203.09
X234.42Y-64.64
X234.42Y-79.88
X234.42Y-120.52
X234.42Y-140.84
X234.42Y-176.4
X234.42Y-184.02
X234.42Y-209.42
X234.42Y-229.74
X234.42Y-242.44
X234.79Y-109.98
X235.8Y-115.26
X236.47Y-114.67
X236.55Y-159.39
X236.57Y-154.55
X236.58Y-151.76
X236.735Y-156.225
X236.96Y-46.86
X236.96Y-69.72
X236.96Y-84.96
X236.96Y-92.58
X236.96Y-125.6
X236.96Y-145.92
X236.96Y-189.1
X236.96Y-214.5
X236.96Y-224.66
X236.96Y-234.82
X237.13Y-114.055
X237.41Y-152.89
X238.224Y-205.118
X239.1Y-156.87
X239.5Y-51.94
X239.5Y-59.56
X239.5Y-74.8
X239.5Y-97.66
X239.5Y-135.76
X239.5Y-181.48
X239.5Y-194.18
X239.5Y-239.9
X240.45Y-211.35
X241.0Y-102.94
X241.77Y-113.92
X242.04Y-44.32
X242.04Y-64.64
X242.04Y-82.42
X242.04Y-166.24
X242.04Y-173.86
X242.04Y-186.56
X242.04Y-206.88
X242.04Y-217.04
X242.04Y-227.2
X242.48Y-121.41
X243.392Y-121.438
X243.55Y-112.46
X244.58Y-49.4
X244.58Y-57.02
X244.58Y-69.72
X244.58Y-87.5
X244.58Y-100.2
X244.58Y-123.06
X244.58Y-130.68
X244.58Y-138.3
X244.58Y-145.92
X244.58Y-178.94
X244.58Y-191.64
X244.58Y-199.26
X244.58Y-232.28
X244.58Y-242.44
X247.12Y-31.62
X247.12Y-39.24
X247.12Y-62.1
X247.12Y-77.34
X247.12Y-92.58
X247.12Y-112.9
X247.12Y-211.96
X247.12Y-219.58
X247.12Y-237.36
X249.66Y-44.32
X249.66Y-51.94
X249.66Y-67.18
X249.66Y-84.96
X249.66Y-97.66
X249.66Y-153.54
X249.66Y-166.24
X249.66Y-181.48
X249.66Y-224.66
X249.88Y-101.45
X249.97Y-174.83
X250.32Y-173.41
X252.2Y-57.02
X252.2Y-72.26
X252.2Y-102.74
X252.2Y-110.36
X252.2Y-117.98
X252.2Y-125.6
X252.2Y-133.22
X252.2Y-140.84
X252.2Y-148.46
X252.2Y-158.62
X252.2Y-171.32
X252.2Y-186.56
X252.2Y-201.8
X252.2Y-214.5
X252.2Y-229.74
X252.2Y-239.9
X254.74Y-39.24
X254.74Y-46.86
X254.74Y-62.1
X254.74Y-77.34
X254.74Y-87.5
X254.74Y-95.12
X254.74Y-196.72
X254.74Y-206.88
X254.74Y-219.58
X254.74Y-234.82
X257.28Y-51.94
X257.28Y-67.18
X257.28Y-82.42
X257.28Y-100.2
X257.28Y-107.82
X257.28Y-115.44
X257.28Y-123.06
X257.28Y-130.68
X257.28Y-138.3
X257.28Y-145.92
X257.28Y-153.54
X257.28Y-161.16
X257.28Y-173.86
X257.28Y-189.1
X257.28Y-211.96
X257.28Y-224.66
X257.28Y-242.44
X259.82Y-41.78
X259.82Y-59.56
X259.82Y-72.26
X259.82Y-90.04
X259.82Y-166.24
X259.82Y-178.94
X259.82Y-194.18
X259.82Y-204.34
X259.82Y-217.04
X259.82Y-229.74
X259.82Y-237.36
X262.36Y-46.86
X262.36Y-64.64
X262.36Y-77.34
X262.36Y-84.96
X262.36Y-95.12
X262.36Y-102.74
X262.36Y-110.36
X262.36Y-117.98
X262.36Y-125.6
X262.36Y-133.22
X262.36Y-143.38
X262.36Y-151.0
X262.36Y-158.62
X262.36Y-209.42
X262.36Y-222.12
X264.9Y-39.24
X264.9Y-69.72
X264.9Y-138.3
X264.9Y-181.48
X264.9Y-242.44
X267.44Y-44.32
X267.44Y-51.94
X267.44Y-59.56
X267.44Y-74.8
X267.44Y-82.42
X267.44Y-90.04
X267.44Y-97.66
X267.44Y-105.28
X267.44Y-112.9
X267.44Y-120.52
X267.44Y-128.14
X267.44Y-145.92
X267.44Y-153.54
X267.44Y-161.16
X267.44Y-186.56
X267.44Y-214.5
X267.44Y-224.66
X269.98Y-64.64
X269.98Y-133.22
X269.98Y-166.24
X269.98Y-173.86
X269.98Y-219.58
X272.52Y-46.86
X272.52Y-69.72
X272.52Y-77.34
X272.52Y-87.5
X272.52Y-95.12
X272.52Y-102.74
X272.52Y-110.36
X272.52Y-117.98
X272.52Y-125.6
X272.52Y-138.3
X272.52Y-148.46
X272.52Y-156.08
X272.52Y-181.48
X272.52Y-189.1
X272.52Y-201.8
X272.52Y-209.42
X272.52Y-237.36
X275.06Y-57.02
X275.06Y-82.42
X275.06Y-130.68
X275.06Y-143.38
X275.06Y-161.16
X275.06Y-168.78
X275.06Y-176.4
X275.06Y-194.18
X275.06Y-214.5
X275.06Y-242.44
X277.6Y-44.32
X277.6Y-62.1
X277.6Y-72.26
X277.6Y-90.04
X277.6Y-97.66
X277.6Y-105.28
X277.6Y-112.9
X277.6Y-120.52
X277.6Y-135.76
X277.6Y-151.0
X277.6Y-199.26
X277.6Y-206.88
X277.6Y-232.28
X280.14Y-49.4
X280.14Y-67.18
X280.14Y-77.34
X280.14Y-84.96
X280.14Y-125.6
X280.14Y-140.84
X280.14Y-156.08
X280.14Y-163.7
X280.14Y-171.32
X280.14Y-184.02
X280.14Y-211.96
X280.14Y-237.36
X282.68Y-54.48
X282.68Y-92.58
X282.68Y-100.2
X282.68Y-107.82
X282.68Y-115.44
X282.68Y-130.68
X282.68Y-145.92
X282.68Y-176.4
X282.68Y-189.1
X282.68Y-227.2
X282.68Y-242.44
X283.63Y-205.8
X285.22Y-44.32
X285.22Y-59.56
X285.22Y-69.72
X285.22Y-79.88
X285.22Y-87.5
X285.22Y-120.52
X285.22Y-135.76
X285.22Y-151.0
X285.22Y-158.62
X285.22Y-166.24
X285.22Y-181.48
X285.22Y-199.26
X285.22Y-232.28
X287.76Y-64.64
X287.76Y-74.8
X287.76Y-95.12
X287.76Y-102.74
X287.76Y-110.36
X287.76Y-125.6
X287.76Y-140.84
X287.76Y-171.32
X287.76Y-191.64
X287.76Y-222.12
X287.76Y-237.36
X290.3Y-46.86
X290.3Y-54.48
X290.3Y-130.68
X290.3Y-145.92
X290.3Y-153.54
X290.3Y-161.16
X290.3Y-186.56
X290.3Y-204.34
X290.3Y-242.44
X292.84Y-31.62
X292.84Y-39.24
X292.84Y-59.56
X292.84Y-67.18
X292.84Y-123.06
X292.84Y-135.76
X292.84Y-173.86
X292.84Y-219.58
X292.84Y-227.2
X295.38Y-44.32
X295.38Y-74.8
X295.38Y-140.84
X295.38Y-148.46
X295.38Y-156.08
X295.38Y-163.7
X295.38Y-189.1
X295.38Y-214.5
X295.38Y-237.36
X297.92Y-34.16
X297.92Y-49.4
X297.92Y-57.02
X297.92Y-64.64
X297.92Y-125.6
X297.92Y-133.22
X297.92Y-168.78
X297.92Y-176.4
X297.92Y-184.02
X297.92Y-194.18
X297.92Y-204.34
X297.92Y-222.12
X297.92Y-229.74
X297.92Y-242.44
X300.46Y-39.24
X300.46Y-69.72
X300.46Y-209.42
X300.46Y-217.04
X300.46Y-234.82
T3
X166.92Y-47.94
X166.92Y-49.94
X166.92Y-51.94
X166.92Y-53.94
T4
X164.91Y-67.96
X164.91Y-70.5
X164.91Y-73.04
X164.91Y-75.58
X167.45Y-67.96
X167.45Y-70.5
X167.45Y-73.04
X167.45Y-75.58
X170.51Y-177.28
X170.51Y-179.82
X170.51Y-182.36
X170.51Y-184.9
X170.51Y-187.44
X170.51Y-189.98
X170.51Y-192.52
X170.51Y-195.06
X170.51Y-197.6
X173.05Y-177.28
X173.05Y-179.82
X173.05Y-182.36
X173.05Y-184.9
X173.05Y-187.44
X173.05Y-189.98
X173.05Y-192.52
X173.05Y-195.06
X173.05Y-197.6
X192.34Y-118.4
X192.34Y-120.94
X192.34Y-123.48
X192.34Y-126.02
X192.34Y-128.56
X192.34Y-131.1
X192.34Y-133.64
X192.34Y-136.18
X192.34Y-138.72
X192.34Y-141.26
X192.34Y-143.8
X192.34Y-146.34
X192.34Y-148.88
X192.34Y-151.42
X192.34Y-153.96
X192.34Y-156.5
X192.34Y-159.04
X192.34Y-161.58
X192.34Y-164.12
X192.34Y-166.66
X192.34Y-169.2
X192.34Y-171.74
X192.34Y-174.28
X192.34Y-176.82
X192.34Y-179.36
X192.34Y-181.9
X192.34Y-184.44
X192.34Y-186.98
X192.35Y-204.76
X192.35Y-207.3
X192.35Y-209.84
X199.45Y-74.47
X199.45Y-77.01
X200.97Y-95.56
X200.97Y-98.1
X200.97Y-100.64
X200.97Y-103.18
X210.13Y-118.4
X210.13Y-120.94
X210.13Y-123.48
X210.13Y-126.02
X210.13Y-128.56
X210.13Y-131.1
X210.13Y-133.64
X210.13Y-136.18
X210.13Y-138.72
X210.13Y-141.26
X210.13Y-143.8
X210.13Y-146.34
X210.13Y-148.88
X210.13Y-151.42
X210.13Y-153.96
X210.13Y-156.5
X210.13Y-159.04
X210.13Y-161.58
X210.13Y-164.12
X210.13Y-166.66
X210.13Y-169.2
X210.13Y-171.74
X210.13Y-174.28
X210.13Y-176.82
X210.13Y-179.36
X210.13Y-181.9
X210.13Y-184.44
X210.13Y-186.98
X210.13Y-202.23
X210.13Y-204.77
X210.13Y-207.31
X210.13Y-209.85
X216.4Y-112.3
X216.84Y-215.17
X217.21Y-120.01
X217.21Y-122.55
X217.21Y-125.09
X217.21Y-127.63
X217.375Y-134.59
X217.375Y-137.13
X218.94Y-112.3
X219.38Y-215.17
X219.46Y-82.39
X221.92Y-215.17
X222.0Y-82.39
X222.99Y-138.54
X224.54Y-82.39
X225.53Y-138.54
X225.88Y-132.46
X227.08Y-82.39
X228.07Y-138.54
X228.42Y-132.46
X228.88Y-146.92
X229.14Y-90.93
X229.14Y-93.47
X229.14Y-96.01
X229.62Y-82.39
X230.96Y-132.46
X231.42Y-146.92
X233.5Y-132.46
X233.96Y-146.92
X238.48Y-168.58
X238.48Y-171.12
X238.48Y-173.66
X246.96Y-122.77
X246.96Y-125.31
X247.34Y-160.14
X247.34Y-162.68
X249.88Y-160.14
X249.88Y-162.68
T5
X166.027Y-143.62
X166.027Y-146.16
X168.567Y-143.62
X168.567Y-146.16
X172.15Y-91.8
X172.15Y-94.34
X172.15Y-96.88
X172.15Y-99.42
X172.15Y-101.96
X172.15Y-104.5
X172.15Y-107.04
X172.15Y-109.58
X172.15Y-112.12
X172.15Y-114.66
X172.15Y-117.2
X172.15Y-119.74
X172.15Y-122.28
X172.15Y-124.82
X172.15Y-127.36
X172.15Y-129.9
X172.15Y-132.44
X172.15Y-134.98
X172.15Y-137.52
X172.15Y-140.06
X174.69Y-91.8
X174.69Y-94.34
X174.69Y-96.88
X174.69Y-99.42
X174.69Y-101.96
X174.69Y-104.5
X174.69Y-107.04
X174.69Y-109.58
X174.69Y-112.12
X174.69Y-114.66
X174.69Y-117.2
X174.69Y-119.74
X174.69Y-122.28
X174.69Y-124.82
X174.69Y-127.36
X174.69Y-129.9
X174.69Y-132.44
X174.69Y-134.98
X174.69Y-137.52
X174.69Y-140.06
T6
X188.31Y-89.08
X188.31Y-92.08
X191.31Y-89.08
X191.31Y-92.08
X224.1Y-32.4
X224.1Y-34.9
X224.1Y-37.4
X224.1Y-39.9
X224.1Y-42.4
X227.1Y-32.4
X227.1Y-34.9
X227.1Y-37.4
X227.1Y-39.9
X227.1Y-42.4
X229.6Y-32.4
X229.6Y-34.9
X229.6Y-37.4
X229.6Y-39.9
X229.6Y-42.4
X232.6Y-32.4
X232.6Y-34.9
X232.6Y-37.4
X232.6Y-39.9
X232.6Y-42.4
X235.1Y-32.4
X235.1Y-34.9
X235.1Y-37.4
X235.1Y-39.9
X235.1Y-42.4
X238.1Y-32.4
X238.1Y-34.9
X238.1Y-37.4
X238.1Y-39.9
X238.1Y-42.4
X240.6Y-32.4
X240.6Y-34.9
X240.6Y-37.4
X240.6Y-39.9
X240.6Y-42.4
X243.6Y-32.4
X243.6Y-34.9
X243.6Y-37.4
X243.6Y-39.9
X243.6Y-42.4
X248.77Y-31.4
X248.77Y-33.94
X248.77Y-36.48
X251.31Y-31.4
X251.31Y-33.94
X251.31Y-36.48
X253.85Y-31.4
X253.85Y-33.94
X253.85Y-36.48
X256.39Y-31.4
X256.39Y-33.94
X256.39Y-36.48
X258.93Y-31.4
X258.93Y-33.94
X258.93Y-36.48
X261.47Y-31.4
X261.47Y-33.94
X261.47Y-36.48
X264.01Y-31.4
X264.01Y-33.94
X264.01Y-36.48
X266.55Y-31.4
X266.55Y-33.94
X266.55Y-36.48
X271.36Y-32.4
X271.36Y-34.9
X271.36Y-37.4
X271.36Y-39.9
X271.36Y-42.4
X274.36Y-32.4
X274.36Y-34.9
X274.36Y-37.4
X274.36Y-39.9
X274.36Y-42.4
X276.86Y-32.4
X276.86Y-34.9
X276.86Y-37.4
X276.86Y-39.9
X276.86Y-42.4
X279.86Y-32.4
X279.86Y-34.9
X279.86Y-37.4
X279.86Y-39.9
X279.86Y-42.4
X282.36Y-32.4
X282.36Y-34.9
X282.36Y-37.4
X282.36Y-39.9
X282.36Y-42.4
X285.36Y-32.4
X285.36Y-34.9
X285.36Y-37.4
X285.36Y-39.9
X285.36Y-42.4
X287.86Y-32.4
X287.86Y-34.9
X287.86Y-37.4
X287.86Y-39.9
X287.86Y-42.4
X289.64Y-77.56
X289.64Y-80.56
X289.64Y-83.06
X289.64Y-86.06
X289.64Y-88.56
X289.64Y-91.56
X289.64Y-94.06
X289.64Y-97.06
X289.64Y-101.56
X289.64Y-104.56
X289.64Y-107.06
X289.64Y-110.06
X289.64Y-112.56
X289.64Y-115.56
X289.64Y-118.06
X289.64Y-121.06
X290.86Y-32.4
X290.86Y-34.9
X290.86Y-37.4
X290.86Y-39.9
X290.86Y-42.4
X292.14Y-77.56
X292.14Y-80.56
X292.14Y-83.06
X292.14Y-86.06
X292.14Y-88.56
X292.14Y-91.56
X292.14Y-94.06
X292.14Y-97.06
X292.14Y-101.56
X292.14Y-104.56
X292.14Y-107.06
X292.14Y-110.06
X292.14Y-112.56
X292.14Y-115.56
X292.14Y-118.06
X292.14Y-121.06
X292.35Y-195.67
X292.35Y-198.21
X292.35Y-200.75
X292.35Y-203.29
X292.35Y-205.83
X294.64Y-77.56
X294.64Y-80.56
X294.64Y-83.06
X294.64Y-86.06
X294.64Y-88.56
X294.64Y-91.56
X294.64Y-94.06
X294.64Y-97.06
X294.64Y-101.56
X294.64Y-104.56
X294.64Y-107.06
X294.64Y-110.06
X294.64Y-112.56
X294.64Y-115.56
X294.64Y-118.06
X294.64Y-121.06
X294.89Y-195.67
X294.89Y-198.21
X294.89Y-200.75
X294.89Y-203.29
X294.89Y-205.83
X297.14Y-77.56
X297.14Y-80.56
X297.14Y-83.06
X297.14Y-86.06
X297.14Y-88.56
X297.14Y-91.56
X297.14Y-94.06
X297.14Y-97.06
X297.14Y-101.56
X297.14Y-104.56
X297.14Y-107.06
X297.14Y-110.06
X297.14Y-112.56
X297.14Y-115.56
X297.14Y-118.06
X297.14Y-121.06
X299.64Y-77.56
X299.64Y-80.56
X299.64Y-83.06
X299.64Y-86.06
X299.64Y-88.56
X299.64Y-91.56
X299.64Y-94.06
X299.64Y-97.06
X299.64Y-101.56
X299.64Y-104.56
X299.64Y-107.06
X299.64Y-110.06
X299.64Y-112.56
X299.64Y-115.56
X299.64Y-118.06
X299.64Y-121.06
T7
X265.83Y-163.88
X265.83Y-166.42
X265.83Y-168.96
X265.83Y-171.5
X265.83Y-174.04
X266.055Y-196.88
X266.055Y-199.42
X266.055Y-201.96
X266.055Y-204.5
X266.055Y-207.04
X266.08Y-229.92
X266.08Y-232.46
X266.08Y-235.0
X266.08Y-237.54
X266.08Y-240.08
X268.37Y-163.88
X268.37Y-166.42
X268.37Y-168.96
X268.37Y-171.5
X268.37Y-174.04
X268.595Y-196.88
X268.595Y-199.42
X268.595Y-201.96
X268.595Y-204.5
X268.595Y-207.04
X268.62Y-229.92
X268.62Y-232.46
X268.62Y-235.0
X268.62Y-237.54
X268.62Y-240.08
T8
X180.0Y-237.8
X185.08Y-237.8
X190.16Y-237.8
X207.0Y-237.8
X212.08Y-237.8
X217.16Y-237.8
X234.0Y-237.8
X239.08Y-237.8
X244.16Y-237.8
T9
X260.98Y-51.175
X260.98Y-55.365
X260.98Y-141.175
X260.98Y-145.365
X265.17Y-51.175
X265.17Y-55.365
X265.17Y-141.175
X265.17Y-145.365
X269.36Y-51.175
X269.36Y-55.365
X269.36Y-141.175
X269.36Y-145.365
X273.55Y-51.175
X273.55Y-55.365
X273.55Y-141.175
X273.55Y-145.365
X277.74Y-51.175
X277.74Y-55.365
X277.74Y-141.175
X277.74Y-145.365
X291.35Y-167.53
X291.35Y-171.72
X291.35Y-175.91
X291.35Y-180.1
X291.35Y-184.29
X291.35Y-217.21
X291.35Y-221.4
X291.35Y-225.59
X291.35Y-229.78
X291.35Y-233.97
X295.54Y-167.53
X295.54Y-171.72
X295.54Y-175.91
X295.54Y-180.1
X295.54Y-184.29
X295.54Y-217.21
X295.54Y-221.4
X295.54Y-225.59
X295.54Y-229.78
X295.54Y-233.97
T10
X124.42Y-86.93
X124.42Y-144.93
X173.42Y-86.93
X173.42Y-144.93
T4
G00X179.7Y-41.79
M15
G01X179.7Y-39.79
M16
G05
G00X183.4Y-37.79
M15
G01X185.4Y-37.79
M16
G05
G00X183.15Y-43.79
M15
G01X185.65Y-43.79
M16
G05
G00X197.95Y-41.69
M15
G01X197.95Y-39.69
M16
G05
G00X201.65Y-37.69
M15
G01X203.65Y-37.69
M16
G05
G00X201.4Y-43.69
M15
G01X203.9Y-43.69
M16
G05
M30
