%TF.GenerationSoftware,KiCad,Pcbnew,9.0.2*%
%TF.CreationDate,2025-12-07T17:47:35-05:00*%
%TF.ProjectId,mcu and pi board,6d637520-616e-4642-9070-6920626f6172,rev?*%
%TF.SameCoordinates,Original*%
%TF.FileFunction,Soldermask,Top*%
%TF.FilePolarity,Negative*%
%FSLAX46Y46*%
G04 Gerber Fmt 4.6, Leading zero omitted, Abs format (unit mm)*
G04 Created by KiCad (PCBNEW 9.0.2) date 2025-12-07 17:47:35*
%MOMM*%
%LPD*%
G01*
G04 APERTURE LIST*
G04 Aperture macros list*
%AMRoundRect*
0 Rectangle with rounded corners*
0 $1 Rounding radius*
0 $2 $3 $4 $5 $6 $7 $8 $9 X,Y pos of 4 corners*
0 Add a 4 corners polygon primitive as box body*
4,1,4,$2,$3,$4,$5,$6,$7,$8,$9,$2,$3,0*
0 Add four circle primitives for the rounded corners*
1,1,$1+$1,$2,$3*
1,1,$1+$1,$4,$5*
1,1,$1+$1,$6,$7*
1,1,$1+$1,$8,$9*
0 Add four rect primitives between the rounded corners*
20,1,$1+$1,$2,$3,$4,$5,0*
20,1,$1+$1,$4,$5,$6,$7,0*
20,1,$1+$1,$6,$7,$8,$9,0*
20,1,$1+$1,$8,$9,$2,$3,0*%
%AMRotRect*
0 Rectangle, with rotation*
0 The origin of the aperture is its center*
0 $1 length*
0 $2 width*
0 $3 Rotation angle, in degrees counterclockwise*
0 Add horizontal line*
21,1,$1,$2,0,0,$3*%
G04 Aperture macros list end*
%ADD10C,0.010000*%
%ADD11C,0.836200*%
%ADD12C,0.586200*%
%ADD13C,0.000000*%
%ADD14RoundRect,0.237500X0.237500X-0.250000X0.237500X0.250000X-0.237500X0.250000X-0.237500X-0.250000X0*%
%ADD15RoundRect,0.237500X0.300000X0.237500X-0.300000X0.237500X-0.300000X-0.237500X0.300000X-0.237500X0*%
%ADD16C,0.504000*%
%ADD17R,1.700000X1.700000*%
%ADD18C,1.700000*%
%ADD19C,1.020000*%
%ADD20C,3.200000*%
%ADD21RoundRect,0.102000X0.765000X0.765000X-0.765000X0.765000X-0.765000X-0.765000X0.765000X-0.765000X0*%
%ADD22C,1.734000*%
%ADD23RoundRect,0.250000X-0.337500X-0.475000X0.337500X-0.475000X0.337500X0.475000X-0.337500X0.475000X0*%
%ADD24C,4.000000*%
%ADD25RoundRect,0.237500X-0.250000X-0.237500X0.250000X-0.237500X0.250000X0.237500X-0.250000X0.237500X0*%
%ADD26RoundRect,0.237500X-0.237500X0.300000X-0.237500X-0.300000X0.237500X-0.300000X0.237500X0.300000X0*%
%ADD27RoundRect,0.102000X1.050000X0.700000X-1.050000X0.700000X-1.050000X-0.700000X1.050000X-0.700000X0*%
%ADD28RoundRect,0.237500X-0.237500X0.250000X-0.237500X-0.250000X0.237500X-0.250000X0.237500X0.250000X0*%
%ADD29RoundRect,0.102000X-1.065000X-1.065000X1.065000X-1.065000X1.065000X1.065000X-1.065000X1.065000X0*%
%ADD30C,2.334000*%
%ADD31RoundRect,0.102000X-0.975000X-0.975000X0.975000X-0.975000X0.975000X0.975000X-0.975000X0.975000X0*%
%ADD32C,2.154000*%
%ADD33RoundRect,0.100000X-0.217500X-0.100000X0.217500X-0.100000X0.217500X0.100000X-0.217500X0.100000X0*%
%ADD34RoundRect,0.237500X0.344715X-0.008839X-0.008839X0.344715X-0.344715X0.008839X0.008839X-0.344715X0*%
%ADD35RoundRect,0.237500X-0.300000X-0.237500X0.300000X-0.237500X0.300000X0.237500X-0.300000X0.237500X0*%
%ADD36RoundRect,0.237500X0.250000X0.237500X-0.250000X0.237500X-0.250000X-0.237500X0.250000X-0.237500X0*%
%ADD37R,0.280000X0.850000*%
%ADD38RoundRect,0.237500X-0.380070X0.044194X0.044194X-0.380070X0.380070X-0.044194X-0.044194X0.380070X0*%
%ADD39RoundRect,0.237500X0.237500X-0.300000X0.237500X0.300000X-0.237500X0.300000X-0.237500X-0.300000X0*%
%ADD40RoundRect,0.250000X0.337500X0.475000X-0.337500X0.475000X-0.337500X-0.475000X0.337500X-0.475000X0*%
%ADD41RoundRect,0.250000X0.475000X-0.337500X0.475000X0.337500X-0.475000X0.337500X-0.475000X-0.337500X0*%
%ADD42RoundRect,0.102000X-0.762000X0.762000X-0.762000X-0.762000X0.762000X-0.762000X0.762000X0.762000X0*%
%ADD43C,1.728000*%
%ADD44C,6.404000*%
%ADD45RoundRect,0.237500X-0.044194X-0.380070X0.380070X0.044194X0.044194X0.380070X-0.380070X-0.044194X0*%
%ADD46R,1.498600X0.533400*%
%ADD47C,1.594000*%
%ADD48RoundRect,0.102000X-0.695000X0.695000X-0.695000X-0.695000X0.695000X-0.695000X0.695000X0.695000X0*%
%ADD49RoundRect,0.102000X0.695000X-0.695000X0.695000X0.695000X-0.695000X0.695000X-0.695000X-0.695000X0*%
%ADD50RoundRect,0.100000X0.217500X0.100000X-0.217500X0.100000X-0.217500X-0.100000X0.217500X-0.100000X0*%
%ADD51R,1.600200X0.838200*%
%ADD52RoundRect,0.250000X-0.475000X0.337500X-0.475000X-0.337500X0.475000X-0.337500X0.475000X0.337500X0*%
%ADD53RoundRect,0.102000X0.698500X0.139700X-0.698500X0.139700X-0.698500X-0.139700X0.698500X-0.139700X0*%
%ADD54O,5.204000X2.704000*%
%ADD55O,4.704000X2.454000*%
%ADD56O,2.454000X4.704000*%
%ADD57RoundRect,0.250000X-0.412500X-0.650000X0.412500X-0.650000X0.412500X0.650000X-0.412500X0.650000X0*%
%ADD58RoundRect,0.237500X0.044194X0.380070X-0.380070X-0.044194X-0.044194X-0.380070X0.380070X0.044194X0*%
%ADD59R,1.701800X0.660400*%
%ADD60R,2.895600X1.092200*%
%ADD61RoundRect,0.102000X1.065000X-1.065000X1.065000X1.065000X-1.065000X1.065000X-1.065000X-1.065000X0*%
%ADD62RoundRect,0.102000X0.685000X-0.685000X0.685000X0.685000X-0.685000X0.685000X-0.685000X-0.685000X0*%
%ADD63C,1.574000*%
%ADD64RoundRect,0.250000X-0.625000X0.350000X-0.625000X-0.350000X0.625000X-0.350000X0.625000X0.350000X0*%
%ADD65O,1.750000X1.200000*%
%ADD66RoundRect,0.102000X-2.750000X0.715000X-2.750000X-0.715000X2.750000X-0.715000X2.750000X0.715000X0*%
%ADD67RotRect,1.193800X0.304800X225.000000*%
%ADD68RotRect,1.193800X0.304800X315.000000*%
G04 APERTURE END LIST*
D10*
%TO.C,IC3*%
X230012000Y-205124500D02*
X230014000Y-205124500D01*
X230017000Y-205125500D01*
X230019000Y-205125500D01*
X230022000Y-205126500D01*
X230024000Y-205127500D01*
X230027000Y-205128500D01*
X230029000Y-205130500D01*
X230031000Y-205131500D01*
X230033000Y-205133500D01*
X230035000Y-205134500D01*
X230037000Y-205136500D01*
X230039000Y-205138500D01*
X230041000Y-205140500D01*
X230043000Y-205142500D01*
X230044000Y-205144500D01*
X230046000Y-205146500D01*
X230047000Y-205148500D01*
X230049000Y-205150500D01*
X230050000Y-205153500D01*
X230051000Y-205155500D01*
X230052000Y-205158500D01*
X230052000Y-205160500D01*
X230053000Y-205163500D01*
X230053000Y-205165500D01*
X230054000Y-205168500D01*
X230054000Y-205170500D01*
X230054000Y-205173500D01*
X230054000Y-205673500D01*
X230054000Y-205676500D01*
X230054000Y-205678500D01*
X230053000Y-205681500D01*
X230053000Y-205683500D01*
X230052000Y-205686500D01*
X230052000Y-205688500D01*
X230051000Y-205691500D01*
X230050000Y-205693500D01*
X230049000Y-205696500D01*
X230047000Y-205698500D01*
X230046000Y-205700500D01*
X230044000Y-205702500D01*
X230043000Y-205704500D01*
X230041000Y-205706500D01*
X230039000Y-205708500D01*
X230037000Y-205710500D01*
X230035000Y-205712500D01*
X230033000Y-205713500D01*
X230031000Y-205715500D01*
X230029000Y-205716500D01*
X230027000Y-205718500D01*
X230024000Y-205719500D01*
X230022000Y-205720500D01*
X230019000Y-205721500D01*
X230017000Y-205721500D01*
X230014000Y-205722500D01*
X230012000Y-205722500D01*
X230009000Y-205723500D01*
X230007000Y-205723500D01*
X230004000Y-205723500D01*
X229804000Y-205723500D01*
X229801000Y-205723500D01*
X229799000Y-205723500D01*
X229796000Y-205722500D01*
X229794000Y-205722500D01*
X229791000Y-205721500D01*
X229789000Y-205721500D01*
X229786000Y-205720500D01*
X229784000Y-205719500D01*
X229781000Y-205718500D01*
X229779000Y-205716500D01*
X229777000Y-205715500D01*
X229775000Y-205713500D01*
X229773000Y-205712500D01*
X229771000Y-205710500D01*
X229769000Y-205708500D01*
X229767000Y-205706500D01*
X229765000Y-205704500D01*
X229764000Y-205702500D01*
X229762000Y-205700500D01*
X229761000Y-205698500D01*
X229759000Y-205696500D01*
X229758000Y-205693500D01*
X229757000Y-205691500D01*
X229756000Y-205688500D01*
X229756000Y-205686500D01*
X229755000Y-205683500D01*
X229755000Y-205681500D01*
X229754000Y-205678500D01*
X229754000Y-205676500D01*
X229754000Y-205673500D01*
X229754000Y-205173500D01*
X229754000Y-205170500D01*
X229754000Y-205168500D01*
X229755000Y-205165500D01*
X229755000Y-205163500D01*
X229756000Y-205160500D01*
X229756000Y-205158500D01*
X229757000Y-205155500D01*
X229758000Y-205153500D01*
X229759000Y-205150500D01*
X229761000Y-205148500D01*
X229762000Y-205146500D01*
X229764000Y-205144500D01*
X229765000Y-205142500D01*
X229767000Y-205140500D01*
X229769000Y-205138500D01*
X229771000Y-205136500D01*
X229773000Y-205134500D01*
X229775000Y-205133500D01*
X229777000Y-205131500D01*
X229779000Y-205130500D01*
X229781000Y-205128500D01*
X229784000Y-205127500D01*
X229786000Y-205126500D01*
X229789000Y-205125500D01*
X229791000Y-205125500D01*
X229794000Y-205124500D01*
X229796000Y-205124500D01*
X229799000Y-205123500D01*
X229801000Y-205123500D01*
X229804000Y-205123500D01*
X230004000Y-205123500D01*
X230007000Y-205123500D01*
X230009000Y-205123500D01*
X230012000Y-205124500D01*
G36*
X230012000Y-205124500D02*
G01*
X230014000Y-205124500D01*
X230017000Y-205125500D01*
X230019000Y-205125500D01*
X230022000Y-205126500D01*
X230024000Y-205127500D01*
X230027000Y-205128500D01*
X230029000Y-205130500D01*
X230031000Y-205131500D01*
X230033000Y-205133500D01*
X230035000Y-205134500D01*
X230037000Y-205136500D01*
X230039000Y-205138500D01*
X230041000Y-205140500D01*
X230043000Y-205142500D01*
X230044000Y-205144500D01*
X230046000Y-205146500D01*
X230047000Y-205148500D01*
X230049000Y-205150500D01*
X230050000Y-205153500D01*
X230051000Y-205155500D01*
X230052000Y-205158500D01*
X230052000Y-205160500D01*
X230053000Y-205163500D01*
X230053000Y-205165500D01*
X230054000Y-205168500D01*
X230054000Y-205170500D01*
X230054000Y-205173500D01*
X230054000Y-205673500D01*
X230054000Y-205676500D01*
X230054000Y-205678500D01*
X230053000Y-205681500D01*
X230053000Y-205683500D01*
X230052000Y-205686500D01*
X230052000Y-205688500D01*
X230051000Y-205691500D01*
X230050000Y-205693500D01*
X230049000Y-205696500D01*
X230047000Y-205698500D01*
X230046000Y-205700500D01*
X230044000Y-205702500D01*
X230043000Y-205704500D01*
X230041000Y-205706500D01*
X230039000Y-205708500D01*
X230037000Y-205710500D01*
X230035000Y-205712500D01*
X230033000Y-205713500D01*
X230031000Y-205715500D01*
X230029000Y-205716500D01*
X230027000Y-205718500D01*
X230024000Y-205719500D01*
X230022000Y-205720500D01*
X230019000Y-205721500D01*
X230017000Y-205721500D01*
X230014000Y-205722500D01*
X230012000Y-205722500D01*
X230009000Y-205723500D01*
X230007000Y-205723500D01*
X230004000Y-205723500D01*
X229804000Y-205723500D01*
X229801000Y-205723500D01*
X229799000Y-205723500D01*
X229796000Y-205722500D01*
X229794000Y-205722500D01*
X229791000Y-205721500D01*
X229789000Y-205721500D01*
X229786000Y-205720500D01*
X229784000Y-205719500D01*
X229781000Y-205718500D01*
X229779000Y-205716500D01*
X229777000Y-205715500D01*
X229775000Y-205713500D01*
X229773000Y-205712500D01*
X229771000Y-205710500D01*
X229769000Y-205708500D01*
X229767000Y-205706500D01*
X229765000Y-205704500D01*
X229764000Y-205702500D01*
X229762000Y-205700500D01*
X229761000Y-205698500D01*
X229759000Y-205696500D01*
X229758000Y-205693500D01*
X229757000Y-205691500D01*
X229756000Y-205688500D01*
X229756000Y-205686500D01*
X229755000Y-205683500D01*
X229755000Y-205681500D01*
X229754000Y-205678500D01*
X229754000Y-205676500D01*
X229754000Y-205673500D01*
X229754000Y-205173500D01*
X229754000Y-205170500D01*
X229754000Y-205168500D01*
X229755000Y-205165500D01*
X229755000Y-205163500D01*
X229756000Y-205160500D01*
X229756000Y-205158500D01*
X229757000Y-205155500D01*
X229758000Y-205153500D01*
X229759000Y-205150500D01*
X229761000Y-205148500D01*
X229762000Y-205146500D01*
X229764000Y-205144500D01*
X229765000Y-205142500D01*
X229767000Y-205140500D01*
X229769000Y-205138500D01*
X229771000Y-205136500D01*
X229773000Y-205134500D01*
X229775000Y-205133500D01*
X229777000Y-205131500D01*
X229779000Y-205130500D01*
X229781000Y-205128500D01*
X229784000Y-205127500D01*
X229786000Y-205126500D01*
X229789000Y-205125500D01*
X229791000Y-205125500D01*
X229794000Y-205124500D01*
X229796000Y-205124500D01*
X229799000Y-205123500D01*
X229801000Y-205123500D01*
X229804000Y-205123500D01*
X230004000Y-205123500D01*
X230007000Y-205123500D01*
X230009000Y-205123500D01*
X230012000Y-205124500D01*
G37*
X230662000Y-205124500D02*
X230664000Y-205124500D01*
X230667000Y-205125500D01*
X230669000Y-205125500D01*
X230672000Y-205126500D01*
X230674000Y-205127500D01*
X230677000Y-205128500D01*
X230679000Y-205130500D01*
X230681000Y-205131500D01*
X230683000Y-205133500D01*
X230685000Y-205134500D01*
X230687000Y-205136500D01*
X230689000Y-205138500D01*
X230691000Y-205140500D01*
X230693000Y-205142500D01*
X230694000Y-205144500D01*
X230696000Y-205146500D01*
X230697000Y-205148500D01*
X230699000Y-205150500D01*
X230700000Y-205153500D01*
X230701000Y-205155500D01*
X230702000Y-205158500D01*
X230702000Y-205160500D01*
X230703000Y-205163500D01*
X230703000Y-205165500D01*
X230704000Y-205168500D01*
X230704000Y-205170500D01*
X230704000Y-205173500D01*
X230704000Y-205673500D01*
X230704000Y-205676500D01*
X230704000Y-205678500D01*
X230703000Y-205681500D01*
X230703000Y-205683500D01*
X230702000Y-205686500D01*
X230702000Y-205688500D01*
X230701000Y-205691500D01*
X230700000Y-205693500D01*
X230699000Y-205696500D01*
X230697000Y-205698500D01*
X230696000Y-205700500D01*
X230694000Y-205702500D01*
X230693000Y-205704500D01*
X230691000Y-205706500D01*
X230689000Y-205708500D01*
X230687000Y-205710500D01*
X230685000Y-205712500D01*
X230683000Y-205713500D01*
X230681000Y-205715500D01*
X230679000Y-205716500D01*
X230677000Y-205718500D01*
X230674000Y-205719500D01*
X230672000Y-205720500D01*
X230669000Y-205721500D01*
X230667000Y-205721500D01*
X230664000Y-205722500D01*
X230662000Y-205722500D01*
X230659000Y-205723500D01*
X230657000Y-205723500D01*
X230654000Y-205723500D01*
X230454000Y-205723500D01*
X230451000Y-205723500D01*
X230449000Y-205723500D01*
X230446000Y-205722500D01*
X230444000Y-205722500D01*
X230441000Y-205721500D01*
X230439000Y-205721500D01*
X230436000Y-205720500D01*
X230434000Y-205719500D01*
X230431000Y-205718500D01*
X230429000Y-205716500D01*
X230427000Y-205715500D01*
X230425000Y-205713500D01*
X230423000Y-205712500D01*
X230421000Y-205710500D01*
X230419000Y-205708500D01*
X230417000Y-205706500D01*
X230415000Y-205704500D01*
X230414000Y-205702500D01*
X230412000Y-205700500D01*
X230411000Y-205698500D01*
X230409000Y-205696500D01*
X230408000Y-205693500D01*
X230407000Y-205691500D01*
X230406000Y-205688500D01*
X230406000Y-205686500D01*
X230405000Y-205683500D01*
X230405000Y-205681500D01*
X230404000Y-205678500D01*
X230404000Y-205676500D01*
X230404000Y-205673500D01*
X230404000Y-205173500D01*
X230404000Y-205170500D01*
X230404000Y-205168500D01*
X230405000Y-205165500D01*
X230405000Y-205163500D01*
X230406000Y-205160500D01*
X230406000Y-205158500D01*
X230407000Y-205155500D01*
X230408000Y-205153500D01*
X230409000Y-205150500D01*
X230411000Y-205148500D01*
X230412000Y-205146500D01*
X230414000Y-205144500D01*
X230415000Y-205142500D01*
X230417000Y-205140500D01*
X230419000Y-205138500D01*
X230421000Y-205136500D01*
X230423000Y-205134500D01*
X230425000Y-205133500D01*
X230427000Y-205131500D01*
X230429000Y-205130500D01*
X230431000Y-205128500D01*
X230434000Y-205127500D01*
X230436000Y-205126500D01*
X230439000Y-205125500D01*
X230441000Y-205125500D01*
X230444000Y-205124500D01*
X230446000Y-205124500D01*
X230449000Y-205123500D01*
X230451000Y-205123500D01*
X230454000Y-205123500D01*
X230654000Y-205123500D01*
X230657000Y-205123500D01*
X230659000Y-205123500D01*
X230662000Y-205124500D01*
G36*
X230662000Y-205124500D02*
G01*
X230664000Y-205124500D01*
X230667000Y-205125500D01*
X230669000Y-205125500D01*
X230672000Y-205126500D01*
X230674000Y-205127500D01*
X230677000Y-205128500D01*
X230679000Y-205130500D01*
X230681000Y-205131500D01*
X230683000Y-205133500D01*
X230685000Y-205134500D01*
X230687000Y-205136500D01*
X230689000Y-205138500D01*
X230691000Y-205140500D01*
X230693000Y-205142500D01*
X230694000Y-205144500D01*
X230696000Y-205146500D01*
X230697000Y-205148500D01*
X230699000Y-205150500D01*
X230700000Y-205153500D01*
X230701000Y-205155500D01*
X230702000Y-205158500D01*
X230702000Y-205160500D01*
X230703000Y-205163500D01*
X230703000Y-205165500D01*
X230704000Y-205168500D01*
X230704000Y-205170500D01*
X230704000Y-205173500D01*
X230704000Y-205673500D01*
X230704000Y-205676500D01*
X230704000Y-205678500D01*
X230703000Y-205681500D01*
X230703000Y-205683500D01*
X230702000Y-205686500D01*
X230702000Y-205688500D01*
X230701000Y-205691500D01*
X230700000Y-205693500D01*
X230699000Y-205696500D01*
X230697000Y-205698500D01*
X230696000Y-205700500D01*
X230694000Y-205702500D01*
X230693000Y-205704500D01*
X230691000Y-205706500D01*
X230689000Y-205708500D01*
X230687000Y-205710500D01*
X230685000Y-205712500D01*
X230683000Y-205713500D01*
X230681000Y-205715500D01*
X230679000Y-205716500D01*
X230677000Y-205718500D01*
X230674000Y-205719500D01*
X230672000Y-205720500D01*
X230669000Y-205721500D01*
X230667000Y-205721500D01*
X230664000Y-205722500D01*
X230662000Y-205722500D01*
X230659000Y-205723500D01*
X230657000Y-205723500D01*
X230654000Y-205723500D01*
X230454000Y-205723500D01*
X230451000Y-205723500D01*
X230449000Y-205723500D01*
X230446000Y-205722500D01*
X230444000Y-205722500D01*
X230441000Y-205721500D01*
X230439000Y-205721500D01*
X230436000Y-205720500D01*
X230434000Y-205719500D01*
X230431000Y-205718500D01*
X230429000Y-205716500D01*
X230427000Y-205715500D01*
X230425000Y-205713500D01*
X230423000Y-205712500D01*
X230421000Y-205710500D01*
X230419000Y-205708500D01*
X230417000Y-205706500D01*
X230415000Y-205704500D01*
X230414000Y-205702500D01*
X230412000Y-205700500D01*
X230411000Y-205698500D01*
X230409000Y-205696500D01*
X230408000Y-205693500D01*
X230407000Y-205691500D01*
X230406000Y-205688500D01*
X230406000Y-205686500D01*
X230405000Y-205683500D01*
X230405000Y-205681500D01*
X230404000Y-205678500D01*
X230404000Y-205676500D01*
X230404000Y-205673500D01*
X230404000Y-205173500D01*
X230404000Y-205170500D01*
X230404000Y-205168500D01*
X230405000Y-205165500D01*
X230405000Y-205163500D01*
X230406000Y-205160500D01*
X230406000Y-205158500D01*
X230407000Y-205155500D01*
X230408000Y-205153500D01*
X230409000Y-205150500D01*
X230411000Y-205148500D01*
X230412000Y-205146500D01*
X230414000Y-205144500D01*
X230415000Y-205142500D01*
X230417000Y-205140500D01*
X230419000Y-205138500D01*
X230421000Y-205136500D01*
X230423000Y-205134500D01*
X230425000Y-205133500D01*
X230427000Y-205131500D01*
X230429000Y-205130500D01*
X230431000Y-205128500D01*
X230434000Y-205127500D01*
X230436000Y-205126500D01*
X230439000Y-205125500D01*
X230441000Y-205125500D01*
X230444000Y-205124500D01*
X230446000Y-205124500D01*
X230449000Y-205123500D01*
X230451000Y-205123500D01*
X230454000Y-205123500D01*
X230654000Y-205123500D01*
X230657000Y-205123500D01*
X230659000Y-205123500D01*
X230662000Y-205124500D01*
G37*
X231312000Y-205124500D02*
X231314000Y-205124500D01*
X231317000Y-205125500D01*
X231319000Y-205125500D01*
X231322000Y-205126500D01*
X231324000Y-205127500D01*
X231327000Y-205128500D01*
X231329000Y-205130500D01*
X231331000Y-205131500D01*
X231333000Y-205133500D01*
X231335000Y-205134500D01*
X231337000Y-205136500D01*
X231339000Y-205138500D01*
X231341000Y-205140500D01*
X231343000Y-205142500D01*
X231344000Y-205144500D01*
X231346000Y-205146500D01*
X231347000Y-205148500D01*
X231349000Y-205150500D01*
X231350000Y-205153500D01*
X231351000Y-205155500D01*
X231352000Y-205158500D01*
X231352000Y-205160500D01*
X231353000Y-205163500D01*
X231353000Y-205165500D01*
X231354000Y-205168500D01*
X231354000Y-205170500D01*
X231354000Y-205173500D01*
X231354000Y-205673500D01*
X231354000Y-205676500D01*
X231354000Y-205678500D01*
X231353000Y-205681500D01*
X231353000Y-205683500D01*
X231352000Y-205686500D01*
X231352000Y-205688500D01*
X231351000Y-205691500D01*
X231350000Y-205693500D01*
X231349000Y-205696500D01*
X231347000Y-205698500D01*
X231346000Y-205700500D01*
X231344000Y-205702500D01*
X231343000Y-205704500D01*
X231341000Y-205706500D01*
X231339000Y-205708500D01*
X231337000Y-205710500D01*
X231335000Y-205712500D01*
X231333000Y-205713500D01*
X231331000Y-205715500D01*
X231329000Y-205716500D01*
X231327000Y-205718500D01*
X231324000Y-205719500D01*
X231322000Y-205720500D01*
X231319000Y-205721500D01*
X231317000Y-205721500D01*
X231314000Y-205722500D01*
X231312000Y-205722500D01*
X231309000Y-205723500D01*
X231307000Y-205723500D01*
X231304000Y-205723500D01*
X231104000Y-205723500D01*
X231101000Y-205723500D01*
X231099000Y-205723500D01*
X231096000Y-205722500D01*
X231094000Y-205722500D01*
X231091000Y-205721500D01*
X231089000Y-205721500D01*
X231086000Y-205720500D01*
X231084000Y-205719500D01*
X231081000Y-205718500D01*
X231079000Y-205716500D01*
X231077000Y-205715500D01*
X231075000Y-205713500D01*
X231073000Y-205712500D01*
X231071000Y-205710500D01*
X231069000Y-205708500D01*
X231067000Y-205706500D01*
X231065000Y-205704500D01*
X231064000Y-205702500D01*
X231062000Y-205700500D01*
X231061000Y-205698500D01*
X231059000Y-205696500D01*
X231058000Y-205693500D01*
X231057000Y-205691500D01*
X231056000Y-205688500D01*
X231056000Y-205686500D01*
X231055000Y-205683500D01*
X231055000Y-205681500D01*
X231054000Y-205678500D01*
X231054000Y-205676500D01*
X231054000Y-205673500D01*
X231054000Y-205173500D01*
X231054000Y-205170500D01*
X231054000Y-205168500D01*
X231055000Y-205165500D01*
X231055000Y-205163500D01*
X231056000Y-205160500D01*
X231056000Y-205158500D01*
X231057000Y-205155500D01*
X231058000Y-205153500D01*
X231059000Y-205150500D01*
X231061000Y-205148500D01*
X231062000Y-205146500D01*
X231064000Y-205144500D01*
X231065000Y-205142500D01*
X231067000Y-205140500D01*
X231069000Y-205138500D01*
X231071000Y-205136500D01*
X231073000Y-205134500D01*
X231075000Y-205133500D01*
X231077000Y-205131500D01*
X231079000Y-205130500D01*
X231081000Y-205128500D01*
X231084000Y-205127500D01*
X231086000Y-205126500D01*
X231089000Y-205125500D01*
X231091000Y-205125500D01*
X231094000Y-205124500D01*
X231096000Y-205124500D01*
X231099000Y-205123500D01*
X231101000Y-205123500D01*
X231104000Y-205123500D01*
X231304000Y-205123500D01*
X231307000Y-205123500D01*
X231309000Y-205123500D01*
X231312000Y-205124500D01*
G36*
X231312000Y-205124500D02*
G01*
X231314000Y-205124500D01*
X231317000Y-205125500D01*
X231319000Y-205125500D01*
X231322000Y-205126500D01*
X231324000Y-205127500D01*
X231327000Y-205128500D01*
X231329000Y-205130500D01*
X231331000Y-205131500D01*
X231333000Y-205133500D01*
X231335000Y-205134500D01*
X231337000Y-205136500D01*
X231339000Y-205138500D01*
X231341000Y-205140500D01*
X231343000Y-205142500D01*
X231344000Y-205144500D01*
X231346000Y-205146500D01*
X231347000Y-205148500D01*
X231349000Y-205150500D01*
X231350000Y-205153500D01*
X231351000Y-205155500D01*
X231352000Y-205158500D01*
X231352000Y-205160500D01*
X231353000Y-205163500D01*
X231353000Y-205165500D01*
X231354000Y-205168500D01*
X231354000Y-205170500D01*
X231354000Y-205173500D01*
X231354000Y-205673500D01*
X231354000Y-205676500D01*
X231354000Y-205678500D01*
X231353000Y-205681500D01*
X231353000Y-205683500D01*
X231352000Y-205686500D01*
X231352000Y-205688500D01*
X231351000Y-205691500D01*
X231350000Y-205693500D01*
X231349000Y-205696500D01*
X231347000Y-205698500D01*
X231346000Y-205700500D01*
X231344000Y-205702500D01*
X231343000Y-205704500D01*
X231341000Y-205706500D01*
X231339000Y-205708500D01*
X231337000Y-205710500D01*
X231335000Y-205712500D01*
X231333000Y-205713500D01*
X231331000Y-205715500D01*
X231329000Y-205716500D01*
X231327000Y-205718500D01*
X231324000Y-205719500D01*
X231322000Y-205720500D01*
X231319000Y-205721500D01*
X231317000Y-205721500D01*
X231314000Y-205722500D01*
X231312000Y-205722500D01*
X231309000Y-205723500D01*
X231307000Y-205723500D01*
X231304000Y-205723500D01*
X231104000Y-205723500D01*
X231101000Y-205723500D01*
X231099000Y-205723500D01*
X231096000Y-205722500D01*
X231094000Y-205722500D01*
X231091000Y-205721500D01*
X231089000Y-205721500D01*
X231086000Y-205720500D01*
X231084000Y-205719500D01*
X231081000Y-205718500D01*
X231079000Y-205716500D01*
X231077000Y-205715500D01*
X231075000Y-205713500D01*
X231073000Y-205712500D01*
X231071000Y-205710500D01*
X231069000Y-205708500D01*
X231067000Y-205706500D01*
X231065000Y-205704500D01*
X231064000Y-205702500D01*
X231062000Y-205700500D01*
X231061000Y-205698500D01*
X231059000Y-205696500D01*
X231058000Y-205693500D01*
X231057000Y-205691500D01*
X231056000Y-205688500D01*
X231056000Y-205686500D01*
X231055000Y-205683500D01*
X231055000Y-205681500D01*
X231054000Y-205678500D01*
X231054000Y-205676500D01*
X231054000Y-205673500D01*
X231054000Y-205173500D01*
X231054000Y-205170500D01*
X231054000Y-205168500D01*
X231055000Y-205165500D01*
X231055000Y-205163500D01*
X231056000Y-205160500D01*
X231056000Y-205158500D01*
X231057000Y-205155500D01*
X231058000Y-205153500D01*
X231059000Y-205150500D01*
X231061000Y-205148500D01*
X231062000Y-205146500D01*
X231064000Y-205144500D01*
X231065000Y-205142500D01*
X231067000Y-205140500D01*
X231069000Y-205138500D01*
X231071000Y-205136500D01*
X231073000Y-205134500D01*
X231075000Y-205133500D01*
X231077000Y-205131500D01*
X231079000Y-205130500D01*
X231081000Y-205128500D01*
X231084000Y-205127500D01*
X231086000Y-205126500D01*
X231089000Y-205125500D01*
X231091000Y-205125500D01*
X231094000Y-205124500D01*
X231096000Y-205124500D01*
X231099000Y-205123500D01*
X231101000Y-205123500D01*
X231104000Y-205123500D01*
X231304000Y-205123500D01*
X231307000Y-205123500D01*
X231309000Y-205123500D01*
X231312000Y-205124500D01*
G37*
X231962000Y-205124500D02*
X231964000Y-205124500D01*
X231967000Y-205125500D01*
X231969000Y-205125500D01*
X231972000Y-205126500D01*
X231974000Y-205127500D01*
X231977000Y-205128500D01*
X231979000Y-205130500D01*
X231981000Y-205131500D01*
X231983000Y-205133500D01*
X231985000Y-205134500D01*
X231987000Y-205136500D01*
X231989000Y-205138500D01*
X231991000Y-205140500D01*
X231993000Y-205142500D01*
X231994000Y-205144500D01*
X231996000Y-205146500D01*
X231997000Y-205148500D01*
X231999000Y-205150500D01*
X232000000Y-205153500D01*
X232001000Y-205155500D01*
X232002000Y-205158500D01*
X232002000Y-205160500D01*
X232003000Y-205163500D01*
X232003000Y-205165500D01*
X232004000Y-205168500D01*
X232004000Y-205170500D01*
X232004000Y-205173500D01*
X232004000Y-205673500D01*
X232004000Y-205676500D01*
X232004000Y-205678500D01*
X232003000Y-205681500D01*
X232003000Y-205683500D01*
X232002000Y-205686500D01*
X232002000Y-205688500D01*
X232001000Y-205691500D01*
X232000000Y-205693500D01*
X231999000Y-205696500D01*
X231997000Y-205698500D01*
X231996000Y-205700500D01*
X231994000Y-205702500D01*
X231993000Y-205704500D01*
X231991000Y-205706500D01*
X231989000Y-205708500D01*
X231987000Y-205710500D01*
X231985000Y-205712500D01*
X231983000Y-205713500D01*
X231981000Y-205715500D01*
X231979000Y-205716500D01*
X231977000Y-205718500D01*
X231974000Y-205719500D01*
X231972000Y-205720500D01*
X231969000Y-205721500D01*
X231967000Y-205721500D01*
X231964000Y-205722500D01*
X231962000Y-205722500D01*
X231959000Y-205723500D01*
X231957000Y-205723500D01*
X231954000Y-205723500D01*
X231754000Y-205723500D01*
X231751000Y-205723500D01*
X231749000Y-205723500D01*
X231746000Y-205722500D01*
X231744000Y-205722500D01*
X231741000Y-205721500D01*
X231739000Y-205721500D01*
X231736000Y-205720500D01*
X231734000Y-205719500D01*
X231731000Y-205718500D01*
X231729000Y-205716500D01*
X231727000Y-205715500D01*
X231725000Y-205713500D01*
X231723000Y-205712500D01*
X231721000Y-205710500D01*
X231719000Y-205708500D01*
X231717000Y-205706500D01*
X231715000Y-205704500D01*
X231714000Y-205702500D01*
X231712000Y-205700500D01*
X231711000Y-205698500D01*
X231709000Y-205696500D01*
X231708000Y-205693500D01*
X231707000Y-205691500D01*
X231706000Y-205688500D01*
X231706000Y-205686500D01*
X231705000Y-205683500D01*
X231705000Y-205681500D01*
X231704000Y-205678500D01*
X231704000Y-205676500D01*
X231704000Y-205673500D01*
X231704000Y-205173500D01*
X231704000Y-205170500D01*
X231704000Y-205168500D01*
X231705000Y-205165500D01*
X231705000Y-205163500D01*
X231706000Y-205160500D01*
X231706000Y-205158500D01*
X231707000Y-205155500D01*
X231708000Y-205153500D01*
X231709000Y-205150500D01*
X231711000Y-205148500D01*
X231712000Y-205146500D01*
X231714000Y-205144500D01*
X231715000Y-205142500D01*
X231717000Y-205140500D01*
X231719000Y-205138500D01*
X231721000Y-205136500D01*
X231723000Y-205134500D01*
X231725000Y-205133500D01*
X231727000Y-205131500D01*
X231729000Y-205130500D01*
X231731000Y-205128500D01*
X231734000Y-205127500D01*
X231736000Y-205126500D01*
X231739000Y-205125500D01*
X231741000Y-205125500D01*
X231744000Y-205124500D01*
X231746000Y-205124500D01*
X231749000Y-205123500D01*
X231751000Y-205123500D01*
X231754000Y-205123500D01*
X231954000Y-205123500D01*
X231957000Y-205123500D01*
X231959000Y-205123500D01*
X231962000Y-205124500D01*
G36*
X231962000Y-205124500D02*
G01*
X231964000Y-205124500D01*
X231967000Y-205125500D01*
X231969000Y-205125500D01*
X231972000Y-205126500D01*
X231974000Y-205127500D01*
X231977000Y-205128500D01*
X231979000Y-205130500D01*
X231981000Y-205131500D01*
X231983000Y-205133500D01*
X231985000Y-205134500D01*
X231987000Y-205136500D01*
X231989000Y-205138500D01*
X231991000Y-205140500D01*
X231993000Y-205142500D01*
X231994000Y-205144500D01*
X231996000Y-205146500D01*
X231997000Y-205148500D01*
X231999000Y-205150500D01*
X232000000Y-205153500D01*
X232001000Y-205155500D01*
X232002000Y-205158500D01*
X232002000Y-205160500D01*
X232003000Y-205163500D01*
X232003000Y-205165500D01*
X232004000Y-205168500D01*
X232004000Y-205170500D01*
X232004000Y-205173500D01*
X232004000Y-205673500D01*
X232004000Y-205676500D01*
X232004000Y-205678500D01*
X232003000Y-205681500D01*
X232003000Y-205683500D01*
X232002000Y-205686500D01*
X232002000Y-205688500D01*
X232001000Y-205691500D01*
X232000000Y-205693500D01*
X231999000Y-205696500D01*
X231997000Y-205698500D01*
X231996000Y-205700500D01*
X231994000Y-205702500D01*
X231993000Y-205704500D01*
X231991000Y-205706500D01*
X231989000Y-205708500D01*
X231987000Y-205710500D01*
X231985000Y-205712500D01*
X231983000Y-205713500D01*
X231981000Y-205715500D01*
X231979000Y-205716500D01*
X231977000Y-205718500D01*
X231974000Y-205719500D01*
X231972000Y-205720500D01*
X231969000Y-205721500D01*
X231967000Y-205721500D01*
X231964000Y-205722500D01*
X231962000Y-205722500D01*
X231959000Y-205723500D01*
X231957000Y-205723500D01*
X231954000Y-205723500D01*
X231754000Y-205723500D01*
X231751000Y-205723500D01*
X231749000Y-205723500D01*
X231746000Y-205722500D01*
X231744000Y-205722500D01*
X231741000Y-205721500D01*
X231739000Y-205721500D01*
X231736000Y-205720500D01*
X231734000Y-205719500D01*
X231731000Y-205718500D01*
X231729000Y-205716500D01*
X231727000Y-205715500D01*
X231725000Y-205713500D01*
X231723000Y-205712500D01*
X231721000Y-205710500D01*
X231719000Y-205708500D01*
X231717000Y-205706500D01*
X231715000Y-205704500D01*
X231714000Y-205702500D01*
X231712000Y-205700500D01*
X231711000Y-205698500D01*
X231709000Y-205696500D01*
X231708000Y-205693500D01*
X231707000Y-205691500D01*
X231706000Y-205688500D01*
X231706000Y-205686500D01*
X231705000Y-205683500D01*
X231705000Y-205681500D01*
X231704000Y-205678500D01*
X231704000Y-205676500D01*
X231704000Y-205673500D01*
X231704000Y-205173500D01*
X231704000Y-205170500D01*
X231704000Y-205168500D01*
X231705000Y-205165500D01*
X231705000Y-205163500D01*
X231706000Y-205160500D01*
X231706000Y-205158500D01*
X231707000Y-205155500D01*
X231708000Y-205153500D01*
X231709000Y-205150500D01*
X231711000Y-205148500D01*
X231712000Y-205146500D01*
X231714000Y-205144500D01*
X231715000Y-205142500D01*
X231717000Y-205140500D01*
X231719000Y-205138500D01*
X231721000Y-205136500D01*
X231723000Y-205134500D01*
X231725000Y-205133500D01*
X231727000Y-205131500D01*
X231729000Y-205130500D01*
X231731000Y-205128500D01*
X231734000Y-205127500D01*
X231736000Y-205126500D01*
X231739000Y-205125500D01*
X231741000Y-205125500D01*
X231744000Y-205124500D01*
X231746000Y-205124500D01*
X231749000Y-205123500D01*
X231751000Y-205123500D01*
X231754000Y-205123500D01*
X231954000Y-205123500D01*
X231957000Y-205123500D01*
X231959000Y-205123500D01*
X231962000Y-205124500D01*
G37*
X232062000Y-206414500D02*
X232064000Y-206414500D01*
X232067000Y-206415500D01*
X232069000Y-206415500D01*
X232072000Y-206416500D01*
X232074000Y-206417500D01*
X232077000Y-206418500D01*
X232079000Y-206420500D01*
X232081000Y-206421500D01*
X232083000Y-206423500D01*
X232085000Y-206424500D01*
X232087000Y-206426500D01*
X232089000Y-206428500D01*
X232091000Y-206430500D01*
X232093000Y-206432500D01*
X232094000Y-206434500D01*
X232096000Y-206436500D01*
X232097000Y-206438500D01*
X232099000Y-206440500D01*
X232100000Y-206443500D01*
X232101000Y-206445500D01*
X232102000Y-206448500D01*
X232102000Y-206450500D01*
X232103000Y-206453500D01*
X232103000Y-206455500D01*
X232104000Y-206458500D01*
X232104000Y-206460500D01*
X232104000Y-206463500D01*
X232104000Y-208138500D01*
X232104000Y-208141500D01*
X232104000Y-208143500D01*
X232103000Y-208146500D01*
X232103000Y-208148500D01*
X232102000Y-208151500D01*
X232102000Y-208153500D01*
X232101000Y-208156500D01*
X232100000Y-208158500D01*
X232099000Y-208161500D01*
X232097000Y-208163500D01*
X232096000Y-208165500D01*
X232094000Y-208167500D01*
X232093000Y-208169500D01*
X232091000Y-208171500D01*
X232089000Y-208173500D01*
X232087000Y-208175500D01*
X232085000Y-208177500D01*
X232083000Y-208178500D01*
X232081000Y-208180500D01*
X232079000Y-208181500D01*
X232077000Y-208183500D01*
X232074000Y-208184500D01*
X232072000Y-208185500D01*
X232069000Y-208186500D01*
X232067000Y-208186500D01*
X232064000Y-208187500D01*
X232062000Y-208187500D01*
X232059000Y-208188500D01*
X232057000Y-208188500D01*
X232054000Y-208188500D01*
X232004000Y-208188500D01*
X232004000Y-208773500D01*
X232004000Y-208776500D01*
X232004000Y-208778500D01*
X232003000Y-208781500D01*
X232003000Y-208783500D01*
X232002000Y-208786500D01*
X232002000Y-208788500D01*
X232001000Y-208791500D01*
X232000000Y-208793500D01*
X231999000Y-208796500D01*
X231997000Y-208798500D01*
X231996000Y-208800500D01*
X231994000Y-208802500D01*
X231993000Y-208804500D01*
X231991000Y-208806500D01*
X231989000Y-208808500D01*
X231987000Y-208810500D01*
X231985000Y-208812500D01*
X231983000Y-208813500D01*
X231981000Y-208815500D01*
X231979000Y-208816500D01*
X231977000Y-208818500D01*
X231974000Y-208819500D01*
X231972000Y-208820500D01*
X231969000Y-208821500D01*
X231967000Y-208821500D01*
X231964000Y-208822500D01*
X231962000Y-208822500D01*
X231959000Y-208823500D01*
X231957000Y-208823500D01*
X231954000Y-208823500D01*
X231754000Y-208823500D01*
X231751000Y-208823500D01*
X231749000Y-208823500D01*
X231746000Y-208822500D01*
X231744000Y-208822500D01*
X231741000Y-208821500D01*
X231739000Y-208821500D01*
X231736000Y-208820500D01*
X231734000Y-208819500D01*
X231731000Y-208818500D01*
X231729000Y-208816500D01*
X231727000Y-208815500D01*
X231725000Y-208813500D01*
X231723000Y-208812500D01*
X231721000Y-208810500D01*
X231719000Y-208808500D01*
X231717000Y-208806500D01*
X231715000Y-208804500D01*
X231714000Y-208802500D01*
X231712000Y-208800500D01*
X231711000Y-208798500D01*
X231709000Y-208796500D01*
X231708000Y-208793500D01*
X231707000Y-208791500D01*
X231706000Y-208788500D01*
X231706000Y-208786500D01*
X231705000Y-208783500D01*
X231705000Y-208781500D01*
X231704000Y-208778500D01*
X231704000Y-208776500D01*
X231704000Y-208773500D01*
X231704000Y-208188500D01*
X231354000Y-208188500D01*
X231354000Y-208773500D01*
X231354000Y-208776500D01*
X231354000Y-208778500D01*
X231353000Y-208781500D01*
X231353000Y-208783500D01*
X231352000Y-208786500D01*
X231352000Y-208788500D01*
X231351000Y-208791500D01*
X231350000Y-208793500D01*
X231349000Y-208796500D01*
X231347000Y-208798500D01*
X231346000Y-208800500D01*
X231344000Y-208802500D01*
X231343000Y-208804500D01*
X231341000Y-208806500D01*
X231339000Y-208808500D01*
X231337000Y-208810500D01*
X231335000Y-208812500D01*
X231333000Y-208813500D01*
X231331000Y-208815500D01*
X231329000Y-208816500D01*
X231327000Y-208818500D01*
X231324000Y-208819500D01*
X231322000Y-208820500D01*
X231319000Y-208821500D01*
X231317000Y-208821500D01*
X231314000Y-208822500D01*
X231312000Y-208822500D01*
X231309000Y-208823500D01*
X231307000Y-208823500D01*
X231304000Y-208823500D01*
X231104000Y-208823500D01*
X231101000Y-208823500D01*
X231099000Y-208823500D01*
X231096000Y-208822500D01*
X231094000Y-208822500D01*
X231091000Y-208821500D01*
X231089000Y-208821500D01*
X231086000Y-208820500D01*
X231084000Y-208819500D01*
X231081000Y-208818500D01*
X231079000Y-208816500D01*
X231077000Y-208815500D01*
X231075000Y-208813500D01*
X231073000Y-208812500D01*
X231071000Y-208810500D01*
X231069000Y-208808500D01*
X231067000Y-208806500D01*
X231065000Y-208804500D01*
X231064000Y-208802500D01*
X231062000Y-208800500D01*
X231061000Y-208798500D01*
X231059000Y-208796500D01*
X231058000Y-208793500D01*
X231057000Y-208791500D01*
X231056000Y-208788500D01*
X231056000Y-208786500D01*
X231055000Y-208783500D01*
X231055000Y-208781500D01*
X231054000Y-208778500D01*
X231054000Y-208776500D01*
X231054000Y-208773500D01*
X231054000Y-208188500D01*
X230704000Y-208188500D01*
X230704000Y-208773500D01*
X230704000Y-208776500D01*
X230704000Y-208778500D01*
X230703000Y-208781500D01*
X230703000Y-208783500D01*
X230702000Y-208786500D01*
X230702000Y-208788500D01*
X230701000Y-208791500D01*
X230700000Y-208793500D01*
X230699000Y-208796500D01*
X230697000Y-208798500D01*
X230696000Y-208800500D01*
X230694000Y-208802500D01*
X230693000Y-208804500D01*
X230691000Y-208806500D01*
X230689000Y-208808500D01*
X230687000Y-208810500D01*
X230685000Y-208812500D01*
X230683000Y-208813500D01*
X230681000Y-208815500D01*
X230679000Y-208816500D01*
X230677000Y-208818500D01*
X230674000Y-208819500D01*
X230672000Y-208820500D01*
X230669000Y-208821500D01*
X230667000Y-208821500D01*
X230664000Y-208822500D01*
X230662000Y-208822500D01*
X230659000Y-208823500D01*
X230657000Y-208823500D01*
X230654000Y-208823500D01*
X230454000Y-208823500D01*
X230451000Y-208823500D01*
X230449000Y-208823500D01*
X230446000Y-208822500D01*
X230444000Y-208822500D01*
X230441000Y-208821500D01*
X230439000Y-208821500D01*
X230436000Y-208820500D01*
X230434000Y-208819500D01*
X230431000Y-208818500D01*
X230429000Y-208816500D01*
X230427000Y-208815500D01*
X230425000Y-208813500D01*
X230423000Y-208812500D01*
X230421000Y-208810500D01*
X230419000Y-208808500D01*
X230417000Y-208806500D01*
X230415000Y-208804500D01*
X230414000Y-208802500D01*
X230412000Y-208800500D01*
X230411000Y-208798500D01*
X230409000Y-208796500D01*
X230408000Y-208793500D01*
X230407000Y-208791500D01*
X230406000Y-208788500D01*
X230406000Y-208786500D01*
X230405000Y-208783500D01*
X230405000Y-208781500D01*
X230404000Y-208778500D01*
X230404000Y-208776500D01*
X230404000Y-208773500D01*
X230404000Y-208188500D01*
X230054000Y-208188500D01*
X230054000Y-208773500D01*
X230054000Y-208776500D01*
X230054000Y-208778500D01*
X230053000Y-208781500D01*
X230053000Y-208783500D01*
X230052000Y-208786500D01*
X230052000Y-208788500D01*
X230051000Y-208791500D01*
X230050000Y-208793500D01*
X230049000Y-208796500D01*
X230047000Y-208798500D01*
X230046000Y-208800500D01*
X230044000Y-208802500D01*
X230043000Y-208804500D01*
X230041000Y-208806500D01*
X230039000Y-208808500D01*
X230037000Y-208810500D01*
X230035000Y-208812500D01*
X230033000Y-208813500D01*
X230031000Y-208815500D01*
X230029000Y-208816500D01*
X230027000Y-208818500D01*
X230024000Y-208819500D01*
X230022000Y-208820500D01*
X230019000Y-208821500D01*
X230017000Y-208821500D01*
X230014000Y-208822500D01*
X230012000Y-208822500D01*
X230009000Y-208823500D01*
X230007000Y-208823500D01*
X230004000Y-208823500D01*
X229804000Y-208823500D01*
X229801000Y-208823500D01*
X229799000Y-208823500D01*
X229796000Y-208822500D01*
X229794000Y-208822500D01*
X229791000Y-208821500D01*
X229789000Y-208821500D01*
X229786000Y-208820500D01*
X229784000Y-208819500D01*
X229781000Y-208818500D01*
X229779000Y-208816500D01*
X229777000Y-208815500D01*
X229775000Y-208813500D01*
X229773000Y-208812500D01*
X229771000Y-208810500D01*
X229769000Y-208808500D01*
X229767000Y-208806500D01*
X229765000Y-208804500D01*
X229764000Y-208802500D01*
X229762000Y-208800500D01*
X229761000Y-208798500D01*
X229759000Y-208796500D01*
X229758000Y-208793500D01*
X229757000Y-208791500D01*
X229756000Y-208788500D01*
X229756000Y-208786500D01*
X229755000Y-208783500D01*
X229755000Y-208781500D01*
X229754000Y-208778500D01*
X229754000Y-208776500D01*
X229754000Y-208773500D01*
X229754000Y-208188500D01*
X229704000Y-208188500D01*
X229701000Y-208188500D01*
X229699000Y-208188500D01*
X229696000Y-208187500D01*
X229694000Y-208187500D01*
X229691000Y-208186500D01*
X229689000Y-208186500D01*
X229686000Y-208185500D01*
X229684000Y-208184500D01*
X229681000Y-208183500D01*
X229679000Y-208181500D01*
X229677000Y-208180500D01*
X229675000Y-208178500D01*
X229673000Y-208177500D01*
X229671000Y-208175500D01*
X229669000Y-208173500D01*
X229667000Y-208171500D01*
X229665000Y-208169500D01*
X229664000Y-208167500D01*
X229662000Y-208165500D01*
X229661000Y-208163500D01*
X229659000Y-208161500D01*
X229658000Y-208158500D01*
X229657000Y-208156500D01*
X229656000Y-208153500D01*
X229656000Y-208151500D01*
X229655000Y-208148500D01*
X229655000Y-208146500D01*
X229654000Y-208143500D01*
X229654000Y-208141500D01*
X229654000Y-208138500D01*
X229654000Y-206463500D01*
X229654000Y-206460500D01*
X229654000Y-206458500D01*
X229655000Y-206455500D01*
X229655000Y-206453500D01*
X229656000Y-206450500D01*
X229656000Y-206448500D01*
X229657000Y-206445500D01*
X229658000Y-206443500D01*
X229659000Y-206440500D01*
X229661000Y-206438500D01*
X229662000Y-206436500D01*
X229664000Y-206434500D01*
X229665000Y-206432500D01*
X229667000Y-206430500D01*
X229669000Y-206428500D01*
X229671000Y-206426500D01*
X229673000Y-206424500D01*
X229675000Y-206423500D01*
X229677000Y-206421500D01*
X229679000Y-206420500D01*
X229681000Y-206418500D01*
X229684000Y-206417500D01*
X229686000Y-206416500D01*
X229689000Y-206415500D01*
X229691000Y-206415500D01*
X229694000Y-206414500D01*
X229696000Y-206414500D01*
X229699000Y-206413500D01*
X229701000Y-206413500D01*
X229704000Y-206413500D01*
X232054000Y-206413500D01*
X232057000Y-206413500D01*
X232059000Y-206413500D01*
X232062000Y-206414500D01*
G36*
X232062000Y-206414500D02*
G01*
X232064000Y-206414500D01*
X232067000Y-206415500D01*
X232069000Y-206415500D01*
X232072000Y-206416500D01*
X232074000Y-206417500D01*
X232077000Y-206418500D01*
X232079000Y-206420500D01*
X232081000Y-206421500D01*
X232083000Y-206423500D01*
X232085000Y-206424500D01*
X232087000Y-206426500D01*
X232089000Y-206428500D01*
X232091000Y-206430500D01*
X232093000Y-206432500D01*
X232094000Y-206434500D01*
X232096000Y-206436500D01*
X232097000Y-206438500D01*
X232099000Y-206440500D01*
X232100000Y-206443500D01*
X232101000Y-206445500D01*
X232102000Y-206448500D01*
X232102000Y-206450500D01*
X232103000Y-206453500D01*
X232103000Y-206455500D01*
X232104000Y-206458500D01*
X232104000Y-206460500D01*
X232104000Y-206463500D01*
X232104000Y-208138500D01*
X232104000Y-208141500D01*
X232104000Y-208143500D01*
X232103000Y-208146500D01*
X232103000Y-208148500D01*
X232102000Y-208151500D01*
X232102000Y-208153500D01*
X232101000Y-208156500D01*
X232100000Y-208158500D01*
X232099000Y-208161500D01*
X232097000Y-208163500D01*
X232096000Y-208165500D01*
X232094000Y-208167500D01*
X232093000Y-208169500D01*
X232091000Y-208171500D01*
X232089000Y-208173500D01*
X232087000Y-208175500D01*
X232085000Y-208177500D01*
X232083000Y-208178500D01*
X232081000Y-208180500D01*
X232079000Y-208181500D01*
X232077000Y-208183500D01*
X232074000Y-208184500D01*
X232072000Y-208185500D01*
X232069000Y-208186500D01*
X232067000Y-208186500D01*
X232064000Y-208187500D01*
X232062000Y-208187500D01*
X232059000Y-208188500D01*
X232057000Y-208188500D01*
X232054000Y-208188500D01*
X232004000Y-208188500D01*
X232004000Y-208773500D01*
X232004000Y-208776500D01*
X232004000Y-208778500D01*
X232003000Y-208781500D01*
X232003000Y-208783500D01*
X232002000Y-208786500D01*
X232002000Y-208788500D01*
X232001000Y-208791500D01*
X232000000Y-208793500D01*
X231999000Y-208796500D01*
X231997000Y-208798500D01*
X231996000Y-208800500D01*
X231994000Y-208802500D01*
X231993000Y-208804500D01*
X231991000Y-208806500D01*
X231989000Y-208808500D01*
X231987000Y-208810500D01*
X231985000Y-208812500D01*
X231983000Y-208813500D01*
X231981000Y-208815500D01*
X231979000Y-208816500D01*
X231977000Y-208818500D01*
X231974000Y-208819500D01*
X231972000Y-208820500D01*
X231969000Y-208821500D01*
X231967000Y-208821500D01*
X231964000Y-208822500D01*
X231962000Y-208822500D01*
X231959000Y-208823500D01*
X231957000Y-208823500D01*
X231954000Y-208823500D01*
X231754000Y-208823500D01*
X231751000Y-208823500D01*
X231749000Y-208823500D01*
X231746000Y-208822500D01*
X231744000Y-208822500D01*
X231741000Y-208821500D01*
X231739000Y-208821500D01*
X231736000Y-208820500D01*
X231734000Y-208819500D01*
X231731000Y-208818500D01*
X231729000Y-208816500D01*
X231727000Y-208815500D01*
X231725000Y-208813500D01*
X231723000Y-208812500D01*
X231721000Y-208810500D01*
X231719000Y-208808500D01*
X231717000Y-208806500D01*
X231715000Y-208804500D01*
X231714000Y-208802500D01*
X231712000Y-208800500D01*
X231711000Y-208798500D01*
X231709000Y-208796500D01*
X231708000Y-208793500D01*
X231707000Y-208791500D01*
X231706000Y-208788500D01*
X231706000Y-208786500D01*
X231705000Y-208783500D01*
X231705000Y-208781500D01*
X231704000Y-208778500D01*
X231704000Y-208776500D01*
X231704000Y-208773500D01*
X231704000Y-208188500D01*
X231354000Y-208188500D01*
X231354000Y-208773500D01*
X231354000Y-208776500D01*
X231354000Y-208778500D01*
X231353000Y-208781500D01*
X231353000Y-208783500D01*
X231352000Y-208786500D01*
X231352000Y-208788500D01*
X231351000Y-208791500D01*
X231350000Y-208793500D01*
X231349000Y-208796500D01*
X231347000Y-208798500D01*
X231346000Y-208800500D01*
X231344000Y-208802500D01*
X231343000Y-208804500D01*
X231341000Y-208806500D01*
X231339000Y-208808500D01*
X231337000Y-208810500D01*
X231335000Y-208812500D01*
X231333000Y-208813500D01*
X231331000Y-208815500D01*
X231329000Y-208816500D01*
X231327000Y-208818500D01*
X231324000Y-208819500D01*
X231322000Y-208820500D01*
X231319000Y-208821500D01*
X231317000Y-208821500D01*
X231314000Y-208822500D01*
X231312000Y-208822500D01*
X231309000Y-208823500D01*
X231307000Y-208823500D01*
X231304000Y-208823500D01*
X231104000Y-208823500D01*
X231101000Y-208823500D01*
X231099000Y-208823500D01*
X231096000Y-208822500D01*
X231094000Y-208822500D01*
X231091000Y-208821500D01*
X231089000Y-208821500D01*
X231086000Y-208820500D01*
X231084000Y-208819500D01*
X231081000Y-208818500D01*
X231079000Y-208816500D01*
X231077000Y-208815500D01*
X231075000Y-208813500D01*
X231073000Y-208812500D01*
X231071000Y-208810500D01*
X231069000Y-208808500D01*
X231067000Y-208806500D01*
X231065000Y-208804500D01*
X231064000Y-208802500D01*
X231062000Y-208800500D01*
X231061000Y-208798500D01*
X231059000Y-208796500D01*
X231058000Y-208793500D01*
X231057000Y-208791500D01*
X231056000Y-208788500D01*
X231056000Y-208786500D01*
X231055000Y-208783500D01*
X231055000Y-208781500D01*
X231054000Y-208778500D01*
X231054000Y-208776500D01*
X231054000Y-208773500D01*
X231054000Y-208188500D01*
X230704000Y-208188500D01*
X230704000Y-208773500D01*
X230704000Y-208776500D01*
X230704000Y-208778500D01*
X230703000Y-208781500D01*
X230703000Y-208783500D01*
X230702000Y-208786500D01*
X230702000Y-208788500D01*
X230701000Y-208791500D01*
X230700000Y-208793500D01*
X230699000Y-208796500D01*
X230697000Y-208798500D01*
X230696000Y-208800500D01*
X230694000Y-208802500D01*
X230693000Y-208804500D01*
X230691000Y-208806500D01*
X230689000Y-208808500D01*
X230687000Y-208810500D01*
X230685000Y-208812500D01*
X230683000Y-208813500D01*
X230681000Y-208815500D01*
X230679000Y-208816500D01*
X230677000Y-208818500D01*
X230674000Y-208819500D01*
X230672000Y-208820500D01*
X230669000Y-208821500D01*
X230667000Y-208821500D01*
X230664000Y-208822500D01*
X230662000Y-208822500D01*
X230659000Y-208823500D01*
X230657000Y-208823500D01*
X230654000Y-208823500D01*
X230454000Y-208823500D01*
X230451000Y-208823500D01*
X230449000Y-208823500D01*
X230446000Y-208822500D01*
X230444000Y-208822500D01*
X230441000Y-208821500D01*
X230439000Y-208821500D01*
X230436000Y-208820500D01*
X230434000Y-208819500D01*
X230431000Y-208818500D01*
X230429000Y-208816500D01*
X230427000Y-208815500D01*
X230425000Y-208813500D01*
X230423000Y-208812500D01*
X230421000Y-208810500D01*
X230419000Y-208808500D01*
X230417000Y-208806500D01*
X230415000Y-208804500D01*
X230414000Y-208802500D01*
X230412000Y-208800500D01*
X230411000Y-208798500D01*
X230409000Y-208796500D01*
X230408000Y-208793500D01*
X230407000Y-208791500D01*
X230406000Y-208788500D01*
X230406000Y-208786500D01*
X230405000Y-208783500D01*
X230405000Y-208781500D01*
X230404000Y-208778500D01*
X230404000Y-208776500D01*
X230404000Y-208773500D01*
X230404000Y-208188500D01*
X230054000Y-208188500D01*
X230054000Y-208773500D01*
X230054000Y-208776500D01*
X230054000Y-208778500D01*
X230053000Y-208781500D01*
X230053000Y-208783500D01*
X230052000Y-208786500D01*
X230052000Y-208788500D01*
X230051000Y-208791500D01*
X230050000Y-208793500D01*
X230049000Y-208796500D01*
X230047000Y-208798500D01*
X230046000Y-208800500D01*
X230044000Y-208802500D01*
X230043000Y-208804500D01*
X230041000Y-208806500D01*
X230039000Y-208808500D01*
X230037000Y-208810500D01*
X230035000Y-208812500D01*
X230033000Y-208813500D01*
X230031000Y-208815500D01*
X230029000Y-208816500D01*
X230027000Y-208818500D01*
X230024000Y-208819500D01*
X230022000Y-208820500D01*
X230019000Y-208821500D01*
X230017000Y-208821500D01*
X230014000Y-208822500D01*
X230012000Y-208822500D01*
X230009000Y-208823500D01*
X230007000Y-208823500D01*
X230004000Y-208823500D01*
X229804000Y-208823500D01*
X229801000Y-208823500D01*
X229799000Y-208823500D01*
X229796000Y-208822500D01*
X229794000Y-208822500D01*
X229791000Y-208821500D01*
X229789000Y-208821500D01*
X229786000Y-208820500D01*
X229784000Y-208819500D01*
X229781000Y-208818500D01*
X229779000Y-208816500D01*
X229777000Y-208815500D01*
X229775000Y-208813500D01*
X229773000Y-208812500D01*
X229771000Y-208810500D01*
X229769000Y-208808500D01*
X229767000Y-208806500D01*
X229765000Y-208804500D01*
X229764000Y-208802500D01*
X229762000Y-208800500D01*
X229761000Y-208798500D01*
X229759000Y-208796500D01*
X229758000Y-208793500D01*
X229757000Y-208791500D01*
X229756000Y-208788500D01*
X229756000Y-208786500D01*
X229755000Y-208783500D01*
X229755000Y-208781500D01*
X229754000Y-208778500D01*
X229754000Y-208776500D01*
X229754000Y-208773500D01*
X229754000Y-208188500D01*
X229704000Y-208188500D01*
X229701000Y-208188500D01*
X229699000Y-208188500D01*
X229696000Y-208187500D01*
X229694000Y-208187500D01*
X229691000Y-208186500D01*
X229689000Y-208186500D01*
X229686000Y-208185500D01*
X229684000Y-208184500D01*
X229681000Y-208183500D01*
X229679000Y-208181500D01*
X229677000Y-208180500D01*
X229675000Y-208178500D01*
X229673000Y-208177500D01*
X229671000Y-208175500D01*
X229669000Y-208173500D01*
X229667000Y-208171500D01*
X229665000Y-208169500D01*
X229664000Y-208167500D01*
X229662000Y-208165500D01*
X229661000Y-208163500D01*
X229659000Y-208161500D01*
X229658000Y-208158500D01*
X229657000Y-208156500D01*
X229656000Y-208153500D01*
X229656000Y-208151500D01*
X229655000Y-208148500D01*
X229655000Y-208146500D01*
X229654000Y-208143500D01*
X229654000Y-208141500D01*
X229654000Y-208138500D01*
X229654000Y-206463500D01*
X229654000Y-206460500D01*
X229654000Y-206458500D01*
X229655000Y-206455500D01*
X229655000Y-206453500D01*
X229656000Y-206450500D01*
X229656000Y-206448500D01*
X229657000Y-206445500D01*
X229658000Y-206443500D01*
X229659000Y-206440500D01*
X229661000Y-206438500D01*
X229662000Y-206436500D01*
X229664000Y-206434500D01*
X229665000Y-206432500D01*
X229667000Y-206430500D01*
X229669000Y-206428500D01*
X229671000Y-206426500D01*
X229673000Y-206424500D01*
X229675000Y-206423500D01*
X229677000Y-206421500D01*
X229679000Y-206420500D01*
X229681000Y-206418500D01*
X229684000Y-206417500D01*
X229686000Y-206416500D01*
X229689000Y-206415500D01*
X229691000Y-206415500D01*
X229694000Y-206414500D01*
X229696000Y-206414500D01*
X229699000Y-206413500D01*
X229701000Y-206413500D01*
X229704000Y-206413500D01*
X232054000Y-206413500D01*
X232057000Y-206413500D01*
X232059000Y-206413500D01*
X232062000Y-206414500D01*
G37*
D11*
%TO.C,J12*%
X188728100Y-89080000D02*
G75*
G02*
X187891900Y-89080000I-418100J0D01*
G01*
X187891900Y-89080000D02*
G75*
G02*
X188728100Y-89080000I418100J0D01*
G01*
X191728100Y-89080000D02*
G75*
G02*
X190891900Y-89080000I-418100J0D01*
G01*
X190891900Y-89080000D02*
G75*
G02*
X191728100Y-89080000I418100J0D01*
G01*
X191728100Y-92080000D02*
G75*
G02*
X190891900Y-92080000I-418100J0D01*
G01*
X190891900Y-92080000D02*
G75*
G02*
X191728100Y-92080000I418100J0D01*
G01*
D12*
X192543100Y-86080000D02*
G75*
G02*
X191956900Y-86080000I-293100J0D01*
G01*
X191956900Y-86080000D02*
G75*
G02*
X192543100Y-86080000I293100J0D01*
G01*
X192543100Y-95080000D02*
G75*
G02*
X191956900Y-95080000I-293100J0D01*
G01*
X191956900Y-95080000D02*
G75*
G02*
X192543100Y-95080000I293100J0D01*
G01*
D10*
X189146200Y-92916200D02*
X187473800Y-92916200D01*
X187473800Y-91243800D01*
X189146200Y-91243800D01*
X189146200Y-92916200D01*
G36*
X189146200Y-92916200D02*
G01*
X187473800Y-92916200D01*
X187473800Y-91243800D01*
X189146200Y-91243800D01*
X189146200Y-92916200D01*
G37*
%TO.C,IC4*%
X242307000Y-208879500D02*
X242309000Y-208879500D01*
X242312000Y-208880500D01*
X242314000Y-208880500D01*
X242317000Y-208881500D01*
X242319000Y-208882500D01*
X242322000Y-208883500D01*
X242324000Y-208885500D01*
X242326000Y-208886500D01*
X242328000Y-208888500D01*
X242330000Y-208889500D01*
X242332000Y-208891500D01*
X242334000Y-208893500D01*
X242336000Y-208895500D01*
X242338000Y-208897500D01*
X242339000Y-208899500D01*
X242341000Y-208901500D01*
X242342000Y-208903500D01*
X242344000Y-208905500D01*
X242345000Y-208908500D01*
X242346000Y-208910500D01*
X242347000Y-208913500D01*
X242347000Y-208915500D01*
X242348000Y-208918500D01*
X242348000Y-208920500D01*
X242349000Y-208923500D01*
X242349000Y-208925500D01*
X242349000Y-208928500D01*
X242349000Y-209128500D01*
X242349000Y-209131500D01*
X242349000Y-209133500D01*
X242348000Y-209136500D01*
X242348000Y-209138500D01*
X242347000Y-209141500D01*
X242347000Y-209143500D01*
X242346000Y-209146500D01*
X242345000Y-209148500D01*
X242344000Y-209151500D01*
X242342000Y-209153500D01*
X242341000Y-209155500D01*
X242339000Y-209157500D01*
X242338000Y-209159500D01*
X242336000Y-209161500D01*
X242334000Y-209163500D01*
X242332000Y-209165500D01*
X242330000Y-209167500D01*
X242328000Y-209168500D01*
X242326000Y-209170500D01*
X242324000Y-209171500D01*
X242322000Y-209173500D01*
X242319000Y-209174500D01*
X242317000Y-209175500D01*
X242314000Y-209176500D01*
X242312000Y-209176500D01*
X242309000Y-209177500D01*
X242307000Y-209177500D01*
X242304000Y-209178500D01*
X242302000Y-209178500D01*
X242299000Y-209178500D01*
X241799000Y-209178500D01*
X241796000Y-209178500D01*
X241794000Y-209178500D01*
X241791000Y-209177500D01*
X241789000Y-209177500D01*
X241786000Y-209176500D01*
X241784000Y-209176500D01*
X241781000Y-209175500D01*
X241779000Y-209174500D01*
X241776000Y-209173500D01*
X241774000Y-209171500D01*
X241772000Y-209170500D01*
X241770000Y-209168500D01*
X241768000Y-209167500D01*
X241766000Y-209165500D01*
X241764000Y-209163500D01*
X241762000Y-209161500D01*
X241760000Y-209159500D01*
X241759000Y-209157500D01*
X241757000Y-209155500D01*
X241756000Y-209153500D01*
X241754000Y-209151500D01*
X241753000Y-209148500D01*
X241752000Y-209146500D01*
X241751000Y-209143500D01*
X241751000Y-209141500D01*
X241750000Y-209138500D01*
X241750000Y-209136500D01*
X241749000Y-209133500D01*
X241749000Y-209131500D01*
X241749000Y-209128500D01*
X241749000Y-208928500D01*
X241749000Y-208925500D01*
X241749000Y-208923500D01*
X241750000Y-208920500D01*
X241750000Y-208918500D01*
X241751000Y-208915500D01*
X241751000Y-208913500D01*
X241752000Y-208910500D01*
X241753000Y-208908500D01*
X241754000Y-208905500D01*
X241756000Y-208903500D01*
X241757000Y-208901500D01*
X241759000Y-208899500D01*
X241760000Y-208897500D01*
X241762000Y-208895500D01*
X241764000Y-208893500D01*
X241766000Y-208891500D01*
X241768000Y-208889500D01*
X241770000Y-208888500D01*
X241772000Y-208886500D01*
X241774000Y-208885500D01*
X241776000Y-208883500D01*
X241779000Y-208882500D01*
X241781000Y-208881500D01*
X241784000Y-208880500D01*
X241786000Y-208880500D01*
X241789000Y-208879500D01*
X241791000Y-208879500D01*
X241794000Y-208878500D01*
X241796000Y-208878500D01*
X241799000Y-208878500D01*
X242299000Y-208878500D01*
X242302000Y-208878500D01*
X242304000Y-208878500D01*
X242307000Y-208879500D01*
G36*
X242307000Y-208879500D02*
G01*
X242309000Y-208879500D01*
X242312000Y-208880500D01*
X242314000Y-208880500D01*
X242317000Y-208881500D01*
X242319000Y-208882500D01*
X242322000Y-208883500D01*
X242324000Y-208885500D01*
X242326000Y-208886500D01*
X242328000Y-208888500D01*
X242330000Y-208889500D01*
X242332000Y-208891500D01*
X242334000Y-208893500D01*
X242336000Y-208895500D01*
X242338000Y-208897500D01*
X242339000Y-208899500D01*
X242341000Y-208901500D01*
X242342000Y-208903500D01*
X242344000Y-208905500D01*
X242345000Y-208908500D01*
X242346000Y-208910500D01*
X242347000Y-208913500D01*
X242347000Y-208915500D01*
X242348000Y-208918500D01*
X242348000Y-208920500D01*
X242349000Y-208923500D01*
X242349000Y-208925500D01*
X242349000Y-208928500D01*
X242349000Y-209128500D01*
X242349000Y-209131500D01*
X242349000Y-209133500D01*
X242348000Y-209136500D01*
X242348000Y-209138500D01*
X242347000Y-209141500D01*
X242347000Y-209143500D01*
X242346000Y-209146500D01*
X242345000Y-209148500D01*
X242344000Y-209151500D01*
X242342000Y-209153500D01*
X242341000Y-209155500D01*
X242339000Y-209157500D01*
X242338000Y-209159500D01*
X242336000Y-209161500D01*
X242334000Y-209163500D01*
X242332000Y-209165500D01*
X242330000Y-209167500D01*
X242328000Y-209168500D01*
X242326000Y-209170500D01*
X242324000Y-209171500D01*
X242322000Y-209173500D01*
X242319000Y-209174500D01*
X242317000Y-209175500D01*
X242314000Y-209176500D01*
X242312000Y-209176500D01*
X242309000Y-209177500D01*
X242307000Y-209177500D01*
X242304000Y-209178500D01*
X242302000Y-209178500D01*
X242299000Y-209178500D01*
X241799000Y-209178500D01*
X241796000Y-209178500D01*
X241794000Y-209178500D01*
X241791000Y-209177500D01*
X241789000Y-209177500D01*
X241786000Y-209176500D01*
X241784000Y-209176500D01*
X241781000Y-209175500D01*
X241779000Y-209174500D01*
X241776000Y-209173500D01*
X241774000Y-209171500D01*
X241772000Y-209170500D01*
X241770000Y-209168500D01*
X241768000Y-209167500D01*
X241766000Y-209165500D01*
X241764000Y-209163500D01*
X241762000Y-209161500D01*
X241760000Y-209159500D01*
X241759000Y-209157500D01*
X241757000Y-209155500D01*
X241756000Y-209153500D01*
X241754000Y-209151500D01*
X241753000Y-209148500D01*
X241752000Y-209146500D01*
X241751000Y-209143500D01*
X241751000Y-209141500D01*
X241750000Y-209138500D01*
X241750000Y-209136500D01*
X241749000Y-209133500D01*
X241749000Y-209131500D01*
X241749000Y-209128500D01*
X241749000Y-208928500D01*
X241749000Y-208925500D01*
X241749000Y-208923500D01*
X241750000Y-208920500D01*
X241750000Y-208918500D01*
X241751000Y-208915500D01*
X241751000Y-208913500D01*
X241752000Y-208910500D01*
X241753000Y-208908500D01*
X241754000Y-208905500D01*
X241756000Y-208903500D01*
X241757000Y-208901500D01*
X241759000Y-208899500D01*
X241760000Y-208897500D01*
X241762000Y-208895500D01*
X241764000Y-208893500D01*
X241766000Y-208891500D01*
X241768000Y-208889500D01*
X241770000Y-208888500D01*
X241772000Y-208886500D01*
X241774000Y-208885500D01*
X241776000Y-208883500D01*
X241779000Y-208882500D01*
X241781000Y-208881500D01*
X241784000Y-208880500D01*
X241786000Y-208880500D01*
X241789000Y-208879500D01*
X241791000Y-208879500D01*
X241794000Y-208878500D01*
X241796000Y-208878500D01*
X241799000Y-208878500D01*
X242299000Y-208878500D01*
X242302000Y-208878500D01*
X242304000Y-208878500D01*
X242307000Y-208879500D01*
G37*
X242307000Y-209529500D02*
X242309000Y-209529500D01*
X242312000Y-209530500D01*
X242314000Y-209530500D01*
X242317000Y-209531500D01*
X242319000Y-209532500D01*
X242322000Y-209533500D01*
X242324000Y-209535500D01*
X242326000Y-209536500D01*
X242328000Y-209538500D01*
X242330000Y-209539500D01*
X242332000Y-209541500D01*
X242334000Y-209543500D01*
X242336000Y-209545500D01*
X242338000Y-209547500D01*
X242339000Y-209549500D01*
X242341000Y-209551500D01*
X242342000Y-209553500D01*
X242344000Y-209555500D01*
X242345000Y-209558500D01*
X242346000Y-209560500D01*
X242347000Y-209563500D01*
X242347000Y-209565500D01*
X242348000Y-209568500D01*
X242348000Y-209570500D01*
X242349000Y-209573500D01*
X242349000Y-209575500D01*
X242349000Y-209578500D01*
X242349000Y-209778500D01*
X242349000Y-209781500D01*
X242349000Y-209783500D01*
X242348000Y-209786500D01*
X242348000Y-209788500D01*
X242347000Y-209791500D01*
X242347000Y-209793500D01*
X242346000Y-209796500D01*
X242345000Y-209798500D01*
X242344000Y-209801500D01*
X242342000Y-209803500D01*
X242341000Y-209805500D01*
X242339000Y-209807500D01*
X242338000Y-209809500D01*
X242336000Y-209811500D01*
X242334000Y-209813500D01*
X242332000Y-209815500D01*
X242330000Y-209817500D01*
X242328000Y-209818500D01*
X242326000Y-209820500D01*
X242324000Y-209821500D01*
X242322000Y-209823500D01*
X242319000Y-209824500D01*
X242317000Y-209825500D01*
X242314000Y-209826500D01*
X242312000Y-209826500D01*
X242309000Y-209827500D01*
X242307000Y-209827500D01*
X242304000Y-209828500D01*
X242302000Y-209828500D01*
X242299000Y-209828500D01*
X241799000Y-209828500D01*
X241796000Y-209828500D01*
X241794000Y-209828500D01*
X241791000Y-209827500D01*
X241789000Y-209827500D01*
X241786000Y-209826500D01*
X241784000Y-209826500D01*
X241781000Y-209825500D01*
X241779000Y-209824500D01*
X241776000Y-209823500D01*
X241774000Y-209821500D01*
X241772000Y-209820500D01*
X241770000Y-209818500D01*
X241768000Y-209817500D01*
X241766000Y-209815500D01*
X241764000Y-209813500D01*
X241762000Y-209811500D01*
X241760000Y-209809500D01*
X241759000Y-209807500D01*
X241757000Y-209805500D01*
X241756000Y-209803500D01*
X241754000Y-209801500D01*
X241753000Y-209798500D01*
X241752000Y-209796500D01*
X241751000Y-209793500D01*
X241751000Y-209791500D01*
X241750000Y-209788500D01*
X241750000Y-209786500D01*
X241749000Y-209783500D01*
X241749000Y-209781500D01*
X241749000Y-209778500D01*
X241749000Y-209578500D01*
X241749000Y-209575500D01*
X241749000Y-209573500D01*
X241750000Y-209570500D01*
X241750000Y-209568500D01*
X241751000Y-209565500D01*
X241751000Y-209563500D01*
X241752000Y-209560500D01*
X241753000Y-209558500D01*
X241754000Y-209555500D01*
X241756000Y-209553500D01*
X241757000Y-209551500D01*
X241759000Y-209549500D01*
X241760000Y-209547500D01*
X241762000Y-209545500D01*
X241764000Y-209543500D01*
X241766000Y-209541500D01*
X241768000Y-209539500D01*
X241770000Y-209538500D01*
X241772000Y-209536500D01*
X241774000Y-209535500D01*
X241776000Y-209533500D01*
X241779000Y-209532500D01*
X241781000Y-209531500D01*
X241784000Y-209530500D01*
X241786000Y-209530500D01*
X241789000Y-209529500D01*
X241791000Y-209529500D01*
X241794000Y-209528500D01*
X241796000Y-209528500D01*
X241799000Y-209528500D01*
X242299000Y-209528500D01*
X242302000Y-209528500D01*
X242304000Y-209528500D01*
X242307000Y-209529500D01*
G36*
X242307000Y-209529500D02*
G01*
X242309000Y-209529500D01*
X242312000Y-209530500D01*
X242314000Y-209530500D01*
X242317000Y-209531500D01*
X242319000Y-209532500D01*
X242322000Y-209533500D01*
X242324000Y-209535500D01*
X242326000Y-209536500D01*
X242328000Y-209538500D01*
X242330000Y-209539500D01*
X242332000Y-209541500D01*
X242334000Y-209543500D01*
X242336000Y-209545500D01*
X242338000Y-209547500D01*
X242339000Y-209549500D01*
X242341000Y-209551500D01*
X242342000Y-209553500D01*
X242344000Y-209555500D01*
X242345000Y-209558500D01*
X242346000Y-209560500D01*
X242347000Y-209563500D01*
X242347000Y-209565500D01*
X242348000Y-209568500D01*
X242348000Y-209570500D01*
X242349000Y-209573500D01*
X242349000Y-209575500D01*
X242349000Y-209578500D01*
X242349000Y-209778500D01*
X242349000Y-209781500D01*
X242349000Y-209783500D01*
X242348000Y-209786500D01*
X242348000Y-209788500D01*
X242347000Y-209791500D01*
X242347000Y-209793500D01*
X242346000Y-209796500D01*
X242345000Y-209798500D01*
X242344000Y-209801500D01*
X242342000Y-209803500D01*
X242341000Y-209805500D01*
X242339000Y-209807500D01*
X242338000Y-209809500D01*
X242336000Y-209811500D01*
X242334000Y-209813500D01*
X242332000Y-209815500D01*
X242330000Y-209817500D01*
X242328000Y-209818500D01*
X242326000Y-209820500D01*
X242324000Y-209821500D01*
X242322000Y-209823500D01*
X242319000Y-209824500D01*
X242317000Y-209825500D01*
X242314000Y-209826500D01*
X242312000Y-209826500D01*
X242309000Y-209827500D01*
X242307000Y-209827500D01*
X242304000Y-209828500D01*
X242302000Y-209828500D01*
X242299000Y-209828500D01*
X241799000Y-209828500D01*
X241796000Y-209828500D01*
X241794000Y-209828500D01*
X241791000Y-209827500D01*
X241789000Y-209827500D01*
X241786000Y-209826500D01*
X241784000Y-209826500D01*
X241781000Y-209825500D01*
X241779000Y-209824500D01*
X241776000Y-209823500D01*
X241774000Y-209821500D01*
X241772000Y-209820500D01*
X241770000Y-209818500D01*
X241768000Y-209817500D01*
X241766000Y-209815500D01*
X241764000Y-209813500D01*
X241762000Y-209811500D01*
X241760000Y-209809500D01*
X241759000Y-209807500D01*
X241757000Y-209805500D01*
X241756000Y-209803500D01*
X241754000Y-209801500D01*
X241753000Y-209798500D01*
X241752000Y-209796500D01*
X241751000Y-209793500D01*
X241751000Y-209791500D01*
X241750000Y-209788500D01*
X241750000Y-209786500D01*
X241749000Y-209783500D01*
X241749000Y-209781500D01*
X241749000Y-209778500D01*
X241749000Y-209578500D01*
X241749000Y-209575500D01*
X241749000Y-209573500D01*
X241750000Y-209570500D01*
X241750000Y-209568500D01*
X241751000Y-209565500D01*
X241751000Y-209563500D01*
X241752000Y-209560500D01*
X241753000Y-209558500D01*
X241754000Y-209555500D01*
X241756000Y-209553500D01*
X241757000Y-209551500D01*
X241759000Y-209549500D01*
X241760000Y-209547500D01*
X241762000Y-209545500D01*
X241764000Y-209543500D01*
X241766000Y-209541500D01*
X241768000Y-209539500D01*
X241770000Y-209538500D01*
X241772000Y-209536500D01*
X241774000Y-209535500D01*
X241776000Y-209533500D01*
X241779000Y-209532500D01*
X241781000Y-209531500D01*
X241784000Y-209530500D01*
X241786000Y-209530500D01*
X241789000Y-209529500D01*
X241791000Y-209529500D01*
X241794000Y-209528500D01*
X241796000Y-209528500D01*
X241799000Y-209528500D01*
X242299000Y-209528500D01*
X242302000Y-209528500D01*
X242304000Y-209528500D01*
X242307000Y-209529500D01*
G37*
X242307000Y-210179500D02*
X242309000Y-210179500D01*
X242312000Y-210180500D01*
X242314000Y-210180500D01*
X242317000Y-210181500D01*
X242319000Y-210182500D01*
X242322000Y-210183500D01*
X242324000Y-210185500D01*
X242326000Y-210186500D01*
X242328000Y-210188500D01*
X242330000Y-210189500D01*
X242332000Y-210191500D01*
X242334000Y-210193500D01*
X242336000Y-210195500D01*
X242338000Y-210197500D01*
X242339000Y-210199500D01*
X242341000Y-210201500D01*
X242342000Y-210203500D01*
X242344000Y-210205500D01*
X242345000Y-210208500D01*
X242346000Y-210210500D01*
X242347000Y-210213500D01*
X242347000Y-210215500D01*
X242348000Y-210218500D01*
X242348000Y-210220500D01*
X242349000Y-210223500D01*
X242349000Y-210225500D01*
X242349000Y-210228500D01*
X242349000Y-210428500D01*
X242349000Y-210431500D01*
X242349000Y-210433500D01*
X242348000Y-210436500D01*
X242348000Y-210438500D01*
X242347000Y-210441500D01*
X242347000Y-210443500D01*
X242346000Y-210446500D01*
X242345000Y-210448500D01*
X242344000Y-210451500D01*
X242342000Y-210453500D01*
X242341000Y-210455500D01*
X242339000Y-210457500D01*
X242338000Y-210459500D01*
X242336000Y-210461500D01*
X242334000Y-210463500D01*
X242332000Y-210465500D01*
X242330000Y-210467500D01*
X242328000Y-210468500D01*
X242326000Y-210470500D01*
X242324000Y-210471500D01*
X242322000Y-210473500D01*
X242319000Y-210474500D01*
X242317000Y-210475500D01*
X242314000Y-210476500D01*
X242312000Y-210476500D01*
X242309000Y-210477500D01*
X242307000Y-210477500D01*
X242304000Y-210478500D01*
X242302000Y-210478500D01*
X242299000Y-210478500D01*
X241799000Y-210478500D01*
X241796000Y-210478500D01*
X241794000Y-210478500D01*
X241791000Y-210477500D01*
X241789000Y-210477500D01*
X241786000Y-210476500D01*
X241784000Y-210476500D01*
X241781000Y-210475500D01*
X241779000Y-210474500D01*
X241776000Y-210473500D01*
X241774000Y-210471500D01*
X241772000Y-210470500D01*
X241770000Y-210468500D01*
X241768000Y-210467500D01*
X241766000Y-210465500D01*
X241764000Y-210463500D01*
X241762000Y-210461500D01*
X241760000Y-210459500D01*
X241759000Y-210457500D01*
X241757000Y-210455500D01*
X241756000Y-210453500D01*
X241754000Y-210451500D01*
X241753000Y-210448500D01*
X241752000Y-210446500D01*
X241751000Y-210443500D01*
X241751000Y-210441500D01*
X241750000Y-210438500D01*
X241750000Y-210436500D01*
X241749000Y-210433500D01*
X241749000Y-210431500D01*
X241749000Y-210428500D01*
X241749000Y-210228500D01*
X241749000Y-210225500D01*
X241749000Y-210223500D01*
X241750000Y-210220500D01*
X241750000Y-210218500D01*
X241751000Y-210215500D01*
X241751000Y-210213500D01*
X241752000Y-210210500D01*
X241753000Y-210208500D01*
X241754000Y-210205500D01*
X241756000Y-210203500D01*
X241757000Y-210201500D01*
X241759000Y-210199500D01*
X241760000Y-210197500D01*
X241762000Y-210195500D01*
X241764000Y-210193500D01*
X241766000Y-210191500D01*
X241768000Y-210189500D01*
X241770000Y-210188500D01*
X241772000Y-210186500D01*
X241774000Y-210185500D01*
X241776000Y-210183500D01*
X241779000Y-210182500D01*
X241781000Y-210181500D01*
X241784000Y-210180500D01*
X241786000Y-210180500D01*
X241789000Y-210179500D01*
X241791000Y-210179500D01*
X241794000Y-210178500D01*
X241796000Y-210178500D01*
X241799000Y-210178500D01*
X242299000Y-210178500D01*
X242302000Y-210178500D01*
X242304000Y-210178500D01*
X242307000Y-210179500D01*
G36*
X242307000Y-210179500D02*
G01*
X242309000Y-210179500D01*
X242312000Y-210180500D01*
X242314000Y-210180500D01*
X242317000Y-210181500D01*
X242319000Y-210182500D01*
X242322000Y-210183500D01*
X242324000Y-210185500D01*
X242326000Y-210186500D01*
X242328000Y-210188500D01*
X242330000Y-210189500D01*
X242332000Y-210191500D01*
X242334000Y-210193500D01*
X242336000Y-210195500D01*
X242338000Y-210197500D01*
X242339000Y-210199500D01*
X242341000Y-210201500D01*
X242342000Y-210203500D01*
X242344000Y-210205500D01*
X242345000Y-210208500D01*
X242346000Y-210210500D01*
X242347000Y-210213500D01*
X242347000Y-210215500D01*
X242348000Y-210218500D01*
X242348000Y-210220500D01*
X242349000Y-210223500D01*
X242349000Y-210225500D01*
X242349000Y-210228500D01*
X242349000Y-210428500D01*
X242349000Y-210431500D01*
X242349000Y-210433500D01*
X242348000Y-210436500D01*
X242348000Y-210438500D01*
X242347000Y-210441500D01*
X242347000Y-210443500D01*
X242346000Y-210446500D01*
X242345000Y-210448500D01*
X242344000Y-210451500D01*
X242342000Y-210453500D01*
X242341000Y-210455500D01*
X242339000Y-210457500D01*
X242338000Y-210459500D01*
X242336000Y-210461500D01*
X242334000Y-210463500D01*
X242332000Y-210465500D01*
X242330000Y-210467500D01*
X242328000Y-210468500D01*
X242326000Y-210470500D01*
X242324000Y-210471500D01*
X242322000Y-210473500D01*
X242319000Y-210474500D01*
X242317000Y-210475500D01*
X242314000Y-210476500D01*
X242312000Y-210476500D01*
X242309000Y-210477500D01*
X242307000Y-210477500D01*
X242304000Y-210478500D01*
X242302000Y-210478500D01*
X242299000Y-210478500D01*
X241799000Y-210478500D01*
X241796000Y-210478500D01*
X241794000Y-210478500D01*
X241791000Y-210477500D01*
X241789000Y-210477500D01*
X241786000Y-210476500D01*
X241784000Y-210476500D01*
X241781000Y-210475500D01*
X241779000Y-210474500D01*
X241776000Y-210473500D01*
X241774000Y-210471500D01*
X241772000Y-210470500D01*
X241770000Y-210468500D01*
X241768000Y-210467500D01*
X241766000Y-210465500D01*
X241764000Y-210463500D01*
X241762000Y-210461500D01*
X241760000Y-210459500D01*
X241759000Y-210457500D01*
X241757000Y-210455500D01*
X241756000Y-210453500D01*
X241754000Y-210451500D01*
X241753000Y-210448500D01*
X241752000Y-210446500D01*
X241751000Y-210443500D01*
X241751000Y-210441500D01*
X241750000Y-210438500D01*
X241750000Y-210436500D01*
X241749000Y-210433500D01*
X241749000Y-210431500D01*
X241749000Y-210428500D01*
X241749000Y-210228500D01*
X241749000Y-210225500D01*
X241749000Y-210223500D01*
X241750000Y-210220500D01*
X241750000Y-210218500D01*
X241751000Y-210215500D01*
X241751000Y-210213500D01*
X241752000Y-210210500D01*
X241753000Y-210208500D01*
X241754000Y-210205500D01*
X241756000Y-210203500D01*
X241757000Y-210201500D01*
X241759000Y-210199500D01*
X241760000Y-210197500D01*
X241762000Y-210195500D01*
X241764000Y-210193500D01*
X241766000Y-210191500D01*
X241768000Y-210189500D01*
X241770000Y-210188500D01*
X241772000Y-210186500D01*
X241774000Y-210185500D01*
X241776000Y-210183500D01*
X241779000Y-210182500D01*
X241781000Y-210181500D01*
X241784000Y-210180500D01*
X241786000Y-210180500D01*
X241789000Y-210179500D01*
X241791000Y-210179500D01*
X241794000Y-210178500D01*
X241796000Y-210178500D01*
X241799000Y-210178500D01*
X242299000Y-210178500D01*
X242302000Y-210178500D01*
X242304000Y-210178500D01*
X242307000Y-210179500D01*
G37*
X242307000Y-210829500D02*
X242309000Y-210829500D01*
X242312000Y-210830500D01*
X242314000Y-210830500D01*
X242317000Y-210831500D01*
X242319000Y-210832500D01*
X242322000Y-210833500D01*
X242324000Y-210835500D01*
X242326000Y-210836500D01*
X242328000Y-210838500D01*
X242330000Y-210839500D01*
X242332000Y-210841500D01*
X242334000Y-210843500D01*
X242336000Y-210845500D01*
X242338000Y-210847500D01*
X242339000Y-210849500D01*
X242341000Y-210851500D01*
X242342000Y-210853500D01*
X242344000Y-210855500D01*
X242345000Y-210858500D01*
X242346000Y-210860500D01*
X242347000Y-210863500D01*
X242347000Y-210865500D01*
X242348000Y-210868500D01*
X242348000Y-210870500D01*
X242349000Y-210873500D01*
X242349000Y-210875500D01*
X242349000Y-210878500D01*
X242349000Y-211078500D01*
X242349000Y-211081500D01*
X242349000Y-211083500D01*
X242348000Y-211086500D01*
X242348000Y-211088500D01*
X242347000Y-211091500D01*
X242347000Y-211093500D01*
X242346000Y-211096500D01*
X242345000Y-211098500D01*
X242344000Y-211101500D01*
X242342000Y-211103500D01*
X242341000Y-211105500D01*
X242339000Y-211107500D01*
X242338000Y-211109500D01*
X242336000Y-211111500D01*
X242334000Y-211113500D01*
X242332000Y-211115500D01*
X242330000Y-211117500D01*
X242328000Y-211118500D01*
X242326000Y-211120500D01*
X242324000Y-211121500D01*
X242322000Y-211123500D01*
X242319000Y-211124500D01*
X242317000Y-211125500D01*
X242314000Y-211126500D01*
X242312000Y-211126500D01*
X242309000Y-211127500D01*
X242307000Y-211127500D01*
X242304000Y-211128500D01*
X242302000Y-211128500D01*
X242299000Y-211128500D01*
X241799000Y-211128500D01*
X241796000Y-211128500D01*
X241794000Y-211128500D01*
X241791000Y-211127500D01*
X241789000Y-211127500D01*
X241786000Y-211126500D01*
X241784000Y-211126500D01*
X241781000Y-211125500D01*
X241779000Y-211124500D01*
X241776000Y-211123500D01*
X241774000Y-211121500D01*
X241772000Y-211120500D01*
X241770000Y-211118500D01*
X241768000Y-211117500D01*
X241766000Y-211115500D01*
X241764000Y-211113500D01*
X241762000Y-211111500D01*
X241760000Y-211109500D01*
X241759000Y-211107500D01*
X241757000Y-211105500D01*
X241756000Y-211103500D01*
X241754000Y-211101500D01*
X241753000Y-211098500D01*
X241752000Y-211096500D01*
X241751000Y-211093500D01*
X241751000Y-211091500D01*
X241750000Y-211088500D01*
X241750000Y-211086500D01*
X241749000Y-211083500D01*
X241749000Y-211081500D01*
X241749000Y-211078500D01*
X241749000Y-210878500D01*
X241749000Y-210875500D01*
X241749000Y-210873500D01*
X241750000Y-210870500D01*
X241750000Y-210868500D01*
X241751000Y-210865500D01*
X241751000Y-210863500D01*
X241752000Y-210860500D01*
X241753000Y-210858500D01*
X241754000Y-210855500D01*
X241756000Y-210853500D01*
X241757000Y-210851500D01*
X241759000Y-210849500D01*
X241760000Y-210847500D01*
X241762000Y-210845500D01*
X241764000Y-210843500D01*
X241766000Y-210841500D01*
X241768000Y-210839500D01*
X241770000Y-210838500D01*
X241772000Y-210836500D01*
X241774000Y-210835500D01*
X241776000Y-210833500D01*
X241779000Y-210832500D01*
X241781000Y-210831500D01*
X241784000Y-210830500D01*
X241786000Y-210830500D01*
X241789000Y-210829500D01*
X241791000Y-210829500D01*
X241794000Y-210828500D01*
X241796000Y-210828500D01*
X241799000Y-210828500D01*
X242299000Y-210828500D01*
X242302000Y-210828500D01*
X242304000Y-210828500D01*
X242307000Y-210829500D01*
G36*
X242307000Y-210829500D02*
G01*
X242309000Y-210829500D01*
X242312000Y-210830500D01*
X242314000Y-210830500D01*
X242317000Y-210831500D01*
X242319000Y-210832500D01*
X242322000Y-210833500D01*
X242324000Y-210835500D01*
X242326000Y-210836500D01*
X242328000Y-210838500D01*
X242330000Y-210839500D01*
X242332000Y-210841500D01*
X242334000Y-210843500D01*
X242336000Y-210845500D01*
X242338000Y-210847500D01*
X242339000Y-210849500D01*
X242341000Y-210851500D01*
X242342000Y-210853500D01*
X242344000Y-210855500D01*
X242345000Y-210858500D01*
X242346000Y-210860500D01*
X242347000Y-210863500D01*
X242347000Y-210865500D01*
X242348000Y-210868500D01*
X242348000Y-210870500D01*
X242349000Y-210873500D01*
X242349000Y-210875500D01*
X242349000Y-210878500D01*
X242349000Y-211078500D01*
X242349000Y-211081500D01*
X242349000Y-211083500D01*
X242348000Y-211086500D01*
X242348000Y-211088500D01*
X242347000Y-211091500D01*
X242347000Y-211093500D01*
X242346000Y-211096500D01*
X242345000Y-211098500D01*
X242344000Y-211101500D01*
X242342000Y-211103500D01*
X242341000Y-211105500D01*
X242339000Y-211107500D01*
X242338000Y-211109500D01*
X242336000Y-211111500D01*
X242334000Y-211113500D01*
X242332000Y-211115500D01*
X242330000Y-211117500D01*
X242328000Y-211118500D01*
X242326000Y-211120500D01*
X242324000Y-211121500D01*
X242322000Y-211123500D01*
X242319000Y-211124500D01*
X242317000Y-211125500D01*
X242314000Y-211126500D01*
X242312000Y-211126500D01*
X242309000Y-211127500D01*
X242307000Y-211127500D01*
X242304000Y-211128500D01*
X242302000Y-211128500D01*
X242299000Y-211128500D01*
X241799000Y-211128500D01*
X241796000Y-211128500D01*
X241794000Y-211128500D01*
X241791000Y-211127500D01*
X241789000Y-211127500D01*
X241786000Y-211126500D01*
X241784000Y-211126500D01*
X241781000Y-211125500D01*
X241779000Y-211124500D01*
X241776000Y-211123500D01*
X241774000Y-211121500D01*
X241772000Y-211120500D01*
X241770000Y-211118500D01*
X241768000Y-211117500D01*
X241766000Y-211115500D01*
X241764000Y-211113500D01*
X241762000Y-211111500D01*
X241760000Y-211109500D01*
X241759000Y-211107500D01*
X241757000Y-211105500D01*
X241756000Y-211103500D01*
X241754000Y-211101500D01*
X241753000Y-211098500D01*
X241752000Y-211096500D01*
X241751000Y-211093500D01*
X241751000Y-211091500D01*
X241750000Y-211088500D01*
X241750000Y-211086500D01*
X241749000Y-211083500D01*
X241749000Y-211081500D01*
X241749000Y-211078500D01*
X241749000Y-210878500D01*
X241749000Y-210875500D01*
X241749000Y-210873500D01*
X241750000Y-210870500D01*
X241750000Y-210868500D01*
X241751000Y-210865500D01*
X241751000Y-210863500D01*
X241752000Y-210860500D01*
X241753000Y-210858500D01*
X241754000Y-210855500D01*
X241756000Y-210853500D01*
X241757000Y-210851500D01*
X241759000Y-210849500D01*
X241760000Y-210847500D01*
X241762000Y-210845500D01*
X241764000Y-210843500D01*
X241766000Y-210841500D01*
X241768000Y-210839500D01*
X241770000Y-210838500D01*
X241772000Y-210836500D01*
X241774000Y-210835500D01*
X241776000Y-210833500D01*
X241779000Y-210832500D01*
X241781000Y-210831500D01*
X241784000Y-210830500D01*
X241786000Y-210830500D01*
X241789000Y-210829500D01*
X241791000Y-210829500D01*
X241794000Y-210828500D01*
X241796000Y-210828500D01*
X241799000Y-210828500D01*
X242299000Y-210828500D01*
X242302000Y-210828500D01*
X242304000Y-210828500D01*
X242307000Y-210829500D01*
G37*
X244772000Y-208779500D02*
X244774000Y-208779500D01*
X244777000Y-208780500D01*
X244779000Y-208780500D01*
X244782000Y-208781500D01*
X244784000Y-208782500D01*
X244787000Y-208783500D01*
X244789000Y-208785500D01*
X244791000Y-208786500D01*
X244793000Y-208788500D01*
X244795000Y-208789500D01*
X244797000Y-208791500D01*
X244799000Y-208793500D01*
X244801000Y-208795500D01*
X244803000Y-208797500D01*
X244804000Y-208799500D01*
X244806000Y-208801500D01*
X244807000Y-208803500D01*
X244809000Y-208805500D01*
X244810000Y-208808500D01*
X244811000Y-208810500D01*
X244812000Y-208813500D01*
X244812000Y-208815500D01*
X244813000Y-208818500D01*
X244813000Y-208820500D01*
X244814000Y-208823500D01*
X244814000Y-208825500D01*
X244814000Y-208828500D01*
X244814000Y-208878500D01*
X245399000Y-208878500D01*
X245402000Y-208878500D01*
X245404000Y-208878500D01*
X245407000Y-208879500D01*
X245409000Y-208879500D01*
X245412000Y-208880500D01*
X245414000Y-208880500D01*
X245417000Y-208881500D01*
X245419000Y-208882500D01*
X245422000Y-208883500D01*
X245424000Y-208885500D01*
X245426000Y-208886500D01*
X245428000Y-208888500D01*
X245430000Y-208889500D01*
X245432000Y-208891500D01*
X245434000Y-208893500D01*
X245436000Y-208895500D01*
X245438000Y-208897500D01*
X245439000Y-208899500D01*
X245441000Y-208901500D01*
X245442000Y-208903500D01*
X245444000Y-208905500D01*
X245445000Y-208908500D01*
X245446000Y-208910500D01*
X245447000Y-208913500D01*
X245447000Y-208915500D01*
X245448000Y-208918500D01*
X245448000Y-208920500D01*
X245449000Y-208923500D01*
X245449000Y-208925500D01*
X245449000Y-208928500D01*
X245449000Y-209128500D01*
X245449000Y-209131500D01*
X245449000Y-209133500D01*
X245448000Y-209136500D01*
X245448000Y-209138500D01*
X245447000Y-209141500D01*
X245447000Y-209143500D01*
X245446000Y-209146500D01*
X245445000Y-209148500D01*
X245444000Y-209151500D01*
X245442000Y-209153500D01*
X245441000Y-209155500D01*
X245439000Y-209157500D01*
X245438000Y-209159500D01*
X245436000Y-209161500D01*
X245434000Y-209163500D01*
X245432000Y-209165500D01*
X245430000Y-209167500D01*
X245428000Y-209168500D01*
X245426000Y-209170500D01*
X245424000Y-209171500D01*
X245422000Y-209173500D01*
X245419000Y-209174500D01*
X245417000Y-209175500D01*
X245414000Y-209176500D01*
X245412000Y-209176500D01*
X245409000Y-209177500D01*
X245407000Y-209177500D01*
X245404000Y-209178500D01*
X245402000Y-209178500D01*
X245399000Y-209178500D01*
X244814000Y-209178500D01*
X244814000Y-209528500D01*
X245399000Y-209528500D01*
X245402000Y-209528500D01*
X245404000Y-209528500D01*
X245407000Y-209529500D01*
X245409000Y-209529500D01*
X245412000Y-209530500D01*
X245414000Y-209530500D01*
X245417000Y-209531500D01*
X245419000Y-209532500D01*
X245422000Y-209533500D01*
X245424000Y-209535500D01*
X245426000Y-209536500D01*
X245428000Y-209538500D01*
X245430000Y-209539500D01*
X245432000Y-209541500D01*
X245434000Y-209543500D01*
X245436000Y-209545500D01*
X245438000Y-209547500D01*
X245439000Y-209549500D01*
X245441000Y-209551500D01*
X245442000Y-209553500D01*
X245444000Y-209555500D01*
X245445000Y-209558500D01*
X245446000Y-209560500D01*
X245447000Y-209563500D01*
X245447000Y-209565500D01*
X245448000Y-209568500D01*
X245448000Y-209570500D01*
X245449000Y-209573500D01*
X245449000Y-209575500D01*
X245449000Y-209578500D01*
X245449000Y-209778500D01*
X245449000Y-209781500D01*
X245449000Y-209783500D01*
X245448000Y-209786500D01*
X245448000Y-209788500D01*
X245447000Y-209791500D01*
X245447000Y-209793500D01*
X245446000Y-209796500D01*
X245445000Y-209798500D01*
X245444000Y-209801500D01*
X245442000Y-209803500D01*
X245441000Y-209805500D01*
X245439000Y-209807500D01*
X245438000Y-209809500D01*
X245436000Y-209811500D01*
X245434000Y-209813500D01*
X245432000Y-209815500D01*
X245430000Y-209817500D01*
X245428000Y-209818500D01*
X245426000Y-209820500D01*
X245424000Y-209821500D01*
X245422000Y-209823500D01*
X245419000Y-209824500D01*
X245417000Y-209825500D01*
X245414000Y-209826500D01*
X245412000Y-209826500D01*
X245409000Y-209827500D01*
X245407000Y-209827500D01*
X245404000Y-209828500D01*
X245402000Y-209828500D01*
X245399000Y-209828500D01*
X244814000Y-209828500D01*
X244814000Y-210178500D01*
X245399000Y-210178500D01*
X245402000Y-210178500D01*
X245404000Y-210178500D01*
X245407000Y-210179500D01*
X245409000Y-210179500D01*
X245412000Y-210180500D01*
X245414000Y-210180500D01*
X245417000Y-210181500D01*
X245419000Y-210182500D01*
X245422000Y-210183500D01*
X245424000Y-210185500D01*
X245426000Y-210186500D01*
X245428000Y-210188500D01*
X245430000Y-210189500D01*
X245432000Y-210191500D01*
X245434000Y-210193500D01*
X245436000Y-210195500D01*
X245438000Y-210197500D01*
X245439000Y-210199500D01*
X245441000Y-210201500D01*
X245442000Y-210203500D01*
X245444000Y-210205500D01*
X245445000Y-210208500D01*
X245446000Y-210210500D01*
X245447000Y-210213500D01*
X245447000Y-210215500D01*
X245448000Y-210218500D01*
X245448000Y-210220500D01*
X245449000Y-210223500D01*
X245449000Y-210225500D01*
X245449000Y-210228500D01*
X245449000Y-210428500D01*
X245449000Y-210431500D01*
X245449000Y-210433500D01*
X245448000Y-210436500D01*
X245448000Y-210438500D01*
X245447000Y-210441500D01*
X245447000Y-210443500D01*
X245446000Y-210446500D01*
X245445000Y-210448500D01*
X245444000Y-210451500D01*
X245442000Y-210453500D01*
X245441000Y-210455500D01*
X245439000Y-210457500D01*
X245438000Y-210459500D01*
X245436000Y-210461500D01*
X245434000Y-210463500D01*
X245432000Y-210465500D01*
X245430000Y-210467500D01*
X245428000Y-210468500D01*
X245426000Y-210470500D01*
X245424000Y-210471500D01*
X245422000Y-210473500D01*
X245419000Y-210474500D01*
X245417000Y-210475500D01*
X245414000Y-210476500D01*
X245412000Y-210476500D01*
X245409000Y-210477500D01*
X245407000Y-210477500D01*
X245404000Y-210478500D01*
X245402000Y-210478500D01*
X245399000Y-210478500D01*
X244814000Y-210478500D01*
X244814000Y-210828500D01*
X245399000Y-210828500D01*
X245402000Y-210828500D01*
X245404000Y-210828500D01*
X245407000Y-210829500D01*
X245409000Y-210829500D01*
X245412000Y-210830500D01*
X245414000Y-210830500D01*
X245417000Y-210831500D01*
X245419000Y-210832500D01*
X245422000Y-210833500D01*
X245424000Y-210835500D01*
X245426000Y-210836500D01*
X245428000Y-210838500D01*
X245430000Y-210839500D01*
X245432000Y-210841500D01*
X245434000Y-210843500D01*
X245436000Y-210845500D01*
X245438000Y-210847500D01*
X245439000Y-210849500D01*
X245441000Y-210851500D01*
X245442000Y-210853500D01*
X245444000Y-210855500D01*
X245445000Y-210858500D01*
X245446000Y-210860500D01*
X245447000Y-210863500D01*
X245447000Y-210865500D01*
X245448000Y-210868500D01*
X245448000Y-210870500D01*
X245449000Y-210873500D01*
X245449000Y-210875500D01*
X245449000Y-210878500D01*
X245449000Y-211078500D01*
X245449000Y-211081500D01*
X245449000Y-211083500D01*
X245448000Y-211086500D01*
X245448000Y-211088500D01*
X245447000Y-211091500D01*
X245447000Y-211093500D01*
X245446000Y-211096500D01*
X245445000Y-211098500D01*
X245444000Y-211101500D01*
X245442000Y-211103500D01*
X245441000Y-211105500D01*
X245439000Y-211107500D01*
X245438000Y-211109500D01*
X245436000Y-211111500D01*
X245434000Y-211113500D01*
X245432000Y-211115500D01*
X245430000Y-211117500D01*
X245428000Y-211118500D01*
X245426000Y-211120500D01*
X245424000Y-211121500D01*
X245422000Y-211123500D01*
X245419000Y-211124500D01*
X245417000Y-211125500D01*
X245414000Y-211126500D01*
X245412000Y-211126500D01*
X245409000Y-211127500D01*
X245407000Y-211127500D01*
X245404000Y-211128500D01*
X245402000Y-211128500D01*
X245399000Y-211128500D01*
X244814000Y-211128500D01*
X244814000Y-211178500D01*
X244814000Y-211181500D01*
X244814000Y-211183500D01*
X244813000Y-211186500D01*
X244813000Y-211188500D01*
X244812000Y-211191500D01*
X244812000Y-211193500D01*
X244811000Y-211196500D01*
X244810000Y-211198500D01*
X244809000Y-211201500D01*
X244807000Y-211203500D01*
X244806000Y-211205500D01*
X244804000Y-211207500D01*
X244803000Y-211209500D01*
X244801000Y-211211500D01*
X244799000Y-211213500D01*
X244797000Y-211215500D01*
X244795000Y-211217500D01*
X244793000Y-211218500D01*
X244791000Y-211220500D01*
X244789000Y-211221500D01*
X244787000Y-211223500D01*
X244784000Y-211224500D01*
X244782000Y-211225500D01*
X244779000Y-211226500D01*
X244777000Y-211226500D01*
X244774000Y-211227500D01*
X244772000Y-211227500D01*
X244769000Y-211228500D01*
X244767000Y-211228500D01*
X244764000Y-211228500D01*
X243089000Y-211228500D01*
X243086000Y-211228500D01*
X243084000Y-211228500D01*
X243081000Y-211227500D01*
X243079000Y-211227500D01*
X243076000Y-211226500D01*
X243074000Y-211226500D01*
X243071000Y-211225500D01*
X243069000Y-211224500D01*
X243066000Y-211223500D01*
X243064000Y-211221500D01*
X243062000Y-211220500D01*
X243060000Y-211218500D01*
X243058000Y-211217500D01*
X243056000Y-211215500D01*
X243054000Y-211213500D01*
X243052000Y-211211500D01*
X243050000Y-211209500D01*
X243049000Y-211207500D01*
X243047000Y-211205500D01*
X243046000Y-211203500D01*
X243044000Y-211201500D01*
X243043000Y-211198500D01*
X243042000Y-211196500D01*
X243041000Y-211193500D01*
X243041000Y-211191500D01*
X243040000Y-211188500D01*
X243040000Y-211186500D01*
X243039000Y-211183500D01*
X243039000Y-211181500D01*
X243039000Y-211178500D01*
X243039000Y-208828500D01*
X243039000Y-208825500D01*
X243039000Y-208823500D01*
X243040000Y-208820500D01*
X243040000Y-208818500D01*
X243041000Y-208815500D01*
X243041000Y-208813500D01*
X243042000Y-208810500D01*
X243043000Y-208808500D01*
X243044000Y-208805500D01*
X243046000Y-208803500D01*
X243047000Y-208801500D01*
X243049000Y-208799500D01*
X243050000Y-208797500D01*
X243052000Y-208795500D01*
X243054000Y-208793500D01*
X243056000Y-208791500D01*
X243058000Y-208789500D01*
X243060000Y-208788500D01*
X243062000Y-208786500D01*
X243064000Y-208785500D01*
X243066000Y-208783500D01*
X243069000Y-208782500D01*
X243071000Y-208781500D01*
X243074000Y-208780500D01*
X243076000Y-208780500D01*
X243079000Y-208779500D01*
X243081000Y-208779500D01*
X243084000Y-208778500D01*
X243086000Y-208778500D01*
X243089000Y-208778500D01*
X244764000Y-208778500D01*
X244767000Y-208778500D01*
X244769000Y-208778500D01*
X244772000Y-208779500D01*
G36*
X244772000Y-208779500D02*
G01*
X244774000Y-208779500D01*
X244777000Y-208780500D01*
X244779000Y-208780500D01*
X244782000Y-208781500D01*
X244784000Y-208782500D01*
X244787000Y-208783500D01*
X244789000Y-208785500D01*
X244791000Y-208786500D01*
X244793000Y-208788500D01*
X244795000Y-208789500D01*
X244797000Y-208791500D01*
X244799000Y-208793500D01*
X244801000Y-208795500D01*
X244803000Y-208797500D01*
X244804000Y-208799500D01*
X244806000Y-208801500D01*
X244807000Y-208803500D01*
X244809000Y-208805500D01*
X244810000Y-208808500D01*
X244811000Y-208810500D01*
X244812000Y-208813500D01*
X244812000Y-208815500D01*
X244813000Y-208818500D01*
X244813000Y-208820500D01*
X244814000Y-208823500D01*
X244814000Y-208825500D01*
X244814000Y-208828500D01*
X244814000Y-208878500D01*
X245399000Y-208878500D01*
X245402000Y-208878500D01*
X245404000Y-208878500D01*
X245407000Y-208879500D01*
X245409000Y-208879500D01*
X245412000Y-208880500D01*
X245414000Y-208880500D01*
X245417000Y-208881500D01*
X245419000Y-208882500D01*
X245422000Y-208883500D01*
X245424000Y-208885500D01*
X245426000Y-208886500D01*
X245428000Y-208888500D01*
X245430000Y-208889500D01*
X245432000Y-208891500D01*
X245434000Y-208893500D01*
X245436000Y-208895500D01*
X245438000Y-208897500D01*
X245439000Y-208899500D01*
X245441000Y-208901500D01*
X245442000Y-208903500D01*
X245444000Y-208905500D01*
X245445000Y-208908500D01*
X245446000Y-208910500D01*
X245447000Y-208913500D01*
X245447000Y-208915500D01*
X245448000Y-208918500D01*
X245448000Y-208920500D01*
X245449000Y-208923500D01*
X245449000Y-208925500D01*
X245449000Y-208928500D01*
X245449000Y-209128500D01*
X245449000Y-209131500D01*
X245449000Y-209133500D01*
X245448000Y-209136500D01*
X245448000Y-209138500D01*
X245447000Y-209141500D01*
X245447000Y-209143500D01*
X245446000Y-209146500D01*
X245445000Y-209148500D01*
X245444000Y-209151500D01*
X245442000Y-209153500D01*
X245441000Y-209155500D01*
X245439000Y-209157500D01*
X245438000Y-209159500D01*
X245436000Y-209161500D01*
X245434000Y-209163500D01*
X245432000Y-209165500D01*
X245430000Y-209167500D01*
X245428000Y-209168500D01*
X245426000Y-209170500D01*
X245424000Y-209171500D01*
X245422000Y-209173500D01*
X245419000Y-209174500D01*
X245417000Y-209175500D01*
X245414000Y-209176500D01*
X245412000Y-209176500D01*
X245409000Y-209177500D01*
X245407000Y-209177500D01*
X245404000Y-209178500D01*
X245402000Y-209178500D01*
X245399000Y-209178500D01*
X244814000Y-209178500D01*
X244814000Y-209528500D01*
X245399000Y-209528500D01*
X245402000Y-209528500D01*
X245404000Y-209528500D01*
X245407000Y-209529500D01*
X245409000Y-209529500D01*
X245412000Y-209530500D01*
X245414000Y-209530500D01*
X245417000Y-209531500D01*
X245419000Y-209532500D01*
X245422000Y-209533500D01*
X245424000Y-209535500D01*
X245426000Y-209536500D01*
X245428000Y-209538500D01*
X245430000Y-209539500D01*
X245432000Y-209541500D01*
X245434000Y-209543500D01*
X245436000Y-209545500D01*
X245438000Y-209547500D01*
X245439000Y-209549500D01*
X245441000Y-209551500D01*
X245442000Y-209553500D01*
X245444000Y-209555500D01*
X245445000Y-209558500D01*
X245446000Y-209560500D01*
X245447000Y-209563500D01*
X245447000Y-209565500D01*
X245448000Y-209568500D01*
X245448000Y-209570500D01*
X245449000Y-209573500D01*
X245449000Y-209575500D01*
X245449000Y-209578500D01*
X245449000Y-209778500D01*
X245449000Y-209781500D01*
X245449000Y-209783500D01*
X245448000Y-209786500D01*
X245448000Y-209788500D01*
X245447000Y-209791500D01*
X245447000Y-209793500D01*
X245446000Y-209796500D01*
X245445000Y-209798500D01*
X245444000Y-209801500D01*
X245442000Y-209803500D01*
X245441000Y-209805500D01*
X245439000Y-209807500D01*
X245438000Y-209809500D01*
X245436000Y-209811500D01*
X245434000Y-209813500D01*
X245432000Y-209815500D01*
X245430000Y-209817500D01*
X245428000Y-209818500D01*
X245426000Y-209820500D01*
X245424000Y-209821500D01*
X245422000Y-209823500D01*
X245419000Y-209824500D01*
X245417000Y-209825500D01*
X245414000Y-209826500D01*
X245412000Y-209826500D01*
X245409000Y-209827500D01*
X245407000Y-209827500D01*
X245404000Y-209828500D01*
X245402000Y-209828500D01*
X245399000Y-209828500D01*
X244814000Y-209828500D01*
X244814000Y-210178500D01*
X245399000Y-210178500D01*
X245402000Y-210178500D01*
X245404000Y-210178500D01*
X245407000Y-210179500D01*
X245409000Y-210179500D01*
X245412000Y-210180500D01*
X245414000Y-210180500D01*
X245417000Y-210181500D01*
X245419000Y-210182500D01*
X245422000Y-210183500D01*
X245424000Y-210185500D01*
X245426000Y-210186500D01*
X245428000Y-210188500D01*
X245430000Y-210189500D01*
X245432000Y-210191500D01*
X245434000Y-210193500D01*
X245436000Y-210195500D01*
X245438000Y-210197500D01*
X245439000Y-210199500D01*
X245441000Y-210201500D01*
X245442000Y-210203500D01*
X245444000Y-210205500D01*
X245445000Y-210208500D01*
X245446000Y-210210500D01*
X245447000Y-210213500D01*
X245447000Y-210215500D01*
X245448000Y-210218500D01*
X245448000Y-210220500D01*
X245449000Y-210223500D01*
X245449000Y-210225500D01*
X245449000Y-210228500D01*
X245449000Y-210428500D01*
X245449000Y-210431500D01*
X245449000Y-210433500D01*
X245448000Y-210436500D01*
X245448000Y-210438500D01*
X245447000Y-210441500D01*
X245447000Y-210443500D01*
X245446000Y-210446500D01*
X245445000Y-210448500D01*
X245444000Y-210451500D01*
X245442000Y-210453500D01*
X245441000Y-210455500D01*
X245439000Y-210457500D01*
X245438000Y-210459500D01*
X245436000Y-210461500D01*
X245434000Y-210463500D01*
X245432000Y-210465500D01*
X245430000Y-210467500D01*
X245428000Y-210468500D01*
X245426000Y-210470500D01*
X245424000Y-210471500D01*
X245422000Y-210473500D01*
X245419000Y-210474500D01*
X245417000Y-210475500D01*
X245414000Y-210476500D01*
X245412000Y-210476500D01*
X245409000Y-210477500D01*
X245407000Y-210477500D01*
X245404000Y-210478500D01*
X245402000Y-210478500D01*
X245399000Y-210478500D01*
X244814000Y-210478500D01*
X244814000Y-210828500D01*
X245399000Y-210828500D01*
X245402000Y-210828500D01*
X245404000Y-210828500D01*
X245407000Y-210829500D01*
X245409000Y-210829500D01*
X245412000Y-210830500D01*
X245414000Y-210830500D01*
X245417000Y-210831500D01*
X245419000Y-210832500D01*
X245422000Y-210833500D01*
X245424000Y-210835500D01*
X245426000Y-210836500D01*
X245428000Y-210838500D01*
X245430000Y-210839500D01*
X245432000Y-210841500D01*
X245434000Y-210843500D01*
X245436000Y-210845500D01*
X245438000Y-210847500D01*
X245439000Y-210849500D01*
X245441000Y-210851500D01*
X245442000Y-210853500D01*
X245444000Y-210855500D01*
X245445000Y-210858500D01*
X245446000Y-210860500D01*
X245447000Y-210863500D01*
X245447000Y-210865500D01*
X245448000Y-210868500D01*
X245448000Y-210870500D01*
X245449000Y-210873500D01*
X245449000Y-210875500D01*
X245449000Y-210878500D01*
X245449000Y-211078500D01*
X245449000Y-211081500D01*
X245449000Y-211083500D01*
X245448000Y-211086500D01*
X245448000Y-211088500D01*
X245447000Y-211091500D01*
X245447000Y-211093500D01*
X245446000Y-211096500D01*
X245445000Y-211098500D01*
X245444000Y-211101500D01*
X245442000Y-211103500D01*
X245441000Y-211105500D01*
X245439000Y-211107500D01*
X245438000Y-211109500D01*
X245436000Y-211111500D01*
X245434000Y-211113500D01*
X245432000Y-211115500D01*
X245430000Y-211117500D01*
X245428000Y-211118500D01*
X245426000Y-211120500D01*
X245424000Y-211121500D01*
X245422000Y-211123500D01*
X245419000Y-211124500D01*
X245417000Y-211125500D01*
X245414000Y-211126500D01*
X245412000Y-211126500D01*
X245409000Y-211127500D01*
X245407000Y-211127500D01*
X245404000Y-211128500D01*
X245402000Y-211128500D01*
X245399000Y-211128500D01*
X244814000Y-211128500D01*
X244814000Y-211178500D01*
X244814000Y-211181500D01*
X244814000Y-211183500D01*
X244813000Y-211186500D01*
X244813000Y-211188500D01*
X244812000Y-211191500D01*
X244812000Y-211193500D01*
X244811000Y-211196500D01*
X244810000Y-211198500D01*
X244809000Y-211201500D01*
X244807000Y-211203500D01*
X244806000Y-211205500D01*
X244804000Y-211207500D01*
X244803000Y-211209500D01*
X244801000Y-211211500D01*
X244799000Y-211213500D01*
X244797000Y-211215500D01*
X244795000Y-211217500D01*
X244793000Y-211218500D01*
X244791000Y-211220500D01*
X244789000Y-211221500D01*
X244787000Y-211223500D01*
X244784000Y-211224500D01*
X244782000Y-211225500D01*
X244779000Y-211226500D01*
X244777000Y-211226500D01*
X244774000Y-211227500D01*
X244772000Y-211227500D01*
X244769000Y-211228500D01*
X244767000Y-211228500D01*
X244764000Y-211228500D01*
X243089000Y-211228500D01*
X243086000Y-211228500D01*
X243084000Y-211228500D01*
X243081000Y-211227500D01*
X243079000Y-211227500D01*
X243076000Y-211226500D01*
X243074000Y-211226500D01*
X243071000Y-211225500D01*
X243069000Y-211224500D01*
X243066000Y-211223500D01*
X243064000Y-211221500D01*
X243062000Y-211220500D01*
X243060000Y-211218500D01*
X243058000Y-211217500D01*
X243056000Y-211215500D01*
X243054000Y-211213500D01*
X243052000Y-211211500D01*
X243050000Y-211209500D01*
X243049000Y-211207500D01*
X243047000Y-211205500D01*
X243046000Y-211203500D01*
X243044000Y-211201500D01*
X243043000Y-211198500D01*
X243042000Y-211196500D01*
X243041000Y-211193500D01*
X243041000Y-211191500D01*
X243040000Y-211188500D01*
X243040000Y-211186500D01*
X243039000Y-211183500D01*
X243039000Y-211181500D01*
X243039000Y-211178500D01*
X243039000Y-208828500D01*
X243039000Y-208825500D01*
X243039000Y-208823500D01*
X243040000Y-208820500D01*
X243040000Y-208818500D01*
X243041000Y-208815500D01*
X243041000Y-208813500D01*
X243042000Y-208810500D01*
X243043000Y-208808500D01*
X243044000Y-208805500D01*
X243046000Y-208803500D01*
X243047000Y-208801500D01*
X243049000Y-208799500D01*
X243050000Y-208797500D01*
X243052000Y-208795500D01*
X243054000Y-208793500D01*
X243056000Y-208791500D01*
X243058000Y-208789500D01*
X243060000Y-208788500D01*
X243062000Y-208786500D01*
X243064000Y-208785500D01*
X243066000Y-208783500D01*
X243069000Y-208782500D01*
X243071000Y-208781500D01*
X243074000Y-208780500D01*
X243076000Y-208780500D01*
X243079000Y-208779500D01*
X243081000Y-208779500D01*
X243084000Y-208778500D01*
X243086000Y-208778500D01*
X243089000Y-208778500D01*
X244764000Y-208778500D01*
X244767000Y-208778500D01*
X244769000Y-208778500D01*
X244772000Y-208779500D01*
G37*
D13*
%TO.C,U4*%
G36*
X233939051Y-199391052D02*
G01*
X233588948Y-199391052D01*
X233588948Y-198470949D01*
X233939051Y-198470949D01*
X233939051Y-199391052D01*
G37*
G36*
X233939051Y-202341051D02*
G01*
X233588948Y-202341051D01*
X233588948Y-201420948D01*
X233939051Y-201420948D01*
X233939051Y-202341051D01*
G37*
G36*
X234439053Y-199391052D02*
G01*
X234088949Y-199391052D01*
X234088949Y-198470949D01*
X234439053Y-198470949D01*
X234439053Y-199391052D01*
G37*
G36*
X234439053Y-202341051D02*
G01*
X234088949Y-202341051D01*
X234088949Y-201420948D01*
X234439053Y-201420948D01*
X234439053Y-202341051D01*
G37*
G36*
X234939052Y-199391052D02*
G01*
X234588948Y-199391052D01*
X234588948Y-198470949D01*
X234939052Y-198470949D01*
X234939052Y-199391052D01*
G37*
G36*
X234939052Y-202341051D02*
G01*
X234588948Y-202341051D01*
X234588948Y-201420948D01*
X234939052Y-201420948D01*
X234939052Y-202341051D01*
G37*
G36*
X235439051Y-199391052D02*
G01*
X235088947Y-199391052D01*
X235088947Y-198470949D01*
X235439051Y-198470949D01*
X235439051Y-199391052D01*
G37*
G36*
X235439051Y-202341051D02*
G01*
X235088947Y-202341051D01*
X235088947Y-201420948D01*
X235439051Y-201420948D01*
X235439051Y-202341051D01*
G37*
G36*
X235939052Y-199391052D02*
G01*
X235588949Y-199391052D01*
X235588949Y-198470949D01*
X235939052Y-198470949D01*
X235939052Y-199391052D01*
G37*
G36*
X235939052Y-202341051D02*
G01*
X235588949Y-202341051D01*
X235588949Y-201420948D01*
X235939052Y-201420948D01*
X235939052Y-202341051D01*
G37*
D10*
%TO.C,Q1*%
X189890000Y-61715000D02*
X189390000Y-61715000D01*
X189390000Y-60615000D01*
X189890000Y-60615000D01*
X189890000Y-61715000D01*
G36*
X189890000Y-61715000D02*
G01*
X189390000Y-61715000D01*
X189390000Y-60615000D01*
X189890000Y-60615000D01*
X189890000Y-61715000D01*
G37*
X191160000Y-61115000D02*
X191930000Y-61115000D01*
X191930000Y-60615000D01*
X192430000Y-60615000D01*
X192430000Y-61115000D01*
X193200000Y-61115000D01*
X193200000Y-60615000D01*
X193700000Y-60615000D01*
X193700000Y-61115000D01*
X193860000Y-61115000D01*
X193860000Y-61715000D01*
X190660000Y-61715000D01*
X190660000Y-60615000D01*
X191160000Y-60615000D01*
X191160000Y-61115000D01*
G36*
X191160000Y-61115000D02*
G01*
X191930000Y-61115000D01*
X191930000Y-60615000D01*
X192430000Y-60615000D01*
X192430000Y-61115000D01*
X193200000Y-61115000D01*
X193200000Y-60615000D01*
X193700000Y-60615000D01*
X193700000Y-61115000D01*
X193860000Y-61115000D01*
X193860000Y-61715000D01*
X190660000Y-61715000D01*
X190660000Y-60615000D01*
X191160000Y-60615000D01*
X191160000Y-61115000D01*
G37*
X193750000Y-67265000D02*
X193150000Y-67265000D01*
X193150000Y-66465000D01*
X192480000Y-66465000D01*
X192480000Y-67265000D01*
X191880000Y-67265000D01*
X191880000Y-66465000D01*
X191210000Y-66465000D01*
X191210000Y-67265000D01*
X190610000Y-67265000D01*
X190610000Y-66465000D01*
X189940000Y-66465000D01*
X189940000Y-67265000D01*
X189340000Y-67265000D01*
X189340000Y-62715000D01*
X193750000Y-62715000D01*
X193750000Y-67265000D01*
G36*
X193750000Y-67265000D02*
G01*
X193150000Y-67265000D01*
X193150000Y-66465000D01*
X192480000Y-66465000D01*
X192480000Y-67265000D01*
X191880000Y-67265000D01*
X191880000Y-66465000D01*
X191210000Y-66465000D01*
X191210000Y-67265000D01*
X190610000Y-67265000D01*
X190610000Y-66465000D01*
X189940000Y-66465000D01*
X189940000Y-67265000D01*
X189340000Y-67265000D01*
X189340000Y-62715000D01*
X193750000Y-62715000D01*
X193750000Y-67265000D01*
G37*
D13*
%TO.C,U2*%
G36*
X238394900Y-79340200D02*
G01*
X236083500Y-79340200D01*
X236083500Y-76139800D01*
X238394900Y-76139800D01*
X238394900Y-79340200D01*
G37*
D10*
%TO.C,Q2*%
X201945000Y-61665000D02*
X201445000Y-61665000D01*
X201445000Y-60565000D01*
X201945000Y-60565000D01*
X201945000Y-61665000D01*
G36*
X201945000Y-61665000D02*
G01*
X201445000Y-61665000D01*
X201445000Y-60565000D01*
X201945000Y-60565000D01*
X201945000Y-61665000D01*
G37*
X203215000Y-61065000D02*
X203985000Y-61065000D01*
X203985000Y-60565000D01*
X204485000Y-60565000D01*
X204485000Y-61065000D01*
X205255000Y-61065000D01*
X205255000Y-60565000D01*
X205755000Y-60565000D01*
X205755000Y-61065000D01*
X205915000Y-61065000D01*
X205915000Y-61665000D01*
X202715000Y-61665000D01*
X202715000Y-60565000D01*
X203215000Y-60565000D01*
X203215000Y-61065000D01*
G36*
X203215000Y-61065000D02*
G01*
X203985000Y-61065000D01*
X203985000Y-60565000D01*
X204485000Y-60565000D01*
X204485000Y-61065000D01*
X205255000Y-61065000D01*
X205255000Y-60565000D01*
X205755000Y-60565000D01*
X205755000Y-61065000D01*
X205915000Y-61065000D01*
X205915000Y-61665000D01*
X202715000Y-61665000D01*
X202715000Y-60565000D01*
X203215000Y-60565000D01*
X203215000Y-61065000D01*
G37*
X205805000Y-67215000D02*
X205205000Y-67215000D01*
X205205000Y-66415000D01*
X204535000Y-66415000D01*
X204535000Y-67215000D01*
X203935000Y-67215000D01*
X203935000Y-66415000D01*
X203265000Y-66415000D01*
X203265000Y-67215000D01*
X202665000Y-67215000D01*
X202665000Y-66415000D01*
X201995000Y-66415000D01*
X201995000Y-67215000D01*
X201395000Y-67215000D01*
X201395000Y-62665000D01*
X205805000Y-62665000D01*
X205805000Y-67215000D01*
G36*
X205805000Y-67215000D02*
G01*
X205205000Y-67215000D01*
X205205000Y-66415000D01*
X204535000Y-66415000D01*
X204535000Y-67215000D01*
X203935000Y-67215000D01*
X203935000Y-66415000D01*
X203265000Y-66415000D01*
X203265000Y-67215000D01*
X202665000Y-67215000D01*
X202665000Y-66415000D01*
X201995000Y-66415000D01*
X201995000Y-67215000D01*
X201395000Y-67215000D01*
X201395000Y-62665000D01*
X205805000Y-62665000D01*
X205805000Y-67215000D01*
G37*
%TD*%
D14*
%TO.C,R3*%
X213660000Y-101155000D03*
X213660000Y-99330000D03*
%TD*%
D15*
%TO.C,C35*%
X228989000Y-200406000D03*
X227264000Y-200406000D03*
%TD*%
D16*
%TO.C,IC3*%
X231854000Y-207218500D03*
X231854000Y-208123500D03*
X230879000Y-206766500D03*
X230879000Y-207671500D03*
X230879000Y-208576500D03*
X229904000Y-207218500D03*
X229904000Y-208123500D03*
%TD*%
D17*
%TO.C,J18*%
X192350000Y-204760000D03*
D18*
X192350000Y-207300000D03*
X192350000Y-209840000D03*
%TD*%
D19*
%TO.C,J12*%
X192250000Y-86080000D03*
X192250000Y-95080000D03*
%TD*%
D20*
%TO.C,J2*%
X296360000Y-37400000D03*
X218600000Y-37400000D03*
D21*
X248770000Y-31400000D03*
D22*
X251310000Y-31400000D03*
X253850000Y-31400000D03*
X256390000Y-31400000D03*
X258930000Y-31400000D03*
X261470000Y-31400000D03*
X264010000Y-31400000D03*
X266550000Y-31400000D03*
X248770000Y-33940000D03*
X251310000Y-33940000D03*
X253850000Y-33940000D03*
X256390000Y-33940000D03*
X258930000Y-33940000D03*
X261470000Y-33940000D03*
X264010000Y-33940000D03*
X266550000Y-33940000D03*
X248770000Y-36480000D03*
X251310000Y-36480000D03*
X253850000Y-36480000D03*
X256390000Y-36480000D03*
X258930000Y-36480000D03*
X261470000Y-36480000D03*
X264010000Y-36480000D03*
X266550000Y-36480000D03*
X224100000Y-42400000D03*
X224100000Y-39900000D03*
X224100000Y-37400000D03*
X224100000Y-34900000D03*
X224100000Y-32400000D03*
X227100000Y-32400000D03*
X227100000Y-34900000D03*
X227100000Y-37400000D03*
X227100000Y-39900000D03*
X227100000Y-42400000D03*
X229600000Y-42400000D03*
X229600000Y-39900000D03*
X229600000Y-37400000D03*
X229600000Y-34900000D03*
X229600000Y-32400000D03*
X232600000Y-32400000D03*
X232600000Y-34900000D03*
X232600000Y-37400000D03*
X232600000Y-39900000D03*
X232600000Y-42400000D03*
X235100000Y-42400000D03*
X235100000Y-39900000D03*
X235100000Y-37400000D03*
X235100000Y-34900000D03*
X235100000Y-32400000D03*
X238100000Y-32400000D03*
X238100000Y-34900000D03*
X238100000Y-37400000D03*
X238100000Y-39900000D03*
X238100000Y-42400000D03*
X240600000Y-42400000D03*
X240600000Y-39900000D03*
X240600000Y-37400000D03*
X240600000Y-34900000D03*
X240600000Y-32400000D03*
X243600000Y-32400000D03*
X243600000Y-34900000D03*
X243600000Y-37400000D03*
X243600000Y-39900000D03*
X243600000Y-42400000D03*
X271360000Y-42400000D03*
X271360000Y-39900000D03*
X271360000Y-37400000D03*
X271360000Y-34900000D03*
X271360000Y-32400000D03*
X274360000Y-32400000D03*
X274360000Y-34900000D03*
X274360000Y-37400000D03*
X274360000Y-39900000D03*
X274360000Y-42400000D03*
X276860000Y-42400000D03*
X276860000Y-39900000D03*
X276860000Y-37400000D03*
X276860000Y-34900000D03*
X276860000Y-32400000D03*
X279860000Y-32400000D03*
X279860000Y-34900000D03*
X279860000Y-37400000D03*
X279860000Y-39900000D03*
X279860000Y-42400000D03*
X282360000Y-42400000D03*
X282360000Y-39900000D03*
X282360000Y-37400000D03*
X282360000Y-34900000D03*
X282360000Y-32400000D03*
X285360000Y-32400000D03*
X285360000Y-34900000D03*
X285360000Y-37400000D03*
X285360000Y-39900000D03*
X285360000Y-42400000D03*
X287860000Y-42400000D03*
X287860000Y-39900000D03*
X287860000Y-37400000D03*
X287860000Y-34900000D03*
X287860000Y-32400000D03*
X290860000Y-32400000D03*
X290860000Y-34900000D03*
X290860000Y-37400000D03*
X290860000Y-39900000D03*
X290860000Y-42400000D03*
%TD*%
D23*
%TO.C,C27*%
X207862500Y-218280000D03*
X209937500Y-218280000D03*
%TD*%
D24*
%TO.C,TP1*%
X209530000Y-76360000D03*
%TD*%
D23*
%TO.C,C31*%
X240096500Y-195978500D03*
X242171500Y-195978500D03*
%TD*%
D25*
%TO.C,R8*%
X205335000Y-53580000D03*
X207160000Y-53580000D03*
%TD*%
D26*
%TO.C,C9*%
X294520000Y-48285000D03*
X294520000Y-50010000D03*
%TD*%
D27*
%TO.C,S1*%
X243252500Y-95610000D03*
X243252500Y-91110000D03*
X234152500Y-95610000D03*
X234152500Y-91110000D03*
%TD*%
D28*
%TO.C,R15*%
X224674000Y-194116000D03*
X224674000Y-195941000D03*
%TD*%
D29*
%TO.C,J13*%
X260980000Y-141175000D03*
D30*
X265170000Y-141175000D03*
X269360000Y-141175000D03*
X273550000Y-141175000D03*
X277740000Y-141175000D03*
X260980000Y-145365000D03*
X265170000Y-145365000D03*
X269360000Y-145365000D03*
X273550000Y-145365000D03*
X277740000Y-145365000D03*
%TD*%
D31*
%TO.C,J23*%
X180000000Y-237800000D03*
D32*
X185080000Y-237800000D03*
X190160000Y-237800000D03*
%TD*%
D25*
%TO.C,R5*%
X217470000Y-75660000D03*
X219295000Y-75660000D03*
%TD*%
D33*
%TO.C,D4*%
X209385000Y-58940000D03*
X210200000Y-58940000D03*
%TD*%
D15*
%TO.C,C23*%
X280742500Y-182690000D03*
X279017500Y-182690000D03*
%TD*%
D17*
%TO.C,J35*%
X170510000Y-177280000D03*
D18*
X173050000Y-177280000D03*
X170510000Y-179820000D03*
X173050000Y-179820000D03*
X170510000Y-182360000D03*
X173050000Y-182360000D03*
X170510000Y-184900000D03*
X173050000Y-184900000D03*
X170510000Y-187440000D03*
X173050000Y-187440000D03*
X170510000Y-189980000D03*
X173050000Y-189980000D03*
X170510000Y-192520000D03*
X173050000Y-192520000D03*
X170510000Y-195060000D03*
X173050000Y-195060000D03*
X170510000Y-197600000D03*
X173050000Y-197600000D03*
%TD*%
D34*
%TO.C,R2*%
X243055235Y-119635235D03*
X241764765Y-118344765D03*
%TD*%
D16*
%TO.C,IC4*%
X243844000Y-209028500D03*
X244749000Y-209028500D03*
X243392000Y-210003500D03*
X244297000Y-210003500D03*
X245202000Y-210003500D03*
X243844000Y-210978500D03*
X244749000Y-210978500D03*
%TD*%
D17*
%TO.C,J26*%
X238480000Y-168580000D03*
D18*
X238480000Y-171120000D03*
X238480000Y-173660000D03*
%TD*%
D17*
%TO.C,J31*%
X200970000Y-103180000D03*
D18*
X200970000Y-100640000D03*
X200970000Y-98100000D03*
X200970000Y-95560000D03*
%TD*%
D14*
%TO.C,R14*%
X223804000Y-204831000D03*
X223804000Y-203006000D03*
%TD*%
D35*
%TO.C,C19*%
X180777500Y-98640000D03*
X182502500Y-98640000D03*
%TD*%
D36*
%TO.C,R11*%
X239676500Y-200381000D03*
X237851500Y-200381000D03*
%TD*%
D37*
%TO.C,U4*%
X235764001Y-198930999D03*
X235263999Y-198930999D03*
X234764000Y-198930999D03*
X234264001Y-198930999D03*
X233763999Y-198930999D03*
X233763999Y-201881001D03*
X234264001Y-201881001D03*
X234764000Y-201881001D03*
X235263999Y-201881001D03*
X235764001Y-201881001D03*
%TD*%
D31*
%TO.C,J24*%
X207000000Y-237800000D03*
D32*
X212080000Y-237800000D03*
X217160000Y-237800000D03*
%TD*%
D17*
%TO.C,J20*%
X222990000Y-138540000D03*
D18*
X225530000Y-138540000D03*
X228070000Y-138540000D03*
%TD*%
D38*
%TO.C,C16*%
X243640120Y-115300120D03*
X244859880Y-116519880D03*
%TD*%
D17*
%TO.C,J27*%
X217375000Y-137130000D03*
D18*
X217375000Y-134590000D03*
%TD*%
D29*
%TO.C,J14*%
X260980000Y-51175000D03*
D30*
X265170000Y-51175000D03*
X269360000Y-51175000D03*
X273550000Y-51175000D03*
X277740000Y-51175000D03*
X260980000Y-55365000D03*
X265170000Y-55365000D03*
X269360000Y-55365000D03*
X273550000Y-55365000D03*
X277740000Y-55365000D03*
%TD*%
D14*
%TO.C,R16*%
X229124000Y-195901000D03*
X229124000Y-194076000D03*
%TD*%
D17*
%TO.C,J19*%
X218940000Y-112300000D03*
D18*
X216400000Y-112300000D03*
%TD*%
D35*
%TO.C,C39*%
X208175000Y-222030000D03*
X209900000Y-222030000D03*
%TD*%
D15*
%TO.C,C1*%
X250302100Y-80240000D03*
X248577100Y-80240000D03*
%TD*%
D39*
%TO.C,C4*%
X181460000Y-50510000D03*
X181460000Y-48785000D03*
%TD*%
D40*
%TO.C,C28*%
X251665000Y-195320000D03*
X249590000Y-195320000D03*
%TD*%
D41*
%TO.C,C3*%
X187140000Y-50720000D03*
X187140000Y-48645000D03*
%TD*%
D36*
%TO.C,R1*%
X248140000Y-101330000D03*
X246315000Y-101330000D03*
%TD*%
%TO.C,R19*%
X242692500Y-99200000D03*
X240867500Y-99200000D03*
%TD*%
D17*
%TO.C,J34*%
X229140000Y-90930000D03*
D18*
X229140000Y-93470000D03*
X229140000Y-96010000D03*
%TD*%
D41*
%TO.C,C21*%
X236610000Y-57270000D03*
X236610000Y-55195000D03*
%TD*%
D17*
%TO.C,J29*%
X249880000Y-160140000D03*
D18*
X247340000Y-160140000D03*
X249880000Y-162680000D03*
X247340000Y-162680000D03*
%TD*%
D42*
%TO.C,U5*%
X172150000Y-91800000D03*
D43*
X174690000Y-91800000D03*
X172150000Y-94340000D03*
X174690000Y-94340000D03*
X172150000Y-96880000D03*
X174690000Y-96880000D03*
X172150000Y-99420000D03*
X174690000Y-99420000D03*
X172150000Y-101960000D03*
X174690000Y-101960000D03*
X172150000Y-104500000D03*
X174690000Y-104500000D03*
X172150000Y-107040000D03*
X174690000Y-107040000D03*
X172150000Y-109580000D03*
X174690000Y-109580000D03*
X172150000Y-112120000D03*
X174690000Y-112120000D03*
X172150000Y-114660000D03*
X174690000Y-114660000D03*
X172150000Y-117200000D03*
X174690000Y-117200000D03*
X172150000Y-119740000D03*
X174690000Y-119740000D03*
X172150000Y-122280000D03*
X174690000Y-122280000D03*
X172150000Y-124820000D03*
X174690000Y-124820000D03*
X172150000Y-127360000D03*
X174690000Y-127360000D03*
X172150000Y-129900000D03*
X174690000Y-129900000D03*
X172150000Y-132440000D03*
X174690000Y-132440000D03*
X172150000Y-134980000D03*
X174690000Y-134980000D03*
X172150000Y-137520000D03*
X174690000Y-137520000D03*
X172150000Y-140060000D03*
X174690000Y-140060000D03*
X166027000Y-146160000D03*
X168567000Y-146160000D03*
X166027000Y-143620000D03*
X168567000Y-143620000D03*
D44*
X173420000Y-86930000D03*
X173420000Y-144930000D03*
X124420000Y-144930000D03*
X124420000Y-86930000D03*
%TD*%
D23*
%TO.C,C2*%
X248439600Y-75240000D03*
X250514600Y-75240000D03*
%TD*%
D17*
%TO.C,J22*%
X228880000Y-146920000D03*
D18*
X231420000Y-146920000D03*
X233960000Y-146920000D03*
%TD*%
D24*
%TO.C,TP5*%
X270270000Y-83620000D03*
%TD*%
D31*
%TO.C,J25*%
X234000000Y-237800000D03*
D32*
X239080000Y-237800000D03*
X244160000Y-237800000D03*
%TD*%
D39*
%TO.C,C34*%
X236414000Y-195791000D03*
X236414000Y-194066000D03*
%TD*%
D45*
%TO.C,C14*%
X242550120Y-111479880D03*
X243769880Y-110260120D03*
%TD*%
D46*
%TO.C,U6*%
X235074900Y-151765000D03*
X235074900Y-153035000D03*
X235074900Y-154305000D03*
X235074900Y-155575000D03*
X235074900Y-156845000D03*
X235074900Y-158115000D03*
X235074900Y-159385000D03*
X235074900Y-160655000D03*
X240485100Y-160655000D03*
X240485100Y-159385000D03*
X240485100Y-158115000D03*
X240485100Y-156845000D03*
X240485100Y-155575000D03*
X240485100Y-154305000D03*
X240485100Y-153035000D03*
X240485100Y-151765000D03*
%TD*%
D40*
%TO.C,C36*%
X235431500Y-191518500D03*
X233356500Y-191518500D03*
%TD*%
D24*
%TO.C,TP4*%
X218200000Y-66880000D03*
%TD*%
D17*
%TO.C,J21*%
X219460000Y-82390000D03*
D18*
X222000000Y-82390000D03*
X224540000Y-82390000D03*
X227080000Y-82390000D03*
X229620000Y-82390000D03*
%TD*%
D40*
%TO.C,C24*%
X280877500Y-186660000D03*
X278802500Y-186660000D03*
%TD*%
D23*
%TO.C,C22*%
X243735000Y-221850000D03*
X245810000Y-221850000D03*
%TD*%
D40*
%TO.C,C30*%
X251515000Y-203500000D03*
X249440000Y-203500000D03*
%TD*%
D25*
%TO.C,R18*%
X207457500Y-104070000D03*
X209282500Y-104070000D03*
%TD*%
D17*
%TO.C,J17*%
X210130000Y-202230000D03*
D18*
X210130000Y-204770000D03*
X210130000Y-207310000D03*
X210130000Y-209850000D03*
%TD*%
D47*
%TO.C,J8*%
X268595000Y-196880000D03*
X266055000Y-196880000D03*
X268595000Y-199420000D03*
X266055000Y-199420000D03*
X268595000Y-201960000D03*
X266055000Y-201960000D03*
X268595000Y-204500000D03*
X266055000Y-204500000D03*
X268595000Y-207040000D03*
D48*
X266055000Y-207040000D03*
D49*
X268370000Y-163880000D03*
D47*
X265830000Y-163880000D03*
X268370000Y-166420000D03*
X265830000Y-166420000D03*
X268370000Y-168960000D03*
X265830000Y-168960000D03*
X268370000Y-171500000D03*
X265830000Y-171500000D03*
X268370000Y-174040000D03*
X265830000Y-174040000D03*
X268620000Y-237540000D03*
X268620000Y-240080000D03*
D48*
X266080000Y-240080000D03*
D47*
X266080000Y-237540000D03*
X268620000Y-235000000D03*
X266080000Y-235000000D03*
X268620000Y-232460000D03*
X266080000Y-232460000D03*
X268620000Y-229920000D03*
X266080000Y-229920000D03*
%TD*%
D35*
%TO.C,C17*%
X243680000Y-224610000D03*
X245405000Y-224610000D03*
%TD*%
D50*
%TO.C,D1*%
X225162500Y-75390000D03*
X224347500Y-75390000D03*
%TD*%
D41*
%TO.C,C5*%
X200440000Y-50112500D03*
X200440000Y-48037500D03*
%TD*%
D25*
%TO.C,R7*%
X253045000Y-69060000D03*
X254870000Y-69060000D03*
%TD*%
D35*
%TO.C,C25*%
X186610000Y-219962500D03*
X188335000Y-219962500D03*
%TD*%
D17*
%TO.C,J32*%
X199450000Y-74470000D03*
D18*
X199450000Y-77010000D03*
%TD*%
D39*
%TO.C,C6*%
X205780000Y-49972500D03*
X205780000Y-48247500D03*
%TD*%
D51*
%TO.C,U2*%
X243640000Y-80040000D03*
X243640000Y-77740000D03*
X243640000Y-75440000D03*
%TD*%
D52*
%TO.C,C20*%
X288750000Y-48185000D03*
X288750000Y-50260000D03*
%TD*%
D53*
%TO.C,U3*%
X199884400Y-58691330D03*
X199884400Y-58190950D03*
X199884400Y-57690569D03*
X199884400Y-57190191D03*
X199884400Y-56689809D03*
X199884400Y-56189431D03*
X199884400Y-55689050D03*
X199884400Y-55188670D03*
X195515600Y-55188670D03*
X195515600Y-55689050D03*
X195515600Y-56189431D03*
X195515600Y-56689809D03*
X195515600Y-57190191D03*
X195515600Y-57690569D03*
X195515600Y-58190950D03*
X195515600Y-58691330D03*
%TD*%
D54*
%TO.C,J4*%
X202650000Y-43690000D03*
D55*
X202650000Y-37690000D03*
D56*
X197950000Y-40690000D03*
%TD*%
D57*
%TO.C,C38*%
X232647500Y-220510000D03*
X235772500Y-220510000D03*
%TD*%
D46*
%TO.C,U7*%
X220644700Y-151805000D03*
X220644700Y-153075000D03*
X220644700Y-154345000D03*
X220644700Y-155615000D03*
X220644700Y-156885000D03*
X220644700Y-158155000D03*
X220644700Y-159425000D03*
X220644700Y-160695000D03*
X226054900Y-160695000D03*
X226054900Y-159425000D03*
X226054900Y-158155000D03*
X226054900Y-156885000D03*
X226054900Y-155615000D03*
X226054900Y-154345000D03*
X226054900Y-153075000D03*
X226054900Y-151805000D03*
%TD*%
D28*
%TO.C,R13*%
X232584000Y-194076000D03*
X232584000Y-195901000D03*
%TD*%
D39*
%TO.C,C10*%
X241240000Y-56935000D03*
X241240000Y-55210000D03*
%TD*%
D40*
%TO.C,C29*%
X251477500Y-208090000D03*
X249402500Y-208090000D03*
%TD*%
D17*
%TO.C,J15*%
X192340000Y-118400000D03*
D18*
X192340000Y-120940000D03*
X192340000Y-123480000D03*
X192340000Y-126020000D03*
X192340000Y-128560000D03*
X192340000Y-131100000D03*
X192340000Y-133640000D03*
X192340000Y-136180000D03*
X192340000Y-138720000D03*
X192340000Y-141260000D03*
X192340000Y-143800000D03*
X192340000Y-146340000D03*
X192340000Y-148880000D03*
X192340000Y-151420000D03*
X192340000Y-153960000D03*
X192340000Y-156500000D03*
X192340000Y-159040000D03*
X192340000Y-161580000D03*
X192340000Y-164120000D03*
X192340000Y-166660000D03*
X192340000Y-169200000D03*
X192340000Y-171740000D03*
X192340000Y-174280000D03*
X192340000Y-176820000D03*
X192340000Y-179360000D03*
X192340000Y-181900000D03*
X192340000Y-184440000D03*
X192340000Y-186980000D03*
%TD*%
D54*
%TO.C,J1*%
X184400000Y-43790000D03*
D55*
X184400000Y-37790000D03*
D56*
X179700000Y-40790000D03*
%TD*%
D39*
%TO.C,C37*%
X222284000Y-199681000D03*
X222284000Y-197956000D03*
%TD*%
D17*
%TO.C,J28*%
X164910000Y-67960000D03*
D18*
X167450000Y-67960000D03*
X164910000Y-70500000D03*
X167450000Y-70500000D03*
X164910000Y-73040000D03*
X167450000Y-73040000D03*
X164910000Y-75580000D03*
X167450000Y-75580000D03*
%TD*%
D58*
%TO.C,C12*%
X231249880Y-120600120D03*
X230030120Y-121819880D03*
%TD*%
D25*
%TO.C,R4*%
X285327500Y-205740000D03*
X287152500Y-205740000D03*
%TD*%
D59*
%TO.C,J3*%
X165006500Y-38235000D03*
X165006500Y-36985000D03*
X165006500Y-35735000D03*
X165006500Y-34485000D03*
D60*
X161656499Y-32635001D03*
X161656499Y-40084999D03*
%TD*%
D61*
%TO.C,J9*%
X291350000Y-233970000D03*
D30*
X291350000Y-229780000D03*
X291350000Y-225590000D03*
X291350000Y-221400000D03*
X291350000Y-217210000D03*
X295540000Y-233970000D03*
X295540000Y-229780000D03*
X295540000Y-225590000D03*
X295540000Y-221400000D03*
X295540000Y-217210000D03*
D62*
X294890000Y-205830000D03*
D63*
X292350000Y-205830000D03*
X294890000Y-203290000D03*
X292350000Y-203290000D03*
X294890000Y-200750000D03*
X292350000Y-200750000D03*
X294890000Y-198210000D03*
X292350000Y-198210000D03*
X294890000Y-195670000D03*
X292350000Y-195670000D03*
D61*
X291350000Y-184290000D03*
D30*
X291350000Y-180100000D03*
X291350000Y-175910000D03*
X291350000Y-171720000D03*
X291350000Y-167530000D03*
X295540000Y-184290000D03*
X295540000Y-180100000D03*
X295540000Y-175910000D03*
X295540000Y-171720000D03*
X295540000Y-167530000D03*
%TD*%
D15*
%TO.C,C11*%
X248145000Y-103880000D03*
X246420000Y-103880000D03*
%TD*%
D35*
%TO.C,C33*%
X241401500Y-202406000D03*
X243126500Y-202406000D03*
%TD*%
D45*
%TO.C,C13*%
X238950120Y-107039880D03*
X240169880Y-105820120D03*
%TD*%
D23*
%TO.C,C40*%
X186335000Y-224212500D03*
X188410000Y-224212500D03*
%TD*%
D17*
%TO.C,J5*%
X216840000Y-215170000D03*
D18*
X219380000Y-215170000D03*
X221920000Y-215170000D03*
%TD*%
D17*
%TO.C,J30*%
X217210000Y-120010000D03*
D18*
X217210000Y-122550000D03*
X217210000Y-125090000D03*
X217210000Y-127630000D03*
%TD*%
D20*
%TO.C,J10*%
X294640000Y-126560000D03*
X294640000Y-72060000D03*
D22*
X289640000Y-121060000D03*
X292140000Y-121060000D03*
X294640000Y-121060000D03*
X297140000Y-121060000D03*
X299640000Y-121060000D03*
X299640000Y-118060000D03*
X297140000Y-118060000D03*
X294640000Y-118060000D03*
X292140000Y-118060000D03*
X289640000Y-118060000D03*
X289640000Y-115560000D03*
X292140000Y-115560000D03*
X294640000Y-115560000D03*
X297140000Y-115560000D03*
X299640000Y-115560000D03*
X299640000Y-112560000D03*
X297140000Y-112560000D03*
X294640000Y-112560000D03*
X292140000Y-112560000D03*
X289640000Y-112560000D03*
X289640000Y-110060000D03*
X292140000Y-110060000D03*
X294640000Y-110060000D03*
X297140000Y-110060000D03*
X299640000Y-110060000D03*
X299640000Y-107060000D03*
X297140000Y-107060000D03*
X294640000Y-107060000D03*
X292140000Y-107060000D03*
X289640000Y-107060000D03*
X289640000Y-104560000D03*
X292140000Y-104560000D03*
X294640000Y-104560000D03*
X297140000Y-104560000D03*
X299640000Y-104560000D03*
X299640000Y-101560000D03*
X297140000Y-101560000D03*
X294640000Y-101560000D03*
X292140000Y-101560000D03*
X289640000Y-101560000D03*
X289640000Y-97060000D03*
X292140000Y-97060000D03*
X294640000Y-97060000D03*
X297140000Y-97060000D03*
X299640000Y-97060000D03*
X299640000Y-94060000D03*
X297140000Y-94060000D03*
X294640000Y-94060000D03*
X292140000Y-94060000D03*
X289640000Y-94060000D03*
X289640000Y-91560000D03*
X292140000Y-91560000D03*
X294640000Y-91560000D03*
X297140000Y-91560000D03*
X299640000Y-91560000D03*
X299640000Y-88560000D03*
X297140000Y-88560000D03*
X294640000Y-88560000D03*
X292140000Y-88560000D03*
X289640000Y-88560000D03*
X289640000Y-86060000D03*
X292140000Y-86060000D03*
X294640000Y-86060000D03*
X297140000Y-86060000D03*
X299640000Y-86060000D03*
X299640000Y-83060000D03*
X297140000Y-83060000D03*
X294640000Y-83060000D03*
X292140000Y-83060000D03*
X289640000Y-83060000D03*
X289640000Y-80560000D03*
X292140000Y-80560000D03*
X294640000Y-80560000D03*
X297140000Y-80560000D03*
X299640000Y-80560000D03*
X299640000Y-77560000D03*
X297140000Y-77560000D03*
X294640000Y-77560000D03*
X292140000Y-77560000D03*
X289640000Y-77560000D03*
%TD*%
D24*
%TO.C,TP2*%
X201320000Y-223640000D03*
%TD*%
D64*
%TO.C,J6*%
X166920000Y-47940000D03*
D65*
X166920000Y-49940000D03*
X166920000Y-51940000D03*
X166920000Y-53940000D03*
%TD*%
D17*
%TO.C,J16*%
X210130000Y-118400000D03*
D18*
X210130000Y-120940000D03*
X210130000Y-123480000D03*
X210130000Y-126020000D03*
X210130000Y-128560000D03*
X210130000Y-131100000D03*
X210130000Y-133640000D03*
X210130000Y-136180000D03*
X210130000Y-138720000D03*
X210130000Y-141260000D03*
X210130000Y-143800000D03*
X210130000Y-146340000D03*
X210130000Y-148880000D03*
X210130000Y-151420000D03*
X210130000Y-153960000D03*
X210130000Y-156500000D03*
X210130000Y-159040000D03*
X210130000Y-161580000D03*
X210130000Y-164120000D03*
X210130000Y-166660000D03*
X210130000Y-169200000D03*
X210130000Y-171740000D03*
X210130000Y-174280000D03*
X210130000Y-176820000D03*
X210130000Y-179360000D03*
X210130000Y-181900000D03*
X210130000Y-184440000D03*
X210130000Y-186980000D03*
%TD*%
D33*
%TO.C,D2*%
X226195000Y-224050000D03*
X227010000Y-224050000D03*
%TD*%
D15*
%TO.C,C32*%
X251342500Y-198810000D03*
X249617500Y-198810000D03*
%TD*%
D40*
%TO.C,C8*%
X262805000Y-207840000D03*
X260730000Y-207840000D03*
%TD*%
D35*
%TO.C,C18*%
X180715000Y-90990000D03*
X182440000Y-90990000D03*
%TD*%
D66*
%TO.C,L2*%
X232764000Y-212866000D03*
X232764000Y-216906000D03*
%TD*%
D24*
%TO.C,TP3*%
X269820000Y-71770000D03*
%TD*%
D67*
%TO.C,U1*%
X239659747Y-112049341D03*
X239306194Y-111695788D03*
X238952639Y-111342233D03*
X238599087Y-110988680D03*
X238245534Y-110635128D03*
X237891980Y-110281574D03*
X237538426Y-109928020D03*
X237184872Y-109574466D03*
X236831320Y-109220913D03*
X236477767Y-108867361D03*
X236124212Y-108513806D03*
X235770659Y-108160253D03*
D68*
X233649341Y-108160253D03*
X233295788Y-108513806D03*
X232942233Y-108867361D03*
X232588680Y-109220913D03*
X232235128Y-109574466D03*
X231881574Y-109928020D03*
X231528020Y-110281574D03*
X231174466Y-110635128D03*
X230820913Y-110988680D03*
X230467361Y-111342233D03*
X230113806Y-111695788D03*
X229760253Y-112049341D03*
D67*
X229760253Y-114170659D03*
X230113806Y-114524212D03*
X230467361Y-114877767D03*
X230820913Y-115231320D03*
X231174466Y-115584872D03*
X231528020Y-115938426D03*
X231881574Y-116291980D03*
X232235128Y-116645534D03*
X232588680Y-116999087D03*
X232942233Y-117352639D03*
X233295788Y-117706194D03*
X233649341Y-118059747D03*
D68*
X235770659Y-118059747D03*
X236124212Y-117706194D03*
X236477767Y-117352639D03*
X236831320Y-116999087D03*
X237184872Y-116645534D03*
X237538426Y-116291980D03*
X237891980Y-115938426D03*
X238245534Y-115584872D03*
X238599087Y-115231320D03*
X238952639Y-114877767D03*
X239306194Y-114524212D03*
X239659747Y-114170659D03*
%TD*%
D50*
%TO.C,D3*%
X258467500Y-68895000D03*
X257652500Y-68895000D03*
%TD*%
D36*
%TO.C,R12*%
X240176500Y-203881000D03*
X238351500Y-203881000D03*
%TD*%
D17*
%TO.C,J7*%
X225880000Y-132460000D03*
D18*
X228420000Y-132460000D03*
X230959999Y-132460000D03*
X233500000Y-132460000D03*
%TD*%
D25*
%TO.C,R6*%
X225095000Y-220230000D03*
X226920000Y-220230000D03*
%TD*%
D58*
%TO.C,C15*%
X226250000Y-113880000D03*
X225030240Y-115099760D03*
%TD*%
D15*
%TO.C,C26*%
X262505000Y-202940000D03*
X260780000Y-202940000D03*
%TD*%
D39*
%TO.C,C7*%
X197720000Y-62805000D03*
X197720000Y-61080000D03*
%TD*%
D17*
%TO.C,J33*%
X246960000Y-122770000D03*
D18*
X246960000Y-125310000D03*
%TD*%
M02*
