%TF.GenerationSoftware,KiCad,Pcbnew,9.0.2*%
%TF.CreationDate,2025-12-07T17:47:00-05:00*%
%TF.ProjectId,mcu and pi board,6d637520-616e-4642-9070-6920626f6172,rev?*%
%TF.SameCoordinates,Original*%
%TF.FileFunction,Paste,Top*%
%TF.FilePolarity,Positive*%
%FSLAX46Y46*%
G04 Gerber Fmt 4.6, Leading zero omitted, Abs format (unit mm)*
G04 Created by KiCad (PCBNEW 9.0.2) date 2025-12-07 17:47:00*
%MOMM*%
%LPD*%
G01*
G04 APERTURE LIST*
G04 Aperture macros list*
%AMRoundRect*
0 Rectangle with rounded corners*
0 $1 Rounding radius*
0 $2 $3 $4 $5 $6 $7 $8 $9 X,Y pos of 4 corners*
0 Add a 4 corners polygon primitive as box body*
4,1,4,$2,$3,$4,$5,$6,$7,$8,$9,$2,$3,0*
0 Add four circle primitives for the rounded corners*
1,1,$1+$1,$2,$3*
1,1,$1+$1,$4,$5*
1,1,$1+$1,$6,$7*
1,1,$1+$1,$8,$9*
0 Add four rect primitives between the rounded corners*
20,1,$1+$1,$2,$3,$4,$5,0*
20,1,$1+$1,$4,$5,$6,$7,0*
20,1,$1+$1,$6,$7,$8,$9,0*
20,1,$1+$1,$8,$9,$2,$3,0*%
%AMRotRect*
0 Rectangle, with rotation*
0 The origin of the aperture is its center*
0 $1 length*
0 $2 width*
0 $3 Rotation angle, in degrees counterclockwise*
0 Add horizontal line*
21,1,$1,$2,0,0,$3*%
G04 Aperture macros list end*
%ADD10C,0.010000*%
%ADD11C,0.000000*%
%ADD12RoundRect,0.237500X0.237500X-0.250000X0.237500X0.250000X-0.237500X0.250000X-0.237500X-0.250000X0*%
%ADD13RoundRect,0.237500X0.300000X0.237500X-0.300000X0.237500X-0.300000X-0.237500X0.300000X-0.237500X0*%
%ADD14RoundRect,0.250000X-0.337500X-0.475000X0.337500X-0.475000X0.337500X0.475000X-0.337500X0.475000X0*%
%ADD15RoundRect,0.237500X-0.250000X-0.237500X0.250000X-0.237500X0.250000X0.237500X-0.250000X0.237500X0*%
%ADD16RoundRect,0.237500X-0.237500X0.300000X-0.237500X-0.300000X0.237500X-0.300000X0.237500X0.300000X0*%
%ADD17R,2.100000X1.400000*%
%ADD18RoundRect,0.237500X-0.237500X0.250000X-0.237500X-0.250000X0.237500X-0.250000X0.237500X0.250000X0*%
%ADD19RoundRect,0.090000X-0.139000X-0.090000X0.139000X-0.090000X0.139000X0.090000X-0.139000X0.090000X0*%
%ADD20RoundRect,0.237500X0.344715X-0.008839X-0.008839X0.344715X-0.344715X0.008839X0.008839X-0.344715X0*%
%ADD21RoundRect,0.237500X-0.300000X-0.237500X0.300000X-0.237500X0.300000X0.237500X-0.300000X0.237500X0*%
%ADD22RoundRect,0.237500X0.250000X0.237500X-0.250000X0.237500X-0.250000X-0.237500X0.250000X-0.237500X0*%
%ADD23RoundRect,0.237500X-0.380070X0.044194X0.044194X-0.380070X0.380070X-0.044194X-0.044194X0.380070X0*%
%ADD24RoundRect,0.237500X0.237500X-0.300000X0.237500X0.300000X-0.237500X0.300000X-0.237500X-0.300000X0*%
%ADD25RoundRect,0.250000X0.337500X0.475000X-0.337500X0.475000X-0.337500X-0.475000X0.337500X-0.475000X0*%
%ADD26RoundRect,0.250000X0.475000X-0.337500X0.475000X0.337500X-0.475000X0.337500X-0.475000X-0.337500X0*%
%ADD27RoundRect,0.237500X-0.044194X-0.380070X0.380070X0.044194X0.044194X0.380070X-0.380070X-0.044194X0*%
%ADD28R,1.498600X0.533400*%
%ADD29RoundRect,0.090000X0.139000X0.090000X-0.139000X0.090000X-0.139000X-0.090000X0.139000X-0.090000X0*%
%ADD30R,1.600200X0.838200*%
%ADD31RoundRect,0.250000X-0.475000X0.337500X-0.475000X-0.337500X0.475000X-0.337500X0.475000X0.337500X0*%
%ADD32R,1.397000X0.279400*%
%ADD33RoundRect,0.250000X-0.412500X-0.650000X0.412500X-0.650000X0.412500X0.650000X-0.412500X0.650000X0*%
%ADD34RoundRect,0.237500X0.044194X0.380070X-0.380070X-0.044194X-0.044194X-0.380070X0.380070X0.044194X0*%
%ADD35R,1.701800X0.660400*%
%ADD36R,2.895600X1.092200*%
%ADD37R,5.500000X1.430000*%
%ADD38RotRect,1.193800X0.304800X225.000000*%
%ADD39RotRect,1.193800X0.304800X315.000000*%
G04 APERTURE END LIST*
D10*
%TO.C,IC3*%
X230012000Y-205124500D02*
X230014000Y-205124500D01*
X230017000Y-205125500D01*
X230019000Y-205125500D01*
X230022000Y-205126500D01*
X230024000Y-205127500D01*
X230027000Y-205128500D01*
X230029000Y-205130500D01*
X230031000Y-205131500D01*
X230033000Y-205133500D01*
X230035000Y-205134500D01*
X230037000Y-205136500D01*
X230039000Y-205138500D01*
X230041000Y-205140500D01*
X230043000Y-205142500D01*
X230044000Y-205144500D01*
X230046000Y-205146500D01*
X230047000Y-205148500D01*
X230049000Y-205150500D01*
X230050000Y-205153500D01*
X230051000Y-205155500D01*
X230052000Y-205158500D01*
X230052000Y-205160500D01*
X230053000Y-205163500D01*
X230053000Y-205165500D01*
X230054000Y-205168500D01*
X230054000Y-205170500D01*
X230054000Y-205173500D01*
X230054000Y-205673500D01*
X230054000Y-205676500D01*
X230054000Y-205678500D01*
X230053000Y-205681500D01*
X230053000Y-205683500D01*
X230052000Y-205686500D01*
X230052000Y-205688500D01*
X230051000Y-205691500D01*
X230050000Y-205693500D01*
X230049000Y-205696500D01*
X230047000Y-205698500D01*
X230046000Y-205700500D01*
X230044000Y-205702500D01*
X230043000Y-205704500D01*
X230041000Y-205706500D01*
X230039000Y-205708500D01*
X230037000Y-205710500D01*
X230035000Y-205712500D01*
X230033000Y-205713500D01*
X230031000Y-205715500D01*
X230029000Y-205716500D01*
X230027000Y-205718500D01*
X230024000Y-205719500D01*
X230022000Y-205720500D01*
X230019000Y-205721500D01*
X230017000Y-205721500D01*
X230014000Y-205722500D01*
X230012000Y-205722500D01*
X230009000Y-205723500D01*
X230007000Y-205723500D01*
X230004000Y-205723500D01*
X229804000Y-205723500D01*
X229801000Y-205723500D01*
X229799000Y-205723500D01*
X229796000Y-205722500D01*
X229794000Y-205722500D01*
X229791000Y-205721500D01*
X229789000Y-205721500D01*
X229786000Y-205720500D01*
X229784000Y-205719500D01*
X229781000Y-205718500D01*
X229779000Y-205716500D01*
X229777000Y-205715500D01*
X229775000Y-205713500D01*
X229773000Y-205712500D01*
X229771000Y-205710500D01*
X229769000Y-205708500D01*
X229767000Y-205706500D01*
X229765000Y-205704500D01*
X229764000Y-205702500D01*
X229762000Y-205700500D01*
X229761000Y-205698500D01*
X229759000Y-205696500D01*
X229758000Y-205693500D01*
X229757000Y-205691500D01*
X229756000Y-205688500D01*
X229756000Y-205686500D01*
X229755000Y-205683500D01*
X229755000Y-205681500D01*
X229754000Y-205678500D01*
X229754000Y-205676500D01*
X229754000Y-205673500D01*
X229754000Y-205173500D01*
X229754000Y-205170500D01*
X229754000Y-205168500D01*
X229755000Y-205165500D01*
X229755000Y-205163500D01*
X229756000Y-205160500D01*
X229756000Y-205158500D01*
X229757000Y-205155500D01*
X229758000Y-205153500D01*
X229759000Y-205150500D01*
X229761000Y-205148500D01*
X229762000Y-205146500D01*
X229764000Y-205144500D01*
X229765000Y-205142500D01*
X229767000Y-205140500D01*
X229769000Y-205138500D01*
X229771000Y-205136500D01*
X229773000Y-205134500D01*
X229775000Y-205133500D01*
X229777000Y-205131500D01*
X229779000Y-205130500D01*
X229781000Y-205128500D01*
X229784000Y-205127500D01*
X229786000Y-205126500D01*
X229789000Y-205125500D01*
X229791000Y-205125500D01*
X229794000Y-205124500D01*
X229796000Y-205124500D01*
X229799000Y-205123500D01*
X229801000Y-205123500D01*
X229804000Y-205123500D01*
X230004000Y-205123500D01*
X230007000Y-205123500D01*
X230009000Y-205123500D01*
X230012000Y-205124500D01*
G36*
X230012000Y-205124500D02*
G01*
X230014000Y-205124500D01*
X230017000Y-205125500D01*
X230019000Y-205125500D01*
X230022000Y-205126500D01*
X230024000Y-205127500D01*
X230027000Y-205128500D01*
X230029000Y-205130500D01*
X230031000Y-205131500D01*
X230033000Y-205133500D01*
X230035000Y-205134500D01*
X230037000Y-205136500D01*
X230039000Y-205138500D01*
X230041000Y-205140500D01*
X230043000Y-205142500D01*
X230044000Y-205144500D01*
X230046000Y-205146500D01*
X230047000Y-205148500D01*
X230049000Y-205150500D01*
X230050000Y-205153500D01*
X230051000Y-205155500D01*
X230052000Y-205158500D01*
X230052000Y-205160500D01*
X230053000Y-205163500D01*
X230053000Y-205165500D01*
X230054000Y-205168500D01*
X230054000Y-205170500D01*
X230054000Y-205173500D01*
X230054000Y-205673500D01*
X230054000Y-205676500D01*
X230054000Y-205678500D01*
X230053000Y-205681500D01*
X230053000Y-205683500D01*
X230052000Y-205686500D01*
X230052000Y-205688500D01*
X230051000Y-205691500D01*
X230050000Y-205693500D01*
X230049000Y-205696500D01*
X230047000Y-205698500D01*
X230046000Y-205700500D01*
X230044000Y-205702500D01*
X230043000Y-205704500D01*
X230041000Y-205706500D01*
X230039000Y-205708500D01*
X230037000Y-205710500D01*
X230035000Y-205712500D01*
X230033000Y-205713500D01*
X230031000Y-205715500D01*
X230029000Y-205716500D01*
X230027000Y-205718500D01*
X230024000Y-205719500D01*
X230022000Y-205720500D01*
X230019000Y-205721500D01*
X230017000Y-205721500D01*
X230014000Y-205722500D01*
X230012000Y-205722500D01*
X230009000Y-205723500D01*
X230007000Y-205723500D01*
X230004000Y-205723500D01*
X229804000Y-205723500D01*
X229801000Y-205723500D01*
X229799000Y-205723500D01*
X229796000Y-205722500D01*
X229794000Y-205722500D01*
X229791000Y-205721500D01*
X229789000Y-205721500D01*
X229786000Y-205720500D01*
X229784000Y-205719500D01*
X229781000Y-205718500D01*
X229779000Y-205716500D01*
X229777000Y-205715500D01*
X229775000Y-205713500D01*
X229773000Y-205712500D01*
X229771000Y-205710500D01*
X229769000Y-205708500D01*
X229767000Y-205706500D01*
X229765000Y-205704500D01*
X229764000Y-205702500D01*
X229762000Y-205700500D01*
X229761000Y-205698500D01*
X229759000Y-205696500D01*
X229758000Y-205693500D01*
X229757000Y-205691500D01*
X229756000Y-205688500D01*
X229756000Y-205686500D01*
X229755000Y-205683500D01*
X229755000Y-205681500D01*
X229754000Y-205678500D01*
X229754000Y-205676500D01*
X229754000Y-205673500D01*
X229754000Y-205173500D01*
X229754000Y-205170500D01*
X229754000Y-205168500D01*
X229755000Y-205165500D01*
X229755000Y-205163500D01*
X229756000Y-205160500D01*
X229756000Y-205158500D01*
X229757000Y-205155500D01*
X229758000Y-205153500D01*
X229759000Y-205150500D01*
X229761000Y-205148500D01*
X229762000Y-205146500D01*
X229764000Y-205144500D01*
X229765000Y-205142500D01*
X229767000Y-205140500D01*
X229769000Y-205138500D01*
X229771000Y-205136500D01*
X229773000Y-205134500D01*
X229775000Y-205133500D01*
X229777000Y-205131500D01*
X229779000Y-205130500D01*
X229781000Y-205128500D01*
X229784000Y-205127500D01*
X229786000Y-205126500D01*
X229789000Y-205125500D01*
X229791000Y-205125500D01*
X229794000Y-205124500D01*
X229796000Y-205124500D01*
X229799000Y-205123500D01*
X229801000Y-205123500D01*
X229804000Y-205123500D01*
X230004000Y-205123500D01*
X230007000Y-205123500D01*
X230009000Y-205123500D01*
X230012000Y-205124500D01*
G37*
X230012000Y-208224500D02*
X230014000Y-208224500D01*
X230017000Y-208225500D01*
X230019000Y-208225500D01*
X230022000Y-208226500D01*
X230024000Y-208227500D01*
X230027000Y-208228500D01*
X230029000Y-208230500D01*
X230031000Y-208231500D01*
X230033000Y-208233500D01*
X230035000Y-208234500D01*
X230037000Y-208236500D01*
X230039000Y-208238500D01*
X230041000Y-208240500D01*
X230043000Y-208242500D01*
X230044000Y-208244500D01*
X230046000Y-208246500D01*
X230047000Y-208248500D01*
X230049000Y-208250500D01*
X230050000Y-208253500D01*
X230051000Y-208255500D01*
X230052000Y-208258500D01*
X230052000Y-208260500D01*
X230053000Y-208263500D01*
X230053000Y-208265500D01*
X230054000Y-208268500D01*
X230054000Y-208270500D01*
X230054000Y-208273500D01*
X230054000Y-208773500D01*
X230054000Y-208776500D01*
X230054000Y-208778500D01*
X230053000Y-208781500D01*
X230053000Y-208783500D01*
X230052000Y-208786500D01*
X230052000Y-208788500D01*
X230051000Y-208791500D01*
X230050000Y-208793500D01*
X230049000Y-208796500D01*
X230047000Y-208798500D01*
X230046000Y-208800500D01*
X230044000Y-208802500D01*
X230043000Y-208804500D01*
X230041000Y-208806500D01*
X230039000Y-208808500D01*
X230037000Y-208810500D01*
X230035000Y-208812500D01*
X230033000Y-208813500D01*
X230031000Y-208815500D01*
X230029000Y-208816500D01*
X230027000Y-208818500D01*
X230024000Y-208819500D01*
X230022000Y-208820500D01*
X230019000Y-208821500D01*
X230017000Y-208821500D01*
X230014000Y-208822500D01*
X230012000Y-208822500D01*
X230009000Y-208823500D01*
X230007000Y-208823500D01*
X230004000Y-208823500D01*
X229804000Y-208823500D01*
X229801000Y-208823500D01*
X229799000Y-208823500D01*
X229796000Y-208822500D01*
X229794000Y-208822500D01*
X229791000Y-208821500D01*
X229789000Y-208821500D01*
X229786000Y-208820500D01*
X229784000Y-208819500D01*
X229781000Y-208818500D01*
X229779000Y-208816500D01*
X229777000Y-208815500D01*
X229775000Y-208813500D01*
X229773000Y-208812500D01*
X229771000Y-208810500D01*
X229769000Y-208808500D01*
X229767000Y-208806500D01*
X229765000Y-208804500D01*
X229764000Y-208802500D01*
X229762000Y-208800500D01*
X229761000Y-208798500D01*
X229759000Y-208796500D01*
X229758000Y-208793500D01*
X229757000Y-208791500D01*
X229756000Y-208788500D01*
X229756000Y-208786500D01*
X229755000Y-208783500D01*
X229755000Y-208781500D01*
X229754000Y-208778500D01*
X229754000Y-208776500D01*
X229754000Y-208773500D01*
X229754000Y-208273500D01*
X229754000Y-208270500D01*
X229754000Y-208268500D01*
X229755000Y-208265500D01*
X229755000Y-208263500D01*
X229756000Y-208260500D01*
X229756000Y-208258500D01*
X229757000Y-208255500D01*
X229758000Y-208253500D01*
X229759000Y-208250500D01*
X229761000Y-208248500D01*
X229762000Y-208246500D01*
X229764000Y-208244500D01*
X229765000Y-208242500D01*
X229767000Y-208240500D01*
X229769000Y-208238500D01*
X229771000Y-208236500D01*
X229773000Y-208234500D01*
X229775000Y-208233500D01*
X229777000Y-208231500D01*
X229779000Y-208230500D01*
X229781000Y-208228500D01*
X229784000Y-208227500D01*
X229786000Y-208226500D01*
X229789000Y-208225500D01*
X229791000Y-208225500D01*
X229794000Y-208224500D01*
X229796000Y-208224500D01*
X229799000Y-208223500D01*
X229801000Y-208223500D01*
X229804000Y-208223500D01*
X230004000Y-208223500D01*
X230007000Y-208223500D01*
X230009000Y-208223500D01*
X230012000Y-208224500D01*
G36*
X230012000Y-208224500D02*
G01*
X230014000Y-208224500D01*
X230017000Y-208225500D01*
X230019000Y-208225500D01*
X230022000Y-208226500D01*
X230024000Y-208227500D01*
X230027000Y-208228500D01*
X230029000Y-208230500D01*
X230031000Y-208231500D01*
X230033000Y-208233500D01*
X230035000Y-208234500D01*
X230037000Y-208236500D01*
X230039000Y-208238500D01*
X230041000Y-208240500D01*
X230043000Y-208242500D01*
X230044000Y-208244500D01*
X230046000Y-208246500D01*
X230047000Y-208248500D01*
X230049000Y-208250500D01*
X230050000Y-208253500D01*
X230051000Y-208255500D01*
X230052000Y-208258500D01*
X230052000Y-208260500D01*
X230053000Y-208263500D01*
X230053000Y-208265500D01*
X230054000Y-208268500D01*
X230054000Y-208270500D01*
X230054000Y-208273500D01*
X230054000Y-208773500D01*
X230054000Y-208776500D01*
X230054000Y-208778500D01*
X230053000Y-208781500D01*
X230053000Y-208783500D01*
X230052000Y-208786500D01*
X230052000Y-208788500D01*
X230051000Y-208791500D01*
X230050000Y-208793500D01*
X230049000Y-208796500D01*
X230047000Y-208798500D01*
X230046000Y-208800500D01*
X230044000Y-208802500D01*
X230043000Y-208804500D01*
X230041000Y-208806500D01*
X230039000Y-208808500D01*
X230037000Y-208810500D01*
X230035000Y-208812500D01*
X230033000Y-208813500D01*
X230031000Y-208815500D01*
X230029000Y-208816500D01*
X230027000Y-208818500D01*
X230024000Y-208819500D01*
X230022000Y-208820500D01*
X230019000Y-208821500D01*
X230017000Y-208821500D01*
X230014000Y-208822500D01*
X230012000Y-208822500D01*
X230009000Y-208823500D01*
X230007000Y-208823500D01*
X230004000Y-208823500D01*
X229804000Y-208823500D01*
X229801000Y-208823500D01*
X229799000Y-208823500D01*
X229796000Y-208822500D01*
X229794000Y-208822500D01*
X229791000Y-208821500D01*
X229789000Y-208821500D01*
X229786000Y-208820500D01*
X229784000Y-208819500D01*
X229781000Y-208818500D01*
X229779000Y-208816500D01*
X229777000Y-208815500D01*
X229775000Y-208813500D01*
X229773000Y-208812500D01*
X229771000Y-208810500D01*
X229769000Y-208808500D01*
X229767000Y-208806500D01*
X229765000Y-208804500D01*
X229764000Y-208802500D01*
X229762000Y-208800500D01*
X229761000Y-208798500D01*
X229759000Y-208796500D01*
X229758000Y-208793500D01*
X229757000Y-208791500D01*
X229756000Y-208788500D01*
X229756000Y-208786500D01*
X229755000Y-208783500D01*
X229755000Y-208781500D01*
X229754000Y-208778500D01*
X229754000Y-208776500D01*
X229754000Y-208773500D01*
X229754000Y-208273500D01*
X229754000Y-208270500D01*
X229754000Y-208268500D01*
X229755000Y-208265500D01*
X229755000Y-208263500D01*
X229756000Y-208260500D01*
X229756000Y-208258500D01*
X229757000Y-208255500D01*
X229758000Y-208253500D01*
X229759000Y-208250500D01*
X229761000Y-208248500D01*
X229762000Y-208246500D01*
X229764000Y-208244500D01*
X229765000Y-208242500D01*
X229767000Y-208240500D01*
X229769000Y-208238500D01*
X229771000Y-208236500D01*
X229773000Y-208234500D01*
X229775000Y-208233500D01*
X229777000Y-208231500D01*
X229779000Y-208230500D01*
X229781000Y-208228500D01*
X229784000Y-208227500D01*
X229786000Y-208226500D01*
X229789000Y-208225500D01*
X229791000Y-208225500D01*
X229794000Y-208224500D01*
X229796000Y-208224500D01*
X229799000Y-208223500D01*
X229801000Y-208223500D01*
X229804000Y-208223500D01*
X230004000Y-208223500D01*
X230007000Y-208223500D01*
X230009000Y-208223500D01*
X230012000Y-208224500D01*
G37*
X230662000Y-205124500D02*
X230664000Y-205124500D01*
X230667000Y-205125500D01*
X230669000Y-205125500D01*
X230672000Y-205126500D01*
X230674000Y-205127500D01*
X230677000Y-205128500D01*
X230679000Y-205130500D01*
X230681000Y-205131500D01*
X230683000Y-205133500D01*
X230685000Y-205134500D01*
X230687000Y-205136500D01*
X230689000Y-205138500D01*
X230691000Y-205140500D01*
X230693000Y-205142500D01*
X230694000Y-205144500D01*
X230696000Y-205146500D01*
X230697000Y-205148500D01*
X230699000Y-205150500D01*
X230700000Y-205153500D01*
X230701000Y-205155500D01*
X230702000Y-205158500D01*
X230702000Y-205160500D01*
X230703000Y-205163500D01*
X230703000Y-205165500D01*
X230704000Y-205168500D01*
X230704000Y-205170500D01*
X230704000Y-205173500D01*
X230704000Y-205673500D01*
X230704000Y-205676500D01*
X230704000Y-205678500D01*
X230703000Y-205681500D01*
X230703000Y-205683500D01*
X230702000Y-205686500D01*
X230702000Y-205688500D01*
X230701000Y-205691500D01*
X230700000Y-205693500D01*
X230699000Y-205696500D01*
X230697000Y-205698500D01*
X230696000Y-205700500D01*
X230694000Y-205702500D01*
X230693000Y-205704500D01*
X230691000Y-205706500D01*
X230689000Y-205708500D01*
X230687000Y-205710500D01*
X230685000Y-205712500D01*
X230683000Y-205713500D01*
X230681000Y-205715500D01*
X230679000Y-205716500D01*
X230677000Y-205718500D01*
X230674000Y-205719500D01*
X230672000Y-205720500D01*
X230669000Y-205721500D01*
X230667000Y-205721500D01*
X230664000Y-205722500D01*
X230662000Y-205722500D01*
X230659000Y-205723500D01*
X230657000Y-205723500D01*
X230654000Y-205723500D01*
X230454000Y-205723500D01*
X230451000Y-205723500D01*
X230449000Y-205723500D01*
X230446000Y-205722500D01*
X230444000Y-205722500D01*
X230441000Y-205721500D01*
X230439000Y-205721500D01*
X230436000Y-205720500D01*
X230434000Y-205719500D01*
X230431000Y-205718500D01*
X230429000Y-205716500D01*
X230427000Y-205715500D01*
X230425000Y-205713500D01*
X230423000Y-205712500D01*
X230421000Y-205710500D01*
X230419000Y-205708500D01*
X230417000Y-205706500D01*
X230415000Y-205704500D01*
X230414000Y-205702500D01*
X230412000Y-205700500D01*
X230411000Y-205698500D01*
X230409000Y-205696500D01*
X230408000Y-205693500D01*
X230407000Y-205691500D01*
X230406000Y-205688500D01*
X230406000Y-205686500D01*
X230405000Y-205683500D01*
X230405000Y-205681500D01*
X230404000Y-205678500D01*
X230404000Y-205676500D01*
X230404000Y-205673500D01*
X230404000Y-205173500D01*
X230404000Y-205170500D01*
X230404000Y-205168500D01*
X230405000Y-205165500D01*
X230405000Y-205163500D01*
X230406000Y-205160500D01*
X230406000Y-205158500D01*
X230407000Y-205155500D01*
X230408000Y-205153500D01*
X230409000Y-205150500D01*
X230411000Y-205148500D01*
X230412000Y-205146500D01*
X230414000Y-205144500D01*
X230415000Y-205142500D01*
X230417000Y-205140500D01*
X230419000Y-205138500D01*
X230421000Y-205136500D01*
X230423000Y-205134500D01*
X230425000Y-205133500D01*
X230427000Y-205131500D01*
X230429000Y-205130500D01*
X230431000Y-205128500D01*
X230434000Y-205127500D01*
X230436000Y-205126500D01*
X230439000Y-205125500D01*
X230441000Y-205125500D01*
X230444000Y-205124500D01*
X230446000Y-205124500D01*
X230449000Y-205123500D01*
X230451000Y-205123500D01*
X230454000Y-205123500D01*
X230654000Y-205123500D01*
X230657000Y-205123500D01*
X230659000Y-205123500D01*
X230662000Y-205124500D01*
G36*
X230662000Y-205124500D02*
G01*
X230664000Y-205124500D01*
X230667000Y-205125500D01*
X230669000Y-205125500D01*
X230672000Y-205126500D01*
X230674000Y-205127500D01*
X230677000Y-205128500D01*
X230679000Y-205130500D01*
X230681000Y-205131500D01*
X230683000Y-205133500D01*
X230685000Y-205134500D01*
X230687000Y-205136500D01*
X230689000Y-205138500D01*
X230691000Y-205140500D01*
X230693000Y-205142500D01*
X230694000Y-205144500D01*
X230696000Y-205146500D01*
X230697000Y-205148500D01*
X230699000Y-205150500D01*
X230700000Y-205153500D01*
X230701000Y-205155500D01*
X230702000Y-205158500D01*
X230702000Y-205160500D01*
X230703000Y-205163500D01*
X230703000Y-205165500D01*
X230704000Y-205168500D01*
X230704000Y-205170500D01*
X230704000Y-205173500D01*
X230704000Y-205673500D01*
X230704000Y-205676500D01*
X230704000Y-205678500D01*
X230703000Y-205681500D01*
X230703000Y-205683500D01*
X230702000Y-205686500D01*
X230702000Y-205688500D01*
X230701000Y-205691500D01*
X230700000Y-205693500D01*
X230699000Y-205696500D01*
X230697000Y-205698500D01*
X230696000Y-205700500D01*
X230694000Y-205702500D01*
X230693000Y-205704500D01*
X230691000Y-205706500D01*
X230689000Y-205708500D01*
X230687000Y-205710500D01*
X230685000Y-205712500D01*
X230683000Y-205713500D01*
X230681000Y-205715500D01*
X230679000Y-205716500D01*
X230677000Y-205718500D01*
X230674000Y-205719500D01*
X230672000Y-205720500D01*
X230669000Y-205721500D01*
X230667000Y-205721500D01*
X230664000Y-205722500D01*
X230662000Y-205722500D01*
X230659000Y-205723500D01*
X230657000Y-205723500D01*
X230654000Y-205723500D01*
X230454000Y-205723500D01*
X230451000Y-205723500D01*
X230449000Y-205723500D01*
X230446000Y-205722500D01*
X230444000Y-205722500D01*
X230441000Y-205721500D01*
X230439000Y-205721500D01*
X230436000Y-205720500D01*
X230434000Y-205719500D01*
X230431000Y-205718500D01*
X230429000Y-205716500D01*
X230427000Y-205715500D01*
X230425000Y-205713500D01*
X230423000Y-205712500D01*
X230421000Y-205710500D01*
X230419000Y-205708500D01*
X230417000Y-205706500D01*
X230415000Y-205704500D01*
X230414000Y-205702500D01*
X230412000Y-205700500D01*
X230411000Y-205698500D01*
X230409000Y-205696500D01*
X230408000Y-205693500D01*
X230407000Y-205691500D01*
X230406000Y-205688500D01*
X230406000Y-205686500D01*
X230405000Y-205683500D01*
X230405000Y-205681500D01*
X230404000Y-205678500D01*
X230404000Y-205676500D01*
X230404000Y-205673500D01*
X230404000Y-205173500D01*
X230404000Y-205170500D01*
X230404000Y-205168500D01*
X230405000Y-205165500D01*
X230405000Y-205163500D01*
X230406000Y-205160500D01*
X230406000Y-205158500D01*
X230407000Y-205155500D01*
X230408000Y-205153500D01*
X230409000Y-205150500D01*
X230411000Y-205148500D01*
X230412000Y-205146500D01*
X230414000Y-205144500D01*
X230415000Y-205142500D01*
X230417000Y-205140500D01*
X230419000Y-205138500D01*
X230421000Y-205136500D01*
X230423000Y-205134500D01*
X230425000Y-205133500D01*
X230427000Y-205131500D01*
X230429000Y-205130500D01*
X230431000Y-205128500D01*
X230434000Y-205127500D01*
X230436000Y-205126500D01*
X230439000Y-205125500D01*
X230441000Y-205125500D01*
X230444000Y-205124500D01*
X230446000Y-205124500D01*
X230449000Y-205123500D01*
X230451000Y-205123500D01*
X230454000Y-205123500D01*
X230654000Y-205123500D01*
X230657000Y-205123500D01*
X230659000Y-205123500D01*
X230662000Y-205124500D01*
G37*
X230662000Y-208224500D02*
X230664000Y-208224500D01*
X230667000Y-208225500D01*
X230669000Y-208225500D01*
X230672000Y-208226500D01*
X230674000Y-208227500D01*
X230677000Y-208228500D01*
X230679000Y-208230500D01*
X230681000Y-208231500D01*
X230683000Y-208233500D01*
X230685000Y-208234500D01*
X230687000Y-208236500D01*
X230689000Y-208238500D01*
X230691000Y-208240500D01*
X230693000Y-208242500D01*
X230694000Y-208244500D01*
X230696000Y-208246500D01*
X230697000Y-208248500D01*
X230699000Y-208250500D01*
X230700000Y-208253500D01*
X230701000Y-208255500D01*
X230702000Y-208258500D01*
X230702000Y-208260500D01*
X230703000Y-208263500D01*
X230703000Y-208265500D01*
X230704000Y-208268500D01*
X230704000Y-208270500D01*
X230704000Y-208273500D01*
X230704000Y-208773500D01*
X230704000Y-208776500D01*
X230704000Y-208778500D01*
X230703000Y-208781500D01*
X230703000Y-208783500D01*
X230702000Y-208786500D01*
X230702000Y-208788500D01*
X230701000Y-208791500D01*
X230700000Y-208793500D01*
X230699000Y-208796500D01*
X230697000Y-208798500D01*
X230696000Y-208800500D01*
X230694000Y-208802500D01*
X230693000Y-208804500D01*
X230691000Y-208806500D01*
X230689000Y-208808500D01*
X230687000Y-208810500D01*
X230685000Y-208812500D01*
X230683000Y-208813500D01*
X230681000Y-208815500D01*
X230679000Y-208816500D01*
X230677000Y-208818500D01*
X230674000Y-208819500D01*
X230672000Y-208820500D01*
X230669000Y-208821500D01*
X230667000Y-208821500D01*
X230664000Y-208822500D01*
X230662000Y-208822500D01*
X230659000Y-208823500D01*
X230657000Y-208823500D01*
X230654000Y-208823500D01*
X230454000Y-208823500D01*
X230451000Y-208823500D01*
X230449000Y-208823500D01*
X230446000Y-208822500D01*
X230444000Y-208822500D01*
X230441000Y-208821500D01*
X230439000Y-208821500D01*
X230436000Y-208820500D01*
X230434000Y-208819500D01*
X230431000Y-208818500D01*
X230429000Y-208816500D01*
X230427000Y-208815500D01*
X230425000Y-208813500D01*
X230423000Y-208812500D01*
X230421000Y-208810500D01*
X230419000Y-208808500D01*
X230417000Y-208806500D01*
X230415000Y-208804500D01*
X230414000Y-208802500D01*
X230412000Y-208800500D01*
X230411000Y-208798500D01*
X230409000Y-208796500D01*
X230408000Y-208793500D01*
X230407000Y-208791500D01*
X230406000Y-208788500D01*
X230406000Y-208786500D01*
X230405000Y-208783500D01*
X230405000Y-208781500D01*
X230404000Y-208778500D01*
X230404000Y-208776500D01*
X230404000Y-208773500D01*
X230404000Y-208273500D01*
X230404000Y-208270500D01*
X230404000Y-208268500D01*
X230405000Y-208265500D01*
X230405000Y-208263500D01*
X230406000Y-208260500D01*
X230406000Y-208258500D01*
X230407000Y-208255500D01*
X230408000Y-208253500D01*
X230409000Y-208250500D01*
X230411000Y-208248500D01*
X230412000Y-208246500D01*
X230414000Y-208244500D01*
X230415000Y-208242500D01*
X230417000Y-208240500D01*
X230419000Y-208238500D01*
X230421000Y-208236500D01*
X230423000Y-208234500D01*
X230425000Y-208233500D01*
X230427000Y-208231500D01*
X230429000Y-208230500D01*
X230431000Y-208228500D01*
X230434000Y-208227500D01*
X230436000Y-208226500D01*
X230439000Y-208225500D01*
X230441000Y-208225500D01*
X230444000Y-208224500D01*
X230446000Y-208224500D01*
X230449000Y-208223500D01*
X230451000Y-208223500D01*
X230454000Y-208223500D01*
X230654000Y-208223500D01*
X230657000Y-208223500D01*
X230659000Y-208223500D01*
X230662000Y-208224500D01*
G36*
X230662000Y-208224500D02*
G01*
X230664000Y-208224500D01*
X230667000Y-208225500D01*
X230669000Y-208225500D01*
X230672000Y-208226500D01*
X230674000Y-208227500D01*
X230677000Y-208228500D01*
X230679000Y-208230500D01*
X230681000Y-208231500D01*
X230683000Y-208233500D01*
X230685000Y-208234500D01*
X230687000Y-208236500D01*
X230689000Y-208238500D01*
X230691000Y-208240500D01*
X230693000Y-208242500D01*
X230694000Y-208244500D01*
X230696000Y-208246500D01*
X230697000Y-208248500D01*
X230699000Y-208250500D01*
X230700000Y-208253500D01*
X230701000Y-208255500D01*
X230702000Y-208258500D01*
X230702000Y-208260500D01*
X230703000Y-208263500D01*
X230703000Y-208265500D01*
X230704000Y-208268500D01*
X230704000Y-208270500D01*
X230704000Y-208273500D01*
X230704000Y-208773500D01*
X230704000Y-208776500D01*
X230704000Y-208778500D01*
X230703000Y-208781500D01*
X230703000Y-208783500D01*
X230702000Y-208786500D01*
X230702000Y-208788500D01*
X230701000Y-208791500D01*
X230700000Y-208793500D01*
X230699000Y-208796500D01*
X230697000Y-208798500D01*
X230696000Y-208800500D01*
X230694000Y-208802500D01*
X230693000Y-208804500D01*
X230691000Y-208806500D01*
X230689000Y-208808500D01*
X230687000Y-208810500D01*
X230685000Y-208812500D01*
X230683000Y-208813500D01*
X230681000Y-208815500D01*
X230679000Y-208816500D01*
X230677000Y-208818500D01*
X230674000Y-208819500D01*
X230672000Y-208820500D01*
X230669000Y-208821500D01*
X230667000Y-208821500D01*
X230664000Y-208822500D01*
X230662000Y-208822500D01*
X230659000Y-208823500D01*
X230657000Y-208823500D01*
X230654000Y-208823500D01*
X230454000Y-208823500D01*
X230451000Y-208823500D01*
X230449000Y-208823500D01*
X230446000Y-208822500D01*
X230444000Y-208822500D01*
X230441000Y-208821500D01*
X230439000Y-208821500D01*
X230436000Y-208820500D01*
X230434000Y-208819500D01*
X230431000Y-208818500D01*
X230429000Y-208816500D01*
X230427000Y-208815500D01*
X230425000Y-208813500D01*
X230423000Y-208812500D01*
X230421000Y-208810500D01*
X230419000Y-208808500D01*
X230417000Y-208806500D01*
X230415000Y-208804500D01*
X230414000Y-208802500D01*
X230412000Y-208800500D01*
X230411000Y-208798500D01*
X230409000Y-208796500D01*
X230408000Y-208793500D01*
X230407000Y-208791500D01*
X230406000Y-208788500D01*
X230406000Y-208786500D01*
X230405000Y-208783500D01*
X230405000Y-208781500D01*
X230404000Y-208778500D01*
X230404000Y-208776500D01*
X230404000Y-208773500D01*
X230404000Y-208273500D01*
X230404000Y-208270500D01*
X230404000Y-208268500D01*
X230405000Y-208265500D01*
X230405000Y-208263500D01*
X230406000Y-208260500D01*
X230406000Y-208258500D01*
X230407000Y-208255500D01*
X230408000Y-208253500D01*
X230409000Y-208250500D01*
X230411000Y-208248500D01*
X230412000Y-208246500D01*
X230414000Y-208244500D01*
X230415000Y-208242500D01*
X230417000Y-208240500D01*
X230419000Y-208238500D01*
X230421000Y-208236500D01*
X230423000Y-208234500D01*
X230425000Y-208233500D01*
X230427000Y-208231500D01*
X230429000Y-208230500D01*
X230431000Y-208228500D01*
X230434000Y-208227500D01*
X230436000Y-208226500D01*
X230439000Y-208225500D01*
X230441000Y-208225500D01*
X230444000Y-208224500D01*
X230446000Y-208224500D01*
X230449000Y-208223500D01*
X230451000Y-208223500D01*
X230454000Y-208223500D01*
X230654000Y-208223500D01*
X230657000Y-208223500D01*
X230659000Y-208223500D01*
X230662000Y-208224500D01*
G37*
X231312000Y-205124500D02*
X231314000Y-205124500D01*
X231317000Y-205125500D01*
X231319000Y-205125500D01*
X231322000Y-205126500D01*
X231324000Y-205127500D01*
X231327000Y-205128500D01*
X231329000Y-205130500D01*
X231331000Y-205131500D01*
X231333000Y-205133500D01*
X231335000Y-205134500D01*
X231337000Y-205136500D01*
X231339000Y-205138500D01*
X231341000Y-205140500D01*
X231343000Y-205142500D01*
X231344000Y-205144500D01*
X231346000Y-205146500D01*
X231347000Y-205148500D01*
X231349000Y-205150500D01*
X231350000Y-205153500D01*
X231351000Y-205155500D01*
X231352000Y-205158500D01*
X231352000Y-205160500D01*
X231353000Y-205163500D01*
X231353000Y-205165500D01*
X231354000Y-205168500D01*
X231354000Y-205170500D01*
X231354000Y-205173500D01*
X231354000Y-205673500D01*
X231354000Y-205676500D01*
X231354000Y-205678500D01*
X231353000Y-205681500D01*
X231353000Y-205683500D01*
X231352000Y-205686500D01*
X231352000Y-205688500D01*
X231351000Y-205691500D01*
X231350000Y-205693500D01*
X231349000Y-205696500D01*
X231347000Y-205698500D01*
X231346000Y-205700500D01*
X231344000Y-205702500D01*
X231343000Y-205704500D01*
X231341000Y-205706500D01*
X231339000Y-205708500D01*
X231337000Y-205710500D01*
X231335000Y-205712500D01*
X231333000Y-205713500D01*
X231331000Y-205715500D01*
X231329000Y-205716500D01*
X231327000Y-205718500D01*
X231324000Y-205719500D01*
X231322000Y-205720500D01*
X231319000Y-205721500D01*
X231317000Y-205721500D01*
X231314000Y-205722500D01*
X231312000Y-205722500D01*
X231309000Y-205723500D01*
X231307000Y-205723500D01*
X231304000Y-205723500D01*
X231104000Y-205723500D01*
X231101000Y-205723500D01*
X231099000Y-205723500D01*
X231096000Y-205722500D01*
X231094000Y-205722500D01*
X231091000Y-205721500D01*
X231089000Y-205721500D01*
X231086000Y-205720500D01*
X231084000Y-205719500D01*
X231081000Y-205718500D01*
X231079000Y-205716500D01*
X231077000Y-205715500D01*
X231075000Y-205713500D01*
X231073000Y-205712500D01*
X231071000Y-205710500D01*
X231069000Y-205708500D01*
X231067000Y-205706500D01*
X231065000Y-205704500D01*
X231064000Y-205702500D01*
X231062000Y-205700500D01*
X231061000Y-205698500D01*
X231059000Y-205696500D01*
X231058000Y-205693500D01*
X231057000Y-205691500D01*
X231056000Y-205688500D01*
X231056000Y-205686500D01*
X231055000Y-205683500D01*
X231055000Y-205681500D01*
X231054000Y-205678500D01*
X231054000Y-205676500D01*
X231054000Y-205673500D01*
X231054000Y-205173500D01*
X231054000Y-205170500D01*
X231054000Y-205168500D01*
X231055000Y-205165500D01*
X231055000Y-205163500D01*
X231056000Y-205160500D01*
X231056000Y-205158500D01*
X231057000Y-205155500D01*
X231058000Y-205153500D01*
X231059000Y-205150500D01*
X231061000Y-205148500D01*
X231062000Y-205146500D01*
X231064000Y-205144500D01*
X231065000Y-205142500D01*
X231067000Y-205140500D01*
X231069000Y-205138500D01*
X231071000Y-205136500D01*
X231073000Y-205134500D01*
X231075000Y-205133500D01*
X231077000Y-205131500D01*
X231079000Y-205130500D01*
X231081000Y-205128500D01*
X231084000Y-205127500D01*
X231086000Y-205126500D01*
X231089000Y-205125500D01*
X231091000Y-205125500D01*
X231094000Y-205124500D01*
X231096000Y-205124500D01*
X231099000Y-205123500D01*
X231101000Y-205123500D01*
X231104000Y-205123500D01*
X231304000Y-205123500D01*
X231307000Y-205123500D01*
X231309000Y-205123500D01*
X231312000Y-205124500D01*
G36*
X231312000Y-205124500D02*
G01*
X231314000Y-205124500D01*
X231317000Y-205125500D01*
X231319000Y-205125500D01*
X231322000Y-205126500D01*
X231324000Y-205127500D01*
X231327000Y-205128500D01*
X231329000Y-205130500D01*
X231331000Y-205131500D01*
X231333000Y-205133500D01*
X231335000Y-205134500D01*
X231337000Y-205136500D01*
X231339000Y-205138500D01*
X231341000Y-205140500D01*
X231343000Y-205142500D01*
X231344000Y-205144500D01*
X231346000Y-205146500D01*
X231347000Y-205148500D01*
X231349000Y-205150500D01*
X231350000Y-205153500D01*
X231351000Y-205155500D01*
X231352000Y-205158500D01*
X231352000Y-205160500D01*
X231353000Y-205163500D01*
X231353000Y-205165500D01*
X231354000Y-205168500D01*
X231354000Y-205170500D01*
X231354000Y-205173500D01*
X231354000Y-205673500D01*
X231354000Y-205676500D01*
X231354000Y-205678500D01*
X231353000Y-205681500D01*
X231353000Y-205683500D01*
X231352000Y-205686500D01*
X231352000Y-205688500D01*
X231351000Y-205691500D01*
X231350000Y-205693500D01*
X231349000Y-205696500D01*
X231347000Y-205698500D01*
X231346000Y-205700500D01*
X231344000Y-205702500D01*
X231343000Y-205704500D01*
X231341000Y-205706500D01*
X231339000Y-205708500D01*
X231337000Y-205710500D01*
X231335000Y-205712500D01*
X231333000Y-205713500D01*
X231331000Y-205715500D01*
X231329000Y-205716500D01*
X231327000Y-205718500D01*
X231324000Y-205719500D01*
X231322000Y-205720500D01*
X231319000Y-205721500D01*
X231317000Y-205721500D01*
X231314000Y-205722500D01*
X231312000Y-205722500D01*
X231309000Y-205723500D01*
X231307000Y-205723500D01*
X231304000Y-205723500D01*
X231104000Y-205723500D01*
X231101000Y-205723500D01*
X231099000Y-205723500D01*
X231096000Y-205722500D01*
X231094000Y-205722500D01*
X231091000Y-205721500D01*
X231089000Y-205721500D01*
X231086000Y-205720500D01*
X231084000Y-205719500D01*
X231081000Y-205718500D01*
X231079000Y-205716500D01*
X231077000Y-205715500D01*
X231075000Y-205713500D01*
X231073000Y-205712500D01*
X231071000Y-205710500D01*
X231069000Y-205708500D01*
X231067000Y-205706500D01*
X231065000Y-205704500D01*
X231064000Y-205702500D01*
X231062000Y-205700500D01*
X231061000Y-205698500D01*
X231059000Y-205696500D01*
X231058000Y-205693500D01*
X231057000Y-205691500D01*
X231056000Y-205688500D01*
X231056000Y-205686500D01*
X231055000Y-205683500D01*
X231055000Y-205681500D01*
X231054000Y-205678500D01*
X231054000Y-205676500D01*
X231054000Y-205673500D01*
X231054000Y-205173500D01*
X231054000Y-205170500D01*
X231054000Y-205168500D01*
X231055000Y-205165500D01*
X231055000Y-205163500D01*
X231056000Y-205160500D01*
X231056000Y-205158500D01*
X231057000Y-205155500D01*
X231058000Y-205153500D01*
X231059000Y-205150500D01*
X231061000Y-205148500D01*
X231062000Y-205146500D01*
X231064000Y-205144500D01*
X231065000Y-205142500D01*
X231067000Y-205140500D01*
X231069000Y-205138500D01*
X231071000Y-205136500D01*
X231073000Y-205134500D01*
X231075000Y-205133500D01*
X231077000Y-205131500D01*
X231079000Y-205130500D01*
X231081000Y-205128500D01*
X231084000Y-205127500D01*
X231086000Y-205126500D01*
X231089000Y-205125500D01*
X231091000Y-205125500D01*
X231094000Y-205124500D01*
X231096000Y-205124500D01*
X231099000Y-205123500D01*
X231101000Y-205123500D01*
X231104000Y-205123500D01*
X231304000Y-205123500D01*
X231307000Y-205123500D01*
X231309000Y-205123500D01*
X231312000Y-205124500D01*
G37*
X231312000Y-208224500D02*
X231314000Y-208224500D01*
X231317000Y-208225500D01*
X231319000Y-208225500D01*
X231322000Y-208226500D01*
X231324000Y-208227500D01*
X231327000Y-208228500D01*
X231329000Y-208230500D01*
X231331000Y-208231500D01*
X231333000Y-208233500D01*
X231335000Y-208234500D01*
X231337000Y-208236500D01*
X231339000Y-208238500D01*
X231341000Y-208240500D01*
X231343000Y-208242500D01*
X231344000Y-208244500D01*
X231346000Y-208246500D01*
X231347000Y-208248500D01*
X231349000Y-208250500D01*
X231350000Y-208253500D01*
X231351000Y-208255500D01*
X231352000Y-208258500D01*
X231352000Y-208260500D01*
X231353000Y-208263500D01*
X231353000Y-208265500D01*
X231354000Y-208268500D01*
X231354000Y-208270500D01*
X231354000Y-208273500D01*
X231354000Y-208773500D01*
X231354000Y-208776500D01*
X231354000Y-208778500D01*
X231353000Y-208781500D01*
X231353000Y-208783500D01*
X231352000Y-208786500D01*
X231352000Y-208788500D01*
X231351000Y-208791500D01*
X231350000Y-208793500D01*
X231349000Y-208796500D01*
X231347000Y-208798500D01*
X231346000Y-208800500D01*
X231344000Y-208802500D01*
X231343000Y-208804500D01*
X231341000Y-208806500D01*
X231339000Y-208808500D01*
X231337000Y-208810500D01*
X231335000Y-208812500D01*
X231333000Y-208813500D01*
X231331000Y-208815500D01*
X231329000Y-208816500D01*
X231327000Y-208818500D01*
X231324000Y-208819500D01*
X231322000Y-208820500D01*
X231319000Y-208821500D01*
X231317000Y-208821500D01*
X231314000Y-208822500D01*
X231312000Y-208822500D01*
X231309000Y-208823500D01*
X231307000Y-208823500D01*
X231304000Y-208823500D01*
X231104000Y-208823500D01*
X231101000Y-208823500D01*
X231099000Y-208823500D01*
X231096000Y-208822500D01*
X231094000Y-208822500D01*
X231091000Y-208821500D01*
X231089000Y-208821500D01*
X231086000Y-208820500D01*
X231084000Y-208819500D01*
X231081000Y-208818500D01*
X231079000Y-208816500D01*
X231077000Y-208815500D01*
X231075000Y-208813500D01*
X231073000Y-208812500D01*
X231071000Y-208810500D01*
X231069000Y-208808500D01*
X231067000Y-208806500D01*
X231065000Y-208804500D01*
X231064000Y-208802500D01*
X231062000Y-208800500D01*
X231061000Y-208798500D01*
X231059000Y-208796500D01*
X231058000Y-208793500D01*
X231057000Y-208791500D01*
X231056000Y-208788500D01*
X231056000Y-208786500D01*
X231055000Y-208783500D01*
X231055000Y-208781500D01*
X231054000Y-208778500D01*
X231054000Y-208776500D01*
X231054000Y-208773500D01*
X231054000Y-208273500D01*
X231054000Y-208270500D01*
X231054000Y-208268500D01*
X231055000Y-208265500D01*
X231055000Y-208263500D01*
X231056000Y-208260500D01*
X231056000Y-208258500D01*
X231057000Y-208255500D01*
X231058000Y-208253500D01*
X231059000Y-208250500D01*
X231061000Y-208248500D01*
X231062000Y-208246500D01*
X231064000Y-208244500D01*
X231065000Y-208242500D01*
X231067000Y-208240500D01*
X231069000Y-208238500D01*
X231071000Y-208236500D01*
X231073000Y-208234500D01*
X231075000Y-208233500D01*
X231077000Y-208231500D01*
X231079000Y-208230500D01*
X231081000Y-208228500D01*
X231084000Y-208227500D01*
X231086000Y-208226500D01*
X231089000Y-208225500D01*
X231091000Y-208225500D01*
X231094000Y-208224500D01*
X231096000Y-208224500D01*
X231099000Y-208223500D01*
X231101000Y-208223500D01*
X231104000Y-208223500D01*
X231304000Y-208223500D01*
X231307000Y-208223500D01*
X231309000Y-208223500D01*
X231312000Y-208224500D01*
G36*
X231312000Y-208224500D02*
G01*
X231314000Y-208224500D01*
X231317000Y-208225500D01*
X231319000Y-208225500D01*
X231322000Y-208226500D01*
X231324000Y-208227500D01*
X231327000Y-208228500D01*
X231329000Y-208230500D01*
X231331000Y-208231500D01*
X231333000Y-208233500D01*
X231335000Y-208234500D01*
X231337000Y-208236500D01*
X231339000Y-208238500D01*
X231341000Y-208240500D01*
X231343000Y-208242500D01*
X231344000Y-208244500D01*
X231346000Y-208246500D01*
X231347000Y-208248500D01*
X231349000Y-208250500D01*
X231350000Y-208253500D01*
X231351000Y-208255500D01*
X231352000Y-208258500D01*
X231352000Y-208260500D01*
X231353000Y-208263500D01*
X231353000Y-208265500D01*
X231354000Y-208268500D01*
X231354000Y-208270500D01*
X231354000Y-208273500D01*
X231354000Y-208773500D01*
X231354000Y-208776500D01*
X231354000Y-208778500D01*
X231353000Y-208781500D01*
X231353000Y-208783500D01*
X231352000Y-208786500D01*
X231352000Y-208788500D01*
X231351000Y-208791500D01*
X231350000Y-208793500D01*
X231349000Y-208796500D01*
X231347000Y-208798500D01*
X231346000Y-208800500D01*
X231344000Y-208802500D01*
X231343000Y-208804500D01*
X231341000Y-208806500D01*
X231339000Y-208808500D01*
X231337000Y-208810500D01*
X231335000Y-208812500D01*
X231333000Y-208813500D01*
X231331000Y-208815500D01*
X231329000Y-208816500D01*
X231327000Y-208818500D01*
X231324000Y-208819500D01*
X231322000Y-208820500D01*
X231319000Y-208821500D01*
X231317000Y-208821500D01*
X231314000Y-208822500D01*
X231312000Y-208822500D01*
X231309000Y-208823500D01*
X231307000Y-208823500D01*
X231304000Y-208823500D01*
X231104000Y-208823500D01*
X231101000Y-208823500D01*
X231099000Y-208823500D01*
X231096000Y-208822500D01*
X231094000Y-208822500D01*
X231091000Y-208821500D01*
X231089000Y-208821500D01*
X231086000Y-208820500D01*
X231084000Y-208819500D01*
X231081000Y-208818500D01*
X231079000Y-208816500D01*
X231077000Y-208815500D01*
X231075000Y-208813500D01*
X231073000Y-208812500D01*
X231071000Y-208810500D01*
X231069000Y-208808500D01*
X231067000Y-208806500D01*
X231065000Y-208804500D01*
X231064000Y-208802500D01*
X231062000Y-208800500D01*
X231061000Y-208798500D01*
X231059000Y-208796500D01*
X231058000Y-208793500D01*
X231057000Y-208791500D01*
X231056000Y-208788500D01*
X231056000Y-208786500D01*
X231055000Y-208783500D01*
X231055000Y-208781500D01*
X231054000Y-208778500D01*
X231054000Y-208776500D01*
X231054000Y-208773500D01*
X231054000Y-208273500D01*
X231054000Y-208270500D01*
X231054000Y-208268500D01*
X231055000Y-208265500D01*
X231055000Y-208263500D01*
X231056000Y-208260500D01*
X231056000Y-208258500D01*
X231057000Y-208255500D01*
X231058000Y-208253500D01*
X231059000Y-208250500D01*
X231061000Y-208248500D01*
X231062000Y-208246500D01*
X231064000Y-208244500D01*
X231065000Y-208242500D01*
X231067000Y-208240500D01*
X231069000Y-208238500D01*
X231071000Y-208236500D01*
X231073000Y-208234500D01*
X231075000Y-208233500D01*
X231077000Y-208231500D01*
X231079000Y-208230500D01*
X231081000Y-208228500D01*
X231084000Y-208227500D01*
X231086000Y-208226500D01*
X231089000Y-208225500D01*
X231091000Y-208225500D01*
X231094000Y-208224500D01*
X231096000Y-208224500D01*
X231099000Y-208223500D01*
X231101000Y-208223500D01*
X231104000Y-208223500D01*
X231304000Y-208223500D01*
X231307000Y-208223500D01*
X231309000Y-208223500D01*
X231312000Y-208224500D01*
G37*
X231962000Y-205124500D02*
X231964000Y-205124500D01*
X231967000Y-205125500D01*
X231969000Y-205125500D01*
X231972000Y-205126500D01*
X231974000Y-205127500D01*
X231977000Y-205128500D01*
X231979000Y-205130500D01*
X231981000Y-205131500D01*
X231983000Y-205133500D01*
X231985000Y-205134500D01*
X231987000Y-205136500D01*
X231989000Y-205138500D01*
X231991000Y-205140500D01*
X231993000Y-205142500D01*
X231994000Y-205144500D01*
X231996000Y-205146500D01*
X231997000Y-205148500D01*
X231999000Y-205150500D01*
X232000000Y-205153500D01*
X232001000Y-205155500D01*
X232002000Y-205158500D01*
X232002000Y-205160500D01*
X232003000Y-205163500D01*
X232003000Y-205165500D01*
X232004000Y-205168500D01*
X232004000Y-205170500D01*
X232004000Y-205173500D01*
X232004000Y-205673500D01*
X232004000Y-205676500D01*
X232004000Y-205678500D01*
X232003000Y-205681500D01*
X232003000Y-205683500D01*
X232002000Y-205686500D01*
X232002000Y-205688500D01*
X232001000Y-205691500D01*
X232000000Y-205693500D01*
X231999000Y-205696500D01*
X231997000Y-205698500D01*
X231996000Y-205700500D01*
X231994000Y-205702500D01*
X231993000Y-205704500D01*
X231991000Y-205706500D01*
X231989000Y-205708500D01*
X231987000Y-205710500D01*
X231985000Y-205712500D01*
X231983000Y-205713500D01*
X231981000Y-205715500D01*
X231979000Y-205716500D01*
X231977000Y-205718500D01*
X231974000Y-205719500D01*
X231972000Y-205720500D01*
X231969000Y-205721500D01*
X231967000Y-205721500D01*
X231964000Y-205722500D01*
X231962000Y-205722500D01*
X231959000Y-205723500D01*
X231957000Y-205723500D01*
X231954000Y-205723500D01*
X231754000Y-205723500D01*
X231751000Y-205723500D01*
X231749000Y-205723500D01*
X231746000Y-205722500D01*
X231744000Y-205722500D01*
X231741000Y-205721500D01*
X231739000Y-205721500D01*
X231736000Y-205720500D01*
X231734000Y-205719500D01*
X231731000Y-205718500D01*
X231729000Y-205716500D01*
X231727000Y-205715500D01*
X231725000Y-205713500D01*
X231723000Y-205712500D01*
X231721000Y-205710500D01*
X231719000Y-205708500D01*
X231717000Y-205706500D01*
X231715000Y-205704500D01*
X231714000Y-205702500D01*
X231712000Y-205700500D01*
X231711000Y-205698500D01*
X231709000Y-205696500D01*
X231708000Y-205693500D01*
X231707000Y-205691500D01*
X231706000Y-205688500D01*
X231706000Y-205686500D01*
X231705000Y-205683500D01*
X231705000Y-205681500D01*
X231704000Y-205678500D01*
X231704000Y-205676500D01*
X231704000Y-205673500D01*
X231704000Y-205173500D01*
X231704000Y-205170500D01*
X231704000Y-205168500D01*
X231705000Y-205165500D01*
X231705000Y-205163500D01*
X231706000Y-205160500D01*
X231706000Y-205158500D01*
X231707000Y-205155500D01*
X231708000Y-205153500D01*
X231709000Y-205150500D01*
X231711000Y-205148500D01*
X231712000Y-205146500D01*
X231714000Y-205144500D01*
X231715000Y-205142500D01*
X231717000Y-205140500D01*
X231719000Y-205138500D01*
X231721000Y-205136500D01*
X231723000Y-205134500D01*
X231725000Y-205133500D01*
X231727000Y-205131500D01*
X231729000Y-205130500D01*
X231731000Y-205128500D01*
X231734000Y-205127500D01*
X231736000Y-205126500D01*
X231739000Y-205125500D01*
X231741000Y-205125500D01*
X231744000Y-205124500D01*
X231746000Y-205124500D01*
X231749000Y-205123500D01*
X231751000Y-205123500D01*
X231754000Y-205123500D01*
X231954000Y-205123500D01*
X231957000Y-205123500D01*
X231959000Y-205123500D01*
X231962000Y-205124500D01*
G36*
X231962000Y-205124500D02*
G01*
X231964000Y-205124500D01*
X231967000Y-205125500D01*
X231969000Y-205125500D01*
X231972000Y-205126500D01*
X231974000Y-205127500D01*
X231977000Y-205128500D01*
X231979000Y-205130500D01*
X231981000Y-205131500D01*
X231983000Y-205133500D01*
X231985000Y-205134500D01*
X231987000Y-205136500D01*
X231989000Y-205138500D01*
X231991000Y-205140500D01*
X231993000Y-205142500D01*
X231994000Y-205144500D01*
X231996000Y-205146500D01*
X231997000Y-205148500D01*
X231999000Y-205150500D01*
X232000000Y-205153500D01*
X232001000Y-205155500D01*
X232002000Y-205158500D01*
X232002000Y-205160500D01*
X232003000Y-205163500D01*
X232003000Y-205165500D01*
X232004000Y-205168500D01*
X232004000Y-205170500D01*
X232004000Y-205173500D01*
X232004000Y-205673500D01*
X232004000Y-205676500D01*
X232004000Y-205678500D01*
X232003000Y-205681500D01*
X232003000Y-205683500D01*
X232002000Y-205686500D01*
X232002000Y-205688500D01*
X232001000Y-205691500D01*
X232000000Y-205693500D01*
X231999000Y-205696500D01*
X231997000Y-205698500D01*
X231996000Y-205700500D01*
X231994000Y-205702500D01*
X231993000Y-205704500D01*
X231991000Y-205706500D01*
X231989000Y-205708500D01*
X231987000Y-205710500D01*
X231985000Y-205712500D01*
X231983000Y-205713500D01*
X231981000Y-205715500D01*
X231979000Y-205716500D01*
X231977000Y-205718500D01*
X231974000Y-205719500D01*
X231972000Y-205720500D01*
X231969000Y-205721500D01*
X231967000Y-205721500D01*
X231964000Y-205722500D01*
X231962000Y-205722500D01*
X231959000Y-205723500D01*
X231957000Y-205723500D01*
X231954000Y-205723500D01*
X231754000Y-205723500D01*
X231751000Y-205723500D01*
X231749000Y-205723500D01*
X231746000Y-205722500D01*
X231744000Y-205722500D01*
X231741000Y-205721500D01*
X231739000Y-205721500D01*
X231736000Y-205720500D01*
X231734000Y-205719500D01*
X231731000Y-205718500D01*
X231729000Y-205716500D01*
X231727000Y-205715500D01*
X231725000Y-205713500D01*
X231723000Y-205712500D01*
X231721000Y-205710500D01*
X231719000Y-205708500D01*
X231717000Y-205706500D01*
X231715000Y-205704500D01*
X231714000Y-205702500D01*
X231712000Y-205700500D01*
X231711000Y-205698500D01*
X231709000Y-205696500D01*
X231708000Y-205693500D01*
X231707000Y-205691500D01*
X231706000Y-205688500D01*
X231706000Y-205686500D01*
X231705000Y-205683500D01*
X231705000Y-205681500D01*
X231704000Y-205678500D01*
X231704000Y-205676500D01*
X231704000Y-205673500D01*
X231704000Y-205173500D01*
X231704000Y-205170500D01*
X231704000Y-205168500D01*
X231705000Y-205165500D01*
X231705000Y-205163500D01*
X231706000Y-205160500D01*
X231706000Y-205158500D01*
X231707000Y-205155500D01*
X231708000Y-205153500D01*
X231709000Y-205150500D01*
X231711000Y-205148500D01*
X231712000Y-205146500D01*
X231714000Y-205144500D01*
X231715000Y-205142500D01*
X231717000Y-205140500D01*
X231719000Y-205138500D01*
X231721000Y-205136500D01*
X231723000Y-205134500D01*
X231725000Y-205133500D01*
X231727000Y-205131500D01*
X231729000Y-205130500D01*
X231731000Y-205128500D01*
X231734000Y-205127500D01*
X231736000Y-205126500D01*
X231739000Y-205125500D01*
X231741000Y-205125500D01*
X231744000Y-205124500D01*
X231746000Y-205124500D01*
X231749000Y-205123500D01*
X231751000Y-205123500D01*
X231754000Y-205123500D01*
X231954000Y-205123500D01*
X231957000Y-205123500D01*
X231959000Y-205123500D01*
X231962000Y-205124500D01*
G37*
X231962000Y-208224500D02*
X231964000Y-208224500D01*
X231967000Y-208225500D01*
X231969000Y-208225500D01*
X231972000Y-208226500D01*
X231974000Y-208227500D01*
X231977000Y-208228500D01*
X231979000Y-208230500D01*
X231981000Y-208231500D01*
X231983000Y-208233500D01*
X231985000Y-208234500D01*
X231987000Y-208236500D01*
X231989000Y-208238500D01*
X231991000Y-208240500D01*
X231993000Y-208242500D01*
X231994000Y-208244500D01*
X231996000Y-208246500D01*
X231997000Y-208248500D01*
X231999000Y-208250500D01*
X232000000Y-208253500D01*
X232001000Y-208255500D01*
X232002000Y-208258500D01*
X232002000Y-208260500D01*
X232003000Y-208263500D01*
X232003000Y-208265500D01*
X232004000Y-208268500D01*
X232004000Y-208270500D01*
X232004000Y-208273500D01*
X232004000Y-208773500D01*
X232004000Y-208776500D01*
X232004000Y-208778500D01*
X232003000Y-208781500D01*
X232003000Y-208783500D01*
X232002000Y-208786500D01*
X232002000Y-208788500D01*
X232001000Y-208791500D01*
X232000000Y-208793500D01*
X231999000Y-208796500D01*
X231997000Y-208798500D01*
X231996000Y-208800500D01*
X231994000Y-208802500D01*
X231993000Y-208804500D01*
X231991000Y-208806500D01*
X231989000Y-208808500D01*
X231987000Y-208810500D01*
X231985000Y-208812500D01*
X231983000Y-208813500D01*
X231981000Y-208815500D01*
X231979000Y-208816500D01*
X231977000Y-208818500D01*
X231974000Y-208819500D01*
X231972000Y-208820500D01*
X231969000Y-208821500D01*
X231967000Y-208821500D01*
X231964000Y-208822500D01*
X231962000Y-208822500D01*
X231959000Y-208823500D01*
X231957000Y-208823500D01*
X231954000Y-208823500D01*
X231754000Y-208823500D01*
X231751000Y-208823500D01*
X231749000Y-208823500D01*
X231746000Y-208822500D01*
X231744000Y-208822500D01*
X231741000Y-208821500D01*
X231739000Y-208821500D01*
X231736000Y-208820500D01*
X231734000Y-208819500D01*
X231731000Y-208818500D01*
X231729000Y-208816500D01*
X231727000Y-208815500D01*
X231725000Y-208813500D01*
X231723000Y-208812500D01*
X231721000Y-208810500D01*
X231719000Y-208808500D01*
X231717000Y-208806500D01*
X231715000Y-208804500D01*
X231714000Y-208802500D01*
X231712000Y-208800500D01*
X231711000Y-208798500D01*
X231709000Y-208796500D01*
X231708000Y-208793500D01*
X231707000Y-208791500D01*
X231706000Y-208788500D01*
X231706000Y-208786500D01*
X231705000Y-208783500D01*
X231705000Y-208781500D01*
X231704000Y-208778500D01*
X231704000Y-208776500D01*
X231704000Y-208773500D01*
X231704000Y-208273500D01*
X231704000Y-208270500D01*
X231704000Y-208268500D01*
X231705000Y-208265500D01*
X231705000Y-208263500D01*
X231706000Y-208260500D01*
X231706000Y-208258500D01*
X231707000Y-208255500D01*
X231708000Y-208253500D01*
X231709000Y-208250500D01*
X231711000Y-208248500D01*
X231712000Y-208246500D01*
X231714000Y-208244500D01*
X231715000Y-208242500D01*
X231717000Y-208240500D01*
X231719000Y-208238500D01*
X231721000Y-208236500D01*
X231723000Y-208234500D01*
X231725000Y-208233500D01*
X231727000Y-208231500D01*
X231729000Y-208230500D01*
X231731000Y-208228500D01*
X231734000Y-208227500D01*
X231736000Y-208226500D01*
X231739000Y-208225500D01*
X231741000Y-208225500D01*
X231744000Y-208224500D01*
X231746000Y-208224500D01*
X231749000Y-208223500D01*
X231751000Y-208223500D01*
X231754000Y-208223500D01*
X231954000Y-208223500D01*
X231957000Y-208223500D01*
X231959000Y-208223500D01*
X231962000Y-208224500D01*
G36*
X231962000Y-208224500D02*
G01*
X231964000Y-208224500D01*
X231967000Y-208225500D01*
X231969000Y-208225500D01*
X231972000Y-208226500D01*
X231974000Y-208227500D01*
X231977000Y-208228500D01*
X231979000Y-208230500D01*
X231981000Y-208231500D01*
X231983000Y-208233500D01*
X231985000Y-208234500D01*
X231987000Y-208236500D01*
X231989000Y-208238500D01*
X231991000Y-208240500D01*
X231993000Y-208242500D01*
X231994000Y-208244500D01*
X231996000Y-208246500D01*
X231997000Y-208248500D01*
X231999000Y-208250500D01*
X232000000Y-208253500D01*
X232001000Y-208255500D01*
X232002000Y-208258500D01*
X232002000Y-208260500D01*
X232003000Y-208263500D01*
X232003000Y-208265500D01*
X232004000Y-208268500D01*
X232004000Y-208270500D01*
X232004000Y-208273500D01*
X232004000Y-208773500D01*
X232004000Y-208776500D01*
X232004000Y-208778500D01*
X232003000Y-208781500D01*
X232003000Y-208783500D01*
X232002000Y-208786500D01*
X232002000Y-208788500D01*
X232001000Y-208791500D01*
X232000000Y-208793500D01*
X231999000Y-208796500D01*
X231997000Y-208798500D01*
X231996000Y-208800500D01*
X231994000Y-208802500D01*
X231993000Y-208804500D01*
X231991000Y-208806500D01*
X231989000Y-208808500D01*
X231987000Y-208810500D01*
X231985000Y-208812500D01*
X231983000Y-208813500D01*
X231981000Y-208815500D01*
X231979000Y-208816500D01*
X231977000Y-208818500D01*
X231974000Y-208819500D01*
X231972000Y-208820500D01*
X231969000Y-208821500D01*
X231967000Y-208821500D01*
X231964000Y-208822500D01*
X231962000Y-208822500D01*
X231959000Y-208823500D01*
X231957000Y-208823500D01*
X231954000Y-208823500D01*
X231754000Y-208823500D01*
X231751000Y-208823500D01*
X231749000Y-208823500D01*
X231746000Y-208822500D01*
X231744000Y-208822500D01*
X231741000Y-208821500D01*
X231739000Y-208821500D01*
X231736000Y-208820500D01*
X231734000Y-208819500D01*
X231731000Y-208818500D01*
X231729000Y-208816500D01*
X231727000Y-208815500D01*
X231725000Y-208813500D01*
X231723000Y-208812500D01*
X231721000Y-208810500D01*
X231719000Y-208808500D01*
X231717000Y-208806500D01*
X231715000Y-208804500D01*
X231714000Y-208802500D01*
X231712000Y-208800500D01*
X231711000Y-208798500D01*
X231709000Y-208796500D01*
X231708000Y-208793500D01*
X231707000Y-208791500D01*
X231706000Y-208788500D01*
X231706000Y-208786500D01*
X231705000Y-208783500D01*
X231705000Y-208781500D01*
X231704000Y-208778500D01*
X231704000Y-208776500D01*
X231704000Y-208773500D01*
X231704000Y-208273500D01*
X231704000Y-208270500D01*
X231704000Y-208268500D01*
X231705000Y-208265500D01*
X231705000Y-208263500D01*
X231706000Y-208260500D01*
X231706000Y-208258500D01*
X231707000Y-208255500D01*
X231708000Y-208253500D01*
X231709000Y-208250500D01*
X231711000Y-208248500D01*
X231712000Y-208246500D01*
X231714000Y-208244500D01*
X231715000Y-208242500D01*
X231717000Y-208240500D01*
X231719000Y-208238500D01*
X231721000Y-208236500D01*
X231723000Y-208234500D01*
X231725000Y-208233500D01*
X231727000Y-208231500D01*
X231729000Y-208230500D01*
X231731000Y-208228500D01*
X231734000Y-208227500D01*
X231736000Y-208226500D01*
X231739000Y-208225500D01*
X231741000Y-208225500D01*
X231744000Y-208224500D01*
X231746000Y-208224500D01*
X231749000Y-208223500D01*
X231751000Y-208223500D01*
X231754000Y-208223500D01*
X231954000Y-208223500D01*
X231957000Y-208223500D01*
X231959000Y-208223500D01*
X231962000Y-208224500D01*
G37*
X230739000Y-206414500D02*
X230742000Y-206414500D01*
X230744000Y-206415500D01*
X230747000Y-206416500D01*
X230749000Y-206417500D01*
X230752000Y-206418500D01*
X230754000Y-206419500D01*
X230756000Y-206421500D01*
X230758000Y-206422500D01*
X230760000Y-206424500D01*
X230762000Y-206425500D01*
X230764000Y-206427500D01*
X230766000Y-206429500D01*
X230768000Y-206431500D01*
X230769000Y-206433500D01*
X230771000Y-206435500D01*
X230772000Y-206438500D01*
X230774000Y-206440500D01*
X230775000Y-206442500D01*
X230776000Y-206445500D01*
X230777000Y-206447500D01*
X230777000Y-206450500D01*
X230778000Y-206452500D01*
X230778000Y-206455500D01*
X230779000Y-206457500D01*
X230779000Y-206460500D01*
X230779000Y-206463500D01*
X230779000Y-207068500D01*
X230779000Y-207070500D01*
X230779000Y-207073500D01*
X230778000Y-207075500D01*
X230778000Y-207078500D01*
X230777000Y-207080500D01*
X230777000Y-207083500D01*
X230776000Y-207085500D01*
X230775000Y-207088500D01*
X230774000Y-207090500D01*
X230772000Y-207093500D01*
X230771000Y-207095500D01*
X230769000Y-207097500D01*
X230768000Y-207099500D01*
X230766000Y-207101500D01*
X230764000Y-207103500D01*
X230762000Y-207105500D01*
X230760000Y-207106500D01*
X230758000Y-207108500D01*
X230756000Y-207109500D01*
X230754000Y-207111500D01*
X230752000Y-207112500D01*
X230749000Y-207113500D01*
X230747000Y-207114500D01*
X230744000Y-207115500D01*
X230742000Y-207116500D01*
X230739000Y-207116500D01*
X230737000Y-207117500D01*
X230734000Y-207117500D01*
X230732000Y-207117500D01*
X230729000Y-207117500D01*
X229704000Y-207117500D01*
X229701000Y-207117500D01*
X229699000Y-207117500D01*
X229696000Y-207117500D01*
X229694000Y-207116500D01*
X229691000Y-207116500D01*
X229689000Y-207115500D01*
X229686000Y-207114500D01*
X229684000Y-207113500D01*
X229681000Y-207112500D01*
X229679000Y-207111500D01*
X229677000Y-207109500D01*
X229675000Y-207108500D01*
X229673000Y-207106500D01*
X229671000Y-207105500D01*
X229669000Y-207103500D01*
X229667000Y-207101500D01*
X229665000Y-207099500D01*
X229664000Y-207097500D01*
X229662000Y-207095500D01*
X229661000Y-207092500D01*
X229659000Y-207090500D01*
X229658000Y-207088500D01*
X229657000Y-207085500D01*
X229656000Y-207083500D01*
X229656000Y-207080500D01*
X229655000Y-207078500D01*
X229655000Y-207075500D01*
X229654000Y-207073500D01*
X229654000Y-207070500D01*
X229654000Y-207068500D01*
X229654000Y-207068000D01*
X229654000Y-206463500D01*
X229654000Y-206460500D01*
X229654000Y-206457500D01*
X229655000Y-206455500D01*
X229655000Y-206452500D01*
X229656000Y-206450500D01*
X229656000Y-206447500D01*
X229657000Y-206445500D01*
X229658000Y-206442500D01*
X229659000Y-206440500D01*
X229661000Y-206438500D01*
X229662000Y-206435500D01*
X229664000Y-206433500D01*
X229665000Y-206431500D01*
X229667000Y-206429500D01*
X229669000Y-206427500D01*
X229671000Y-206425500D01*
X229673000Y-206424500D01*
X229675000Y-206422500D01*
X229677000Y-206421500D01*
X229679000Y-206419500D01*
X229681000Y-206418500D01*
X229684000Y-206417500D01*
X229686000Y-206416500D01*
X229689000Y-206415500D01*
X229691000Y-206414500D01*
X229694000Y-206414500D01*
X229696000Y-206413500D01*
X229699000Y-206413500D01*
X229701000Y-206413500D01*
X229704000Y-206413500D01*
X230729000Y-206413500D01*
X230732000Y-206413500D01*
X230734000Y-206413500D01*
X230737000Y-206413500D01*
X230739000Y-206414500D01*
G36*
X230739000Y-206414500D02*
G01*
X230742000Y-206414500D01*
X230744000Y-206415500D01*
X230747000Y-206416500D01*
X230749000Y-206417500D01*
X230752000Y-206418500D01*
X230754000Y-206419500D01*
X230756000Y-206421500D01*
X230758000Y-206422500D01*
X230760000Y-206424500D01*
X230762000Y-206425500D01*
X230764000Y-206427500D01*
X230766000Y-206429500D01*
X230768000Y-206431500D01*
X230769000Y-206433500D01*
X230771000Y-206435500D01*
X230772000Y-206438500D01*
X230774000Y-206440500D01*
X230775000Y-206442500D01*
X230776000Y-206445500D01*
X230777000Y-206447500D01*
X230777000Y-206450500D01*
X230778000Y-206452500D01*
X230778000Y-206455500D01*
X230779000Y-206457500D01*
X230779000Y-206460500D01*
X230779000Y-206463500D01*
X230779000Y-207068500D01*
X230779000Y-207070500D01*
X230779000Y-207073500D01*
X230778000Y-207075500D01*
X230778000Y-207078500D01*
X230777000Y-207080500D01*
X230777000Y-207083500D01*
X230776000Y-207085500D01*
X230775000Y-207088500D01*
X230774000Y-207090500D01*
X230772000Y-207093500D01*
X230771000Y-207095500D01*
X230769000Y-207097500D01*
X230768000Y-207099500D01*
X230766000Y-207101500D01*
X230764000Y-207103500D01*
X230762000Y-207105500D01*
X230760000Y-207106500D01*
X230758000Y-207108500D01*
X230756000Y-207109500D01*
X230754000Y-207111500D01*
X230752000Y-207112500D01*
X230749000Y-207113500D01*
X230747000Y-207114500D01*
X230744000Y-207115500D01*
X230742000Y-207116500D01*
X230739000Y-207116500D01*
X230737000Y-207117500D01*
X230734000Y-207117500D01*
X230732000Y-207117500D01*
X230729000Y-207117500D01*
X229704000Y-207117500D01*
X229701000Y-207117500D01*
X229699000Y-207117500D01*
X229696000Y-207117500D01*
X229694000Y-207116500D01*
X229691000Y-207116500D01*
X229689000Y-207115500D01*
X229686000Y-207114500D01*
X229684000Y-207113500D01*
X229681000Y-207112500D01*
X229679000Y-207111500D01*
X229677000Y-207109500D01*
X229675000Y-207108500D01*
X229673000Y-207106500D01*
X229671000Y-207105500D01*
X229669000Y-207103500D01*
X229667000Y-207101500D01*
X229665000Y-207099500D01*
X229664000Y-207097500D01*
X229662000Y-207095500D01*
X229661000Y-207092500D01*
X229659000Y-207090500D01*
X229658000Y-207088500D01*
X229657000Y-207085500D01*
X229656000Y-207083500D01*
X229656000Y-207080500D01*
X229655000Y-207078500D01*
X229655000Y-207075500D01*
X229654000Y-207073500D01*
X229654000Y-207070500D01*
X229654000Y-207068500D01*
X229654000Y-207068000D01*
X229654000Y-206463500D01*
X229654000Y-206460500D01*
X229654000Y-206457500D01*
X229655000Y-206455500D01*
X229655000Y-206452500D01*
X229656000Y-206450500D01*
X229656000Y-206447500D01*
X229657000Y-206445500D01*
X229658000Y-206442500D01*
X229659000Y-206440500D01*
X229661000Y-206438500D01*
X229662000Y-206435500D01*
X229664000Y-206433500D01*
X229665000Y-206431500D01*
X229667000Y-206429500D01*
X229669000Y-206427500D01*
X229671000Y-206425500D01*
X229673000Y-206424500D01*
X229675000Y-206422500D01*
X229677000Y-206421500D01*
X229679000Y-206419500D01*
X229681000Y-206418500D01*
X229684000Y-206417500D01*
X229686000Y-206416500D01*
X229689000Y-206415500D01*
X229691000Y-206414500D01*
X229694000Y-206414500D01*
X229696000Y-206413500D01*
X229699000Y-206413500D01*
X229701000Y-206413500D01*
X229704000Y-206413500D01*
X230729000Y-206413500D01*
X230732000Y-206413500D01*
X230734000Y-206413500D01*
X230737000Y-206413500D01*
X230739000Y-206414500D01*
G37*
X230732000Y-207318500D02*
X230734000Y-207318500D01*
X230737000Y-207318500D01*
X230739000Y-207319500D01*
X230742000Y-207319500D01*
X230744000Y-207320500D01*
X230747000Y-207321500D01*
X230749000Y-207322500D01*
X230752000Y-207323500D01*
X230754000Y-207324500D01*
X230756000Y-207326500D01*
X230758000Y-207327500D01*
X230760000Y-207329500D01*
X230762000Y-207330500D01*
X230764000Y-207332500D01*
X230766000Y-207334500D01*
X230768000Y-207336500D01*
X230769000Y-207338500D01*
X230771000Y-207340500D01*
X230772000Y-207342500D01*
X230774000Y-207345500D01*
X230775000Y-207347500D01*
X230776000Y-207350500D01*
X230777000Y-207352500D01*
X230777000Y-207355500D01*
X230778000Y-207357500D01*
X230778000Y-207360500D01*
X230779000Y-207362500D01*
X230779000Y-207365500D01*
X230779000Y-207368500D01*
X230779000Y-207973500D01*
X230779000Y-207975500D01*
X230779000Y-207978500D01*
X230778000Y-207980500D01*
X230778000Y-207983500D01*
X230777000Y-207985500D01*
X230777000Y-207988500D01*
X230776000Y-207990500D01*
X230775000Y-207993500D01*
X230774000Y-207995500D01*
X230772000Y-207998500D01*
X230771000Y-208000500D01*
X230769000Y-208002500D01*
X230768000Y-208004500D01*
X230766000Y-208006500D01*
X230764000Y-208008500D01*
X230762000Y-208010500D01*
X230760000Y-208011500D01*
X230758000Y-208013500D01*
X230756000Y-208014500D01*
X230754000Y-208016500D01*
X230752000Y-208017500D01*
X230749000Y-208018500D01*
X230747000Y-208019500D01*
X230744000Y-208020500D01*
X230742000Y-208021500D01*
X230739000Y-208021500D01*
X230737000Y-208022500D01*
X230734000Y-208022500D01*
X230732000Y-208022500D01*
X230729000Y-208023500D01*
X229704000Y-208023500D01*
X229701000Y-208022500D01*
X229699000Y-208022500D01*
X229696000Y-208022500D01*
X229694000Y-208021500D01*
X229691000Y-208021500D01*
X229689000Y-208020500D01*
X229686000Y-208019500D01*
X229684000Y-208018500D01*
X229681000Y-208017500D01*
X229679000Y-208016500D01*
X229677000Y-208014500D01*
X229675000Y-208013500D01*
X229673000Y-208011500D01*
X229671000Y-208010500D01*
X229669000Y-208008500D01*
X229667000Y-208006500D01*
X229665000Y-208004500D01*
X229664000Y-208002500D01*
X229662000Y-208000500D01*
X229661000Y-207998500D01*
X229659000Y-207995500D01*
X229658000Y-207993500D01*
X229657000Y-207990500D01*
X229656000Y-207988500D01*
X229656000Y-207985500D01*
X229655000Y-207983500D01*
X229655000Y-207980500D01*
X229654000Y-207978500D01*
X229654000Y-207975500D01*
X229654000Y-207973500D01*
X229654000Y-207973000D01*
X229654000Y-207368500D01*
X229654000Y-207365500D01*
X229654000Y-207362500D01*
X229655000Y-207360500D01*
X229655000Y-207357500D01*
X229656000Y-207355500D01*
X229656000Y-207352500D01*
X229657000Y-207350500D01*
X229658000Y-207347500D01*
X229659000Y-207345500D01*
X229661000Y-207342500D01*
X229662000Y-207340500D01*
X229664000Y-207338500D01*
X229665000Y-207336500D01*
X229667000Y-207334500D01*
X229669000Y-207332500D01*
X229671000Y-207330500D01*
X229673000Y-207329500D01*
X229675000Y-207327500D01*
X229677000Y-207326500D01*
X229679000Y-207324500D01*
X229681000Y-207323500D01*
X229684000Y-207322500D01*
X229686000Y-207321500D01*
X229689000Y-207320500D01*
X229691000Y-207319500D01*
X229694000Y-207319500D01*
X229696000Y-207318500D01*
X229699000Y-207318500D01*
X229701000Y-207318500D01*
X229704000Y-207317500D01*
X230729000Y-207317500D01*
X230732000Y-207318500D01*
G36*
X230732000Y-207318500D02*
G01*
X230734000Y-207318500D01*
X230737000Y-207318500D01*
X230739000Y-207319500D01*
X230742000Y-207319500D01*
X230744000Y-207320500D01*
X230747000Y-207321500D01*
X230749000Y-207322500D01*
X230752000Y-207323500D01*
X230754000Y-207324500D01*
X230756000Y-207326500D01*
X230758000Y-207327500D01*
X230760000Y-207329500D01*
X230762000Y-207330500D01*
X230764000Y-207332500D01*
X230766000Y-207334500D01*
X230768000Y-207336500D01*
X230769000Y-207338500D01*
X230771000Y-207340500D01*
X230772000Y-207342500D01*
X230774000Y-207345500D01*
X230775000Y-207347500D01*
X230776000Y-207350500D01*
X230777000Y-207352500D01*
X230777000Y-207355500D01*
X230778000Y-207357500D01*
X230778000Y-207360500D01*
X230779000Y-207362500D01*
X230779000Y-207365500D01*
X230779000Y-207368500D01*
X230779000Y-207973500D01*
X230779000Y-207975500D01*
X230779000Y-207978500D01*
X230778000Y-207980500D01*
X230778000Y-207983500D01*
X230777000Y-207985500D01*
X230777000Y-207988500D01*
X230776000Y-207990500D01*
X230775000Y-207993500D01*
X230774000Y-207995500D01*
X230772000Y-207998500D01*
X230771000Y-208000500D01*
X230769000Y-208002500D01*
X230768000Y-208004500D01*
X230766000Y-208006500D01*
X230764000Y-208008500D01*
X230762000Y-208010500D01*
X230760000Y-208011500D01*
X230758000Y-208013500D01*
X230756000Y-208014500D01*
X230754000Y-208016500D01*
X230752000Y-208017500D01*
X230749000Y-208018500D01*
X230747000Y-208019500D01*
X230744000Y-208020500D01*
X230742000Y-208021500D01*
X230739000Y-208021500D01*
X230737000Y-208022500D01*
X230734000Y-208022500D01*
X230732000Y-208022500D01*
X230729000Y-208023500D01*
X229704000Y-208023500D01*
X229701000Y-208022500D01*
X229699000Y-208022500D01*
X229696000Y-208022500D01*
X229694000Y-208021500D01*
X229691000Y-208021500D01*
X229689000Y-208020500D01*
X229686000Y-208019500D01*
X229684000Y-208018500D01*
X229681000Y-208017500D01*
X229679000Y-208016500D01*
X229677000Y-208014500D01*
X229675000Y-208013500D01*
X229673000Y-208011500D01*
X229671000Y-208010500D01*
X229669000Y-208008500D01*
X229667000Y-208006500D01*
X229665000Y-208004500D01*
X229664000Y-208002500D01*
X229662000Y-208000500D01*
X229661000Y-207998500D01*
X229659000Y-207995500D01*
X229658000Y-207993500D01*
X229657000Y-207990500D01*
X229656000Y-207988500D01*
X229656000Y-207985500D01*
X229655000Y-207983500D01*
X229655000Y-207980500D01*
X229654000Y-207978500D01*
X229654000Y-207975500D01*
X229654000Y-207973500D01*
X229654000Y-207973000D01*
X229654000Y-207368500D01*
X229654000Y-207365500D01*
X229654000Y-207362500D01*
X229655000Y-207360500D01*
X229655000Y-207357500D01*
X229656000Y-207355500D01*
X229656000Y-207352500D01*
X229657000Y-207350500D01*
X229658000Y-207347500D01*
X229659000Y-207345500D01*
X229661000Y-207342500D01*
X229662000Y-207340500D01*
X229664000Y-207338500D01*
X229665000Y-207336500D01*
X229667000Y-207334500D01*
X229669000Y-207332500D01*
X229671000Y-207330500D01*
X229673000Y-207329500D01*
X229675000Y-207327500D01*
X229677000Y-207326500D01*
X229679000Y-207324500D01*
X229681000Y-207323500D01*
X229684000Y-207322500D01*
X229686000Y-207321500D01*
X229689000Y-207320500D01*
X229691000Y-207319500D01*
X229694000Y-207319500D01*
X229696000Y-207318500D01*
X229699000Y-207318500D01*
X229701000Y-207318500D01*
X229704000Y-207317500D01*
X230729000Y-207317500D01*
X230732000Y-207318500D01*
G37*
X232064000Y-206414500D02*
X232067000Y-206414500D01*
X232069000Y-206415500D01*
X232072000Y-206416500D01*
X232074000Y-206417500D01*
X232077000Y-206418500D01*
X232079000Y-206419500D01*
X232081000Y-206421500D01*
X232083000Y-206422500D01*
X232085000Y-206424500D01*
X232087000Y-206425500D01*
X232089000Y-206427500D01*
X232091000Y-206429500D01*
X232093000Y-206431500D01*
X232094000Y-206433500D01*
X232096000Y-206435500D01*
X232097000Y-206438500D01*
X232099000Y-206440500D01*
X232100000Y-206442500D01*
X232101000Y-206445500D01*
X232102000Y-206447500D01*
X232102000Y-206450500D01*
X232103000Y-206452500D01*
X232103000Y-206455500D01*
X232104000Y-206457500D01*
X232104000Y-206460500D01*
X232104000Y-206463500D01*
X232104000Y-207068500D01*
X232104000Y-207070500D01*
X232104000Y-207073500D01*
X232103000Y-207075500D01*
X232103000Y-207078500D01*
X232102000Y-207080500D01*
X232102000Y-207083500D01*
X232101000Y-207085500D01*
X232100000Y-207088500D01*
X232099000Y-207090500D01*
X232097000Y-207092500D01*
X232096000Y-207095500D01*
X232094000Y-207097500D01*
X232093000Y-207099500D01*
X232091000Y-207101500D01*
X232089000Y-207103500D01*
X232087000Y-207105500D01*
X232085000Y-207106500D01*
X232083000Y-207108500D01*
X232081000Y-207109500D01*
X232079000Y-207111500D01*
X232077000Y-207112500D01*
X232074000Y-207113500D01*
X232072000Y-207114500D01*
X232069000Y-207115500D01*
X232067000Y-207116500D01*
X232064000Y-207116500D01*
X232062000Y-207117500D01*
X232059000Y-207117500D01*
X232057000Y-207117500D01*
X232054000Y-207117500D01*
X231029000Y-207117500D01*
X231026000Y-207117500D01*
X231024000Y-207117500D01*
X231021000Y-207117500D01*
X231019000Y-207116500D01*
X231016000Y-207116500D01*
X231014000Y-207115500D01*
X231011000Y-207114500D01*
X231009000Y-207113500D01*
X231006000Y-207112500D01*
X231004000Y-207111500D01*
X231002000Y-207109500D01*
X231000000Y-207108500D01*
X230998000Y-207106500D01*
X230996000Y-207105500D01*
X230994000Y-207103500D01*
X230992000Y-207101500D01*
X230990000Y-207099500D01*
X230989000Y-207097500D01*
X230987000Y-207095500D01*
X230986000Y-207093500D01*
X230984000Y-207090500D01*
X230983000Y-207088500D01*
X230982000Y-207085500D01*
X230981000Y-207083500D01*
X230981000Y-207080500D01*
X230980000Y-207078500D01*
X230980000Y-207075500D01*
X230979000Y-207073500D01*
X230979000Y-207070500D01*
X230979000Y-207068500D01*
X230979000Y-207068000D01*
X230979000Y-206463500D01*
X230979000Y-206460500D01*
X230979000Y-206457500D01*
X230980000Y-206455500D01*
X230980000Y-206452500D01*
X230981000Y-206450500D01*
X230981000Y-206447500D01*
X230982000Y-206445500D01*
X230983000Y-206442500D01*
X230984000Y-206440500D01*
X230986000Y-206438500D01*
X230987000Y-206435500D01*
X230989000Y-206433500D01*
X230990000Y-206431500D01*
X230992000Y-206429500D01*
X230994000Y-206427500D01*
X230996000Y-206425500D01*
X230998000Y-206424500D01*
X231000000Y-206422500D01*
X231002000Y-206421500D01*
X231004000Y-206419500D01*
X231006000Y-206418500D01*
X231009000Y-206417500D01*
X231011000Y-206416500D01*
X231014000Y-206415500D01*
X231016000Y-206414500D01*
X231019000Y-206414500D01*
X231021000Y-206413500D01*
X231024000Y-206413500D01*
X231026000Y-206413500D01*
X231029000Y-206413500D01*
X232054000Y-206413500D01*
X232057000Y-206413500D01*
X232059000Y-206413500D01*
X232062000Y-206413500D01*
X232064000Y-206414500D01*
G36*
X232064000Y-206414500D02*
G01*
X232067000Y-206414500D01*
X232069000Y-206415500D01*
X232072000Y-206416500D01*
X232074000Y-206417500D01*
X232077000Y-206418500D01*
X232079000Y-206419500D01*
X232081000Y-206421500D01*
X232083000Y-206422500D01*
X232085000Y-206424500D01*
X232087000Y-206425500D01*
X232089000Y-206427500D01*
X232091000Y-206429500D01*
X232093000Y-206431500D01*
X232094000Y-206433500D01*
X232096000Y-206435500D01*
X232097000Y-206438500D01*
X232099000Y-206440500D01*
X232100000Y-206442500D01*
X232101000Y-206445500D01*
X232102000Y-206447500D01*
X232102000Y-206450500D01*
X232103000Y-206452500D01*
X232103000Y-206455500D01*
X232104000Y-206457500D01*
X232104000Y-206460500D01*
X232104000Y-206463500D01*
X232104000Y-207068500D01*
X232104000Y-207070500D01*
X232104000Y-207073500D01*
X232103000Y-207075500D01*
X232103000Y-207078500D01*
X232102000Y-207080500D01*
X232102000Y-207083500D01*
X232101000Y-207085500D01*
X232100000Y-207088500D01*
X232099000Y-207090500D01*
X232097000Y-207092500D01*
X232096000Y-207095500D01*
X232094000Y-207097500D01*
X232093000Y-207099500D01*
X232091000Y-207101500D01*
X232089000Y-207103500D01*
X232087000Y-207105500D01*
X232085000Y-207106500D01*
X232083000Y-207108500D01*
X232081000Y-207109500D01*
X232079000Y-207111500D01*
X232077000Y-207112500D01*
X232074000Y-207113500D01*
X232072000Y-207114500D01*
X232069000Y-207115500D01*
X232067000Y-207116500D01*
X232064000Y-207116500D01*
X232062000Y-207117500D01*
X232059000Y-207117500D01*
X232057000Y-207117500D01*
X232054000Y-207117500D01*
X231029000Y-207117500D01*
X231026000Y-207117500D01*
X231024000Y-207117500D01*
X231021000Y-207117500D01*
X231019000Y-207116500D01*
X231016000Y-207116500D01*
X231014000Y-207115500D01*
X231011000Y-207114500D01*
X231009000Y-207113500D01*
X231006000Y-207112500D01*
X231004000Y-207111500D01*
X231002000Y-207109500D01*
X231000000Y-207108500D01*
X230998000Y-207106500D01*
X230996000Y-207105500D01*
X230994000Y-207103500D01*
X230992000Y-207101500D01*
X230990000Y-207099500D01*
X230989000Y-207097500D01*
X230987000Y-207095500D01*
X230986000Y-207093500D01*
X230984000Y-207090500D01*
X230983000Y-207088500D01*
X230982000Y-207085500D01*
X230981000Y-207083500D01*
X230981000Y-207080500D01*
X230980000Y-207078500D01*
X230980000Y-207075500D01*
X230979000Y-207073500D01*
X230979000Y-207070500D01*
X230979000Y-207068500D01*
X230979000Y-207068000D01*
X230979000Y-206463500D01*
X230979000Y-206460500D01*
X230979000Y-206457500D01*
X230980000Y-206455500D01*
X230980000Y-206452500D01*
X230981000Y-206450500D01*
X230981000Y-206447500D01*
X230982000Y-206445500D01*
X230983000Y-206442500D01*
X230984000Y-206440500D01*
X230986000Y-206438500D01*
X230987000Y-206435500D01*
X230989000Y-206433500D01*
X230990000Y-206431500D01*
X230992000Y-206429500D01*
X230994000Y-206427500D01*
X230996000Y-206425500D01*
X230998000Y-206424500D01*
X231000000Y-206422500D01*
X231002000Y-206421500D01*
X231004000Y-206419500D01*
X231006000Y-206418500D01*
X231009000Y-206417500D01*
X231011000Y-206416500D01*
X231014000Y-206415500D01*
X231016000Y-206414500D01*
X231019000Y-206414500D01*
X231021000Y-206413500D01*
X231024000Y-206413500D01*
X231026000Y-206413500D01*
X231029000Y-206413500D01*
X232054000Y-206413500D01*
X232057000Y-206413500D01*
X232059000Y-206413500D01*
X232062000Y-206413500D01*
X232064000Y-206414500D01*
G37*
X232057000Y-207318500D02*
X232059000Y-207318500D01*
X232062000Y-207318500D01*
X232064000Y-207319500D01*
X232067000Y-207319500D01*
X232069000Y-207320500D01*
X232072000Y-207321500D01*
X232074000Y-207322500D01*
X232077000Y-207323500D01*
X232079000Y-207324500D01*
X232081000Y-207326500D01*
X232083000Y-207327500D01*
X232085000Y-207329500D01*
X232087000Y-207330500D01*
X232089000Y-207332500D01*
X232091000Y-207334500D01*
X232093000Y-207336500D01*
X232094000Y-207338500D01*
X232096000Y-207340500D01*
X232097000Y-207342500D01*
X232099000Y-207345500D01*
X232100000Y-207347500D01*
X232101000Y-207350500D01*
X232102000Y-207352500D01*
X232102000Y-207355500D01*
X232103000Y-207357500D01*
X232103000Y-207360500D01*
X232104000Y-207362500D01*
X232104000Y-207365500D01*
X232104000Y-207368500D01*
X232104000Y-207973500D01*
X232104000Y-207975500D01*
X232104000Y-207978500D01*
X232103000Y-207980500D01*
X232103000Y-207983500D01*
X232102000Y-207985500D01*
X232102000Y-207988500D01*
X232101000Y-207990500D01*
X232100000Y-207993500D01*
X232099000Y-207995500D01*
X232097000Y-207998500D01*
X232096000Y-208000500D01*
X232094000Y-208002500D01*
X232093000Y-208004500D01*
X232091000Y-208006500D01*
X232089000Y-208008500D01*
X232087000Y-208010500D01*
X232085000Y-208011500D01*
X232083000Y-208013500D01*
X232081000Y-208014500D01*
X232079000Y-208016500D01*
X232077000Y-208017500D01*
X232074000Y-208018500D01*
X232072000Y-208019500D01*
X232069000Y-208020500D01*
X232067000Y-208021500D01*
X232064000Y-208021500D01*
X232062000Y-208022500D01*
X232059000Y-208022500D01*
X232057000Y-208022500D01*
X232054000Y-208023500D01*
X231029000Y-208023500D01*
X231026000Y-208022500D01*
X231024000Y-208022500D01*
X231021000Y-208022500D01*
X231019000Y-208021500D01*
X231016000Y-208021500D01*
X231014000Y-208020500D01*
X231011000Y-208019500D01*
X231009000Y-208018500D01*
X231006000Y-208017500D01*
X231004000Y-208016500D01*
X231002000Y-208014500D01*
X231000000Y-208013500D01*
X230998000Y-208011500D01*
X230996000Y-208010500D01*
X230994000Y-208008500D01*
X230992000Y-208006500D01*
X230990000Y-208004500D01*
X230989000Y-208002500D01*
X230987000Y-208000500D01*
X230986000Y-207998500D01*
X230984000Y-207995500D01*
X230983000Y-207993500D01*
X230982000Y-207990500D01*
X230981000Y-207988500D01*
X230981000Y-207985500D01*
X230980000Y-207983500D01*
X230980000Y-207980500D01*
X230979000Y-207978500D01*
X230979000Y-207975500D01*
X230979000Y-207973500D01*
X230979000Y-207973000D01*
X230979000Y-207368500D01*
X230979000Y-207365500D01*
X230979000Y-207362500D01*
X230980000Y-207360500D01*
X230980000Y-207357500D01*
X230981000Y-207355500D01*
X230981000Y-207352500D01*
X230982000Y-207350500D01*
X230983000Y-207347500D01*
X230984000Y-207345500D01*
X230986000Y-207342500D01*
X230987000Y-207340500D01*
X230989000Y-207338500D01*
X230990000Y-207336500D01*
X230992000Y-207334500D01*
X230994000Y-207332500D01*
X230996000Y-207330500D01*
X230998000Y-207329500D01*
X231000000Y-207327500D01*
X231002000Y-207326500D01*
X231004000Y-207324500D01*
X231006000Y-207323500D01*
X231009000Y-207322500D01*
X231011000Y-207321500D01*
X231014000Y-207320500D01*
X231016000Y-207319500D01*
X231019000Y-207319500D01*
X231021000Y-207318500D01*
X231024000Y-207318500D01*
X231026000Y-207318500D01*
X231029000Y-207317500D01*
X232054000Y-207317500D01*
X232057000Y-207318500D01*
G36*
X232057000Y-207318500D02*
G01*
X232059000Y-207318500D01*
X232062000Y-207318500D01*
X232064000Y-207319500D01*
X232067000Y-207319500D01*
X232069000Y-207320500D01*
X232072000Y-207321500D01*
X232074000Y-207322500D01*
X232077000Y-207323500D01*
X232079000Y-207324500D01*
X232081000Y-207326500D01*
X232083000Y-207327500D01*
X232085000Y-207329500D01*
X232087000Y-207330500D01*
X232089000Y-207332500D01*
X232091000Y-207334500D01*
X232093000Y-207336500D01*
X232094000Y-207338500D01*
X232096000Y-207340500D01*
X232097000Y-207342500D01*
X232099000Y-207345500D01*
X232100000Y-207347500D01*
X232101000Y-207350500D01*
X232102000Y-207352500D01*
X232102000Y-207355500D01*
X232103000Y-207357500D01*
X232103000Y-207360500D01*
X232104000Y-207362500D01*
X232104000Y-207365500D01*
X232104000Y-207368500D01*
X232104000Y-207973500D01*
X232104000Y-207975500D01*
X232104000Y-207978500D01*
X232103000Y-207980500D01*
X232103000Y-207983500D01*
X232102000Y-207985500D01*
X232102000Y-207988500D01*
X232101000Y-207990500D01*
X232100000Y-207993500D01*
X232099000Y-207995500D01*
X232097000Y-207998500D01*
X232096000Y-208000500D01*
X232094000Y-208002500D01*
X232093000Y-208004500D01*
X232091000Y-208006500D01*
X232089000Y-208008500D01*
X232087000Y-208010500D01*
X232085000Y-208011500D01*
X232083000Y-208013500D01*
X232081000Y-208014500D01*
X232079000Y-208016500D01*
X232077000Y-208017500D01*
X232074000Y-208018500D01*
X232072000Y-208019500D01*
X232069000Y-208020500D01*
X232067000Y-208021500D01*
X232064000Y-208021500D01*
X232062000Y-208022500D01*
X232059000Y-208022500D01*
X232057000Y-208022500D01*
X232054000Y-208023500D01*
X231029000Y-208023500D01*
X231026000Y-208022500D01*
X231024000Y-208022500D01*
X231021000Y-208022500D01*
X231019000Y-208021500D01*
X231016000Y-208021500D01*
X231014000Y-208020500D01*
X231011000Y-208019500D01*
X231009000Y-208018500D01*
X231006000Y-208017500D01*
X231004000Y-208016500D01*
X231002000Y-208014500D01*
X231000000Y-208013500D01*
X230998000Y-208011500D01*
X230996000Y-208010500D01*
X230994000Y-208008500D01*
X230992000Y-208006500D01*
X230990000Y-208004500D01*
X230989000Y-208002500D01*
X230987000Y-208000500D01*
X230986000Y-207998500D01*
X230984000Y-207995500D01*
X230983000Y-207993500D01*
X230982000Y-207990500D01*
X230981000Y-207988500D01*
X230981000Y-207985500D01*
X230980000Y-207983500D01*
X230980000Y-207980500D01*
X230979000Y-207978500D01*
X230979000Y-207975500D01*
X230979000Y-207973500D01*
X230979000Y-207973000D01*
X230979000Y-207368500D01*
X230979000Y-207365500D01*
X230979000Y-207362500D01*
X230980000Y-207360500D01*
X230980000Y-207357500D01*
X230981000Y-207355500D01*
X230981000Y-207352500D01*
X230982000Y-207350500D01*
X230983000Y-207347500D01*
X230984000Y-207345500D01*
X230986000Y-207342500D01*
X230987000Y-207340500D01*
X230989000Y-207338500D01*
X230990000Y-207336500D01*
X230992000Y-207334500D01*
X230994000Y-207332500D01*
X230996000Y-207330500D01*
X230998000Y-207329500D01*
X231000000Y-207327500D01*
X231002000Y-207326500D01*
X231004000Y-207324500D01*
X231006000Y-207323500D01*
X231009000Y-207322500D01*
X231011000Y-207321500D01*
X231014000Y-207320500D01*
X231016000Y-207319500D01*
X231019000Y-207319500D01*
X231021000Y-207318500D01*
X231024000Y-207318500D01*
X231026000Y-207318500D01*
X231029000Y-207317500D01*
X232054000Y-207317500D01*
X232057000Y-207318500D01*
G37*
%TO.C,IC4*%
X242307000Y-208879500D02*
X242309000Y-208879500D01*
X242312000Y-208880500D01*
X242314000Y-208880500D01*
X242317000Y-208881500D01*
X242319000Y-208882500D01*
X242322000Y-208883500D01*
X242324000Y-208885500D01*
X242326000Y-208886500D01*
X242328000Y-208888500D01*
X242330000Y-208889500D01*
X242332000Y-208891500D01*
X242334000Y-208893500D01*
X242336000Y-208895500D01*
X242338000Y-208897500D01*
X242339000Y-208899500D01*
X242341000Y-208901500D01*
X242342000Y-208903500D01*
X242344000Y-208905500D01*
X242345000Y-208908500D01*
X242346000Y-208910500D01*
X242347000Y-208913500D01*
X242347000Y-208915500D01*
X242348000Y-208918500D01*
X242348000Y-208920500D01*
X242349000Y-208923500D01*
X242349000Y-208925500D01*
X242349000Y-208928500D01*
X242349000Y-209128500D01*
X242349000Y-209131500D01*
X242349000Y-209133500D01*
X242348000Y-209136500D01*
X242348000Y-209138500D01*
X242347000Y-209141500D01*
X242347000Y-209143500D01*
X242346000Y-209146500D01*
X242345000Y-209148500D01*
X242344000Y-209151500D01*
X242342000Y-209153500D01*
X242341000Y-209155500D01*
X242339000Y-209157500D01*
X242338000Y-209159500D01*
X242336000Y-209161500D01*
X242334000Y-209163500D01*
X242332000Y-209165500D01*
X242330000Y-209167500D01*
X242328000Y-209168500D01*
X242326000Y-209170500D01*
X242324000Y-209171500D01*
X242322000Y-209173500D01*
X242319000Y-209174500D01*
X242317000Y-209175500D01*
X242314000Y-209176500D01*
X242312000Y-209176500D01*
X242309000Y-209177500D01*
X242307000Y-209177500D01*
X242304000Y-209178500D01*
X242302000Y-209178500D01*
X242299000Y-209178500D01*
X241799000Y-209178500D01*
X241796000Y-209178500D01*
X241794000Y-209178500D01*
X241791000Y-209177500D01*
X241789000Y-209177500D01*
X241786000Y-209176500D01*
X241784000Y-209176500D01*
X241781000Y-209175500D01*
X241779000Y-209174500D01*
X241776000Y-209173500D01*
X241774000Y-209171500D01*
X241772000Y-209170500D01*
X241770000Y-209168500D01*
X241768000Y-209167500D01*
X241766000Y-209165500D01*
X241764000Y-209163500D01*
X241762000Y-209161500D01*
X241760000Y-209159500D01*
X241759000Y-209157500D01*
X241757000Y-209155500D01*
X241756000Y-209153500D01*
X241754000Y-209151500D01*
X241753000Y-209148500D01*
X241752000Y-209146500D01*
X241751000Y-209143500D01*
X241751000Y-209141500D01*
X241750000Y-209138500D01*
X241750000Y-209136500D01*
X241749000Y-209133500D01*
X241749000Y-209131500D01*
X241749000Y-209128500D01*
X241749000Y-208928500D01*
X241749000Y-208925500D01*
X241749000Y-208923500D01*
X241750000Y-208920500D01*
X241750000Y-208918500D01*
X241751000Y-208915500D01*
X241751000Y-208913500D01*
X241752000Y-208910500D01*
X241753000Y-208908500D01*
X241754000Y-208905500D01*
X241756000Y-208903500D01*
X241757000Y-208901500D01*
X241759000Y-208899500D01*
X241760000Y-208897500D01*
X241762000Y-208895500D01*
X241764000Y-208893500D01*
X241766000Y-208891500D01*
X241768000Y-208889500D01*
X241770000Y-208888500D01*
X241772000Y-208886500D01*
X241774000Y-208885500D01*
X241776000Y-208883500D01*
X241779000Y-208882500D01*
X241781000Y-208881500D01*
X241784000Y-208880500D01*
X241786000Y-208880500D01*
X241789000Y-208879500D01*
X241791000Y-208879500D01*
X241794000Y-208878500D01*
X241796000Y-208878500D01*
X241799000Y-208878500D01*
X242299000Y-208878500D01*
X242302000Y-208878500D01*
X242304000Y-208878500D01*
X242307000Y-208879500D01*
G36*
X242307000Y-208879500D02*
G01*
X242309000Y-208879500D01*
X242312000Y-208880500D01*
X242314000Y-208880500D01*
X242317000Y-208881500D01*
X242319000Y-208882500D01*
X242322000Y-208883500D01*
X242324000Y-208885500D01*
X242326000Y-208886500D01*
X242328000Y-208888500D01*
X242330000Y-208889500D01*
X242332000Y-208891500D01*
X242334000Y-208893500D01*
X242336000Y-208895500D01*
X242338000Y-208897500D01*
X242339000Y-208899500D01*
X242341000Y-208901500D01*
X242342000Y-208903500D01*
X242344000Y-208905500D01*
X242345000Y-208908500D01*
X242346000Y-208910500D01*
X242347000Y-208913500D01*
X242347000Y-208915500D01*
X242348000Y-208918500D01*
X242348000Y-208920500D01*
X242349000Y-208923500D01*
X242349000Y-208925500D01*
X242349000Y-208928500D01*
X242349000Y-209128500D01*
X242349000Y-209131500D01*
X242349000Y-209133500D01*
X242348000Y-209136500D01*
X242348000Y-209138500D01*
X242347000Y-209141500D01*
X242347000Y-209143500D01*
X242346000Y-209146500D01*
X242345000Y-209148500D01*
X242344000Y-209151500D01*
X242342000Y-209153500D01*
X242341000Y-209155500D01*
X242339000Y-209157500D01*
X242338000Y-209159500D01*
X242336000Y-209161500D01*
X242334000Y-209163500D01*
X242332000Y-209165500D01*
X242330000Y-209167500D01*
X242328000Y-209168500D01*
X242326000Y-209170500D01*
X242324000Y-209171500D01*
X242322000Y-209173500D01*
X242319000Y-209174500D01*
X242317000Y-209175500D01*
X242314000Y-209176500D01*
X242312000Y-209176500D01*
X242309000Y-209177500D01*
X242307000Y-209177500D01*
X242304000Y-209178500D01*
X242302000Y-209178500D01*
X242299000Y-209178500D01*
X241799000Y-209178500D01*
X241796000Y-209178500D01*
X241794000Y-209178500D01*
X241791000Y-209177500D01*
X241789000Y-209177500D01*
X241786000Y-209176500D01*
X241784000Y-209176500D01*
X241781000Y-209175500D01*
X241779000Y-209174500D01*
X241776000Y-209173500D01*
X241774000Y-209171500D01*
X241772000Y-209170500D01*
X241770000Y-209168500D01*
X241768000Y-209167500D01*
X241766000Y-209165500D01*
X241764000Y-209163500D01*
X241762000Y-209161500D01*
X241760000Y-209159500D01*
X241759000Y-209157500D01*
X241757000Y-209155500D01*
X241756000Y-209153500D01*
X241754000Y-209151500D01*
X241753000Y-209148500D01*
X241752000Y-209146500D01*
X241751000Y-209143500D01*
X241751000Y-209141500D01*
X241750000Y-209138500D01*
X241750000Y-209136500D01*
X241749000Y-209133500D01*
X241749000Y-209131500D01*
X241749000Y-209128500D01*
X241749000Y-208928500D01*
X241749000Y-208925500D01*
X241749000Y-208923500D01*
X241750000Y-208920500D01*
X241750000Y-208918500D01*
X241751000Y-208915500D01*
X241751000Y-208913500D01*
X241752000Y-208910500D01*
X241753000Y-208908500D01*
X241754000Y-208905500D01*
X241756000Y-208903500D01*
X241757000Y-208901500D01*
X241759000Y-208899500D01*
X241760000Y-208897500D01*
X241762000Y-208895500D01*
X241764000Y-208893500D01*
X241766000Y-208891500D01*
X241768000Y-208889500D01*
X241770000Y-208888500D01*
X241772000Y-208886500D01*
X241774000Y-208885500D01*
X241776000Y-208883500D01*
X241779000Y-208882500D01*
X241781000Y-208881500D01*
X241784000Y-208880500D01*
X241786000Y-208880500D01*
X241789000Y-208879500D01*
X241791000Y-208879500D01*
X241794000Y-208878500D01*
X241796000Y-208878500D01*
X241799000Y-208878500D01*
X242299000Y-208878500D01*
X242302000Y-208878500D01*
X242304000Y-208878500D01*
X242307000Y-208879500D01*
G37*
X242307000Y-209529500D02*
X242309000Y-209529500D01*
X242312000Y-209530500D01*
X242314000Y-209530500D01*
X242317000Y-209531500D01*
X242319000Y-209532500D01*
X242322000Y-209533500D01*
X242324000Y-209535500D01*
X242326000Y-209536500D01*
X242328000Y-209538500D01*
X242330000Y-209539500D01*
X242332000Y-209541500D01*
X242334000Y-209543500D01*
X242336000Y-209545500D01*
X242338000Y-209547500D01*
X242339000Y-209549500D01*
X242341000Y-209551500D01*
X242342000Y-209553500D01*
X242344000Y-209555500D01*
X242345000Y-209558500D01*
X242346000Y-209560500D01*
X242347000Y-209563500D01*
X242347000Y-209565500D01*
X242348000Y-209568500D01*
X242348000Y-209570500D01*
X242349000Y-209573500D01*
X242349000Y-209575500D01*
X242349000Y-209578500D01*
X242349000Y-209778500D01*
X242349000Y-209781500D01*
X242349000Y-209783500D01*
X242348000Y-209786500D01*
X242348000Y-209788500D01*
X242347000Y-209791500D01*
X242347000Y-209793500D01*
X242346000Y-209796500D01*
X242345000Y-209798500D01*
X242344000Y-209801500D01*
X242342000Y-209803500D01*
X242341000Y-209805500D01*
X242339000Y-209807500D01*
X242338000Y-209809500D01*
X242336000Y-209811500D01*
X242334000Y-209813500D01*
X242332000Y-209815500D01*
X242330000Y-209817500D01*
X242328000Y-209818500D01*
X242326000Y-209820500D01*
X242324000Y-209821500D01*
X242322000Y-209823500D01*
X242319000Y-209824500D01*
X242317000Y-209825500D01*
X242314000Y-209826500D01*
X242312000Y-209826500D01*
X242309000Y-209827500D01*
X242307000Y-209827500D01*
X242304000Y-209828500D01*
X242302000Y-209828500D01*
X242299000Y-209828500D01*
X241799000Y-209828500D01*
X241796000Y-209828500D01*
X241794000Y-209828500D01*
X241791000Y-209827500D01*
X241789000Y-209827500D01*
X241786000Y-209826500D01*
X241784000Y-209826500D01*
X241781000Y-209825500D01*
X241779000Y-209824500D01*
X241776000Y-209823500D01*
X241774000Y-209821500D01*
X241772000Y-209820500D01*
X241770000Y-209818500D01*
X241768000Y-209817500D01*
X241766000Y-209815500D01*
X241764000Y-209813500D01*
X241762000Y-209811500D01*
X241760000Y-209809500D01*
X241759000Y-209807500D01*
X241757000Y-209805500D01*
X241756000Y-209803500D01*
X241754000Y-209801500D01*
X241753000Y-209798500D01*
X241752000Y-209796500D01*
X241751000Y-209793500D01*
X241751000Y-209791500D01*
X241750000Y-209788500D01*
X241750000Y-209786500D01*
X241749000Y-209783500D01*
X241749000Y-209781500D01*
X241749000Y-209778500D01*
X241749000Y-209578500D01*
X241749000Y-209575500D01*
X241749000Y-209573500D01*
X241750000Y-209570500D01*
X241750000Y-209568500D01*
X241751000Y-209565500D01*
X241751000Y-209563500D01*
X241752000Y-209560500D01*
X241753000Y-209558500D01*
X241754000Y-209555500D01*
X241756000Y-209553500D01*
X241757000Y-209551500D01*
X241759000Y-209549500D01*
X241760000Y-209547500D01*
X241762000Y-209545500D01*
X241764000Y-209543500D01*
X241766000Y-209541500D01*
X241768000Y-209539500D01*
X241770000Y-209538500D01*
X241772000Y-209536500D01*
X241774000Y-209535500D01*
X241776000Y-209533500D01*
X241779000Y-209532500D01*
X241781000Y-209531500D01*
X241784000Y-209530500D01*
X241786000Y-209530500D01*
X241789000Y-209529500D01*
X241791000Y-209529500D01*
X241794000Y-209528500D01*
X241796000Y-209528500D01*
X241799000Y-209528500D01*
X242299000Y-209528500D01*
X242302000Y-209528500D01*
X242304000Y-209528500D01*
X242307000Y-209529500D01*
G36*
X242307000Y-209529500D02*
G01*
X242309000Y-209529500D01*
X242312000Y-209530500D01*
X242314000Y-209530500D01*
X242317000Y-209531500D01*
X242319000Y-209532500D01*
X242322000Y-209533500D01*
X242324000Y-209535500D01*
X242326000Y-209536500D01*
X242328000Y-209538500D01*
X242330000Y-209539500D01*
X242332000Y-209541500D01*
X242334000Y-209543500D01*
X242336000Y-209545500D01*
X242338000Y-209547500D01*
X242339000Y-209549500D01*
X242341000Y-209551500D01*
X242342000Y-209553500D01*
X242344000Y-209555500D01*
X242345000Y-209558500D01*
X242346000Y-209560500D01*
X242347000Y-209563500D01*
X242347000Y-209565500D01*
X242348000Y-209568500D01*
X242348000Y-209570500D01*
X242349000Y-209573500D01*
X242349000Y-209575500D01*
X242349000Y-209578500D01*
X242349000Y-209778500D01*
X242349000Y-209781500D01*
X242349000Y-209783500D01*
X242348000Y-209786500D01*
X242348000Y-209788500D01*
X242347000Y-209791500D01*
X242347000Y-209793500D01*
X242346000Y-209796500D01*
X242345000Y-209798500D01*
X242344000Y-209801500D01*
X242342000Y-209803500D01*
X242341000Y-209805500D01*
X242339000Y-209807500D01*
X242338000Y-209809500D01*
X242336000Y-209811500D01*
X242334000Y-209813500D01*
X242332000Y-209815500D01*
X242330000Y-209817500D01*
X242328000Y-209818500D01*
X242326000Y-209820500D01*
X242324000Y-209821500D01*
X242322000Y-209823500D01*
X242319000Y-209824500D01*
X242317000Y-209825500D01*
X242314000Y-209826500D01*
X242312000Y-209826500D01*
X242309000Y-209827500D01*
X242307000Y-209827500D01*
X242304000Y-209828500D01*
X242302000Y-209828500D01*
X242299000Y-209828500D01*
X241799000Y-209828500D01*
X241796000Y-209828500D01*
X241794000Y-209828500D01*
X241791000Y-209827500D01*
X241789000Y-209827500D01*
X241786000Y-209826500D01*
X241784000Y-209826500D01*
X241781000Y-209825500D01*
X241779000Y-209824500D01*
X241776000Y-209823500D01*
X241774000Y-209821500D01*
X241772000Y-209820500D01*
X241770000Y-209818500D01*
X241768000Y-209817500D01*
X241766000Y-209815500D01*
X241764000Y-209813500D01*
X241762000Y-209811500D01*
X241760000Y-209809500D01*
X241759000Y-209807500D01*
X241757000Y-209805500D01*
X241756000Y-209803500D01*
X241754000Y-209801500D01*
X241753000Y-209798500D01*
X241752000Y-209796500D01*
X241751000Y-209793500D01*
X241751000Y-209791500D01*
X241750000Y-209788500D01*
X241750000Y-209786500D01*
X241749000Y-209783500D01*
X241749000Y-209781500D01*
X241749000Y-209778500D01*
X241749000Y-209578500D01*
X241749000Y-209575500D01*
X241749000Y-209573500D01*
X241750000Y-209570500D01*
X241750000Y-209568500D01*
X241751000Y-209565500D01*
X241751000Y-209563500D01*
X241752000Y-209560500D01*
X241753000Y-209558500D01*
X241754000Y-209555500D01*
X241756000Y-209553500D01*
X241757000Y-209551500D01*
X241759000Y-209549500D01*
X241760000Y-209547500D01*
X241762000Y-209545500D01*
X241764000Y-209543500D01*
X241766000Y-209541500D01*
X241768000Y-209539500D01*
X241770000Y-209538500D01*
X241772000Y-209536500D01*
X241774000Y-209535500D01*
X241776000Y-209533500D01*
X241779000Y-209532500D01*
X241781000Y-209531500D01*
X241784000Y-209530500D01*
X241786000Y-209530500D01*
X241789000Y-209529500D01*
X241791000Y-209529500D01*
X241794000Y-209528500D01*
X241796000Y-209528500D01*
X241799000Y-209528500D01*
X242299000Y-209528500D01*
X242302000Y-209528500D01*
X242304000Y-209528500D01*
X242307000Y-209529500D01*
G37*
X242307000Y-210179500D02*
X242309000Y-210179500D01*
X242312000Y-210180500D01*
X242314000Y-210180500D01*
X242317000Y-210181500D01*
X242319000Y-210182500D01*
X242322000Y-210183500D01*
X242324000Y-210185500D01*
X242326000Y-210186500D01*
X242328000Y-210188500D01*
X242330000Y-210189500D01*
X242332000Y-210191500D01*
X242334000Y-210193500D01*
X242336000Y-210195500D01*
X242338000Y-210197500D01*
X242339000Y-210199500D01*
X242341000Y-210201500D01*
X242342000Y-210203500D01*
X242344000Y-210205500D01*
X242345000Y-210208500D01*
X242346000Y-210210500D01*
X242347000Y-210213500D01*
X242347000Y-210215500D01*
X242348000Y-210218500D01*
X242348000Y-210220500D01*
X242349000Y-210223500D01*
X242349000Y-210225500D01*
X242349000Y-210228500D01*
X242349000Y-210428500D01*
X242349000Y-210431500D01*
X242349000Y-210433500D01*
X242348000Y-210436500D01*
X242348000Y-210438500D01*
X242347000Y-210441500D01*
X242347000Y-210443500D01*
X242346000Y-210446500D01*
X242345000Y-210448500D01*
X242344000Y-210451500D01*
X242342000Y-210453500D01*
X242341000Y-210455500D01*
X242339000Y-210457500D01*
X242338000Y-210459500D01*
X242336000Y-210461500D01*
X242334000Y-210463500D01*
X242332000Y-210465500D01*
X242330000Y-210467500D01*
X242328000Y-210468500D01*
X242326000Y-210470500D01*
X242324000Y-210471500D01*
X242322000Y-210473500D01*
X242319000Y-210474500D01*
X242317000Y-210475500D01*
X242314000Y-210476500D01*
X242312000Y-210476500D01*
X242309000Y-210477500D01*
X242307000Y-210477500D01*
X242304000Y-210478500D01*
X242302000Y-210478500D01*
X242299000Y-210478500D01*
X241799000Y-210478500D01*
X241796000Y-210478500D01*
X241794000Y-210478500D01*
X241791000Y-210477500D01*
X241789000Y-210477500D01*
X241786000Y-210476500D01*
X241784000Y-210476500D01*
X241781000Y-210475500D01*
X241779000Y-210474500D01*
X241776000Y-210473500D01*
X241774000Y-210471500D01*
X241772000Y-210470500D01*
X241770000Y-210468500D01*
X241768000Y-210467500D01*
X241766000Y-210465500D01*
X241764000Y-210463500D01*
X241762000Y-210461500D01*
X241760000Y-210459500D01*
X241759000Y-210457500D01*
X241757000Y-210455500D01*
X241756000Y-210453500D01*
X241754000Y-210451500D01*
X241753000Y-210448500D01*
X241752000Y-210446500D01*
X241751000Y-210443500D01*
X241751000Y-210441500D01*
X241750000Y-210438500D01*
X241750000Y-210436500D01*
X241749000Y-210433500D01*
X241749000Y-210431500D01*
X241749000Y-210428500D01*
X241749000Y-210228500D01*
X241749000Y-210225500D01*
X241749000Y-210223500D01*
X241750000Y-210220500D01*
X241750000Y-210218500D01*
X241751000Y-210215500D01*
X241751000Y-210213500D01*
X241752000Y-210210500D01*
X241753000Y-210208500D01*
X241754000Y-210205500D01*
X241756000Y-210203500D01*
X241757000Y-210201500D01*
X241759000Y-210199500D01*
X241760000Y-210197500D01*
X241762000Y-210195500D01*
X241764000Y-210193500D01*
X241766000Y-210191500D01*
X241768000Y-210189500D01*
X241770000Y-210188500D01*
X241772000Y-210186500D01*
X241774000Y-210185500D01*
X241776000Y-210183500D01*
X241779000Y-210182500D01*
X241781000Y-210181500D01*
X241784000Y-210180500D01*
X241786000Y-210180500D01*
X241789000Y-210179500D01*
X241791000Y-210179500D01*
X241794000Y-210178500D01*
X241796000Y-210178500D01*
X241799000Y-210178500D01*
X242299000Y-210178500D01*
X242302000Y-210178500D01*
X242304000Y-210178500D01*
X242307000Y-210179500D01*
G36*
X242307000Y-210179500D02*
G01*
X242309000Y-210179500D01*
X242312000Y-210180500D01*
X242314000Y-210180500D01*
X242317000Y-210181500D01*
X242319000Y-210182500D01*
X242322000Y-210183500D01*
X242324000Y-210185500D01*
X242326000Y-210186500D01*
X242328000Y-210188500D01*
X242330000Y-210189500D01*
X242332000Y-210191500D01*
X242334000Y-210193500D01*
X242336000Y-210195500D01*
X242338000Y-210197500D01*
X242339000Y-210199500D01*
X242341000Y-210201500D01*
X242342000Y-210203500D01*
X242344000Y-210205500D01*
X242345000Y-210208500D01*
X242346000Y-210210500D01*
X242347000Y-210213500D01*
X242347000Y-210215500D01*
X242348000Y-210218500D01*
X242348000Y-210220500D01*
X242349000Y-210223500D01*
X242349000Y-210225500D01*
X242349000Y-210228500D01*
X242349000Y-210428500D01*
X242349000Y-210431500D01*
X242349000Y-210433500D01*
X242348000Y-210436500D01*
X242348000Y-210438500D01*
X242347000Y-210441500D01*
X242347000Y-210443500D01*
X242346000Y-210446500D01*
X242345000Y-210448500D01*
X242344000Y-210451500D01*
X242342000Y-210453500D01*
X242341000Y-210455500D01*
X242339000Y-210457500D01*
X242338000Y-210459500D01*
X242336000Y-210461500D01*
X242334000Y-210463500D01*
X242332000Y-210465500D01*
X242330000Y-210467500D01*
X242328000Y-210468500D01*
X242326000Y-210470500D01*
X242324000Y-210471500D01*
X242322000Y-210473500D01*
X242319000Y-210474500D01*
X242317000Y-210475500D01*
X242314000Y-210476500D01*
X242312000Y-210476500D01*
X242309000Y-210477500D01*
X242307000Y-210477500D01*
X242304000Y-210478500D01*
X242302000Y-210478500D01*
X242299000Y-210478500D01*
X241799000Y-210478500D01*
X241796000Y-210478500D01*
X241794000Y-210478500D01*
X241791000Y-210477500D01*
X241789000Y-210477500D01*
X241786000Y-210476500D01*
X241784000Y-210476500D01*
X241781000Y-210475500D01*
X241779000Y-210474500D01*
X241776000Y-210473500D01*
X241774000Y-210471500D01*
X241772000Y-210470500D01*
X241770000Y-210468500D01*
X241768000Y-210467500D01*
X241766000Y-210465500D01*
X241764000Y-210463500D01*
X241762000Y-210461500D01*
X241760000Y-210459500D01*
X241759000Y-210457500D01*
X241757000Y-210455500D01*
X241756000Y-210453500D01*
X241754000Y-210451500D01*
X241753000Y-210448500D01*
X241752000Y-210446500D01*
X241751000Y-210443500D01*
X241751000Y-210441500D01*
X241750000Y-210438500D01*
X241750000Y-210436500D01*
X241749000Y-210433500D01*
X241749000Y-210431500D01*
X241749000Y-210428500D01*
X241749000Y-210228500D01*
X241749000Y-210225500D01*
X241749000Y-210223500D01*
X241750000Y-210220500D01*
X241750000Y-210218500D01*
X241751000Y-210215500D01*
X241751000Y-210213500D01*
X241752000Y-210210500D01*
X241753000Y-210208500D01*
X241754000Y-210205500D01*
X241756000Y-210203500D01*
X241757000Y-210201500D01*
X241759000Y-210199500D01*
X241760000Y-210197500D01*
X241762000Y-210195500D01*
X241764000Y-210193500D01*
X241766000Y-210191500D01*
X241768000Y-210189500D01*
X241770000Y-210188500D01*
X241772000Y-210186500D01*
X241774000Y-210185500D01*
X241776000Y-210183500D01*
X241779000Y-210182500D01*
X241781000Y-210181500D01*
X241784000Y-210180500D01*
X241786000Y-210180500D01*
X241789000Y-210179500D01*
X241791000Y-210179500D01*
X241794000Y-210178500D01*
X241796000Y-210178500D01*
X241799000Y-210178500D01*
X242299000Y-210178500D01*
X242302000Y-210178500D01*
X242304000Y-210178500D01*
X242307000Y-210179500D01*
G37*
X242307000Y-210829500D02*
X242309000Y-210829500D01*
X242312000Y-210830500D01*
X242314000Y-210830500D01*
X242317000Y-210831500D01*
X242319000Y-210832500D01*
X242322000Y-210833500D01*
X242324000Y-210835500D01*
X242326000Y-210836500D01*
X242328000Y-210838500D01*
X242330000Y-210839500D01*
X242332000Y-210841500D01*
X242334000Y-210843500D01*
X242336000Y-210845500D01*
X242338000Y-210847500D01*
X242339000Y-210849500D01*
X242341000Y-210851500D01*
X242342000Y-210853500D01*
X242344000Y-210855500D01*
X242345000Y-210858500D01*
X242346000Y-210860500D01*
X242347000Y-210863500D01*
X242347000Y-210865500D01*
X242348000Y-210868500D01*
X242348000Y-210870500D01*
X242349000Y-210873500D01*
X242349000Y-210875500D01*
X242349000Y-210878500D01*
X242349000Y-211078500D01*
X242349000Y-211081500D01*
X242349000Y-211083500D01*
X242348000Y-211086500D01*
X242348000Y-211088500D01*
X242347000Y-211091500D01*
X242347000Y-211093500D01*
X242346000Y-211096500D01*
X242345000Y-211098500D01*
X242344000Y-211101500D01*
X242342000Y-211103500D01*
X242341000Y-211105500D01*
X242339000Y-211107500D01*
X242338000Y-211109500D01*
X242336000Y-211111500D01*
X242334000Y-211113500D01*
X242332000Y-211115500D01*
X242330000Y-211117500D01*
X242328000Y-211118500D01*
X242326000Y-211120500D01*
X242324000Y-211121500D01*
X242322000Y-211123500D01*
X242319000Y-211124500D01*
X242317000Y-211125500D01*
X242314000Y-211126500D01*
X242312000Y-211126500D01*
X242309000Y-211127500D01*
X242307000Y-211127500D01*
X242304000Y-211128500D01*
X242302000Y-211128500D01*
X242299000Y-211128500D01*
X241799000Y-211128500D01*
X241796000Y-211128500D01*
X241794000Y-211128500D01*
X241791000Y-211127500D01*
X241789000Y-211127500D01*
X241786000Y-211126500D01*
X241784000Y-211126500D01*
X241781000Y-211125500D01*
X241779000Y-211124500D01*
X241776000Y-211123500D01*
X241774000Y-211121500D01*
X241772000Y-211120500D01*
X241770000Y-211118500D01*
X241768000Y-211117500D01*
X241766000Y-211115500D01*
X241764000Y-211113500D01*
X241762000Y-211111500D01*
X241760000Y-211109500D01*
X241759000Y-211107500D01*
X241757000Y-211105500D01*
X241756000Y-211103500D01*
X241754000Y-211101500D01*
X241753000Y-211098500D01*
X241752000Y-211096500D01*
X241751000Y-211093500D01*
X241751000Y-211091500D01*
X241750000Y-211088500D01*
X241750000Y-211086500D01*
X241749000Y-211083500D01*
X241749000Y-211081500D01*
X241749000Y-211078500D01*
X241749000Y-210878500D01*
X241749000Y-210875500D01*
X241749000Y-210873500D01*
X241750000Y-210870500D01*
X241750000Y-210868500D01*
X241751000Y-210865500D01*
X241751000Y-210863500D01*
X241752000Y-210860500D01*
X241753000Y-210858500D01*
X241754000Y-210855500D01*
X241756000Y-210853500D01*
X241757000Y-210851500D01*
X241759000Y-210849500D01*
X241760000Y-210847500D01*
X241762000Y-210845500D01*
X241764000Y-210843500D01*
X241766000Y-210841500D01*
X241768000Y-210839500D01*
X241770000Y-210838500D01*
X241772000Y-210836500D01*
X241774000Y-210835500D01*
X241776000Y-210833500D01*
X241779000Y-210832500D01*
X241781000Y-210831500D01*
X241784000Y-210830500D01*
X241786000Y-210830500D01*
X241789000Y-210829500D01*
X241791000Y-210829500D01*
X241794000Y-210828500D01*
X241796000Y-210828500D01*
X241799000Y-210828500D01*
X242299000Y-210828500D01*
X242302000Y-210828500D01*
X242304000Y-210828500D01*
X242307000Y-210829500D01*
G36*
X242307000Y-210829500D02*
G01*
X242309000Y-210829500D01*
X242312000Y-210830500D01*
X242314000Y-210830500D01*
X242317000Y-210831500D01*
X242319000Y-210832500D01*
X242322000Y-210833500D01*
X242324000Y-210835500D01*
X242326000Y-210836500D01*
X242328000Y-210838500D01*
X242330000Y-210839500D01*
X242332000Y-210841500D01*
X242334000Y-210843500D01*
X242336000Y-210845500D01*
X242338000Y-210847500D01*
X242339000Y-210849500D01*
X242341000Y-210851500D01*
X242342000Y-210853500D01*
X242344000Y-210855500D01*
X242345000Y-210858500D01*
X242346000Y-210860500D01*
X242347000Y-210863500D01*
X242347000Y-210865500D01*
X242348000Y-210868500D01*
X242348000Y-210870500D01*
X242349000Y-210873500D01*
X242349000Y-210875500D01*
X242349000Y-210878500D01*
X242349000Y-211078500D01*
X242349000Y-211081500D01*
X242349000Y-211083500D01*
X242348000Y-211086500D01*
X242348000Y-211088500D01*
X242347000Y-211091500D01*
X242347000Y-211093500D01*
X242346000Y-211096500D01*
X242345000Y-211098500D01*
X242344000Y-211101500D01*
X242342000Y-211103500D01*
X242341000Y-211105500D01*
X242339000Y-211107500D01*
X242338000Y-211109500D01*
X242336000Y-211111500D01*
X242334000Y-211113500D01*
X242332000Y-211115500D01*
X242330000Y-211117500D01*
X242328000Y-211118500D01*
X242326000Y-211120500D01*
X242324000Y-211121500D01*
X242322000Y-211123500D01*
X242319000Y-211124500D01*
X242317000Y-211125500D01*
X242314000Y-211126500D01*
X242312000Y-211126500D01*
X242309000Y-211127500D01*
X242307000Y-211127500D01*
X242304000Y-211128500D01*
X242302000Y-211128500D01*
X242299000Y-211128500D01*
X241799000Y-211128500D01*
X241796000Y-211128500D01*
X241794000Y-211128500D01*
X241791000Y-211127500D01*
X241789000Y-211127500D01*
X241786000Y-211126500D01*
X241784000Y-211126500D01*
X241781000Y-211125500D01*
X241779000Y-211124500D01*
X241776000Y-211123500D01*
X241774000Y-211121500D01*
X241772000Y-211120500D01*
X241770000Y-211118500D01*
X241768000Y-211117500D01*
X241766000Y-211115500D01*
X241764000Y-211113500D01*
X241762000Y-211111500D01*
X241760000Y-211109500D01*
X241759000Y-211107500D01*
X241757000Y-211105500D01*
X241756000Y-211103500D01*
X241754000Y-211101500D01*
X241753000Y-211098500D01*
X241752000Y-211096500D01*
X241751000Y-211093500D01*
X241751000Y-211091500D01*
X241750000Y-211088500D01*
X241750000Y-211086500D01*
X241749000Y-211083500D01*
X241749000Y-211081500D01*
X241749000Y-211078500D01*
X241749000Y-210878500D01*
X241749000Y-210875500D01*
X241749000Y-210873500D01*
X241750000Y-210870500D01*
X241750000Y-210868500D01*
X241751000Y-210865500D01*
X241751000Y-210863500D01*
X241752000Y-210860500D01*
X241753000Y-210858500D01*
X241754000Y-210855500D01*
X241756000Y-210853500D01*
X241757000Y-210851500D01*
X241759000Y-210849500D01*
X241760000Y-210847500D01*
X241762000Y-210845500D01*
X241764000Y-210843500D01*
X241766000Y-210841500D01*
X241768000Y-210839500D01*
X241770000Y-210838500D01*
X241772000Y-210836500D01*
X241774000Y-210835500D01*
X241776000Y-210833500D01*
X241779000Y-210832500D01*
X241781000Y-210831500D01*
X241784000Y-210830500D01*
X241786000Y-210830500D01*
X241789000Y-210829500D01*
X241791000Y-210829500D01*
X241794000Y-210828500D01*
X241796000Y-210828500D01*
X241799000Y-210828500D01*
X242299000Y-210828500D01*
X242302000Y-210828500D01*
X242304000Y-210828500D01*
X242307000Y-210829500D01*
G37*
X245407000Y-208879500D02*
X245409000Y-208879500D01*
X245412000Y-208880500D01*
X245414000Y-208880500D01*
X245417000Y-208881500D01*
X245419000Y-208882500D01*
X245422000Y-208883500D01*
X245424000Y-208885500D01*
X245426000Y-208886500D01*
X245428000Y-208888500D01*
X245430000Y-208889500D01*
X245432000Y-208891500D01*
X245434000Y-208893500D01*
X245436000Y-208895500D01*
X245438000Y-208897500D01*
X245439000Y-208899500D01*
X245441000Y-208901500D01*
X245442000Y-208903500D01*
X245444000Y-208905500D01*
X245445000Y-208908500D01*
X245446000Y-208910500D01*
X245447000Y-208913500D01*
X245447000Y-208915500D01*
X245448000Y-208918500D01*
X245448000Y-208920500D01*
X245449000Y-208923500D01*
X245449000Y-208925500D01*
X245449000Y-208928500D01*
X245449000Y-209128500D01*
X245449000Y-209131500D01*
X245449000Y-209133500D01*
X245448000Y-209136500D01*
X245448000Y-209138500D01*
X245447000Y-209141500D01*
X245447000Y-209143500D01*
X245446000Y-209146500D01*
X245445000Y-209148500D01*
X245444000Y-209151500D01*
X245442000Y-209153500D01*
X245441000Y-209155500D01*
X245439000Y-209157500D01*
X245438000Y-209159500D01*
X245436000Y-209161500D01*
X245434000Y-209163500D01*
X245432000Y-209165500D01*
X245430000Y-209167500D01*
X245428000Y-209168500D01*
X245426000Y-209170500D01*
X245424000Y-209171500D01*
X245422000Y-209173500D01*
X245419000Y-209174500D01*
X245417000Y-209175500D01*
X245414000Y-209176500D01*
X245412000Y-209176500D01*
X245409000Y-209177500D01*
X245407000Y-209177500D01*
X245404000Y-209178500D01*
X245402000Y-209178500D01*
X245399000Y-209178500D01*
X244899000Y-209178500D01*
X244896000Y-209178500D01*
X244894000Y-209178500D01*
X244891000Y-209177500D01*
X244889000Y-209177500D01*
X244886000Y-209176500D01*
X244884000Y-209176500D01*
X244881000Y-209175500D01*
X244879000Y-209174500D01*
X244876000Y-209173500D01*
X244874000Y-209171500D01*
X244872000Y-209170500D01*
X244870000Y-209168500D01*
X244868000Y-209167500D01*
X244866000Y-209165500D01*
X244864000Y-209163500D01*
X244862000Y-209161500D01*
X244860000Y-209159500D01*
X244859000Y-209157500D01*
X244857000Y-209155500D01*
X244856000Y-209153500D01*
X244854000Y-209151500D01*
X244853000Y-209148500D01*
X244852000Y-209146500D01*
X244851000Y-209143500D01*
X244851000Y-209141500D01*
X244850000Y-209138500D01*
X244850000Y-209136500D01*
X244849000Y-209133500D01*
X244849000Y-209131500D01*
X244849000Y-209128500D01*
X244849000Y-208928500D01*
X244849000Y-208925500D01*
X244849000Y-208923500D01*
X244850000Y-208920500D01*
X244850000Y-208918500D01*
X244851000Y-208915500D01*
X244851000Y-208913500D01*
X244852000Y-208910500D01*
X244853000Y-208908500D01*
X244854000Y-208905500D01*
X244856000Y-208903500D01*
X244857000Y-208901500D01*
X244859000Y-208899500D01*
X244860000Y-208897500D01*
X244862000Y-208895500D01*
X244864000Y-208893500D01*
X244866000Y-208891500D01*
X244868000Y-208889500D01*
X244870000Y-208888500D01*
X244872000Y-208886500D01*
X244874000Y-208885500D01*
X244876000Y-208883500D01*
X244879000Y-208882500D01*
X244881000Y-208881500D01*
X244884000Y-208880500D01*
X244886000Y-208880500D01*
X244889000Y-208879500D01*
X244891000Y-208879500D01*
X244894000Y-208878500D01*
X244896000Y-208878500D01*
X244899000Y-208878500D01*
X245399000Y-208878500D01*
X245402000Y-208878500D01*
X245404000Y-208878500D01*
X245407000Y-208879500D01*
G36*
X245407000Y-208879500D02*
G01*
X245409000Y-208879500D01*
X245412000Y-208880500D01*
X245414000Y-208880500D01*
X245417000Y-208881500D01*
X245419000Y-208882500D01*
X245422000Y-208883500D01*
X245424000Y-208885500D01*
X245426000Y-208886500D01*
X245428000Y-208888500D01*
X245430000Y-208889500D01*
X245432000Y-208891500D01*
X245434000Y-208893500D01*
X245436000Y-208895500D01*
X245438000Y-208897500D01*
X245439000Y-208899500D01*
X245441000Y-208901500D01*
X245442000Y-208903500D01*
X245444000Y-208905500D01*
X245445000Y-208908500D01*
X245446000Y-208910500D01*
X245447000Y-208913500D01*
X245447000Y-208915500D01*
X245448000Y-208918500D01*
X245448000Y-208920500D01*
X245449000Y-208923500D01*
X245449000Y-208925500D01*
X245449000Y-208928500D01*
X245449000Y-209128500D01*
X245449000Y-209131500D01*
X245449000Y-209133500D01*
X245448000Y-209136500D01*
X245448000Y-209138500D01*
X245447000Y-209141500D01*
X245447000Y-209143500D01*
X245446000Y-209146500D01*
X245445000Y-209148500D01*
X245444000Y-209151500D01*
X245442000Y-209153500D01*
X245441000Y-209155500D01*
X245439000Y-209157500D01*
X245438000Y-209159500D01*
X245436000Y-209161500D01*
X245434000Y-209163500D01*
X245432000Y-209165500D01*
X245430000Y-209167500D01*
X245428000Y-209168500D01*
X245426000Y-209170500D01*
X245424000Y-209171500D01*
X245422000Y-209173500D01*
X245419000Y-209174500D01*
X245417000Y-209175500D01*
X245414000Y-209176500D01*
X245412000Y-209176500D01*
X245409000Y-209177500D01*
X245407000Y-209177500D01*
X245404000Y-209178500D01*
X245402000Y-209178500D01*
X245399000Y-209178500D01*
X244899000Y-209178500D01*
X244896000Y-209178500D01*
X244894000Y-209178500D01*
X244891000Y-209177500D01*
X244889000Y-209177500D01*
X244886000Y-209176500D01*
X244884000Y-209176500D01*
X244881000Y-209175500D01*
X244879000Y-209174500D01*
X244876000Y-209173500D01*
X244874000Y-209171500D01*
X244872000Y-209170500D01*
X244870000Y-209168500D01*
X244868000Y-209167500D01*
X244866000Y-209165500D01*
X244864000Y-209163500D01*
X244862000Y-209161500D01*
X244860000Y-209159500D01*
X244859000Y-209157500D01*
X244857000Y-209155500D01*
X244856000Y-209153500D01*
X244854000Y-209151500D01*
X244853000Y-209148500D01*
X244852000Y-209146500D01*
X244851000Y-209143500D01*
X244851000Y-209141500D01*
X244850000Y-209138500D01*
X244850000Y-209136500D01*
X244849000Y-209133500D01*
X244849000Y-209131500D01*
X244849000Y-209128500D01*
X244849000Y-208928500D01*
X244849000Y-208925500D01*
X244849000Y-208923500D01*
X244850000Y-208920500D01*
X244850000Y-208918500D01*
X244851000Y-208915500D01*
X244851000Y-208913500D01*
X244852000Y-208910500D01*
X244853000Y-208908500D01*
X244854000Y-208905500D01*
X244856000Y-208903500D01*
X244857000Y-208901500D01*
X244859000Y-208899500D01*
X244860000Y-208897500D01*
X244862000Y-208895500D01*
X244864000Y-208893500D01*
X244866000Y-208891500D01*
X244868000Y-208889500D01*
X244870000Y-208888500D01*
X244872000Y-208886500D01*
X244874000Y-208885500D01*
X244876000Y-208883500D01*
X244879000Y-208882500D01*
X244881000Y-208881500D01*
X244884000Y-208880500D01*
X244886000Y-208880500D01*
X244889000Y-208879500D01*
X244891000Y-208879500D01*
X244894000Y-208878500D01*
X244896000Y-208878500D01*
X244899000Y-208878500D01*
X245399000Y-208878500D01*
X245402000Y-208878500D01*
X245404000Y-208878500D01*
X245407000Y-208879500D01*
G37*
X245407000Y-209529500D02*
X245409000Y-209529500D01*
X245412000Y-209530500D01*
X245414000Y-209530500D01*
X245417000Y-209531500D01*
X245419000Y-209532500D01*
X245422000Y-209533500D01*
X245424000Y-209535500D01*
X245426000Y-209536500D01*
X245428000Y-209538500D01*
X245430000Y-209539500D01*
X245432000Y-209541500D01*
X245434000Y-209543500D01*
X245436000Y-209545500D01*
X245438000Y-209547500D01*
X245439000Y-209549500D01*
X245441000Y-209551500D01*
X245442000Y-209553500D01*
X245444000Y-209555500D01*
X245445000Y-209558500D01*
X245446000Y-209560500D01*
X245447000Y-209563500D01*
X245447000Y-209565500D01*
X245448000Y-209568500D01*
X245448000Y-209570500D01*
X245449000Y-209573500D01*
X245449000Y-209575500D01*
X245449000Y-209578500D01*
X245449000Y-209778500D01*
X245449000Y-209781500D01*
X245449000Y-209783500D01*
X245448000Y-209786500D01*
X245448000Y-209788500D01*
X245447000Y-209791500D01*
X245447000Y-209793500D01*
X245446000Y-209796500D01*
X245445000Y-209798500D01*
X245444000Y-209801500D01*
X245442000Y-209803500D01*
X245441000Y-209805500D01*
X245439000Y-209807500D01*
X245438000Y-209809500D01*
X245436000Y-209811500D01*
X245434000Y-209813500D01*
X245432000Y-209815500D01*
X245430000Y-209817500D01*
X245428000Y-209818500D01*
X245426000Y-209820500D01*
X245424000Y-209821500D01*
X245422000Y-209823500D01*
X245419000Y-209824500D01*
X245417000Y-209825500D01*
X245414000Y-209826500D01*
X245412000Y-209826500D01*
X245409000Y-209827500D01*
X245407000Y-209827500D01*
X245404000Y-209828500D01*
X245402000Y-209828500D01*
X245399000Y-209828500D01*
X244899000Y-209828500D01*
X244896000Y-209828500D01*
X244894000Y-209828500D01*
X244891000Y-209827500D01*
X244889000Y-209827500D01*
X244886000Y-209826500D01*
X244884000Y-209826500D01*
X244881000Y-209825500D01*
X244879000Y-209824500D01*
X244876000Y-209823500D01*
X244874000Y-209821500D01*
X244872000Y-209820500D01*
X244870000Y-209818500D01*
X244868000Y-209817500D01*
X244866000Y-209815500D01*
X244864000Y-209813500D01*
X244862000Y-209811500D01*
X244860000Y-209809500D01*
X244859000Y-209807500D01*
X244857000Y-209805500D01*
X244856000Y-209803500D01*
X244854000Y-209801500D01*
X244853000Y-209798500D01*
X244852000Y-209796500D01*
X244851000Y-209793500D01*
X244851000Y-209791500D01*
X244850000Y-209788500D01*
X244850000Y-209786500D01*
X244849000Y-209783500D01*
X244849000Y-209781500D01*
X244849000Y-209778500D01*
X244849000Y-209578500D01*
X244849000Y-209575500D01*
X244849000Y-209573500D01*
X244850000Y-209570500D01*
X244850000Y-209568500D01*
X244851000Y-209565500D01*
X244851000Y-209563500D01*
X244852000Y-209560500D01*
X244853000Y-209558500D01*
X244854000Y-209555500D01*
X244856000Y-209553500D01*
X244857000Y-209551500D01*
X244859000Y-209549500D01*
X244860000Y-209547500D01*
X244862000Y-209545500D01*
X244864000Y-209543500D01*
X244866000Y-209541500D01*
X244868000Y-209539500D01*
X244870000Y-209538500D01*
X244872000Y-209536500D01*
X244874000Y-209535500D01*
X244876000Y-209533500D01*
X244879000Y-209532500D01*
X244881000Y-209531500D01*
X244884000Y-209530500D01*
X244886000Y-209530500D01*
X244889000Y-209529500D01*
X244891000Y-209529500D01*
X244894000Y-209528500D01*
X244896000Y-209528500D01*
X244899000Y-209528500D01*
X245399000Y-209528500D01*
X245402000Y-209528500D01*
X245404000Y-209528500D01*
X245407000Y-209529500D01*
G36*
X245407000Y-209529500D02*
G01*
X245409000Y-209529500D01*
X245412000Y-209530500D01*
X245414000Y-209530500D01*
X245417000Y-209531500D01*
X245419000Y-209532500D01*
X245422000Y-209533500D01*
X245424000Y-209535500D01*
X245426000Y-209536500D01*
X245428000Y-209538500D01*
X245430000Y-209539500D01*
X245432000Y-209541500D01*
X245434000Y-209543500D01*
X245436000Y-209545500D01*
X245438000Y-209547500D01*
X245439000Y-209549500D01*
X245441000Y-209551500D01*
X245442000Y-209553500D01*
X245444000Y-209555500D01*
X245445000Y-209558500D01*
X245446000Y-209560500D01*
X245447000Y-209563500D01*
X245447000Y-209565500D01*
X245448000Y-209568500D01*
X245448000Y-209570500D01*
X245449000Y-209573500D01*
X245449000Y-209575500D01*
X245449000Y-209578500D01*
X245449000Y-209778500D01*
X245449000Y-209781500D01*
X245449000Y-209783500D01*
X245448000Y-209786500D01*
X245448000Y-209788500D01*
X245447000Y-209791500D01*
X245447000Y-209793500D01*
X245446000Y-209796500D01*
X245445000Y-209798500D01*
X245444000Y-209801500D01*
X245442000Y-209803500D01*
X245441000Y-209805500D01*
X245439000Y-209807500D01*
X245438000Y-209809500D01*
X245436000Y-209811500D01*
X245434000Y-209813500D01*
X245432000Y-209815500D01*
X245430000Y-209817500D01*
X245428000Y-209818500D01*
X245426000Y-209820500D01*
X245424000Y-209821500D01*
X245422000Y-209823500D01*
X245419000Y-209824500D01*
X245417000Y-209825500D01*
X245414000Y-209826500D01*
X245412000Y-209826500D01*
X245409000Y-209827500D01*
X245407000Y-209827500D01*
X245404000Y-209828500D01*
X245402000Y-209828500D01*
X245399000Y-209828500D01*
X244899000Y-209828500D01*
X244896000Y-209828500D01*
X244894000Y-209828500D01*
X244891000Y-209827500D01*
X244889000Y-209827500D01*
X244886000Y-209826500D01*
X244884000Y-209826500D01*
X244881000Y-209825500D01*
X244879000Y-209824500D01*
X244876000Y-209823500D01*
X244874000Y-209821500D01*
X244872000Y-209820500D01*
X244870000Y-209818500D01*
X244868000Y-209817500D01*
X244866000Y-209815500D01*
X244864000Y-209813500D01*
X244862000Y-209811500D01*
X244860000Y-209809500D01*
X244859000Y-209807500D01*
X244857000Y-209805500D01*
X244856000Y-209803500D01*
X244854000Y-209801500D01*
X244853000Y-209798500D01*
X244852000Y-209796500D01*
X244851000Y-209793500D01*
X244851000Y-209791500D01*
X244850000Y-209788500D01*
X244850000Y-209786500D01*
X244849000Y-209783500D01*
X244849000Y-209781500D01*
X244849000Y-209778500D01*
X244849000Y-209578500D01*
X244849000Y-209575500D01*
X244849000Y-209573500D01*
X244850000Y-209570500D01*
X244850000Y-209568500D01*
X244851000Y-209565500D01*
X244851000Y-209563500D01*
X244852000Y-209560500D01*
X244853000Y-209558500D01*
X244854000Y-209555500D01*
X244856000Y-209553500D01*
X244857000Y-209551500D01*
X244859000Y-209549500D01*
X244860000Y-209547500D01*
X244862000Y-209545500D01*
X244864000Y-209543500D01*
X244866000Y-209541500D01*
X244868000Y-209539500D01*
X244870000Y-209538500D01*
X244872000Y-209536500D01*
X244874000Y-209535500D01*
X244876000Y-209533500D01*
X244879000Y-209532500D01*
X244881000Y-209531500D01*
X244884000Y-209530500D01*
X244886000Y-209530500D01*
X244889000Y-209529500D01*
X244891000Y-209529500D01*
X244894000Y-209528500D01*
X244896000Y-209528500D01*
X244899000Y-209528500D01*
X245399000Y-209528500D01*
X245402000Y-209528500D01*
X245404000Y-209528500D01*
X245407000Y-209529500D01*
G37*
X245407000Y-210179500D02*
X245409000Y-210179500D01*
X245412000Y-210180500D01*
X245414000Y-210180500D01*
X245417000Y-210181500D01*
X245419000Y-210182500D01*
X245422000Y-210183500D01*
X245424000Y-210185500D01*
X245426000Y-210186500D01*
X245428000Y-210188500D01*
X245430000Y-210189500D01*
X245432000Y-210191500D01*
X245434000Y-210193500D01*
X245436000Y-210195500D01*
X245438000Y-210197500D01*
X245439000Y-210199500D01*
X245441000Y-210201500D01*
X245442000Y-210203500D01*
X245444000Y-210205500D01*
X245445000Y-210208500D01*
X245446000Y-210210500D01*
X245447000Y-210213500D01*
X245447000Y-210215500D01*
X245448000Y-210218500D01*
X245448000Y-210220500D01*
X245449000Y-210223500D01*
X245449000Y-210225500D01*
X245449000Y-210228500D01*
X245449000Y-210428500D01*
X245449000Y-210431500D01*
X245449000Y-210433500D01*
X245448000Y-210436500D01*
X245448000Y-210438500D01*
X245447000Y-210441500D01*
X245447000Y-210443500D01*
X245446000Y-210446500D01*
X245445000Y-210448500D01*
X245444000Y-210451500D01*
X245442000Y-210453500D01*
X245441000Y-210455500D01*
X245439000Y-210457500D01*
X245438000Y-210459500D01*
X245436000Y-210461500D01*
X245434000Y-210463500D01*
X245432000Y-210465500D01*
X245430000Y-210467500D01*
X245428000Y-210468500D01*
X245426000Y-210470500D01*
X245424000Y-210471500D01*
X245422000Y-210473500D01*
X245419000Y-210474500D01*
X245417000Y-210475500D01*
X245414000Y-210476500D01*
X245412000Y-210476500D01*
X245409000Y-210477500D01*
X245407000Y-210477500D01*
X245404000Y-210478500D01*
X245402000Y-210478500D01*
X245399000Y-210478500D01*
X244899000Y-210478500D01*
X244896000Y-210478500D01*
X244894000Y-210478500D01*
X244891000Y-210477500D01*
X244889000Y-210477500D01*
X244886000Y-210476500D01*
X244884000Y-210476500D01*
X244881000Y-210475500D01*
X244879000Y-210474500D01*
X244876000Y-210473500D01*
X244874000Y-210471500D01*
X244872000Y-210470500D01*
X244870000Y-210468500D01*
X244868000Y-210467500D01*
X244866000Y-210465500D01*
X244864000Y-210463500D01*
X244862000Y-210461500D01*
X244860000Y-210459500D01*
X244859000Y-210457500D01*
X244857000Y-210455500D01*
X244856000Y-210453500D01*
X244854000Y-210451500D01*
X244853000Y-210448500D01*
X244852000Y-210446500D01*
X244851000Y-210443500D01*
X244851000Y-210441500D01*
X244850000Y-210438500D01*
X244850000Y-210436500D01*
X244849000Y-210433500D01*
X244849000Y-210431500D01*
X244849000Y-210428500D01*
X244849000Y-210228500D01*
X244849000Y-210225500D01*
X244849000Y-210223500D01*
X244850000Y-210220500D01*
X244850000Y-210218500D01*
X244851000Y-210215500D01*
X244851000Y-210213500D01*
X244852000Y-210210500D01*
X244853000Y-210208500D01*
X244854000Y-210205500D01*
X244856000Y-210203500D01*
X244857000Y-210201500D01*
X244859000Y-210199500D01*
X244860000Y-210197500D01*
X244862000Y-210195500D01*
X244864000Y-210193500D01*
X244866000Y-210191500D01*
X244868000Y-210189500D01*
X244870000Y-210188500D01*
X244872000Y-210186500D01*
X244874000Y-210185500D01*
X244876000Y-210183500D01*
X244879000Y-210182500D01*
X244881000Y-210181500D01*
X244884000Y-210180500D01*
X244886000Y-210180500D01*
X244889000Y-210179500D01*
X244891000Y-210179500D01*
X244894000Y-210178500D01*
X244896000Y-210178500D01*
X244899000Y-210178500D01*
X245399000Y-210178500D01*
X245402000Y-210178500D01*
X245404000Y-210178500D01*
X245407000Y-210179500D01*
G36*
X245407000Y-210179500D02*
G01*
X245409000Y-210179500D01*
X245412000Y-210180500D01*
X245414000Y-210180500D01*
X245417000Y-210181500D01*
X245419000Y-210182500D01*
X245422000Y-210183500D01*
X245424000Y-210185500D01*
X245426000Y-210186500D01*
X245428000Y-210188500D01*
X245430000Y-210189500D01*
X245432000Y-210191500D01*
X245434000Y-210193500D01*
X245436000Y-210195500D01*
X245438000Y-210197500D01*
X245439000Y-210199500D01*
X245441000Y-210201500D01*
X245442000Y-210203500D01*
X245444000Y-210205500D01*
X245445000Y-210208500D01*
X245446000Y-210210500D01*
X245447000Y-210213500D01*
X245447000Y-210215500D01*
X245448000Y-210218500D01*
X245448000Y-210220500D01*
X245449000Y-210223500D01*
X245449000Y-210225500D01*
X245449000Y-210228500D01*
X245449000Y-210428500D01*
X245449000Y-210431500D01*
X245449000Y-210433500D01*
X245448000Y-210436500D01*
X245448000Y-210438500D01*
X245447000Y-210441500D01*
X245447000Y-210443500D01*
X245446000Y-210446500D01*
X245445000Y-210448500D01*
X245444000Y-210451500D01*
X245442000Y-210453500D01*
X245441000Y-210455500D01*
X245439000Y-210457500D01*
X245438000Y-210459500D01*
X245436000Y-210461500D01*
X245434000Y-210463500D01*
X245432000Y-210465500D01*
X245430000Y-210467500D01*
X245428000Y-210468500D01*
X245426000Y-210470500D01*
X245424000Y-210471500D01*
X245422000Y-210473500D01*
X245419000Y-210474500D01*
X245417000Y-210475500D01*
X245414000Y-210476500D01*
X245412000Y-210476500D01*
X245409000Y-210477500D01*
X245407000Y-210477500D01*
X245404000Y-210478500D01*
X245402000Y-210478500D01*
X245399000Y-210478500D01*
X244899000Y-210478500D01*
X244896000Y-210478500D01*
X244894000Y-210478500D01*
X244891000Y-210477500D01*
X244889000Y-210477500D01*
X244886000Y-210476500D01*
X244884000Y-210476500D01*
X244881000Y-210475500D01*
X244879000Y-210474500D01*
X244876000Y-210473500D01*
X244874000Y-210471500D01*
X244872000Y-210470500D01*
X244870000Y-210468500D01*
X244868000Y-210467500D01*
X244866000Y-210465500D01*
X244864000Y-210463500D01*
X244862000Y-210461500D01*
X244860000Y-210459500D01*
X244859000Y-210457500D01*
X244857000Y-210455500D01*
X244856000Y-210453500D01*
X244854000Y-210451500D01*
X244853000Y-210448500D01*
X244852000Y-210446500D01*
X244851000Y-210443500D01*
X244851000Y-210441500D01*
X244850000Y-210438500D01*
X244850000Y-210436500D01*
X244849000Y-210433500D01*
X244849000Y-210431500D01*
X244849000Y-210428500D01*
X244849000Y-210228500D01*
X244849000Y-210225500D01*
X244849000Y-210223500D01*
X244850000Y-210220500D01*
X244850000Y-210218500D01*
X244851000Y-210215500D01*
X244851000Y-210213500D01*
X244852000Y-210210500D01*
X244853000Y-210208500D01*
X244854000Y-210205500D01*
X244856000Y-210203500D01*
X244857000Y-210201500D01*
X244859000Y-210199500D01*
X244860000Y-210197500D01*
X244862000Y-210195500D01*
X244864000Y-210193500D01*
X244866000Y-210191500D01*
X244868000Y-210189500D01*
X244870000Y-210188500D01*
X244872000Y-210186500D01*
X244874000Y-210185500D01*
X244876000Y-210183500D01*
X244879000Y-210182500D01*
X244881000Y-210181500D01*
X244884000Y-210180500D01*
X244886000Y-210180500D01*
X244889000Y-210179500D01*
X244891000Y-210179500D01*
X244894000Y-210178500D01*
X244896000Y-210178500D01*
X244899000Y-210178500D01*
X245399000Y-210178500D01*
X245402000Y-210178500D01*
X245404000Y-210178500D01*
X245407000Y-210179500D01*
G37*
X245407000Y-210829500D02*
X245409000Y-210829500D01*
X245412000Y-210830500D01*
X245414000Y-210830500D01*
X245417000Y-210831500D01*
X245419000Y-210832500D01*
X245422000Y-210833500D01*
X245424000Y-210835500D01*
X245426000Y-210836500D01*
X245428000Y-210838500D01*
X245430000Y-210839500D01*
X245432000Y-210841500D01*
X245434000Y-210843500D01*
X245436000Y-210845500D01*
X245438000Y-210847500D01*
X245439000Y-210849500D01*
X245441000Y-210851500D01*
X245442000Y-210853500D01*
X245444000Y-210855500D01*
X245445000Y-210858500D01*
X245446000Y-210860500D01*
X245447000Y-210863500D01*
X245447000Y-210865500D01*
X245448000Y-210868500D01*
X245448000Y-210870500D01*
X245449000Y-210873500D01*
X245449000Y-210875500D01*
X245449000Y-210878500D01*
X245449000Y-211078500D01*
X245449000Y-211081500D01*
X245449000Y-211083500D01*
X245448000Y-211086500D01*
X245448000Y-211088500D01*
X245447000Y-211091500D01*
X245447000Y-211093500D01*
X245446000Y-211096500D01*
X245445000Y-211098500D01*
X245444000Y-211101500D01*
X245442000Y-211103500D01*
X245441000Y-211105500D01*
X245439000Y-211107500D01*
X245438000Y-211109500D01*
X245436000Y-211111500D01*
X245434000Y-211113500D01*
X245432000Y-211115500D01*
X245430000Y-211117500D01*
X245428000Y-211118500D01*
X245426000Y-211120500D01*
X245424000Y-211121500D01*
X245422000Y-211123500D01*
X245419000Y-211124500D01*
X245417000Y-211125500D01*
X245414000Y-211126500D01*
X245412000Y-211126500D01*
X245409000Y-211127500D01*
X245407000Y-211127500D01*
X245404000Y-211128500D01*
X245402000Y-211128500D01*
X245399000Y-211128500D01*
X244899000Y-211128500D01*
X244896000Y-211128500D01*
X244894000Y-211128500D01*
X244891000Y-211127500D01*
X244889000Y-211127500D01*
X244886000Y-211126500D01*
X244884000Y-211126500D01*
X244881000Y-211125500D01*
X244879000Y-211124500D01*
X244876000Y-211123500D01*
X244874000Y-211121500D01*
X244872000Y-211120500D01*
X244870000Y-211118500D01*
X244868000Y-211117500D01*
X244866000Y-211115500D01*
X244864000Y-211113500D01*
X244862000Y-211111500D01*
X244860000Y-211109500D01*
X244859000Y-211107500D01*
X244857000Y-211105500D01*
X244856000Y-211103500D01*
X244854000Y-211101500D01*
X244853000Y-211098500D01*
X244852000Y-211096500D01*
X244851000Y-211093500D01*
X244851000Y-211091500D01*
X244850000Y-211088500D01*
X244850000Y-211086500D01*
X244849000Y-211083500D01*
X244849000Y-211081500D01*
X244849000Y-211078500D01*
X244849000Y-210878500D01*
X244849000Y-210875500D01*
X244849000Y-210873500D01*
X244850000Y-210870500D01*
X244850000Y-210868500D01*
X244851000Y-210865500D01*
X244851000Y-210863500D01*
X244852000Y-210860500D01*
X244853000Y-210858500D01*
X244854000Y-210855500D01*
X244856000Y-210853500D01*
X244857000Y-210851500D01*
X244859000Y-210849500D01*
X244860000Y-210847500D01*
X244862000Y-210845500D01*
X244864000Y-210843500D01*
X244866000Y-210841500D01*
X244868000Y-210839500D01*
X244870000Y-210838500D01*
X244872000Y-210836500D01*
X244874000Y-210835500D01*
X244876000Y-210833500D01*
X244879000Y-210832500D01*
X244881000Y-210831500D01*
X244884000Y-210830500D01*
X244886000Y-210830500D01*
X244889000Y-210829500D01*
X244891000Y-210829500D01*
X244894000Y-210828500D01*
X244896000Y-210828500D01*
X244899000Y-210828500D01*
X245399000Y-210828500D01*
X245402000Y-210828500D01*
X245404000Y-210828500D01*
X245407000Y-210829500D01*
G36*
X245407000Y-210829500D02*
G01*
X245409000Y-210829500D01*
X245412000Y-210830500D01*
X245414000Y-210830500D01*
X245417000Y-210831500D01*
X245419000Y-210832500D01*
X245422000Y-210833500D01*
X245424000Y-210835500D01*
X245426000Y-210836500D01*
X245428000Y-210838500D01*
X245430000Y-210839500D01*
X245432000Y-210841500D01*
X245434000Y-210843500D01*
X245436000Y-210845500D01*
X245438000Y-210847500D01*
X245439000Y-210849500D01*
X245441000Y-210851500D01*
X245442000Y-210853500D01*
X245444000Y-210855500D01*
X245445000Y-210858500D01*
X245446000Y-210860500D01*
X245447000Y-210863500D01*
X245447000Y-210865500D01*
X245448000Y-210868500D01*
X245448000Y-210870500D01*
X245449000Y-210873500D01*
X245449000Y-210875500D01*
X245449000Y-210878500D01*
X245449000Y-211078500D01*
X245449000Y-211081500D01*
X245449000Y-211083500D01*
X245448000Y-211086500D01*
X245448000Y-211088500D01*
X245447000Y-211091500D01*
X245447000Y-211093500D01*
X245446000Y-211096500D01*
X245445000Y-211098500D01*
X245444000Y-211101500D01*
X245442000Y-211103500D01*
X245441000Y-211105500D01*
X245439000Y-211107500D01*
X245438000Y-211109500D01*
X245436000Y-211111500D01*
X245434000Y-211113500D01*
X245432000Y-211115500D01*
X245430000Y-211117500D01*
X245428000Y-211118500D01*
X245426000Y-211120500D01*
X245424000Y-211121500D01*
X245422000Y-211123500D01*
X245419000Y-211124500D01*
X245417000Y-211125500D01*
X245414000Y-211126500D01*
X245412000Y-211126500D01*
X245409000Y-211127500D01*
X245407000Y-211127500D01*
X245404000Y-211128500D01*
X245402000Y-211128500D01*
X245399000Y-211128500D01*
X244899000Y-211128500D01*
X244896000Y-211128500D01*
X244894000Y-211128500D01*
X244891000Y-211127500D01*
X244889000Y-211127500D01*
X244886000Y-211126500D01*
X244884000Y-211126500D01*
X244881000Y-211125500D01*
X244879000Y-211124500D01*
X244876000Y-211123500D01*
X244874000Y-211121500D01*
X244872000Y-211120500D01*
X244870000Y-211118500D01*
X244868000Y-211117500D01*
X244866000Y-211115500D01*
X244864000Y-211113500D01*
X244862000Y-211111500D01*
X244860000Y-211109500D01*
X244859000Y-211107500D01*
X244857000Y-211105500D01*
X244856000Y-211103500D01*
X244854000Y-211101500D01*
X244853000Y-211098500D01*
X244852000Y-211096500D01*
X244851000Y-211093500D01*
X244851000Y-211091500D01*
X244850000Y-211088500D01*
X244850000Y-211086500D01*
X244849000Y-211083500D01*
X244849000Y-211081500D01*
X244849000Y-211078500D01*
X244849000Y-210878500D01*
X244849000Y-210875500D01*
X244849000Y-210873500D01*
X244850000Y-210870500D01*
X244850000Y-210868500D01*
X244851000Y-210865500D01*
X244851000Y-210863500D01*
X244852000Y-210860500D01*
X244853000Y-210858500D01*
X244854000Y-210855500D01*
X244856000Y-210853500D01*
X244857000Y-210851500D01*
X244859000Y-210849500D01*
X244860000Y-210847500D01*
X244862000Y-210845500D01*
X244864000Y-210843500D01*
X244866000Y-210841500D01*
X244868000Y-210839500D01*
X244870000Y-210838500D01*
X244872000Y-210836500D01*
X244874000Y-210835500D01*
X244876000Y-210833500D01*
X244879000Y-210832500D01*
X244881000Y-210831500D01*
X244884000Y-210830500D01*
X244886000Y-210830500D01*
X244889000Y-210829500D01*
X244891000Y-210829500D01*
X244894000Y-210828500D01*
X244896000Y-210828500D01*
X244899000Y-210828500D01*
X245399000Y-210828500D01*
X245402000Y-210828500D01*
X245404000Y-210828500D01*
X245407000Y-210829500D01*
G37*
X243701000Y-208779500D02*
X243704000Y-208779500D01*
X243706000Y-208780500D01*
X243709000Y-208780500D01*
X243711000Y-208781500D01*
X243714000Y-208782500D01*
X243716000Y-208783500D01*
X243718000Y-208785500D01*
X243721000Y-208786500D01*
X243723000Y-208788500D01*
X243725000Y-208789500D01*
X243727000Y-208791500D01*
X243729000Y-208793500D01*
X243731000Y-208795500D01*
X243732000Y-208797500D01*
X243734000Y-208799500D01*
X243735000Y-208801500D01*
X243737000Y-208803500D01*
X243738000Y-208805500D01*
X243739000Y-208808500D01*
X243740000Y-208810500D01*
X243741000Y-208813500D01*
X243742000Y-208815500D01*
X243742000Y-208818500D01*
X243743000Y-208820500D01*
X243743000Y-208823500D01*
X243743000Y-208825500D01*
X243743000Y-208828500D01*
X243743000Y-209853500D01*
X243743000Y-209856500D01*
X243743000Y-209858500D01*
X243743000Y-209861500D01*
X243742000Y-209863500D01*
X243742000Y-209866500D01*
X243741000Y-209868500D01*
X243740000Y-209871500D01*
X243739000Y-209873500D01*
X243738000Y-209876500D01*
X243737000Y-209878500D01*
X243735000Y-209880500D01*
X243734000Y-209882500D01*
X243732000Y-209884500D01*
X243731000Y-209886500D01*
X243729000Y-209888500D01*
X243727000Y-209890500D01*
X243725000Y-209892500D01*
X243723000Y-209893500D01*
X243721000Y-209895500D01*
X243719000Y-209896500D01*
X243716000Y-209898500D01*
X243714000Y-209899500D01*
X243711000Y-209900500D01*
X243709000Y-209901500D01*
X243706000Y-209901500D01*
X243704000Y-209902500D01*
X243701000Y-209902500D01*
X243699000Y-209903500D01*
X243696000Y-209903500D01*
X243694000Y-209903500D01*
X243693500Y-209903500D01*
X243089000Y-209903500D01*
X243086000Y-209903500D01*
X243083000Y-209903500D01*
X243081000Y-209902500D01*
X243078000Y-209902500D01*
X243076000Y-209901500D01*
X243073000Y-209901500D01*
X243071000Y-209900500D01*
X243068000Y-209899500D01*
X243066000Y-209898500D01*
X243064000Y-209896500D01*
X243061000Y-209895500D01*
X243059000Y-209893500D01*
X243057000Y-209892500D01*
X243055000Y-209890500D01*
X243053000Y-209888500D01*
X243051000Y-209886500D01*
X243050000Y-209884500D01*
X243048000Y-209882500D01*
X243047000Y-209880500D01*
X243045000Y-209878500D01*
X243044000Y-209876500D01*
X243043000Y-209873500D01*
X243042000Y-209871500D01*
X243041000Y-209868500D01*
X243040000Y-209866500D01*
X243040000Y-209863500D01*
X243039000Y-209861500D01*
X243039000Y-209858500D01*
X243039000Y-209856500D01*
X243039000Y-209853500D01*
X243039000Y-208828500D01*
X243039000Y-208825500D01*
X243039000Y-208823500D01*
X243039000Y-208820500D01*
X243040000Y-208818500D01*
X243040000Y-208815500D01*
X243041000Y-208813500D01*
X243042000Y-208810500D01*
X243043000Y-208808500D01*
X243044000Y-208805500D01*
X243045000Y-208803500D01*
X243047000Y-208801500D01*
X243048000Y-208799500D01*
X243050000Y-208797500D01*
X243051000Y-208795500D01*
X243053000Y-208793500D01*
X243055000Y-208791500D01*
X243057000Y-208789500D01*
X243059000Y-208788500D01*
X243061000Y-208786500D01*
X243064000Y-208785500D01*
X243066000Y-208783500D01*
X243068000Y-208782500D01*
X243071000Y-208781500D01*
X243073000Y-208780500D01*
X243076000Y-208780500D01*
X243078000Y-208779500D01*
X243081000Y-208779500D01*
X243083000Y-208778500D01*
X243086000Y-208778500D01*
X243089000Y-208778500D01*
X243694000Y-208778500D01*
X243696000Y-208778500D01*
X243699000Y-208778500D01*
X243701000Y-208779500D01*
G36*
X243701000Y-208779500D02*
G01*
X243704000Y-208779500D01*
X243706000Y-208780500D01*
X243709000Y-208780500D01*
X243711000Y-208781500D01*
X243714000Y-208782500D01*
X243716000Y-208783500D01*
X243718000Y-208785500D01*
X243721000Y-208786500D01*
X243723000Y-208788500D01*
X243725000Y-208789500D01*
X243727000Y-208791500D01*
X243729000Y-208793500D01*
X243731000Y-208795500D01*
X243732000Y-208797500D01*
X243734000Y-208799500D01*
X243735000Y-208801500D01*
X243737000Y-208803500D01*
X243738000Y-208805500D01*
X243739000Y-208808500D01*
X243740000Y-208810500D01*
X243741000Y-208813500D01*
X243742000Y-208815500D01*
X243742000Y-208818500D01*
X243743000Y-208820500D01*
X243743000Y-208823500D01*
X243743000Y-208825500D01*
X243743000Y-208828500D01*
X243743000Y-209853500D01*
X243743000Y-209856500D01*
X243743000Y-209858500D01*
X243743000Y-209861500D01*
X243742000Y-209863500D01*
X243742000Y-209866500D01*
X243741000Y-209868500D01*
X243740000Y-209871500D01*
X243739000Y-209873500D01*
X243738000Y-209876500D01*
X243737000Y-209878500D01*
X243735000Y-209880500D01*
X243734000Y-209882500D01*
X243732000Y-209884500D01*
X243731000Y-209886500D01*
X243729000Y-209888500D01*
X243727000Y-209890500D01*
X243725000Y-209892500D01*
X243723000Y-209893500D01*
X243721000Y-209895500D01*
X243719000Y-209896500D01*
X243716000Y-209898500D01*
X243714000Y-209899500D01*
X243711000Y-209900500D01*
X243709000Y-209901500D01*
X243706000Y-209901500D01*
X243704000Y-209902500D01*
X243701000Y-209902500D01*
X243699000Y-209903500D01*
X243696000Y-209903500D01*
X243694000Y-209903500D01*
X243693500Y-209903500D01*
X243089000Y-209903500D01*
X243086000Y-209903500D01*
X243083000Y-209903500D01*
X243081000Y-209902500D01*
X243078000Y-209902500D01*
X243076000Y-209901500D01*
X243073000Y-209901500D01*
X243071000Y-209900500D01*
X243068000Y-209899500D01*
X243066000Y-209898500D01*
X243064000Y-209896500D01*
X243061000Y-209895500D01*
X243059000Y-209893500D01*
X243057000Y-209892500D01*
X243055000Y-209890500D01*
X243053000Y-209888500D01*
X243051000Y-209886500D01*
X243050000Y-209884500D01*
X243048000Y-209882500D01*
X243047000Y-209880500D01*
X243045000Y-209878500D01*
X243044000Y-209876500D01*
X243043000Y-209873500D01*
X243042000Y-209871500D01*
X243041000Y-209868500D01*
X243040000Y-209866500D01*
X243040000Y-209863500D01*
X243039000Y-209861500D01*
X243039000Y-209858500D01*
X243039000Y-209856500D01*
X243039000Y-209853500D01*
X243039000Y-208828500D01*
X243039000Y-208825500D01*
X243039000Y-208823500D01*
X243039000Y-208820500D01*
X243040000Y-208818500D01*
X243040000Y-208815500D01*
X243041000Y-208813500D01*
X243042000Y-208810500D01*
X243043000Y-208808500D01*
X243044000Y-208805500D01*
X243045000Y-208803500D01*
X243047000Y-208801500D01*
X243048000Y-208799500D01*
X243050000Y-208797500D01*
X243051000Y-208795500D01*
X243053000Y-208793500D01*
X243055000Y-208791500D01*
X243057000Y-208789500D01*
X243059000Y-208788500D01*
X243061000Y-208786500D01*
X243064000Y-208785500D01*
X243066000Y-208783500D01*
X243068000Y-208782500D01*
X243071000Y-208781500D01*
X243073000Y-208780500D01*
X243076000Y-208780500D01*
X243078000Y-208779500D01*
X243081000Y-208779500D01*
X243083000Y-208778500D01*
X243086000Y-208778500D01*
X243089000Y-208778500D01*
X243694000Y-208778500D01*
X243696000Y-208778500D01*
X243699000Y-208778500D01*
X243701000Y-208779500D01*
G37*
X243701000Y-210104500D02*
X243704000Y-210104500D01*
X243706000Y-210105500D01*
X243709000Y-210105500D01*
X243711000Y-210106500D01*
X243714000Y-210107500D01*
X243716000Y-210108500D01*
X243719000Y-210110500D01*
X243721000Y-210111500D01*
X243723000Y-210113500D01*
X243725000Y-210114500D01*
X243727000Y-210116500D01*
X243729000Y-210118500D01*
X243731000Y-210120500D01*
X243732000Y-210122500D01*
X243734000Y-210124500D01*
X243735000Y-210126500D01*
X243737000Y-210128500D01*
X243738000Y-210130500D01*
X243739000Y-210133500D01*
X243740000Y-210135500D01*
X243741000Y-210138500D01*
X243742000Y-210140500D01*
X243742000Y-210143500D01*
X243743000Y-210145500D01*
X243743000Y-210148500D01*
X243743000Y-210150500D01*
X243743000Y-210153500D01*
X243743000Y-211178500D01*
X243743000Y-211181500D01*
X243743000Y-211183500D01*
X243743000Y-211186500D01*
X243742000Y-211188500D01*
X243742000Y-211191500D01*
X243741000Y-211193500D01*
X243740000Y-211196500D01*
X243739000Y-211198500D01*
X243738000Y-211201500D01*
X243737000Y-211203500D01*
X243735000Y-211205500D01*
X243734000Y-211207500D01*
X243732000Y-211209500D01*
X243731000Y-211211500D01*
X243729000Y-211213500D01*
X243727000Y-211215500D01*
X243725000Y-211217500D01*
X243723000Y-211218500D01*
X243721000Y-211220500D01*
X243718000Y-211221500D01*
X243716000Y-211223500D01*
X243714000Y-211224500D01*
X243711000Y-211225500D01*
X243709000Y-211226500D01*
X243706000Y-211226500D01*
X243704000Y-211227500D01*
X243701000Y-211227500D01*
X243699000Y-211228500D01*
X243696000Y-211228500D01*
X243694000Y-211228500D01*
X243693500Y-211228500D01*
X243089000Y-211228500D01*
X243086000Y-211228500D01*
X243083000Y-211228500D01*
X243081000Y-211227500D01*
X243078000Y-211227500D01*
X243076000Y-211226500D01*
X243073000Y-211226500D01*
X243071000Y-211225500D01*
X243068000Y-211224500D01*
X243066000Y-211223500D01*
X243064000Y-211221500D01*
X243061000Y-211220500D01*
X243059000Y-211218500D01*
X243057000Y-211217500D01*
X243055000Y-211215500D01*
X243053000Y-211213500D01*
X243051000Y-211211500D01*
X243050000Y-211209500D01*
X243048000Y-211207500D01*
X243047000Y-211205500D01*
X243045000Y-211203500D01*
X243044000Y-211201500D01*
X243043000Y-211198500D01*
X243042000Y-211196500D01*
X243041000Y-211193500D01*
X243040000Y-211191500D01*
X243040000Y-211188500D01*
X243039000Y-211186500D01*
X243039000Y-211183500D01*
X243039000Y-211181500D01*
X243039000Y-211178500D01*
X243039000Y-210153500D01*
X243039000Y-210150500D01*
X243039000Y-210148500D01*
X243039000Y-210145500D01*
X243040000Y-210143500D01*
X243040000Y-210140500D01*
X243041000Y-210138500D01*
X243042000Y-210135500D01*
X243043000Y-210133500D01*
X243044000Y-210130500D01*
X243045000Y-210128500D01*
X243047000Y-210126500D01*
X243048000Y-210124500D01*
X243050000Y-210122500D01*
X243051000Y-210120500D01*
X243053000Y-210118500D01*
X243055000Y-210116500D01*
X243057000Y-210114500D01*
X243059000Y-210113500D01*
X243061000Y-210111500D01*
X243064000Y-210110500D01*
X243066000Y-210108500D01*
X243068000Y-210107500D01*
X243071000Y-210106500D01*
X243073000Y-210105500D01*
X243076000Y-210105500D01*
X243078000Y-210104500D01*
X243081000Y-210104500D01*
X243083000Y-210103500D01*
X243086000Y-210103500D01*
X243089000Y-210103500D01*
X243694000Y-210103500D01*
X243696000Y-210103500D01*
X243699000Y-210103500D01*
X243701000Y-210104500D01*
G36*
X243701000Y-210104500D02*
G01*
X243704000Y-210104500D01*
X243706000Y-210105500D01*
X243709000Y-210105500D01*
X243711000Y-210106500D01*
X243714000Y-210107500D01*
X243716000Y-210108500D01*
X243719000Y-210110500D01*
X243721000Y-210111500D01*
X243723000Y-210113500D01*
X243725000Y-210114500D01*
X243727000Y-210116500D01*
X243729000Y-210118500D01*
X243731000Y-210120500D01*
X243732000Y-210122500D01*
X243734000Y-210124500D01*
X243735000Y-210126500D01*
X243737000Y-210128500D01*
X243738000Y-210130500D01*
X243739000Y-210133500D01*
X243740000Y-210135500D01*
X243741000Y-210138500D01*
X243742000Y-210140500D01*
X243742000Y-210143500D01*
X243743000Y-210145500D01*
X243743000Y-210148500D01*
X243743000Y-210150500D01*
X243743000Y-210153500D01*
X243743000Y-211178500D01*
X243743000Y-211181500D01*
X243743000Y-211183500D01*
X243743000Y-211186500D01*
X243742000Y-211188500D01*
X243742000Y-211191500D01*
X243741000Y-211193500D01*
X243740000Y-211196500D01*
X243739000Y-211198500D01*
X243738000Y-211201500D01*
X243737000Y-211203500D01*
X243735000Y-211205500D01*
X243734000Y-211207500D01*
X243732000Y-211209500D01*
X243731000Y-211211500D01*
X243729000Y-211213500D01*
X243727000Y-211215500D01*
X243725000Y-211217500D01*
X243723000Y-211218500D01*
X243721000Y-211220500D01*
X243718000Y-211221500D01*
X243716000Y-211223500D01*
X243714000Y-211224500D01*
X243711000Y-211225500D01*
X243709000Y-211226500D01*
X243706000Y-211226500D01*
X243704000Y-211227500D01*
X243701000Y-211227500D01*
X243699000Y-211228500D01*
X243696000Y-211228500D01*
X243694000Y-211228500D01*
X243693500Y-211228500D01*
X243089000Y-211228500D01*
X243086000Y-211228500D01*
X243083000Y-211228500D01*
X243081000Y-211227500D01*
X243078000Y-211227500D01*
X243076000Y-211226500D01*
X243073000Y-211226500D01*
X243071000Y-211225500D01*
X243068000Y-211224500D01*
X243066000Y-211223500D01*
X243064000Y-211221500D01*
X243061000Y-211220500D01*
X243059000Y-211218500D01*
X243057000Y-211217500D01*
X243055000Y-211215500D01*
X243053000Y-211213500D01*
X243051000Y-211211500D01*
X243050000Y-211209500D01*
X243048000Y-211207500D01*
X243047000Y-211205500D01*
X243045000Y-211203500D01*
X243044000Y-211201500D01*
X243043000Y-211198500D01*
X243042000Y-211196500D01*
X243041000Y-211193500D01*
X243040000Y-211191500D01*
X243040000Y-211188500D01*
X243039000Y-211186500D01*
X243039000Y-211183500D01*
X243039000Y-211181500D01*
X243039000Y-211178500D01*
X243039000Y-210153500D01*
X243039000Y-210150500D01*
X243039000Y-210148500D01*
X243039000Y-210145500D01*
X243040000Y-210143500D01*
X243040000Y-210140500D01*
X243041000Y-210138500D01*
X243042000Y-210135500D01*
X243043000Y-210133500D01*
X243044000Y-210130500D01*
X243045000Y-210128500D01*
X243047000Y-210126500D01*
X243048000Y-210124500D01*
X243050000Y-210122500D01*
X243051000Y-210120500D01*
X243053000Y-210118500D01*
X243055000Y-210116500D01*
X243057000Y-210114500D01*
X243059000Y-210113500D01*
X243061000Y-210111500D01*
X243064000Y-210110500D01*
X243066000Y-210108500D01*
X243068000Y-210107500D01*
X243071000Y-210106500D01*
X243073000Y-210105500D01*
X243076000Y-210105500D01*
X243078000Y-210104500D01*
X243081000Y-210104500D01*
X243083000Y-210103500D01*
X243086000Y-210103500D01*
X243089000Y-210103500D01*
X243694000Y-210103500D01*
X243696000Y-210103500D01*
X243699000Y-210103500D01*
X243701000Y-210104500D01*
G37*
X244606000Y-208779500D02*
X244609000Y-208779500D01*
X244611000Y-208780500D01*
X244614000Y-208780500D01*
X244616000Y-208781500D01*
X244619000Y-208782500D01*
X244621000Y-208783500D01*
X244624000Y-208785500D01*
X244626000Y-208786500D01*
X244628000Y-208788500D01*
X244630000Y-208789500D01*
X244632000Y-208791500D01*
X244634000Y-208793500D01*
X244636000Y-208795500D01*
X244637000Y-208797500D01*
X244639000Y-208799500D01*
X244640000Y-208801500D01*
X244642000Y-208803500D01*
X244643000Y-208805500D01*
X244644000Y-208808500D01*
X244645000Y-208810500D01*
X244646000Y-208813500D01*
X244647000Y-208815500D01*
X244647000Y-208818500D01*
X244648000Y-208820500D01*
X244648000Y-208823500D01*
X244648000Y-208825500D01*
X244649000Y-208828500D01*
X244649000Y-209853500D01*
X244648000Y-209856500D01*
X244648000Y-209858500D01*
X244648000Y-209861500D01*
X244647000Y-209863500D01*
X244647000Y-209866500D01*
X244646000Y-209868500D01*
X244645000Y-209871500D01*
X244644000Y-209873500D01*
X244643000Y-209876500D01*
X244642000Y-209878500D01*
X244640000Y-209880500D01*
X244639000Y-209882500D01*
X244637000Y-209884500D01*
X244636000Y-209886500D01*
X244634000Y-209888500D01*
X244632000Y-209890500D01*
X244630000Y-209892500D01*
X244628000Y-209893500D01*
X244626000Y-209895500D01*
X244624000Y-209896500D01*
X244621000Y-209898500D01*
X244619000Y-209899500D01*
X244616000Y-209900500D01*
X244614000Y-209901500D01*
X244611000Y-209901500D01*
X244609000Y-209902500D01*
X244606000Y-209902500D01*
X244604000Y-209903500D01*
X244601000Y-209903500D01*
X244599000Y-209903500D01*
X244598500Y-209903500D01*
X243994000Y-209903500D01*
X243991000Y-209903500D01*
X243988000Y-209903500D01*
X243986000Y-209902500D01*
X243983000Y-209902500D01*
X243981000Y-209901500D01*
X243978000Y-209901500D01*
X243976000Y-209900500D01*
X243973000Y-209899500D01*
X243971000Y-209898500D01*
X243968000Y-209896500D01*
X243966000Y-209895500D01*
X243964000Y-209893500D01*
X243962000Y-209892500D01*
X243960000Y-209890500D01*
X243958000Y-209888500D01*
X243956000Y-209886500D01*
X243955000Y-209884500D01*
X243953000Y-209882500D01*
X243952000Y-209880500D01*
X243950000Y-209878500D01*
X243949000Y-209876500D01*
X243948000Y-209873500D01*
X243947000Y-209871500D01*
X243946000Y-209868500D01*
X243945000Y-209866500D01*
X243945000Y-209863500D01*
X243944000Y-209861500D01*
X243944000Y-209858500D01*
X243944000Y-209856500D01*
X243943000Y-209853500D01*
X243943000Y-208828500D01*
X243944000Y-208825500D01*
X243944000Y-208823500D01*
X243944000Y-208820500D01*
X243945000Y-208818500D01*
X243945000Y-208815500D01*
X243946000Y-208813500D01*
X243947000Y-208810500D01*
X243948000Y-208808500D01*
X243949000Y-208805500D01*
X243950000Y-208803500D01*
X243952000Y-208801500D01*
X243953000Y-208799500D01*
X243955000Y-208797500D01*
X243956000Y-208795500D01*
X243958000Y-208793500D01*
X243960000Y-208791500D01*
X243962000Y-208789500D01*
X243964000Y-208788500D01*
X243966000Y-208786500D01*
X243968000Y-208785500D01*
X243971000Y-208783500D01*
X243973000Y-208782500D01*
X243976000Y-208781500D01*
X243978000Y-208780500D01*
X243981000Y-208780500D01*
X243983000Y-208779500D01*
X243986000Y-208779500D01*
X243988000Y-208778500D01*
X243991000Y-208778500D01*
X243994000Y-208778500D01*
X244599000Y-208778500D01*
X244601000Y-208778500D01*
X244604000Y-208778500D01*
X244606000Y-208779500D01*
G36*
X244606000Y-208779500D02*
G01*
X244609000Y-208779500D01*
X244611000Y-208780500D01*
X244614000Y-208780500D01*
X244616000Y-208781500D01*
X244619000Y-208782500D01*
X244621000Y-208783500D01*
X244624000Y-208785500D01*
X244626000Y-208786500D01*
X244628000Y-208788500D01*
X244630000Y-208789500D01*
X244632000Y-208791500D01*
X244634000Y-208793500D01*
X244636000Y-208795500D01*
X244637000Y-208797500D01*
X244639000Y-208799500D01*
X244640000Y-208801500D01*
X244642000Y-208803500D01*
X244643000Y-208805500D01*
X244644000Y-208808500D01*
X244645000Y-208810500D01*
X244646000Y-208813500D01*
X244647000Y-208815500D01*
X244647000Y-208818500D01*
X244648000Y-208820500D01*
X244648000Y-208823500D01*
X244648000Y-208825500D01*
X244649000Y-208828500D01*
X244649000Y-209853500D01*
X244648000Y-209856500D01*
X244648000Y-209858500D01*
X244648000Y-209861500D01*
X244647000Y-209863500D01*
X244647000Y-209866500D01*
X244646000Y-209868500D01*
X244645000Y-209871500D01*
X244644000Y-209873500D01*
X244643000Y-209876500D01*
X244642000Y-209878500D01*
X244640000Y-209880500D01*
X244639000Y-209882500D01*
X244637000Y-209884500D01*
X244636000Y-209886500D01*
X244634000Y-209888500D01*
X244632000Y-209890500D01*
X244630000Y-209892500D01*
X244628000Y-209893500D01*
X244626000Y-209895500D01*
X244624000Y-209896500D01*
X244621000Y-209898500D01*
X244619000Y-209899500D01*
X244616000Y-209900500D01*
X244614000Y-209901500D01*
X244611000Y-209901500D01*
X244609000Y-209902500D01*
X244606000Y-209902500D01*
X244604000Y-209903500D01*
X244601000Y-209903500D01*
X244599000Y-209903500D01*
X244598500Y-209903500D01*
X243994000Y-209903500D01*
X243991000Y-209903500D01*
X243988000Y-209903500D01*
X243986000Y-209902500D01*
X243983000Y-209902500D01*
X243981000Y-209901500D01*
X243978000Y-209901500D01*
X243976000Y-209900500D01*
X243973000Y-209899500D01*
X243971000Y-209898500D01*
X243968000Y-209896500D01*
X243966000Y-209895500D01*
X243964000Y-209893500D01*
X243962000Y-209892500D01*
X243960000Y-209890500D01*
X243958000Y-209888500D01*
X243956000Y-209886500D01*
X243955000Y-209884500D01*
X243953000Y-209882500D01*
X243952000Y-209880500D01*
X243950000Y-209878500D01*
X243949000Y-209876500D01*
X243948000Y-209873500D01*
X243947000Y-209871500D01*
X243946000Y-209868500D01*
X243945000Y-209866500D01*
X243945000Y-209863500D01*
X243944000Y-209861500D01*
X243944000Y-209858500D01*
X243944000Y-209856500D01*
X243943000Y-209853500D01*
X243943000Y-208828500D01*
X243944000Y-208825500D01*
X243944000Y-208823500D01*
X243944000Y-208820500D01*
X243945000Y-208818500D01*
X243945000Y-208815500D01*
X243946000Y-208813500D01*
X243947000Y-208810500D01*
X243948000Y-208808500D01*
X243949000Y-208805500D01*
X243950000Y-208803500D01*
X243952000Y-208801500D01*
X243953000Y-208799500D01*
X243955000Y-208797500D01*
X243956000Y-208795500D01*
X243958000Y-208793500D01*
X243960000Y-208791500D01*
X243962000Y-208789500D01*
X243964000Y-208788500D01*
X243966000Y-208786500D01*
X243968000Y-208785500D01*
X243971000Y-208783500D01*
X243973000Y-208782500D01*
X243976000Y-208781500D01*
X243978000Y-208780500D01*
X243981000Y-208780500D01*
X243983000Y-208779500D01*
X243986000Y-208779500D01*
X243988000Y-208778500D01*
X243991000Y-208778500D01*
X243994000Y-208778500D01*
X244599000Y-208778500D01*
X244601000Y-208778500D01*
X244604000Y-208778500D01*
X244606000Y-208779500D01*
G37*
X244606000Y-210104500D02*
X244609000Y-210104500D01*
X244611000Y-210105500D01*
X244614000Y-210105500D01*
X244616000Y-210106500D01*
X244619000Y-210107500D01*
X244621000Y-210108500D01*
X244624000Y-210110500D01*
X244626000Y-210111500D01*
X244628000Y-210113500D01*
X244630000Y-210114500D01*
X244632000Y-210116500D01*
X244634000Y-210118500D01*
X244636000Y-210120500D01*
X244637000Y-210122500D01*
X244639000Y-210124500D01*
X244640000Y-210126500D01*
X244642000Y-210128500D01*
X244643000Y-210130500D01*
X244644000Y-210133500D01*
X244645000Y-210135500D01*
X244646000Y-210138500D01*
X244647000Y-210140500D01*
X244647000Y-210143500D01*
X244648000Y-210145500D01*
X244648000Y-210148500D01*
X244648000Y-210150500D01*
X244649000Y-210153500D01*
X244649000Y-211178500D01*
X244648000Y-211181500D01*
X244648000Y-211183500D01*
X244648000Y-211186500D01*
X244647000Y-211188500D01*
X244647000Y-211191500D01*
X244646000Y-211193500D01*
X244645000Y-211196500D01*
X244644000Y-211198500D01*
X244643000Y-211201500D01*
X244642000Y-211203500D01*
X244640000Y-211205500D01*
X244639000Y-211207500D01*
X244637000Y-211209500D01*
X244636000Y-211211500D01*
X244634000Y-211213500D01*
X244632000Y-211215500D01*
X244630000Y-211217500D01*
X244628000Y-211218500D01*
X244626000Y-211220500D01*
X244624000Y-211221500D01*
X244621000Y-211223500D01*
X244619000Y-211224500D01*
X244616000Y-211225500D01*
X244614000Y-211226500D01*
X244611000Y-211226500D01*
X244609000Y-211227500D01*
X244606000Y-211227500D01*
X244604000Y-211228500D01*
X244601000Y-211228500D01*
X244599000Y-211228500D01*
X244598500Y-211228500D01*
X243994000Y-211228500D01*
X243991000Y-211228500D01*
X243988000Y-211228500D01*
X243986000Y-211227500D01*
X243983000Y-211227500D01*
X243981000Y-211226500D01*
X243978000Y-211226500D01*
X243976000Y-211225500D01*
X243973000Y-211224500D01*
X243971000Y-211223500D01*
X243968000Y-211221500D01*
X243966000Y-211220500D01*
X243964000Y-211218500D01*
X243962000Y-211217500D01*
X243960000Y-211215500D01*
X243958000Y-211213500D01*
X243956000Y-211211500D01*
X243955000Y-211209500D01*
X243953000Y-211207500D01*
X243952000Y-211205500D01*
X243950000Y-211203500D01*
X243949000Y-211201500D01*
X243948000Y-211198500D01*
X243947000Y-211196500D01*
X243946000Y-211193500D01*
X243945000Y-211191500D01*
X243945000Y-211188500D01*
X243944000Y-211186500D01*
X243944000Y-211183500D01*
X243944000Y-211181500D01*
X243943000Y-211178500D01*
X243943000Y-210153500D01*
X243944000Y-210150500D01*
X243944000Y-210148500D01*
X243944000Y-210145500D01*
X243945000Y-210143500D01*
X243945000Y-210140500D01*
X243946000Y-210138500D01*
X243947000Y-210135500D01*
X243948000Y-210133500D01*
X243949000Y-210130500D01*
X243950000Y-210128500D01*
X243952000Y-210126500D01*
X243953000Y-210124500D01*
X243955000Y-210122500D01*
X243956000Y-210120500D01*
X243958000Y-210118500D01*
X243960000Y-210116500D01*
X243962000Y-210114500D01*
X243964000Y-210113500D01*
X243966000Y-210111500D01*
X243968000Y-210110500D01*
X243971000Y-210108500D01*
X243973000Y-210107500D01*
X243976000Y-210106500D01*
X243978000Y-210105500D01*
X243981000Y-210105500D01*
X243983000Y-210104500D01*
X243986000Y-210104500D01*
X243988000Y-210103500D01*
X243991000Y-210103500D01*
X243994000Y-210103500D01*
X244599000Y-210103500D01*
X244601000Y-210103500D01*
X244604000Y-210103500D01*
X244606000Y-210104500D01*
G36*
X244606000Y-210104500D02*
G01*
X244609000Y-210104500D01*
X244611000Y-210105500D01*
X244614000Y-210105500D01*
X244616000Y-210106500D01*
X244619000Y-210107500D01*
X244621000Y-210108500D01*
X244624000Y-210110500D01*
X244626000Y-210111500D01*
X244628000Y-210113500D01*
X244630000Y-210114500D01*
X244632000Y-210116500D01*
X244634000Y-210118500D01*
X244636000Y-210120500D01*
X244637000Y-210122500D01*
X244639000Y-210124500D01*
X244640000Y-210126500D01*
X244642000Y-210128500D01*
X244643000Y-210130500D01*
X244644000Y-210133500D01*
X244645000Y-210135500D01*
X244646000Y-210138500D01*
X244647000Y-210140500D01*
X244647000Y-210143500D01*
X244648000Y-210145500D01*
X244648000Y-210148500D01*
X244648000Y-210150500D01*
X244649000Y-210153500D01*
X244649000Y-211178500D01*
X244648000Y-211181500D01*
X244648000Y-211183500D01*
X244648000Y-211186500D01*
X244647000Y-211188500D01*
X244647000Y-211191500D01*
X244646000Y-211193500D01*
X244645000Y-211196500D01*
X244644000Y-211198500D01*
X244643000Y-211201500D01*
X244642000Y-211203500D01*
X244640000Y-211205500D01*
X244639000Y-211207500D01*
X244637000Y-211209500D01*
X244636000Y-211211500D01*
X244634000Y-211213500D01*
X244632000Y-211215500D01*
X244630000Y-211217500D01*
X244628000Y-211218500D01*
X244626000Y-211220500D01*
X244624000Y-211221500D01*
X244621000Y-211223500D01*
X244619000Y-211224500D01*
X244616000Y-211225500D01*
X244614000Y-211226500D01*
X244611000Y-211226500D01*
X244609000Y-211227500D01*
X244606000Y-211227500D01*
X244604000Y-211228500D01*
X244601000Y-211228500D01*
X244599000Y-211228500D01*
X244598500Y-211228500D01*
X243994000Y-211228500D01*
X243991000Y-211228500D01*
X243988000Y-211228500D01*
X243986000Y-211227500D01*
X243983000Y-211227500D01*
X243981000Y-211226500D01*
X243978000Y-211226500D01*
X243976000Y-211225500D01*
X243973000Y-211224500D01*
X243971000Y-211223500D01*
X243968000Y-211221500D01*
X243966000Y-211220500D01*
X243964000Y-211218500D01*
X243962000Y-211217500D01*
X243960000Y-211215500D01*
X243958000Y-211213500D01*
X243956000Y-211211500D01*
X243955000Y-211209500D01*
X243953000Y-211207500D01*
X243952000Y-211205500D01*
X243950000Y-211203500D01*
X243949000Y-211201500D01*
X243948000Y-211198500D01*
X243947000Y-211196500D01*
X243946000Y-211193500D01*
X243945000Y-211191500D01*
X243945000Y-211188500D01*
X243944000Y-211186500D01*
X243944000Y-211183500D01*
X243944000Y-211181500D01*
X243943000Y-211178500D01*
X243943000Y-210153500D01*
X243944000Y-210150500D01*
X243944000Y-210148500D01*
X243944000Y-210145500D01*
X243945000Y-210143500D01*
X243945000Y-210140500D01*
X243946000Y-210138500D01*
X243947000Y-210135500D01*
X243948000Y-210133500D01*
X243949000Y-210130500D01*
X243950000Y-210128500D01*
X243952000Y-210126500D01*
X243953000Y-210124500D01*
X243955000Y-210122500D01*
X243956000Y-210120500D01*
X243958000Y-210118500D01*
X243960000Y-210116500D01*
X243962000Y-210114500D01*
X243964000Y-210113500D01*
X243966000Y-210111500D01*
X243968000Y-210110500D01*
X243971000Y-210108500D01*
X243973000Y-210107500D01*
X243976000Y-210106500D01*
X243978000Y-210105500D01*
X243981000Y-210105500D01*
X243983000Y-210104500D01*
X243986000Y-210104500D01*
X243988000Y-210103500D01*
X243991000Y-210103500D01*
X243994000Y-210103500D01*
X244599000Y-210103500D01*
X244601000Y-210103500D01*
X244604000Y-210103500D01*
X244606000Y-210104500D01*
G37*
D11*
%TO.C,U4*%
G36*
X233868947Y-199320948D02*
G01*
X233659052Y-199320948D01*
X233659052Y-198541053D01*
X233868947Y-198541053D01*
X233868947Y-199320948D01*
G37*
G36*
X233868947Y-202270947D02*
G01*
X233659052Y-202270947D01*
X233659052Y-201491052D01*
X233868947Y-201491052D01*
X233868947Y-202270947D01*
G37*
G36*
X234368949Y-199320948D02*
G01*
X234159053Y-199320948D01*
X234159053Y-198541053D01*
X234368949Y-198541053D01*
X234368949Y-199320948D01*
G37*
G36*
X234368949Y-202270947D02*
G01*
X234159053Y-202270947D01*
X234159053Y-201491052D01*
X234368949Y-201491052D01*
X234368949Y-202270947D01*
G37*
G36*
X234868948Y-199320948D02*
G01*
X234659052Y-199320948D01*
X234659052Y-198541053D01*
X234868948Y-198541053D01*
X234868948Y-199320948D01*
G37*
G36*
X234868948Y-202270947D02*
G01*
X234659052Y-202270947D01*
X234659052Y-201491052D01*
X234868948Y-201491052D01*
X234868948Y-202270947D01*
G37*
G36*
X235368947Y-199320948D02*
G01*
X235159051Y-199320948D01*
X235159051Y-198541053D01*
X235368947Y-198541053D01*
X235368947Y-199320948D01*
G37*
G36*
X235368947Y-202270947D02*
G01*
X235159051Y-202270947D01*
X235159051Y-201491052D01*
X235368947Y-201491052D01*
X235368947Y-202270947D01*
G37*
G36*
X235868948Y-199320948D02*
G01*
X235659053Y-199320948D01*
X235659053Y-198541053D01*
X235868948Y-198541053D01*
X235868948Y-199320948D01*
G37*
G36*
X235868948Y-202270947D02*
G01*
X235659053Y-202270947D01*
X235659053Y-201491052D01*
X235868948Y-201491052D01*
X235868948Y-202270947D01*
G37*
D10*
%TO.C,Q1*%
X189840000Y-61020000D02*
X189433470Y-61020000D01*
X189433470Y-60670000D01*
X189840000Y-60670000D01*
X189840000Y-61020000D01*
G36*
X189840000Y-61020000D02*
G01*
X189433470Y-61020000D01*
X189433470Y-60670000D01*
X189840000Y-60670000D01*
X189840000Y-61020000D01*
G37*
X189840000Y-61670000D02*
X189437170Y-61670000D01*
X189437170Y-61220000D01*
X189840000Y-61220000D01*
X189840000Y-61670000D01*
G36*
X189840000Y-61670000D02*
G01*
X189437170Y-61670000D01*
X189437170Y-61220000D01*
X189840000Y-61220000D01*
X189840000Y-61670000D01*
G37*
X189890000Y-67220000D02*
X189387640Y-67220000D01*
X189387640Y-66470000D01*
X189890000Y-66470000D01*
X189890000Y-67220000D01*
G36*
X189890000Y-67220000D02*
G01*
X189387640Y-67220000D01*
X189387640Y-66470000D01*
X189890000Y-66470000D01*
X189890000Y-67220000D01*
G37*
X191110000Y-61020000D02*
X190707487Y-61020000D01*
X190707487Y-60670000D01*
X191110000Y-60670000D01*
X191110000Y-61020000D01*
G36*
X191110000Y-61020000D02*
G01*
X190707487Y-61020000D01*
X190707487Y-60670000D01*
X191110000Y-60670000D01*
X191110000Y-61020000D01*
G37*
X191160000Y-67220000D02*
X190656756Y-67220000D01*
X190656756Y-66470000D01*
X191160000Y-66470000D01*
X191160000Y-67220000D01*
G36*
X191160000Y-67220000D02*
G01*
X190656756Y-67220000D01*
X190656756Y-66470000D01*
X191160000Y-66470000D01*
X191160000Y-67220000D01*
G37*
X191445000Y-64490000D02*
X189937940Y-64490000D01*
X189937940Y-62990000D01*
X191445000Y-62990000D01*
X191445000Y-64490000D01*
G36*
X191445000Y-64490000D02*
G01*
X189937940Y-64490000D01*
X189937940Y-62990000D01*
X191445000Y-62990000D01*
X191445000Y-64490000D01*
G37*
X191445000Y-66190000D02*
X189938650Y-66190000D01*
X189938650Y-64690000D01*
X191445000Y-64690000D01*
X191445000Y-66190000D01*
G36*
X191445000Y-66190000D02*
G01*
X189938650Y-66190000D01*
X189938650Y-64690000D01*
X191445000Y-64690000D01*
X191445000Y-66190000D01*
G37*
X191610000Y-61670000D02*
X190708734Y-61670000D01*
X190708734Y-61220000D01*
X191610000Y-61220000D01*
X191610000Y-61670000D01*
G36*
X191610000Y-61670000D02*
G01*
X190708734Y-61670000D01*
X190708734Y-61220000D01*
X191610000Y-61220000D01*
X191610000Y-61670000D01*
G37*
X192380000Y-61020000D02*
X191980850Y-61020000D01*
X191980850Y-60670000D01*
X192380000Y-60670000D01*
X192380000Y-61020000D01*
G36*
X192380000Y-61020000D02*
G01*
X191980850Y-61020000D01*
X191980850Y-60670000D01*
X192380000Y-60670000D01*
X192380000Y-61020000D01*
G37*
X192430000Y-67220000D02*
X191931369Y-67220000D01*
X191931369Y-66470000D01*
X192430000Y-66470000D01*
X192430000Y-67220000D01*
G36*
X192430000Y-67220000D02*
G01*
X191931369Y-67220000D01*
X191931369Y-66470000D01*
X192430000Y-66470000D01*
X192430000Y-67220000D01*
G37*
X192710000Y-61670000D02*
X191810759Y-61670000D01*
X191810759Y-61220000D01*
X192710000Y-61220000D01*
X192710000Y-61670000D01*
G36*
X192710000Y-61670000D02*
G01*
X191810759Y-61670000D01*
X191810759Y-61220000D01*
X192710000Y-61220000D01*
X192710000Y-61670000D01*
G37*
X193145000Y-64490000D02*
X191645150Y-64490000D01*
X191645150Y-62990000D01*
X193145000Y-62990000D01*
X193145000Y-64490000D01*
G36*
X193145000Y-64490000D02*
G01*
X191645150Y-64490000D01*
X191645150Y-62990000D01*
X193145000Y-62990000D01*
X193145000Y-64490000D01*
G37*
X193145000Y-66190000D02*
X191645116Y-66190000D01*
X191645116Y-64690000D01*
X193145000Y-64690000D01*
X193145000Y-66190000D01*
G36*
X193145000Y-66190000D02*
G01*
X191645116Y-66190000D01*
X191645116Y-64690000D01*
X193145000Y-64690000D01*
X193145000Y-66190000D01*
G37*
X193650000Y-61020000D02*
X193257040Y-61020000D01*
X193257040Y-60670000D01*
X193650000Y-60670000D01*
X193650000Y-61020000D01*
G36*
X193650000Y-61020000D02*
G01*
X193257040Y-61020000D01*
X193257040Y-60670000D01*
X193650000Y-60670000D01*
X193650000Y-61020000D01*
G37*
X193700000Y-67220000D02*
X193201540Y-67220000D01*
X193201540Y-66470000D01*
X193700000Y-66470000D01*
X193700000Y-67220000D01*
G36*
X193700000Y-67220000D02*
G01*
X193201540Y-67220000D01*
X193201540Y-66470000D01*
X193700000Y-66470000D01*
X193700000Y-67220000D01*
G37*
X193810000Y-61670000D02*
X192915950Y-61670000D01*
X192915950Y-61220000D01*
X193810000Y-61220000D01*
X193810000Y-61670000D01*
G36*
X193810000Y-61670000D02*
G01*
X192915950Y-61670000D01*
X192915950Y-61220000D01*
X193810000Y-61220000D01*
X193810000Y-61670000D01*
G37*
D11*
%TO.C,U2*%
G36*
X238039300Y-79314800D02*
G01*
X236439100Y-79314800D01*
X236439100Y-76165200D01*
X238039300Y-76165200D01*
X238039300Y-79314800D01*
G37*
D10*
%TO.C,Q2*%
X201895000Y-60970000D02*
X201488470Y-60970000D01*
X201488470Y-60620000D01*
X201895000Y-60620000D01*
X201895000Y-60970000D01*
G36*
X201895000Y-60970000D02*
G01*
X201488470Y-60970000D01*
X201488470Y-60620000D01*
X201895000Y-60620000D01*
X201895000Y-60970000D01*
G37*
X201895000Y-61620000D02*
X201492170Y-61620000D01*
X201492170Y-61170000D01*
X201895000Y-61170000D01*
X201895000Y-61620000D01*
G36*
X201895000Y-61620000D02*
G01*
X201492170Y-61620000D01*
X201492170Y-61170000D01*
X201895000Y-61170000D01*
X201895000Y-61620000D01*
G37*
X201945000Y-67170000D02*
X201442640Y-67170000D01*
X201442640Y-66420000D01*
X201945000Y-66420000D01*
X201945000Y-67170000D01*
G36*
X201945000Y-67170000D02*
G01*
X201442640Y-67170000D01*
X201442640Y-66420000D01*
X201945000Y-66420000D01*
X201945000Y-67170000D01*
G37*
X203165000Y-60970000D02*
X202762487Y-60970000D01*
X202762487Y-60620000D01*
X203165000Y-60620000D01*
X203165000Y-60970000D01*
G36*
X203165000Y-60970000D02*
G01*
X202762487Y-60970000D01*
X202762487Y-60620000D01*
X203165000Y-60620000D01*
X203165000Y-60970000D01*
G37*
X203215000Y-67170000D02*
X202711756Y-67170000D01*
X202711756Y-66420000D01*
X203215000Y-66420000D01*
X203215000Y-67170000D01*
G36*
X203215000Y-67170000D02*
G01*
X202711756Y-67170000D01*
X202711756Y-66420000D01*
X203215000Y-66420000D01*
X203215000Y-67170000D01*
G37*
X203500000Y-64440000D02*
X201992940Y-64440000D01*
X201992940Y-62940000D01*
X203500000Y-62940000D01*
X203500000Y-64440000D01*
G36*
X203500000Y-64440000D02*
G01*
X201992940Y-64440000D01*
X201992940Y-62940000D01*
X203500000Y-62940000D01*
X203500000Y-64440000D01*
G37*
X203500000Y-66140000D02*
X201993650Y-66140000D01*
X201993650Y-64640000D01*
X203500000Y-64640000D01*
X203500000Y-66140000D01*
G36*
X203500000Y-66140000D02*
G01*
X201993650Y-66140000D01*
X201993650Y-64640000D01*
X203500000Y-64640000D01*
X203500000Y-66140000D01*
G37*
X203665000Y-61620000D02*
X202763734Y-61620000D01*
X202763734Y-61170000D01*
X203665000Y-61170000D01*
X203665000Y-61620000D01*
G36*
X203665000Y-61620000D02*
G01*
X202763734Y-61620000D01*
X202763734Y-61170000D01*
X203665000Y-61170000D01*
X203665000Y-61620000D01*
G37*
X204435000Y-60970000D02*
X204035850Y-60970000D01*
X204035850Y-60620000D01*
X204435000Y-60620000D01*
X204435000Y-60970000D01*
G36*
X204435000Y-60970000D02*
G01*
X204035850Y-60970000D01*
X204035850Y-60620000D01*
X204435000Y-60620000D01*
X204435000Y-60970000D01*
G37*
X204485000Y-67170000D02*
X203986369Y-67170000D01*
X203986369Y-66420000D01*
X204485000Y-66420000D01*
X204485000Y-67170000D01*
G36*
X204485000Y-67170000D02*
G01*
X203986369Y-67170000D01*
X203986369Y-66420000D01*
X204485000Y-66420000D01*
X204485000Y-67170000D01*
G37*
X204765000Y-61620000D02*
X203865759Y-61620000D01*
X203865759Y-61170000D01*
X204765000Y-61170000D01*
X204765000Y-61620000D01*
G36*
X204765000Y-61620000D02*
G01*
X203865759Y-61620000D01*
X203865759Y-61170000D01*
X204765000Y-61170000D01*
X204765000Y-61620000D01*
G37*
X205200000Y-64440000D02*
X203700150Y-64440000D01*
X203700150Y-62940000D01*
X205200000Y-62940000D01*
X205200000Y-64440000D01*
G36*
X205200000Y-64440000D02*
G01*
X203700150Y-64440000D01*
X203700150Y-62940000D01*
X205200000Y-62940000D01*
X205200000Y-64440000D01*
G37*
X205200000Y-66140000D02*
X203700116Y-66140000D01*
X203700116Y-64640000D01*
X205200000Y-64640000D01*
X205200000Y-66140000D01*
G36*
X205200000Y-66140000D02*
G01*
X203700116Y-66140000D01*
X203700116Y-64640000D01*
X205200000Y-64640000D01*
X205200000Y-66140000D01*
G37*
X205705000Y-60970000D02*
X205312040Y-60970000D01*
X205312040Y-60620000D01*
X205705000Y-60620000D01*
X205705000Y-60970000D01*
G36*
X205705000Y-60970000D02*
G01*
X205312040Y-60970000D01*
X205312040Y-60620000D01*
X205705000Y-60620000D01*
X205705000Y-60970000D01*
G37*
X205755000Y-67170000D02*
X205256540Y-67170000D01*
X205256540Y-66420000D01*
X205755000Y-66420000D01*
X205755000Y-67170000D01*
G36*
X205755000Y-67170000D02*
G01*
X205256540Y-67170000D01*
X205256540Y-66420000D01*
X205755000Y-66420000D01*
X205755000Y-67170000D01*
G37*
X205865000Y-61620000D02*
X204970950Y-61620000D01*
X204970950Y-61170000D01*
X205865000Y-61170000D01*
X205865000Y-61620000D01*
G36*
X205865000Y-61620000D02*
G01*
X204970950Y-61620000D01*
X204970950Y-61170000D01*
X205865000Y-61170000D01*
X205865000Y-61620000D01*
G37*
%TD*%
D12*
%TO.C,R3*%
X213660000Y-101155000D03*
X213660000Y-99330000D03*
%TD*%
D13*
%TO.C,C35*%
X228989000Y-200406000D03*
X227264000Y-200406000D03*
%TD*%
D14*
%TO.C,C27*%
X207862500Y-218280000D03*
X209937500Y-218280000D03*
%TD*%
%TO.C,C31*%
X240096500Y-195978500D03*
X242171500Y-195978500D03*
%TD*%
D15*
%TO.C,R8*%
X205335000Y-53580000D03*
X207160000Y-53580000D03*
%TD*%
D16*
%TO.C,C9*%
X294520000Y-48285000D03*
X294520000Y-50010000D03*
%TD*%
D17*
%TO.C,S1*%
X243252500Y-95610000D03*
X243252500Y-91110000D03*
X234152500Y-95610000D03*
X234152500Y-91110000D03*
%TD*%
D18*
%TO.C,R15*%
X224674000Y-194116000D03*
X224674000Y-195941000D03*
%TD*%
D15*
%TO.C,R5*%
X217470000Y-75660000D03*
X219295000Y-75660000D03*
%TD*%
D19*
%TO.C,D4*%
X209360000Y-58940000D03*
X210225000Y-58940000D03*
%TD*%
D13*
%TO.C,C23*%
X280742500Y-182690000D03*
X279017500Y-182690000D03*
%TD*%
D20*
%TO.C,R2*%
X243055235Y-119635235D03*
X241764765Y-118344765D03*
%TD*%
D12*
%TO.C,R14*%
X223804000Y-204831000D03*
X223804000Y-203006000D03*
%TD*%
D21*
%TO.C,C19*%
X180777500Y-98640000D03*
X182502500Y-98640000D03*
%TD*%
D22*
%TO.C,R11*%
X239676500Y-200381000D03*
X237851500Y-200381000D03*
%TD*%
D23*
%TO.C,C16*%
X243640120Y-115300120D03*
X244859880Y-116519880D03*
%TD*%
D12*
%TO.C,R16*%
X229124000Y-195901000D03*
X229124000Y-194076000D03*
%TD*%
D21*
%TO.C,C39*%
X208175000Y-222030000D03*
X209900000Y-222030000D03*
%TD*%
D13*
%TO.C,C1*%
X250302100Y-80240000D03*
X248577100Y-80240000D03*
%TD*%
D24*
%TO.C,C4*%
X181460000Y-50510000D03*
X181460000Y-48785000D03*
%TD*%
D25*
%TO.C,C28*%
X251665000Y-195320000D03*
X249590000Y-195320000D03*
%TD*%
D26*
%TO.C,C3*%
X187140000Y-50720000D03*
X187140000Y-48645000D03*
%TD*%
D22*
%TO.C,R1*%
X248140000Y-101330000D03*
X246315000Y-101330000D03*
%TD*%
%TO.C,R19*%
X242692500Y-99200000D03*
X240867500Y-99200000D03*
%TD*%
D26*
%TO.C,C21*%
X236610000Y-57270000D03*
X236610000Y-55195000D03*
%TD*%
D14*
%TO.C,C2*%
X248439600Y-75240000D03*
X250514600Y-75240000D03*
%TD*%
D24*
%TO.C,C34*%
X236414000Y-195791000D03*
X236414000Y-194066000D03*
%TD*%
D27*
%TO.C,C14*%
X242550120Y-111479880D03*
X243769880Y-110260120D03*
%TD*%
D28*
%TO.C,U6*%
X235074900Y-151765000D03*
X235074900Y-153035000D03*
X235074900Y-154305000D03*
X235074900Y-155575000D03*
X235074900Y-156845000D03*
X235074900Y-158115000D03*
X235074900Y-159385000D03*
X235074900Y-160655000D03*
X240485100Y-160655000D03*
X240485100Y-159385000D03*
X240485100Y-158115000D03*
X240485100Y-156845000D03*
X240485100Y-155575000D03*
X240485100Y-154305000D03*
X240485100Y-153035000D03*
X240485100Y-151765000D03*
%TD*%
D25*
%TO.C,C36*%
X235431500Y-191518500D03*
X233356500Y-191518500D03*
%TD*%
%TO.C,C24*%
X280877500Y-186660000D03*
X278802500Y-186660000D03*
%TD*%
D14*
%TO.C,C22*%
X243735000Y-221850000D03*
X245810000Y-221850000D03*
%TD*%
D25*
%TO.C,C30*%
X251515000Y-203500000D03*
X249440000Y-203500000D03*
%TD*%
D15*
%TO.C,R18*%
X207457500Y-104070000D03*
X209282500Y-104070000D03*
%TD*%
D21*
%TO.C,C17*%
X243680000Y-224610000D03*
X245405000Y-224610000D03*
%TD*%
D29*
%TO.C,D1*%
X225187500Y-75390000D03*
X224322500Y-75390000D03*
%TD*%
D26*
%TO.C,C5*%
X200440000Y-50112500D03*
X200440000Y-48037500D03*
%TD*%
D15*
%TO.C,R7*%
X253045000Y-69060000D03*
X254870000Y-69060000D03*
%TD*%
D21*
%TO.C,C25*%
X186610000Y-219962500D03*
X188335000Y-219962500D03*
%TD*%
D24*
%TO.C,C6*%
X205780000Y-49972500D03*
X205780000Y-48247500D03*
%TD*%
D30*
%TO.C,U2*%
X243640000Y-80040000D03*
X243640000Y-77740000D03*
X243640000Y-75440000D03*
%TD*%
D31*
%TO.C,C20*%
X288750000Y-48185000D03*
X288750000Y-50260000D03*
%TD*%
D32*
%TO.C,U3*%
X199884400Y-58691330D03*
X199884400Y-58190950D03*
X199884400Y-57690569D03*
X199884400Y-57190191D03*
X199884400Y-56689809D03*
X199884400Y-56189431D03*
X199884400Y-55689050D03*
X199884400Y-55188670D03*
X195515600Y-55188670D03*
X195515600Y-55689050D03*
X195515600Y-56189431D03*
X195515600Y-56689809D03*
X195515600Y-57190191D03*
X195515600Y-57690569D03*
X195515600Y-58190950D03*
X195515600Y-58691330D03*
%TD*%
D33*
%TO.C,C38*%
X232647500Y-220510000D03*
X235772500Y-220510000D03*
%TD*%
D28*
%TO.C,U7*%
X220644700Y-151805000D03*
X220644700Y-153075000D03*
X220644700Y-154345000D03*
X220644700Y-155615000D03*
X220644700Y-156885000D03*
X220644700Y-158155000D03*
X220644700Y-159425000D03*
X220644700Y-160695000D03*
X226054900Y-160695000D03*
X226054900Y-159425000D03*
X226054900Y-158155000D03*
X226054900Y-156885000D03*
X226054900Y-155615000D03*
X226054900Y-154345000D03*
X226054900Y-153075000D03*
X226054900Y-151805000D03*
%TD*%
D18*
%TO.C,R13*%
X232584000Y-194076000D03*
X232584000Y-195901000D03*
%TD*%
D24*
%TO.C,C10*%
X241240000Y-56935000D03*
X241240000Y-55210000D03*
%TD*%
D25*
%TO.C,C29*%
X251477500Y-208090000D03*
X249402500Y-208090000D03*
%TD*%
D24*
%TO.C,C37*%
X222284000Y-199681000D03*
X222284000Y-197956000D03*
%TD*%
D34*
%TO.C,C12*%
X231249880Y-120600120D03*
X230030120Y-121819880D03*
%TD*%
D15*
%TO.C,R4*%
X285327500Y-205740000D03*
X287152500Y-205740000D03*
%TD*%
D35*
%TO.C,J3*%
X165006500Y-38235000D03*
X165006500Y-36985000D03*
X165006500Y-35735000D03*
X165006500Y-34485000D03*
D36*
X161656499Y-32635001D03*
X161656499Y-40084999D03*
%TD*%
D13*
%TO.C,C11*%
X248145000Y-103880000D03*
X246420000Y-103880000D03*
%TD*%
D21*
%TO.C,C33*%
X241401500Y-202406000D03*
X243126500Y-202406000D03*
%TD*%
D27*
%TO.C,C13*%
X238950120Y-107039880D03*
X240169880Y-105820120D03*
%TD*%
D14*
%TO.C,C40*%
X186335000Y-224212500D03*
X188410000Y-224212500D03*
%TD*%
D19*
%TO.C,D2*%
X226170000Y-224050000D03*
X227035000Y-224050000D03*
%TD*%
D13*
%TO.C,C32*%
X251342500Y-198810000D03*
X249617500Y-198810000D03*
%TD*%
D25*
%TO.C,C8*%
X262805000Y-207840000D03*
X260730000Y-207840000D03*
%TD*%
D21*
%TO.C,C18*%
X180715000Y-90990000D03*
X182440000Y-90990000D03*
%TD*%
D37*
%TO.C,L2*%
X232764000Y-212866000D03*
X232764000Y-216906000D03*
%TD*%
D38*
%TO.C,U1*%
X239659747Y-112049341D03*
X239306194Y-111695788D03*
X238952639Y-111342233D03*
X238599087Y-110988680D03*
X238245534Y-110635128D03*
X237891980Y-110281574D03*
X237538426Y-109928020D03*
X237184872Y-109574466D03*
X236831320Y-109220913D03*
X236477767Y-108867361D03*
X236124212Y-108513806D03*
X235770659Y-108160253D03*
D39*
X233649341Y-108160253D03*
X233295788Y-108513806D03*
X232942233Y-108867361D03*
X232588680Y-109220913D03*
X232235128Y-109574466D03*
X231881574Y-109928020D03*
X231528020Y-110281574D03*
X231174466Y-110635128D03*
X230820913Y-110988680D03*
X230467361Y-111342233D03*
X230113806Y-111695788D03*
X229760253Y-112049341D03*
D38*
X229760253Y-114170659D03*
X230113806Y-114524212D03*
X230467361Y-114877767D03*
X230820913Y-115231320D03*
X231174466Y-115584872D03*
X231528020Y-115938426D03*
X231881574Y-116291980D03*
X232235128Y-116645534D03*
X232588680Y-116999087D03*
X232942233Y-117352639D03*
X233295788Y-117706194D03*
X233649341Y-118059747D03*
D39*
X235770659Y-118059747D03*
X236124212Y-117706194D03*
X236477767Y-117352639D03*
X236831320Y-116999087D03*
X237184872Y-116645534D03*
X237538426Y-116291980D03*
X237891980Y-115938426D03*
X238245534Y-115584872D03*
X238599087Y-115231320D03*
X238952639Y-114877767D03*
X239306194Y-114524212D03*
X239659747Y-114170659D03*
%TD*%
D29*
%TO.C,D3*%
X258492500Y-68895000D03*
X257627500Y-68895000D03*
%TD*%
D22*
%TO.C,R12*%
X240176500Y-203881000D03*
X238351500Y-203881000D03*
%TD*%
D15*
%TO.C,R6*%
X225095000Y-220230000D03*
X226920000Y-220230000D03*
%TD*%
D34*
%TO.C,C15*%
X226250000Y-113880000D03*
X225030240Y-115099760D03*
%TD*%
D13*
%TO.C,C26*%
X262505000Y-202940000D03*
X260780000Y-202940000D03*
%TD*%
D24*
%TO.C,C7*%
X197720000Y-62805000D03*
X197720000Y-61080000D03*
%TD*%
M02*
